DBRep_DrawableShape

CASCADE Topology V3, (c) Open Cascade
Locations 0
Curve2ds 5
1 -0.08176388597901571 -9.7142147919254036 -1 3.0814879110195774e-33 
1 16.145691984528927 -0.081899873159950065 0.0072492087607024802 0.99997372414096164 
1 0.030006461953544415 -9.7092301701869186 -0.99900703491234599 -0.044552712550895768 
1 0.097179049372210891 -9.7062344745871894 1 -3.0814879110195774e-33 
1 3.2070590885982622 -0.21918063165731877 -0.029388249171120359 -0.9995680721244834 
Curves 8
1 8.4492864956448912 14.57917944128728 20.695749794511187 -0.99912203249730192 -0.0036513619173663922 0.041735257691893506 
1 7.9873599366816208 16.272742653974522 1.3382336954635305 0 -0.087155742747658194 0.99619469809174555 
1 7.9923445584201058 16.282484081665743 1.2268886674492439 -0.044552712550895761 -0.087069200137921215 0.99520551153603432 
1 7.9953402540198351 16.288338558414502 1.1599716920056642 0 0.087155742747658194 -0.99619469809174555 
1 8.4539814615604616 17.98156499845885 -18.193695078119717 -0.99871940755137356 0.0044093786136122706 -0.050399428176073388 
1 8.4539814615604616 16.286313642590738 1.1831165857798889 0 0.087155742747658194 -0.99619469809174555 
1 8.4580947692169133 16.296724325008583 1.0641219412365388 0.034415228752040491 0.087104113477425818 -0.99560457283263648 
1 8.4492864956448912 16.274430797155393 1.3189381306115822 0 -0.087155742747658194 0.99619469809174555 
Polygon3D 0
PolygonOnTriangulations 0
Surfaces 4
1 8.221367584097198 16.280389632124407 1.2508283352523044 -1.190313736780418e-14 -0.99619469809174555 -0.087155742747658069 0 0.087155742747658069 -0.99619469809174555 1 -1.1857842336464261e-14 -1.0374267783183769e-15 
1 17.701574728607024 16.27986884618695 1.2567809457558563 -2.9684141542929322e-16 -0.99619469809174555 -0.08715574274765818 0 0.08715574274765818 -0.99619469809174555 1 -2.9571184422471119e-16 -2.5871434040006213e-17 
1 0.67438052037131158 1.9810142283296419 -0.3872487555877337 0.89022461379842821 -0.45552182932043916 2.5812820862949794e-16 0.45300295140948726 0.88530198008221794 0.10501776076834871 -0.04783788249633468 -0.093489395521978838 0.99447034642728394 
1 7.2786551021019044 13.311590989288071 0.88757396854870474 0.93003839002633448 -0.36746236960704398 0 0.36467779259627803 0.92299069280834023 0.12287509339278697 -0.045151972983800345 -0.11427855403336309 0.9924221437592543 
Triangulations 0

TShapes 18
Ve
2e-07
8.44928649564489 14.5791794412873 20.6957497945112
0 0

0101101
*
Ve
2e-07
7.98735993668162 14.5774912981064 20.7150453593631
0 0

0101101
*
Ed
 2e-07 1 1 0
1  1 0 0 0.462332471848996
0

0101000
+18 0 -17 0 *
Ve
5.00000000179018e-06
7.98735993668162 16.2727426539745 1.33823369546353
0 0

0101101
*
Ed
 2e-07 1 1 0
1  2 0 0 19.4508279365637
2  1 2 0 0 19.4508279365637
0

0101000
+15 0 -17 0 *
Ve
5e-06
7.99534025401984 16.2883385584145 1.15997169200566
0 0

0101101
*
Ed
 2e-07 1 1 0
1  3 0 -0.0672393537494572 0.111881442298718
2  2 3 0 -0.0672393537494572 0.111881442298718
2  3 2 0 -0.0672393537494572 0.111881442298718
0

0101000
+13 0 -15 0 *
Ve
2e-07
7.99534025401984 17.9835899142826 -18.2168399718939
0 0

0101101
*
Ed
 2e-07 1 1 0
1  4 0 0 19.4508279365637
2  4 2 0 0 19.4508279365637
0

0101000
+13 0 -11 0 *
Ve
2e-07
8.45398146156046 17.9815649984589 -18.1936950781197
0 0

0101101
*
Ed
 2e-07 1 1 0
1  5 0 0 0.459229293105566
0

0101000
+9 0 -11 0 *
Ve
5.00000000355965e-06
8.45398146156046 16.2863136425907 1.18311658577989
0 0

0101101
*
Ed
 2e-07 1 1 0
1  6 0 0 19.4508279365637
0

0101000
+7 0 -9 0 *
Ve
5.00000000022205e-06
8.44928649564489 16.2744307971554 1.31893813061158
0 0

0101101
*
Ed
 2e-07 1 1 0
1  7 0 -0.255941160103408 -0.119519985936579
2  5 4 0 -0.255941160103408 -0.119519985936579
0

0101000
+5 0 -7 0 *
Ed
 2e-07 1 1 0
1  8 0 0 19.4508279365637
0

0101000
+5 0 -18 0 *
Wi

0101100
+16 0 -14 0 -12 0 +10 0 -8 0 -6 0 -4 0 +3 0 *
Fa
0  2e-07 1 0

1101000
+2 0 *

+1 0 