DBRep_DrawableShape

CASCADE Topology V3, (c) Open Cascade
Locations 0
Curve2ds 5
1 9.6608612783523355 -0.38212335757082633 -1.712353368575363e-17 -1 
1 1.6470097662943766 0.44684840453481206 0.36726383888121816 -0.93011680591753143 
1 9.6608612783523373 -0.19739220514868203 7.2335641055530645e-16 1 
1 9.6608612783523373 0.39773723308134235 1.712353368575363e-17 1 
1 1.6433524318447303 0.44708339708984485 -0.35248866055336547 0.93581608459210319 
Curves 8
1 3.410101798318069 0.28572248942104195 19.757700738485322 -0.99970977798737271 1.1953651055573464e-16 0.024090657866444088 
1 0.62459097412435149 0.28572248942104228 0.37399707111101071 1.712353368575363e-17 0 1 
1 0.62459097412435127 0.28572248942104234 0.18926591868886641 -7.2335641055530645e-16 8.0511716109172516e-32 -1 
1 0.62459097412435072 0.28572248942104228 -0.40586351954115796 -1.712353368575363e-17 0 -1 
1 3.4101017983180677 0.28572248942104195 -19.88290586401984 -0.99995571959720109 1.1956591809228844e-16 0.0094105709095523623 
1 3.4101017983180681 0.28572248942104195 -0.4320779274560973 -2.2831378247671505e-17 0 -1 
1 3.4101017983180681 0.28572248942104211 0.15274897690750255 1.2015051000738082e-15 1.2403171345141274e-25 1 
1 3.4101017983180686 0.28572248942104195 0.30687280192158223 2.2831378247671505e-17 0 1 
Polygon3D 0
PolygonOnTriangulations 0
Surfaces 4
1 2.0166752271379971 0.28572248942104211 -0.039096567930479283 -1.188958788933734e-16 -1 -1.5220938369758639e-24 -1 1.188958788933734e-16 0 1.8097068450543233e-40 1.5220938369758639e-24 -1 
1 10.285452252476688 0.28572248942104128 -0.0081262864598156074 -1.1134060511429573e-16 -1 1.2403184722771765e-25 -1 1.1134060511429573e-16 0 -1.3809780923777965e-41 -1.2403184722771765e-25 -1 
1 0.67438052037131135 1.9810142283296424 0.37853183737773277 -0.99956900065704235 0.029356650447244708 7.2304464441763287e-16 -0.027305113946428986 -0.92971592618530707 -0.36726383888121816 -0.010781636139948449 -0.36710554840796827 0.93011680591753143 
1 3.4345118132328234 1.9810142283296424 0.31362424027481239 -0.99989635468412064 0.014397218113480369 1.2013805696963946e-15 -0.013473148283976128 -0.9357190916384106 -0.35248866055336547 -0.0050748561285142236 -0.35245212675479859 0.93581608459210319 
Triangulations 0

TShapes 18
Ve
2e-07
3.41010179831807 0.285722489421042 19.7577007384853
0 0

0101101
*
Ve
2e-07
0.624590974124352 0.285722489421042 19.8248250076748
0 0

0101101
*
Ed
 2e-07 1 1 0
1  1 0 0 2.7863194754397
0

0101000
+18 0 -17 0 *
Ve
5.00000000025438e-06
0.624590974124351 0.285722489421042 0.373997071111011
0 0

0101101
*
Ed
 2e-07 1 1 0
1  2 0 0 19.4508279365637
2  1 2 0 0 19.4508279365637
0

0101000
+15 0 -17 0 *
Ve
5e-06
0.624590974124351 0.285722489421042 -0.405863519541158
0 0

0101101
*
Ed
 2e-07 1 1 0
1  3 0 -0.184731152422144 0.595129438230024
2  2 3 0 -0.184731152422144 0.595129438230024
2  3 2 0 -0.184731152422144 0.595129438230024
0

0101000
+15 0 -13 0 *
Ve
2e-07
0.62459097412435 0.285722489421042 -19.8566914561049
0 0

0101101
*
Ed
 2e-07 1 1 0
1  4 0 0 19.4508279365637
2  4 2 0 0 19.4508279365637
0

0101000
+13 0 -11 0 *
Ve
2e-07
3.41010179831807 0.285722489421042 -19.8829058640198
0 0

0101101
*
Ed
 2e-07 1 1 0
1  5 0 0 2.78563417319696
0

0101000
+9 0 -11 0 *
Ve
5e-06
3.41010179831807 0.285722489421042 -0.432077927456097
0 0

0101101
*
Ed
 2e-07 1 1 0
1  6 0 0 19.4508279365637
0

0101000
+7 0 -9 0 *
Ve
5.0000000004996e-06
3.41010179831807 0.285722489421042 0.306872801921582
0 0

0101101
*
Ed
 2e-07 1 1 0
1  7 0 -0.5848269043636 0.15412382501408
2  5 4 0 -0.5848269043636 0.15412382501408
0

0101000
+7 0 -5 0 *
Ed
 2e-07 1 1 0
1  8 0 0 19.4508279365637
0

0101000
+5 0 -18 0 *
Wi

0101100
+16 0 -14 0 +12 0 +10 0 -8 0 -6 0 +4 0 +3 0 *
Fa
0  2e-07 1 0

1101000
+2 0 *

+1 0 