DBRep_DrawableShape

CASCADE Topology V3, (c) Open Cascade
Locations 0
Curve2ds 8
1 0 0 1 0 
1 38.901655873127481 0 0 1 
1 0 1 1 0 
1 0 0 1 0 
1 0 0 0 1 
1 38.901655873127481 0 0 1 
1 0 1 1 0 
1 0 0 0 1 
Curves 7
1 13.98171623793719 -1.9810142283296424 18.272313712065067 -0.034899496702502406 0 -0.99939082701909576 
7 0 0  1 2 2  12.624068027071095 -1.9810142283296424 -20.60564432339207  12.741121186604911 1.9810142283296424 -20.587884253912399 
 0 2 1 2
1 14.098769397470951 1.9810142283296424 18.290073781544738 -0.034899496702500976 0 -0.99939082701909576 
7 0 0  1 2 2  13.98171623793719 -1.9810142283296424 18.272313712065067  14.098769397470951 1.9810142283296424 18.290073781544738 
 0 2 1 2
7 0 0  1 2 2  12.741121186604911 1.9810142283296424 -20.587884253912399  28.148780952693002 31.931673662868604 -18.50399120812574 
 0 2 1 2
1 29.506429163559041 31.931673662868604 20.373966827331397 -0.034899496702500976 0 -0.99939082701909576 
7 0 0  1 2 2  14.098769397470951 1.9810142283296424 18.290073781544738  29.506429163559041 31.931673662868604 20.373966827331397 
 0 2 1 2
Polygon3D 0
PolygonOnTriangulations 0
Surfaces 2
9 0 0 0 0 1 1 2 2 2 2 13.98171623793719 -1.9810142283296424 18.272313712065067  14.098769397470951 1.9810142283296424 18.290073781544738  
12.624068027071095 -1.9810142283296424 -20.60564432339207  12.741121186604911 1.9810142283296424 -20.587884253912399  

0 2
38.901655873127481 2

0 2
1 2

9 0 0 0 0 1 1 2 2 2 2 14.098769397470951 1.9810142283296424 18.290073781544738  29.506429163559041 31.931673662868604 20.373966827331397  
12.741121186604911 1.9810142283296424 -20.587884253912399  28.148780952693002 31.931673662868604 -18.50399120812574  

0 2
38.901655873127481 2

0 2
1 2

Triangulations 0

TShapes 18
Ve
1e-07
13.9817162379372 -1.98101422832964 18.2723137120651
0 0

0101101
*
Ve
1e-07
12.6240680270711 -1.98101422832964 -20.6056443233921
0 0

0101101
*
Ed
 1e-07 1 1 0
1  1 0 0 38.9016558731275
2  1 1 0 0 38.9016558731275
0

0101000
+18 0 -17 0 *
Ve
1e-07
12.7411211866049 1.98101422832964 -20.5878842539124
0 0

0101101
*
Ed
 1e-07 1 1 0
1  2 0 0 1
2  2 1 0 0 1
0

0101000
+17 0 -15 0 *
Ve
1e-07
14.098769397471 1.98101422832964 18.2900737815447
0 0

0101101
*
Ed
 1e-07 1 1 0
1  3 0 0 38.9016558731275
2  3 1 0 0 38.9016558731275
2  4 2 0 0 38.9016558731275
0

0101000
+13 0 -15 0 *
Ed
 1e-07 1 1 0
1  4 0 0 1
2  5 1 0 0 1
0

0101000
+18 0 -13 0 *
Wi

0101100
+16 0 +14 0 -12 0 -11 0 *
Fa
0  1e-07 1 0

0101000
+10 0 *
Ve
1e-07
28.148780952693 31.9316736628686 -18.5039912081257
0 0

0101101
*
Ed
 1e-07 1 1 0
1  5 0 0 1
2  6 2 0 0 1
0

0101000
+15 0 -8 0 *
Ve
1e-07
29.506429163559 31.9316736628686 20.3739668273314
0 0

0101101
*
Ed
 1e-07 1 1 0
1  6 0 0 38.9016558731275
2  7 2 0 0 38.9016558731275
0

0101000
+6 0 -8 0 *
Ed
 1e-07 1 1 0
1  7 0 0 1
2  8 2 0 0 1
0

0101000
+13 0 -6 0 *
Wi

0101100
+12 0 +7 0 -5 0 -4 0 *
Fa
0  1e-07 2 0

0101000
+3 0 *
Sh

1101000
+9 0 +2 0 *

+1 0 