DBRep_DrawableShape

CASCADE Topology V3, (c) Open Cascade
Locations 0
Curve2ds 16
1 0 0 1 0 
1 38.901655873127481 0 0 1 
1 0 1 1 0 
1 0 0 1 0 
1 0 0 0 1 
1 38.901655873127481 0 0 1 
1 0 1 1 0 
1 0 0 1 0 
1 0 0 0 1 
1 38.901655873127481 0 0 1 
1 0 1 1 0 
1 0 0 1 0 
1 0 0 0 1 
1 38.901655873127481 0 0 1 
1 0 1 1 0 
1 0 0 0 1 
Curves 13
1 16.79944393673896 -1.9810142283296424 18.1739164926047 -0.034899496702503398 0 -0.99939082701909565 
7 0 0  1 2 2  15.441795725872828 -1.9810142283296424 -20.704041542852433  15.499571082059063 1.9810142283296424 -20.68421144686609 
 0 2 1 2
1 16.857219292925102 1.9810142283296424 18.193746588591047 -0.034899496702500976 0 -0.99939082701909576 
7 0 0  1 2 2  16.79944393673896 -1.9810142283296424 18.1739164926047  16.857219292925102 1.9810142283296424 18.193746588591047 
 0 2 1 2
7 0 0  1 2 2  15.499571082059063 1.9810142283296424 -20.68421144686609  16.366836910769269 5.1034427712552386 -20.441153423238806 
 0 2 1 2
1 17.724485121635311 5.1034427712552386 18.436804612218332 -0.034899496702500976 0 -0.99939082701909576 
7 0 0  1 2 2  16.857219292925102 1.9810142283296424 18.193746588591047  17.724485121635311 5.1034427712552386 18.436804612218332 
 0 2 1 2
7 0 0  1 2 2  16.366836910769269 5.1034427712552386 -20.441153423238806  19.375968389705548 13.311590989288071 -19.827676966465059 
 0 2 1 2
1 20.733616600571587 13.311590989288071 19.050281068992078 -0.034899496702500976 0 -0.99939082701909576 
7 0 0  1 2 2  17.724485121635311 5.1034427712552386 18.436804612218332  20.733616600571587 13.311590989288071 19.050281068992078 
 0 2 1 2
7 0 0  1 2 2  19.375968389705548 13.311590989288071 -19.827676966465059  22.276587742531412 20.601096901910175 -19.290830959862465 
 0 2 1 2
1 23.634235953398573 20.601096901910175 19.587127075594633 -0.034899496702529814 0 -0.99939082701909476 
7 0 0  1 2 2  20.733616600571587 13.311590989288071 19.050281068992078  23.634235953398573 20.601096901910175 19.587127075594633 
 0 2 1 2
Polygon3D 0
PolygonOnTriangulations 0
Surfaces 4
9 0 0 0 0 1 1 2 2 2 2 16.79944393673896 -1.9810142283296424 18.1739164926047  16.857219292925102 1.9810142283296424 18.193746588591047  
15.441795725872828 -1.9810142283296424 -20.704041542852433  15.499571082059063 1.9810142283296424 -20.68421144686609  

0 2
38.901655873127481 2

0 2
1 2

9 0 0 0 0 1 1 2 2 2 2 16.857219292925102 1.9810142283296424 18.193746588591047  17.724485121635311 5.1034427712552386 18.436804612218332  
15.499571082059063 1.9810142283296424 -20.68421144686609  16.366836910769269 5.1034427712552386 -20.441153423238806  

0 2
38.901655873127481 2

0 2
1 2

9 0 0 0 0 1 1 2 2 2 2 17.724485121635311 5.1034427712552386 18.436804612218332  20.733616600571587 13.311590989288071 19.050281068992078  
16.366836910769269 5.1034427712552386 -20.441153423238806  19.375968389705548 13.311590989288071 -19.827676966465059  

0 2
38.901655873127481 2

0 2
1 2

9 0 0 0 0 1 1 2 2 2 2 20.733616600571587 13.311590989288071 19.050281068992078  23.634235953398573 20.601096901910175 19.587127075594633  
19.375968389705548 13.311590989288071 -19.827676966465059  22.276587742531412 20.601096901910175 -19.290830959862465  

0 2
38.901655873127481 2

0 2
1 2

Triangulations 0

TShapes 32
Ve
1e-07
16.799443936739 -1.98101422832964 18.1739164926047
0 0

0101101
*
Ve
1e-07
15.4417957258728 -1.98101422832964 -20.7040415428524
0 0

0101101
*
Ed
 1e-07 1 1 0
1  1 0 0 38.9016558731275
2  1 1 0 0 38.9016558731275
0

0101000
+32 0 -31 0 *
Ve
1e-07
15.4995710820591 1.98101422832964 -20.6842114468661
0 0

0101101
*
Ed
 1e-07 1 1 0
1  2 0 0 1
2  2 1 0 0 1
0

0101000
+31 0 -29 0 *
Ve
1e-07
16.8572192929251 1.98101422832964 18.193746588591
0 0

0101101
*
Ed
 1e-07 1 1 0
1  3 0 0 38.9016558731275
2  3 1 0 0 38.9016558731275
2  4 2 0 0 38.9016558731275
0

0101000
+27 0 -29 0 *
Ed
 1e-07 1 1 0
1  4 0 0 1
2  5 1 0 0 1
0

0101000
+32 0 -27 0 *
Wi

0101100
+30 0 +28 0 -26 0 -25 0 *
Fa
0  1e-07 1 0

0101000
+24 0 *
Ve
1e-07
16.3668369107693 5.10344277125524 -20.4411534232388
0 0

0101101
*
Ed
 1e-07 1 1 0
1  5 0 0 1
2  6 2 0 0 1
0

0101000
+29 0 -22 0 *
Ve
1e-07
17.7244851216353 5.10344277125524 18.4368046122183
0 0

0101101
*
Ed
 1e-07 1 1 0
1  6 0 0 38.9016558731275
2  7 2 0 0 38.9016558731275
2  8 3 0 0 38.9016558731275
0

0101000
+20 0 -22 0 *
Ed
 1e-07 1 1 0
1  7 0 0 1
2  9 2 0 0 1
0

0101000
+27 0 -20 0 *
Wi

0101100
+26 0 +21 0 -19 0 -18 0 *
Fa
0  1e-07 2 0

0101000
+17 0 *
Ve
1e-07
19.3759683897055 13.3115909892881 -19.8276769664651
0 0

0101101
*
Ed
 1e-07 1 1 0
1  8 0 0 1
2  10 3 0 0 1
0

0101000
+22 0 -15 0 *
Ve
1e-07
20.7336166005716 13.3115909892881 19.0502810689921
0 0

0101101
*
Ed
 1e-07 1 1 0
1  9 0 0 38.9016558731275
2  11 3 0 0 38.9016558731275
2  12 4 0 0 38.9016558731275
0

0101000
+13 0 -15 0 *
Ed
 1e-07 1 1 0
1  10 0 0 1
2  13 3 0 0 1
0

0101000
+20 0 -13 0 *
Wi

0101100
+19 0 +14 0 -12 0 -11 0 *
Fa
0  1e-07 3 0

0101000
+10 0 *
Ve
1e-07
22.2765877425314 20.6010969019102 -19.2908309598625
0 0

0101101
*
Ed
 1e-07 1 1 0
1  11 0 0 1
2  14 4 0 0 1
0

0101000
+15 0 -8 0 *
Ve
1e-07
23.6342359533986 20.6010969019102 19.5871270755946
0 0

0101101
*
Ed
 1e-07 1 1 0
1  12 0 0 38.9016558731275
2  15 4 0 0 38.9016558731275
0

0101000
+6 0 -8 0 *
Ed
 1e-07 1 1 0
1  13 0 0 1
2  16 4 0 0 1
0

0101000
+13 0 -6 0 *
Wi

0101100
+12 0 +7 0 -5 0 -4 0 *
Fa
0  1e-07 4 0

0101000
+3 0 *
Sh

1101000
+23 0 +16 0 +9 0 +2 0 *

+1 0 