DBRep_DrawableShape

CASCADE Topology V3, (c) Open Cascade
Locations 4
1
              1               0               0             100 
              0               1               0               0 
              0               0               1               0 
2  1 -1 0
1
              1               0               0            -100 
              0               1               0               0 
              0               0               1               0 
2  3 -1 0
Curve2ds 80
7 0 0  4 5 2  0.2201587420694095 0  0.21970962237508959 0.049072223915549801  0.21926039685469126 0.098144448720294153  0.21881106237614636 0.14721667438552322  0.21836161578484381 0.19628890089473114 
 0 5 1 5
7 0 0  4 5 2  19.88345869751867 0.50000000001809464  19.885119466794297 0.61712626092872669  19.886774684009598 0.73425252396103835  19.888424383845152 0.85137878917510212  19.890068600684927 0.96850505619958638 
 0 5 1 5
1 0 0.19628890089473114 1 0 
1 0 0.19628890089473114 1 0 
7 0 0  4 5 2  0.41844166978592962 0  0.41725980512652383 0.049072008057081506  0.41608637566065831 0.098144180769394795  0.41492036922965858 0.14721647969173995  0.41376151341722334 0.19628890089473114 
 0 5 1 5
7 0 0  4 5 2  19.854852221850177 0.50000000000096079  19.860417048330284 0.61712574572359413  19.86589222999034 0.73425188444565126  19.87129652775457 0.85137832441819861  19.876630763839096 0.96850505623679917 
 0 5 1 5
1 0 0 1 0 
7 0 0  3 39 37  0 0  0.025342996336814139 0.0021807540314184859  0.15037799036263522 0.012407152974438063  0.38517056188259602 0.036394309848600814  0.65830658036690792 0.072272585524557065  0.99535669398530402 0.1276919389136546  1.3880121244173864 0.20507897549862453  1.8254871426882993 0.29231290520886966  2.2961693379314099 0.37939145304374167  2.7875953841212429 0.45184683598299102  3.2862608115437251 0.50094030455410365  3.7781890327089762 0.52583121586404857  4.2498935808530369 0.52860126931654272  4.6885556169301914 0.51029835631355924  5.0826051708286322 0.47271521876548617  5.4214598314013713 0.41679793954764843  5.6983834636256709 0.34620965808904525  5.9017666455481503 0.2404533040102792  6.0429571174442316 0.13739031850964256  6.0912384638294537 0.00010752321774210039  6.0440065969393846 -0.15786829098849819  5.9065371126241253 -0.2657442209431326  5.696557074731329 -0.34054330453883891  5.4200619326282009 -0.38167551368507213  5.0814462405683507 -0.40392231743643991  4.687867629083188 -0.40855747369343071  4.2495871917977777 -0.3966632158226423  3.7783339513927245 -0.37567647148478966  3.2868826647988687 -0.34800956301049168  2.7886078840769599 -0.31600701945720022  2.2970952021890341 -0.28064005514181123  1.82573907140765 -0.24202125352091008  1.3875264706060015 -0.19898951318239733  0.9943189303003237 -0.15273440270846284  0.65743491891620565 -0.10664219587940027  0.38473102993619435 -0.064633845982792759  0.15009352406980625 -0.025819684736644311  0.024902276861062944 -0.0086100775452452316  0 0 
 0 4 0.027802170644521226 1 0.048716898504577055 1 0.073335739460436408 1 0.10086569028022668 1 0.1306720518051786 1 0.16217417622903404 1 0.19481388357548846 1 0.22807441102547932 1 0.26148384673944097 1 0.29460475266944997 1 0.32700951388024907 1 0.35826172124127287 1 0.38791061800727045 1 0.41550520767628213 1 0.44065725169071829 1 0.46290905811233835 1 0.4824331221564615 1 0.50053165238733233 1 0.51867591264437729 1 0.53845629891641922 1 0.5604806219212316 1 0.58530589407718547 1 0.61272088645832934 1 0.64228922122032739 1 0.67351951065456328 1 0.7059272930902466 1 0.73903907817009984 1 0.77239035764311803 1 0.80552166805238146 1 0.83797313990671007 1 0.86927500575916905 1 0.89893242097380677 1 0.92640089580882545 1 0.95104014700441042 1 0.97201725496010261 1 1 4
1 0 1 1 0 
1 0 0 1 0 
1 0 0 1 0 
1 -3.4899496702500974 -99.93908270190957 1 0 
7 0 0  4 5 2  0.21836161578484362 0.19628890089473114  0.2188063176475282 0.19847405012249841  0.21925403980483221 0.20065909219050951  0.21970483096199639 0.20284402499762694  0.22015874206940955 0.20502884633237534 
 0 5 1 5
7 0 0  4 5 2  19.890068600685488 0.96850505623958638  19.886859270752382 0.97637937908606764  19.883642399403353 0.98425331577561959  19.88041786652208 0.99212685873666029  19.877185547070908 1 
 0 5 1 5
7 0 0  1 2 2  2.6697320375025546 0.52860126931654272  2.6697320375025519 -0.40855747369343071 
 0 2 1 2
7 0 0  1 2 2  19.979429205880283 0.5  19.042270462870313 0.5 
 0 2 1 2
7 0 0  4 5 2  0.78210286209044555 0.19628890089473114  0.78165492675035098 0.14721667679628325  0.78120708091996871 0.098144451943207825  0.78075932148114691 0.049072226342474948  0.78031164533351027 0 
 0 5 1 5
7 0 0  4 5 2  19.155773278486627 0.96850505623862571  19.152745215828862 0.85137879486547807  19.149718159235597 0.73425253169313298  19.146692100994439 0.61712626672561921  19.143667033501149 0.50000000000278721 
 0 5 1 5
7 0 0  4 5 2  0.78031164533351016 0.20502884633237534  0.78076413646910536 0.20284383668396247  0.78121346817323667 0.20065884260973874  0.78165969324545881 0.19847386404144268  0.78210286209044555 0.19628890089473114 
 0 5 1 5
7 0 0  4 5 2  19.148120869729112 1  19.150030669294694 0.99212618011461551  19.151942685335701 0.98425241645845518  19.15385689565699 0.97637870845710339  19.155773278476918 0.9685050562795865 
 0 5 1 5
7 0 0  6 7 2  0.2201587420694093 0.20502884633237534  0.21852263822701204 0.24147559104037203  0.21670921205577956 0.27792302332492197  0.21468291323620703 0.31437135431850571  0.21239273574600329 0.35082090143526751  0.20977149265183212 0.38727206987351614  0.20669043440892876 0.42372583447048151 
 0 7 1 7
7 0 0  6 7 2  19.877185547070908 0  19.847806771218984 0.16665407703274235  19.818490032519136 0.33331129803452175  19.7892531541846 0.49997262841622536  19.760124999054636 0.66663951956590162  19.73114383400544 0.83331382426746092  19.702399675457848 1 
 0 7 1 7
7 0 0  6 7 2  0.20669043440892881 0.42372583447048151  0.20377320327307016 0.43808033040559363  0.20068117431922686 0.45243491832009958  0.19739413881572171 0.46678983740795288  0.19388744194259416 0.48114514249670537  0.19013069243359682 0.49550116257042931  0.18608297717147587 0.50985846732038675 
 0 7 1 7
7 0 0  6 7 2  19.702399675457848 0  19.688697901795596 0.024968500594126183  19.675014544053742 0.049937161140494846  19.66136930881704 0.074906397842577466  19.647769251092239 0.099876305788805964  19.634243740826225 0.12484745757764178  19.620842078136459 0.14982084383151431 
 0 7 1 7
1 0 0.50985846732038675 1 0 
1 0 0.50985846732038675 1 0 
7 0 0  8 16 3  0.41844166978592956 0.20502884633237534  0.4172439777404246 0.22609235346788079  0.41598274516498646 0.24715461218467191  0.41465224906417247 0.26821547258574929  0.41324353415573861 0.28927522131052152  0.41175062196349904 0.310333252367401  0.4101619113549429 0.33138982169229642  0.4084665445288157 0.35244456557182668  0.40517769608243631 0.39054774229094241  0.40362628117289395 0.4075968205909461  0.40198707406631068 0.42464453480320885  0.40025107089781325 0.44169078072621681  0.39840769321016933 0.45873543971103115  0.39644413722250765 0.47577837749389945  0.39434472309903845 0.49281944302886682  0.39209024421777355 0.50985846732038675 
 0 9 0.55252150444604509 7 1 9
7 0 0  8 16 3  19.848993865591659 0  19.837878168644789 0.010040931436927027  19.826623157418027 0.020081267755177969  19.815212697913481 0.030120937499120357  19.803680076844472 0.040160077309230394  19.791959356832393 0.050198398310508374  19.780081006517655 0.060236022507081821  19.768007104957601 0.070272776517538965  19.745787167339103 0.088436484130742843  19.735709764145895 0.096563745429957784  19.72548937957464 0.10469035646684909  19.715116531632344 0.11281626756932153  19.704580787523536 0.12094142218334256  19.693870669313309 0.12906575630979047  19.682973559590359 0.13718919794130255  19.67187560713003 0.14531166649912294 
 0 9 0.55252150444604509 7 1 9
7 0 0  4 5 2  0.41376151341722323 0.19628890089473114  0.41490944961200493 0.19847656128898014  0.41607167369427078 0.20066255495712929  0.41724872720114764 0.20284683281701649  0.41844166978592962 0.20502884633237534 
 0 5 1 5
7 0 0  4 5 2  19.876630763839223 0.96850505623958638  19.869811247910377 0.97638842823261895  19.862935342802146 0.9842657940731927  19.856001972990835 0.99213697689064595  19.848993865591659 1 
 0 5 1 5
1 0 1 1 0 
1 0 0 1 0 
1 0 0 1 0 
1 3.4899496702500974 -99.93908270190957 1 0 
7 0 0  1 2 2  5.4595202982614044 0.52860126931654272  5.4595202982614044 -0.40855747369343071 
 0 2 1 2
7 0 0  1 2 2  19.97942920588028 0.5  19.042270462870309 0.5 
 0 2 1 2
7 0 0  4 5 2  0.5869828495836914 0.19628890089473114  0.585831921609833 0.14721666529060148  0.58467400026808769 0.098144434456788207  0.58350875383147682 0.049072210841520629  0.58233544421783834 0 
 0 5 1 5
7 0 0  4 5 2  19.08207506904488 0.96850505622149186  19.080905618841324 0.85137876743740837  19.079800565331453 0.73425248992312486  19.078762361157068 0.61712622974365372  19.077804427945679 0.5 
 0 5 1 5
7 0 0  4 5 2  0.58233544421783834 0.20502884633237534  0.58352127355461469 0.20284402053097891  0.58469044966328954 0.20065905755229449  0.5858440929172245 0.19847401039870935  0.5869828495836914 0.19628890089473114 
 0 5 1 5
7 0 0  4 5 2  19.083213272626192 1  19.08282528628893 0.99212684261971806  19.082513821333954 0.98425319101232334  19.082264684791756 0.97637923587097231  19.082075069046027 0.96850505627958638 
 0 5 1 5
1 0 0 1 0 
7 0 0  3 39 37  0 0  0.025342996336814139 0.0021807540314184859  0.15037799036263522 0.012407152974438063  0.38517056188259602 0.036394309848600814  0.65830658036690792 0.072272585524557065  0.99535669398530402 0.1276919389136546  1.3880121244173864 0.20507897549862453  1.8254871426882993 0.29231290520886966  2.2961693379314099 0.37939145304374167  2.7875953841212429 0.45184683598299102  3.2862608115437251 0.50094030455410365  3.7781890327089762 0.52583121586404857  4.2498935808530369 0.52860126931654272  4.6885556169301914 0.51029835631355924  5.0826051708286322 0.47271521876548617  5.4214598314013713 0.41679793954764843  5.6983834636256709 0.34620965808904525  5.9017666455481503 0.2404533040102792  6.0429571174442316 0.13739031850964256  6.0912384638294537 0.00010752321774210039  6.0440065969393846 -0.15786829098849819  5.9065371126241253 -0.2657442209431326  5.696557074731329 -0.34054330453883891  5.4200619326282009 -0.38167551368507213  5.0814462405683507 -0.40392231743643991  4.687867629083188 -0.40855747369343071  4.2495871917977777 -0.3966632158226423  3.7783339513927245 -0.37567647148478966  3.2868826647988687 -0.34800956301049168  2.7886078840769599 -0.31600701945720022  2.2970952021890341 -0.28064005514181123  1.82573907140765 -0.24202125352091008  1.3875264706060015 -0.19898951318239733  0.9943189303003237 -0.15273440270846284  0.65743491891620565 -0.10664219587940027  0.38473102993619435 -0.064633845982792759  0.15009352406980625 -0.025819684736644311  0.024902276861062944 -0.0086100775452452316  0 0 
 0 4 0.027802170644521226 1 0.048716898504577055 1 0.073335739460436408 1 0.10086569028022668 1 0.1306720518051786 1 0.16217417622903404 1 0.19481388357548846 1 0.22807441102547932 1 0.26148384673944097 1 0.29460475266944997 1 0.32700951388024907 1 0.35826172124127287 1 0.38791061800727045 1 0.41550520767628213 1 0.44065725169071829 1 0.46290905811233835 1 0.4824331221564615 1 0.50053165238733233 1 0.51867591264437729 1 0.53845629891641922 1 0.5604806219212316 1 0.58530589407718547 1 0.61272088645832934 1 0.64228922122032739 1 0.67351951065456328 1 0.7059272930902466 1 0.73903907817009984 1 0.77239035764311803 1 0.80552166805238146 1 0.83797313990671007 1 0.86927500575916905 1 0.89893242097380677 1 0.92640089580882545 1 0.95104014700441042 1 0.97201725496010261 1 1 4
7 0 0  6 7 2  0.79372917737906501 0.42372583447048151  0.79066184402026862 0.38727674684618862  0.78805103586360903 0.350827404220455  0.78576935431334183 0.31437790221531225  0.78375008527932921 0.27792829219515369  0.78194262520512736 0.24147860414793862  0.78031164533351005 0.20502884633237534 
 0 7 1 7
7 0 0  6 7 2  19.268489451346159 1  19.248696987283648 0.83333520989655563  19.228754097397623 0.66666925378967634  19.208705512415193 0.50000256891458605  19.188573409327603 0.33333539013689029  19.168374694779803 0.16666785457761046  19.148120869729112 0 
 0 7 1 7
1 0 1 1 0 
1 0 0 1 0 
1 0 0 1 0 
1 -3.4899496702500974 -99.93908270190957 1 0 
1 0 0.19628890089473114 1 0 
1 0 0.19628890089473114 1 0 
7 0 0  7 14 3  0.60852664272856083 0.50985846732038675  0.60590512706375343 0.48995272780072796  0.60350009032654672 0.47004688198155964  0.60127836357782727 0.45014096569250489  0.59921458712115239 0.43023500700222611  0.59728926138415583 0.41032902713175817  0.59548679779995495 0.39042304136784312  0.59178266884903108 0.34687578990623957  0.58992602322526422 0.32323452965053356  0.58820175755584625 0.29959329330506135  0.58659263963655639 0.27595210263822567  0.58508590616637879 0.25231095610663157  0.58366998427697314 0.22866986873346537  0.58233544421783845 0.20502884633237534 
 0 8 0.45711224069731315 6 1 8
7 0 0  7 14 3  19.259810385695143 0.14531166649756042  19.247415296919193 0.13582264056815629  19.235173292510861 0.12633356393770792  19.223079810042215 0.1168444537231474  19.211128909088398 0.10735532330590693  19.199313899952084 0.097866182788513764  19.187627972387986 0.088377039451185316  19.162331638188391 0.067618152371338419  19.148773116660966 0.056348411212652959  19.135371789996157 0.04507868145209256  19.122131430327197 0.033808973466201209  19.109023215603042 0.022539286519722104  19.096050999842049 0.011269627773807587  19.083213272626192 0 
 0 8 0.45711224069731315 6 1 8
1 0 0.50985846732038675 1 0 
1 0 0.50985846732038675 1 0 
7 0 0  4 5 2  0.81422992728047283 0.50985846732038675  0.80819615480653162 0.48832630913164982  0.80287822021067023 0.46679327681701099  0.79808615746139033 0.44525974548988567  0.79372917737906523 0.42372583447048151 
 0 5 1 5
7 0 0  4 5 2  19.321444332860377 0.14982084383212624  19.308423708798742 0.11236737236294915  19.295234005992214 0.074912380354681063  19.281912138115867 0.037456520414740527  19.268489451346159 0 
 0 5 1 5
7 0 0  4 11 4  0.79152449759369248 0.83183473005976294  0.79416028157291096 0.80909482588894033  0.79647650953106408 0.78635491025528359  0.79855706341978328 0.76361499869240657  0.80313855228978825 0.70838125186854173  0.80544076083456073 0.6758874248485921  0.80747186732106391 0.64339362025076186  0.81069327988538042 0.58563947525119131  0.81197128837715138 0.56037912632873033  0.81314497350710802 0.53511879068827428  0.81422992728047261 0.50985846732038675 
 0 5 0.28250380748680093 3 0.68618332480445976 3 1 5
7 0 0  4 11 4  19.368066762874879 1  19.36470883565628 0.93995522410700982  19.361370016850554 0.87991041794633429  19.358045906232427 0.81986562253463302  19.350001781401289 0.67402077090920787  19.345294497650382 0.58822073645601869  19.340605031696427 0.50242076120849799  19.332296951126136 0.34992079166858137  19.328672229397995 0.28322077487720643  19.325055021056407 0.2165207931569979  19.321444332863997 0.14982084384253966 
 0 5 0.28250380748680093 3 0.68618332480445976 3 1 5
1 0 1 1 0 
1 0 0 1 0 
1 0 0 1 0 
1 -3.4899496702500974 -99.93908270190957 1 0 
7 0 0  4 11 4  0.18608297717147573 0.50985846732038675  0.18757691130556731 0.54443568113868268  0.18923853051761655 0.57901275518423112  0.19110586699558477 0.61358965339125959  0.19501594172917763 0.67630519785067089  0.19696304156791444 0.70444393105001457  0.19914601791377234 0.73258243804772416  0.20324351200170734 0.7784993761760548  0.20496175879603673 0.79627800491903533  0.20683516739593569 0.81405647333421483  0.20890449093822963 0.83183473005976294 
 0 5 0.42955125519222054 3 0.77912567755211293 3 1 5
7 0 0  4 11 4  19.62084207813054 0.14982084384255925  19.615083456919759 0.24112206653577495  19.60929405453847 0.33242292015881025  19.603466134876008 0.42372330947967074  19.592791883332385 0.58932386715065799  19.587964187540081 0.66362426508441485  19.583088726935799 0.73792406573215785  19.575023115768293 0.85916785985271482  19.571873122760682 0.90611237512147258  19.568691094546736 0.95305646704423885  19.565468159249367 1 
 0 5 0.42955125519222054 3 0.77912567755211293 3 1 5
7 0 0  5 6 2  0.20890449093822944 0.83183473005976294  0.20869248355989975 0.86546776376539003  0.20844496922197236 0.89910080399198566  0.20814668395630301 0.9327338538906258  0.20778371828118411 0.96636691564380761  0.20729453708012419 1.0000000000000004 
 0 6 1 6
7 0 0  5 6 2  19.565468159249367 0  19.55681708558939 0.099999939686583439  19.548167640363463 0.19999989880509766  19.53952054508764 0.29999988658180177  19.530876434251855 0.39999990973611804  19.522238263111415 0.49999999998876721 
 0 6 1 6
1 0 1.0000000000000004 1 0 
7 0 0  3 39 37  0 0  0.0062394456981103019 0.00038415932706969969  0.037023061227198895 0.0021856309647214633  0.094828992335280304 0.0064111831867188496  0.16207508008596605 0.012731462338570698  0.24505681805862878 0.022494077102940602  0.34172858503078274 0.036126495738916353  0.44943493452884198 0.051493532668488107  0.56531689099742977 0.066833197690993607  0.68630598356908834 0.079596861429083066  0.80907741180022796 0.088245115004715213  0.93019013985083276 0.092629871653660323  1.0463237996036412 0.093117841344384611  1.1543223928855895 0.089893619519575974  1.2513373930551595 0.083273013700845055  1.3347634104879802 0.073422684848346242  1.4029420087414515 0.060987927735232206  1.4530149481306474 0.042358000090526038  1.4877760423113884 0.024202533410063176  1.4996629097914003 1.8941176481712674e-05  1.488034424163093 -0.027809911415049959  1.4541894371247501 -0.04681322130755472  1.4024923517956616 -0.059989748878091831  1.334419247810029 -0.067235555401362501  1.2510520644250853 -0.071154528855243759  1.1541530102776569 -0.071971053086263836  1.046248366618233 -0.069875773181330425  0.93022581883077748 -0.066178770462978709  0.8092305120716432 -0.061304997085305568  0.6865552610581851 -0.055667462811002433  0.56554483877765804 -0.049437255728429608  0.44949695937954459 -0.042634208420399222  0.34160901706241731 -0.035053782488401075  0.24480132063938242 -0.026905531077563771  0.16186047703680373 -0.018785976600764087  0.094720779570078406 -0.011385830048203816  0.036953025625905411 -0.0045483683949102405  0.0061309405631817526 -0.0015167421672247494  0 0 
 0 4 0.027802170644521226 1 0.048716898504577055 1 0.073335739460436408 1 0.10086569028022668 1 0.1306720518051786 1 0.16217417622903404 1 0.19481388357548846 1 0.22807441102547932 1 0.26148384673944097 1 0.29460475266944997 1 0.32700951388024907 1 0.35826172124127287 1 0.38791061800727045 1 0.41550520767628213 1 0.44065725169071829 1 0.46290905811233835 1 0.4824331221564615 1 0.50053165238733233 1 0.51867591264437729 1 0.53845629891641922 1 0.5604806219212316 1 0.58530589407718547 1 0.61272088645832934 1 0.64228922122032739 1 0.67351951065456328 1 0.7059272930902466 1 0.73903907817009984 1 0.77239035764311803 1 0.80552166805238146 1 0.83797313990671007 1 0.86927500575916905 1 0.89893242097380677 1 0.92640089580882545 1 0.95104014700441042 1 0.97201725496010261 1 1 4
7 0 0  5 22 6  0.39209024421777322 0.50985846732038675  0.39000444047209754 0.53916791106556028  0.38774591738676079 0.56847696991146845  0.38528847188623672 0.59778559470120962  0.38258973313013206 0.62709371351314402  0.37683256877435856 0.68336022327089174  0.37381945938644151 0.7103187039261718  0.37050179790055016 0.73727659873242701  0.36681515241284557 0.76423380220731674  0.35991960619050944 0.80878903828303927  0.35698797315841535 0.82638755842615441  0.35381811108878125 0.84398567174606354  0.35036377310853817 0.8615833065121814  0.3427953082651915 0.89661903489627393  0.33868645564483685 0.91405713539778377  0.33417000342905878 0.93149456721816659  0.32916050651433859 0.94893118356124528  0.32132355239363031 0.9730937424100764  0.31904547700581914 0.97982058854364684  0.31666256111078045 0.98654726047952701  0.31416401614610157 0.99327373889635628  0.31153688460622214 1.0000000000000004 
 0 6 0.29893769454868308 4 0.5739203395550585 4 0.75344716237053178 4 0.93135816809436622 4 1 6
7 0 0  5 22 6  19.671875607122715 0.14531166650503813  19.665293257491658 0.16652129079466371  19.658618086630611 0.18773063655659378  19.651838928848807 0.20893966821539331  19.6449405752223 0.23014833372485355  19.631430802782024 0.27086529657566272  19.624840486524057 0.29037365883363603  19.61811715280226 0.30988159714507896  19.611241274120047 0.32938903517820273  19.599578457277232 0.36163119663268939  19.594894985569059 0.37436627286144331  19.590127505848034 0.38710105469472861  19.58526465306549 0.3998354902250858  19.575362080604869 0.42518891017591137  19.570324614926694 0.43780789957755767  19.565163390536803 0.45042640509173448  19.5598601195206 0.46304432048996552  19.55227492059052 0.48052942868871928  19.550137750838566 0.48539727539100114  19.547973529389626 0.49026499603973422  19.545780305150224 0.49513257665164173  19.543555837679836 0.49999999999788985 
 0 6 0.29893769454868308 4 0.5739203395550585 4 0.75344716237053178 4 0.93135816809436622 4 1 6
7 0 0  6 27 6  0.68899001173424035 1.0000000000000004  0.68395930883098466 0.98712662808238716  0.67938184040341532 0.97425302150305138  0.67517733186321094 0.96137927050184258  0.67129202519628817 0.94850539875469031  0.66768228126399487 0.93563146674123998  0.66094924937022737 0.90989293953837647  0.65782475275466723 0.89702834843394363  0.6549089308707835 0.88416374453604984  0.65217530045232552 0.87129914592009727  0.64960289874341071 0.85843456425447595  0.64429035876621565 0.83027094444132254  0.64160912720988306 0.81497191868297214  0.63910562378579916 0.79967293731623734  0.63675747076649247 0.78437400620433406  0.63454687774074892 0.76907512728297078  0.62905163465345071 0.72877874219634808  0.62597294093329936 0.70378132492485035  0.62316317588243719 0.67878404623398836  0.6205796747384914 0.65378690222772684  0.61819162735535571 0.62878988625859578  0.61458383837286235 0.58813712379009919  0.6132610253960441 0.57248130511556838  0.61199877671289304 0.55682553155614267  0.61079184162102995 0.54116980150171834  0.60963571608345724 0.52551411371277745  0.60852664272856094 0.50985846732038675 
 0 7 0.15759158059348077 5 0.31506785258471676 5 0.50234507328441491 5 0.8083471265293054 5 1 7
7 0 0  6 27 6  19.382737032960506 0.49999999999601863  19.379092440160186 0.490684252360165  19.375474077896047 0.48136833486688146  19.371887469770169 0.47205231292953564  19.368319825593623 0.46273620355242973  19.364782084111301 0.45342005060220747  19.357768464896065 0.43479450121966967  19.35429272727162 0.42548510775736176  19.350847798435144 0.4161757050371318  19.347434015073393 0.40686630613914693  19.344051075492832 0.39755691950717886  19.336710355939214 0.37717646465749533  19.332765629292599 0.36610540540513736  19.328862075355929 0.35503437827653811  19.32499755435391 0.34396338751458361  19.321169571059784 0.3328924345200388  19.311175809553912 0.30373216810854864  19.305067396425965 0.28564291901909478  19.299040452615767 0.26755377021280208  19.293086905653386 0.24946471887030874  19.287199919379084 0.23137576018119299  19.277724547016152 0.2019576031580248  19.274099269145239 0.19062835259478064  19.27049630018244 0.17929913467884404  19.266914420680994 0.16796994824507186  19.263352677879908 0.15664079239649345  19.259810385703958 0.14531166650431074 
 0 7 0.15759158059348077 5 0.31506785258471676 5 0.50234507328441491 5 0.8083471265293054 5 1 7
7 0 0  1 2 2  0.99186305582936629 0.093117841344384611  0.99186305582936984 -0.071971053086263836 
 0 2 1 2
7 0 0  1 2 2  19.543945777908124 0.5  19.378856883477475 0.5 
 0 2 1 2
7 0 0  3 39 37  0 0  0.0062394456981103019 0.00038415932706969969  0.037023061227198895 0.0021856309647214633  0.094828992335280304 0.0064111831867188496  0.16207508008596605 0.012731462338570698  0.24505681805862878 0.022494077102940602  0.34172858503078274 0.036126495738916353  0.44943493452884198 0.051493532668488107  0.56531689099742977 0.066833197690993607  0.68630598356908834 0.079596861429083066  0.80907741180022796 0.088245115004715213  0.93019013985083276 0.092629871653660323  1.0463237996036412 0.093117841344384611  1.1543223928855895 0.089893619519575974  1.2513373930551595 0.083273013700845055  1.3347634104879802 0.073422684848346242  1.4029420087414515 0.060987927735232206  1.4530149481306474 0.042358000090526038  1.4877760423113884 0.024202533410063176  1.4996629097914003 1.8941176481712674e-05  1.488034424163093 -0.027809911415049959  1.4541894371247501 -0.04681322130755472  1.4024923517956616 -0.059989748878091831  1.334419247810029 -0.067235555401362501  1.2510520644250853 -0.071154528855243759  1.1541530102776569 -0.071971053086263836  1.046248366618233 -0.069875773181330425  0.93022581883077748 -0.066178770462978709  0.8092305120716432 -0.061304997085305568  0.6865552610581851 -0.055667462811002433  0.56554483877765804 -0.049437255728429608  0.44949695937954459 -0.042634208420399222  0.34160901706241731 -0.035053782488401075  0.24480132063938242 -0.026905531077563771  0.16186047703680373 -0.018785976600764087  0.094720779570078406 -0.011385830048203816  0.036953025625905411 -0.0045483683949102405  0.0061309405631817526 -0.0015167421672247494  0 0 
 0 4 0.027802170644521226 1 0.048716898504577055 1 0.073335739460436408 1 0.10086569028022668 1 0.1306720518051786 1 0.16217417622903404 1 0.19481388357548846 1 0.22807441102547932 1 0.26148384673944097 1 0.29460475266944997 1 0.32700951388024907 1 0.35826172124127287 1 0.38791061800727045 1 0.41550520767628213 1 0.44065725169071829 1 0.46290905811233835 1 0.4824331221564615 1 0.50053165238733233 1 0.51867591264437729 1 0.53845629891641922 1 0.5604806219212316 1 0.58530589407718547 1 0.61272088645832934 1 0.64228922122032739 1 0.67351951065456328 1 0.7059272930902466 1 0.73903907817009984 1 0.77239035764311803 1 0.80552166805238146 1 0.83797313990671007 1 0.86927500575916905 1 0.89893242097380677 1 0.92640089580882545 1 0.95104014700441042 1 0.97201725496010261 1 1 4
1 0 1.0000000000000004 1 0 
7 0 0  5 6 2  0.79312767344188329 1.0000000000000004  0.79264058497664658 0.96636696082537177  0.79227914707511637 0.93273390993555838  0.79198211150030751 0.89910085359012015  0.79173562664460462 0.86546779329239854  0.79152449759369259 0.83183473005976294 
 0 6 1 6
7 0 0  5 6 2  19.399127257437161 0.49999999997415601  19.3929193183507 0.40000004411011614  19.386708231577984 0.30000005316920336  19.380495541426537 0.20000004630799459  19.374281591475434 0.10000002746732084  19.368066762874879 0 
 0 6 1 6
7 0 0  1 2 2  0.61030362366287827 0.092727901115130462  0.61030362366287605 -0.06809090360167519 
 0 2 1 2
7 0 0  1 2 2  19.54355583767887 0.49999999999999983  19.382737032962066 0.49999999999999983 
 0 2 1 2
Curves 36
7 0 0  4 5 2  16.134408913583648 0 -1.6875146911150871  16.141117965016203 0.46405757885698529 -1.6868518236984136  16.147827210335496 0.92811516612272138 -1.6861834075614923  16.154536648327269 1.3921727615257793 -1.6855094773633448  16.161246277789139 1.8562303649099998 -1.6848300674724273 
 0 5 1 5
7 0 0  3 21 19  18.817613218278041 1.85623036491 -1.3483197815700778  18.792209552991721 1.85623036491 -1.3496147493279744  18.666893830729737 1.85623036491 -1.3554712602633645  18.431407148798232 1.85623036491 -1.3712496622341384  18.157185383632847 1.85623036491 -1.3975737722575237  17.81840648429602 1.85623036491 -1.4411964863451145  17.42328948031485 1.85623036491 -1.5048329039387411  16.983036539762622 1.85623036491 -1.5767460351384166  16.509602073902421 1.85623036491 -1.6473449653539183  16.015946734784073 1.85623036491 -1.7026056887530348  15.515871743521975 1.85623036491 -1.7342660784695727  15.023374511460419 1.85623036491 -1.7419737795764538  14.551860639510727 1.85623036491 -1.7282798942647206  14.114104586945693 1.85623036491 -1.6946790466202235  13.721606709973553 1.85623036491 -1.6433666725971816  13.384909955406163 1.85623036491 -1.5756575995657236  13.110618513072389 1.85623036491 -1.4954478231912969  12.911050070219547 1.85623036491 -1.3826579223391471  12.774418202285592 1.85623036491 -1.2754176053424635  12.744822221588937 1.85623036491 -1.1829299954877033  12.745594582200001 1.85623036491 -1.13628021843 
 0 4 0.027802170644521226 1 0.048716898504577055 1 0.073335739460436408 1 0.10086569028022668 1 0.1306720518051786 1 0.16217417622903404 1 0.19481388357548846 1 0.22807441102547932 1 0.26148384673944097 1 0.29460475266944997 1 0.32700951388024907 1 0.35826172124127287 1 0.38791061800727045 1 0.41550520767628213 1 0.44065725169071829 1 0.46290905811233835 1 0.4824331221564615 1 0.50015032878335974 4
7 0 0  4 5 2  13.347318468058953 0 -1.561563435531832  13.360834197015263 0.46405553756457452 -1.5650447106881462  13.374353100532726 0.92811263221177298 -1.5684363886539567  13.38787451312357 1.3921709203798396 -1.571757220553978  13.401398404995017 1.8562303649099998 -1.5750080282711907 
 0 5 1 5
7 0 0  3 21 19  18.817613218278041 0 -1.3483197815700778  18.792209552991721 0 -1.3496147493279744  18.666893830729737 0 -1.3554712602633645  18.431407148798232 0 -1.3712496622341384  18.157185383632847 0 -1.3975737722575237  17.81840648429602 0 -1.4411964863451145  17.42328948031485 0 -1.5048329039387411  16.983036539762622 0 -1.5767460351384166  16.509602073902421 0 -1.6473449653539183  16.015946734784073 0 -1.7026056887530348  15.515871743521975 0 -1.7342660784695727  15.023374511460419 0 -1.7419737795764538  14.551860639510727 0 -1.7282798942647206  14.114104586945693 0 -1.6946790466202235  13.721606709973553 0 -1.6433666725971816  13.384909955406163 0 -1.5756575995657236  13.110618513072389 0 -1.4954478231912969  12.911050070219547 0 -1.3826579223391471  12.774418202285592 0 -1.2754176053424635  12.744822221588937 0 -1.1829299954877033  12.745594582200001 0 -1.13628021843 
 0 4 0.027802170644521226 1 0.048716898504577055 1 0.073335739460436408 1 0.10086569028022668 1 0.1306720518051786 1 0.16217417622903404 1 0.19481388357548846 1 0.22807441102547932 1 0.26148384673944097 1 0.29460475266944997 1 0.32700951388024907 1 0.35826172124127287 1 0.38791061800727045 1 0.41550520767628213 1 0.44065725169071829 1 0.46290905811233835 1 0.4824331221564615 1 0.50015032878335974 4
1 16.857219292925102 1.9810142283296424 18.193746588591047 -0.034899496702500976 0 -0.99939082701909576 
7 0 0  4 5 2  16.161246277789139 1.85623036491 -1.684830067472427  16.161813223595729 1.8874286561046807 -1.6814665439985306  16.162380410283607 1.9186254173346189 -1.6780954913602655  16.162947841607277 1.9498206186009923 -1.6747167896646282  16.163515521470099 1.9810142283296424 -1.6713303141081681 
 0 5 1 5
7 0 0  1 2 2  16.131059591143536 0 -1.7834267368362995  16.163765959604937 0 -0.84683888561138609 
 0 2 1 2
7 0 0  4 5 2  16.186872814964879 1.8562303649099998 -0.95098205814387893  16.180211481357968 1.3921727843234244 -0.95027846510561054  16.173550112535853 0.9281151966006167 -0.949575877554654  16.166888708768649 0.46405760180749794 -0.94887428778327632  16.160227270322558 0 -0.94817368819097114 
 0 5 1 5
7 0 0  4 5 2  16.1889595117729 1.9810142283296424 -0.9427097632691398  16.188437947982283 1.9498179299678937 -0.94477453803477196  16.187916310079387 1.9186218539653697 -0.94684152683863854  16.187394598827389 1.8874259993474725 -0.94891070742411476  16.186872814964879 1.85623036491 -0.95098205814387882 
 0 5 1 5
7 0 0  6 7 2  16.163515521470103 1.9810142283296424 -1.6713303141081679  16.309074212186808 2.5013796752515982 -1.6014628244196971  16.454633464495025 3.0217549389922005 -1.5316565699250542  16.60019349364152 3.5421430339780198 -1.4619291283291476  16.745754551066877 4.0625484920644102 -1.392308992117355  16.891316908132648 4.5829770984368468 -1.3228339545206413  17.036881289130314 5.1034427712552386 -1.2535928936982532 
 0 7 1 7
7 0 0  6 7 2  17.036881289130314 5.1034427712552386 -1.2535928936982532  17.112492975235185 5.3083879248610906 -1.2245818795182652  17.188104500067997 5.5133343916953521 -1.1955891718688743  17.26371642785125 5.7182855868301168 -1.1666342101655347  17.339328799350159 5.9232422930616764 -1.1377239864609523  17.414942311510892 6.1282092074331231 -1.1088875019455418  17.490558225636683 6.3331944636655546 -1.0801734186242493 
 0 7 1 7
7 0 0  3 21 19  18.836422557259382 6.3331944636655546 -0.9570542639985028  18.820718415705045 6.3331944636655546 -0.95755276636401077  18.743247656997184 6.3331944636655546 -0.95975676119877984  18.597691813752853 6.3331944636655546 -0.96618922688947806  18.428232060700548 6.3331944636655546 -0.97749545627013223  18.218931941316271 6.3331944636655546 -0.99679141139632277  17.974887504211885 6.3331944636655546 -1.0254199778877939  17.702969685115658 6.3331944636655546 -1.0578023304197164  17.410525021635991 6.3331944636655546 -1.0893932763940863  17.10550087646677 6.3331944636655546 -1.1135248716315402  16.796392345593897 6.3331944636655546 -1.1262986061049012  16.491854154745305 6.3331944636655546 -1.1276131465015309  16.200189094515085 6.3331944636655546 -1.1187577830986157  15.929304522461742 6.3331944636655546 -1.1005117025988929  15.686323244801883 6.3331944636655546 -1.0739842710190626  15.477771712221561 6.3331944636655546 -1.0398575780494728  15.307753024524111 6.3331944636655546 -1.0000334510957027  15.183787594372895 6.3331944636655546 -0.94493458840882527  15.098770959056688 6.3331944636655546 -0.89280394363985793  15.080020058613446 6.3331944636655555 -0.84827200813908599  15.080271828981321 6.3331944636655546 -0.82588659024004418 
 0 4 0.027802170644521226 1 0.048716898504577055 1 0.073335739460436408 1 0.10086569028022668 1 0.1306720518051786 1 0.16217417622903404 1 0.19481388357548846 1 0.22807441102547932 1 0.26148384673944097 1 0.29460475266944997 1 0.32700951388024907 1 0.35826172124127287 1 0.38791061800727045 1 0.41550520767628213 1 0.44065725169071829 1 0.46290905811233835 1 0.4824331221564615 1 0.50015032878335974 4
7 0 0  8 16 3  13.406049501510772 1.9810142283296419 -1.5468286132858702  13.561144689053956 2.2817467462015304 -1.5147954605264979  13.716235569212982 2.5824614398835104 -1.482624318518166  13.871321604077043 2.8831561692046912 -1.4502992119940878  14.026403737299685 3.1838350266959106 -1.4178531226531317  14.181479819126052 3.4844893602771987 -1.3852207552580786  14.336550666063076 3.7851228241348802 -1.3524323056559404  14.491614930096446 4.0857302253249763 -1.3194502373050345  14.772250621766796 4.6297452461855855 -1.2593926114836367  14.897824394924982 4.873162081358851 -1.2323850038849731  15.023393139109382 5.1165594408798354 -1.2052358570704766  15.148956419897438 5.3599358370198615 -1.1779357983365804  15.274513729935389 5.6032895757783034 -1.1504745191153134  15.400064483656676 5.8466187402152991 -1.122840681845402  15.525608012000411 6.0899211737844547 -1.0950218268433687  15.65114355712983 6.3331944636655555 -1.0670042791746346 
 0 9 0.55252150444604509 7 1 9
7 0 0  4 5 2  13.401398404995017 1.85623036491 -1.5750080282711907  13.402559176268253 1.8874645090808253 -1.568052657372857  13.403721212456349 1.9186748567046952 -1.5610410383155975  13.404884530391264 1.949860707015012 -1.5539720993721138  13.406049501510772 1.9810142283296424 -1.5468286132858702 
 0 5 1 5
1 14.098769397470951 1.9810142283296424 18.290073781544738 -0.034899496702500976 0 -0.99939082701909576 
7 0 0  1 2 2  13.342970794015585 0 -1.6860645306292703  13.375677162476983 0 -0.74947667940435658 
 0 2 1 2
7 0 0  4 5 2  13.42912799884544 1.8562303649099998 -0.78093635533812011  13.415458809896251 1.3921726755185198 -0.78184778855913639  13.401787374867569 0.92811503123810746 -0.78282357904405486  13.388113608847512 0.46405745522080571 -0.78386617783460633  13.374437044980008 0 -0.78498899814829837 
 0 5 1 5
7 0 0  4 5 2  13.432774858789809 1.9810142283296424 -0.78151451316693898  13.431866821373287 1.9498205548287872 -0.78126659100270268  13.430956055536592 1.9186249227903078 -0.78109515238286775  13.430043078963793 1.8874280889514985 -0.78098600959910813  13.429127998845441 1.85623036491 -0.78093635533812022 
 0 5 1 5
7 0 0  3 22 20  12.745594582200001 0 -1.13628021843  12.745611205550283 0 -1.1352761853740694  12.746753056376331 0 -1.0864383051289537  12.782797990754702 0 -0.97961487137921122  12.923948548036147 0 -0.87660227234095001  13.136411122134628 0 -0.80917695196599726  13.414173324265301 0 -0.77771934075030646  13.753359143048801 0 -0.7673036063791534  14.146859761698492 0 -0.77640696918781804  14.584458106770107 0 -0.80358974807389649  15.054691845619129 0 -0.84101020876370047  15.544878192186694 0 -0.88581166586081284  16.041732564711911 0 -0.93518425339599509  16.531711541099753 0 -0.98768321833309147  17.001432757722061 0 -1.0427285861553988  17.437876625167362 0 -1.1010275119370476  17.829230353988137 0 -1.1609771903037491  18.164300549914582 0 -1.2187984014502065  18.435372244784947 0 -1.2702983894693018  18.668512221130033 0 -1.3172776370394097  18.793026598584103 0 -1.3388458721222394  18.817613218278041 0 -1.3483197815700778 
 0.50015032878335974 4 0.50053165238733233 1 0.51867591264437729 1 0.53845629891641922 1 0.5604806219212316 1 0.58530589407718547 1 0.61272088645832934 1 0.64228922122032739 1 0.67351951065456328 1 0.7059272930902466 1 0.73903907817009984 1 0.77239035764311803 1 0.80552166805238146 1 0.83797313990671007 1 0.86927500575916905 1 0.89893242097380677 1 0.92640089580882545 1 0.95104014700441042 1 0.97201725496010261 1 1 4
7 0 0  6 7 2  17.052024537565877 5.1034427712552386 -0.81994699597123155  16.908172607294286 4.5830438735355408 -0.84067580343385018  16.764324915573297 4.0626413350534403 -0.86125456011478962  16.620480280522198 3.5422365210446616 -0.8817278632189024  16.476638131866089 3.021830164860309 -0.90211781914178912  16.332797998491934 2.5014226946509459 -0.92244129090101468  16.1889595117729 1.9810142283296424 -0.94270976326913969 
 0 7 1 7
1 17.724485121635311 5.1034427712552386 18.436804612218332 -0.034899496702500976 0 -0.99939082701909576 
7 0 0  3 22 20  12.745594582200001 1.85623036491 -1.13628021843  12.745611205550283 1.85623036491 -1.1352761853740694  12.746753056376331 1.85623036491 -1.0864383051289537  12.782797990754702 1.85623036491 -0.97961487137921122  12.923948548036147 1.85623036491 -0.87660227234095001  13.136411122134628 1.85623036491 -0.80917695196599726  13.414173324265301 1.85623036491 -0.77771934075030646  13.753359143048801 1.85623036491 -0.7673036063791534  14.146859761698492 1.85623036491 -0.77640696918781804  14.584458106770107 1.85623036491 -0.80358974807389649  15.054691845619129 1.85623036491 -0.84101020876370047  15.544878192186694 1.85623036491 -0.88581166586081284  16.041732564711911 1.85623036491 -0.93518425339599509  16.531711541099753 1.85623036491 -0.98768321833309147  17.001432757722061 1.85623036491 -1.0427285861553988  17.437876625167362 1.85623036491 -1.1010275119370476  17.829230353988137 1.85623036491 -1.1609771903037491  18.164300549914582 1.85623036491 -1.2187984014502065  18.435372244784947 1.85623036491 -1.2702983894693018  18.668512221130033 1.85623036491 -1.3172776370394097  18.793026598584103 1.85623036491 -1.3388458721222394  18.817613218278041 1.85623036491 -1.3483197815700778 
 0.50015032878335974 4 0.50053165238733233 1 0.51867591264437729 1 0.53845629891641922 1 0.5604806219212316 1 0.58530589407718547 1 0.61272088645832934 1 0.64228922122032739 1 0.67351951065456328 1 0.7059272930902466 1 0.73903907817009984 1 0.77239035764311803 1 0.80552166805238146 1 0.83797313990671007 1 0.86927500575916905 1 0.89893242097380677 1 0.92640089580882545 1 0.95104014700441042 1 0.97201725496010261 1 1 4
7 0 0  7 14 3  15.665524425965957 6.3331944636655555 -0.65519007675490826  15.519753325042123 6.0489918791974926 -0.66257665389048359  15.373976100801057 5.7647877770469051 -0.67011632777232555  15.228193175632123 5.480582668768105 -0.67780450311081786  15.082404963011941 5.1963769551092023 -0.6856352152152716  14.936611852271339 4.9121709390519541 -0.69360175740043917  14.790814193362246 4.6279648388516046 -0.7016973083930278  14.47185115340071 4.006222481596204 -0.71967568446297736  14.298684001553768 3.6686863022377172 -0.72961035764888205  14.125511539301725 3.3311504642584433 -0.73970210618621735  13.952333794882186 2.9936152784480212 -0.74995467828633211  13.779151762835818 2.6560807227789045 -0.76033927098848619  13.605965419000558 2.3185470117370781 -0.77085972103978839  13.432774858789809 1.9810142283296419 -0.78151451316693898 
 0 8 0.45711224069731315 6 1 8
7 0 0  3 22 20  15.080271828981321 6.3331944636655546 -0.82588659024004418  15.080277247780462 6.3331944636655546 -0.82540479373512921  15.080746927378231 6.3331944636655546 -0.80197100369966012  15.102520982856555 6.3331944636655546 -0.75087655095352646  15.189314056805884 6.3331944636655546 -0.70212000380807171  15.320381002262755 6.3331944636655546 -0.67078856129936759  15.492005414221373 6.3331944636655546 -0.65703569537476225  15.701717975563955 6.3331944636655546 -0.65367911378216603  15.945115000846775 6.3331944636655546 -0.65995355020784074  16.215870964997446 6.3331944636655546 -0.67511857039105116  16.506859236996263 6.3331944636655546 -0.69535510029995429  16.810222557642938 6.3331944636655546 -0.71923068755374397  17.117731725375513 6.3331944636655546 -0.74533243641681746  17.421004073735492 6.3331944636655546 -0.77290137199725761  17.711760727113663 6.3331944636655546 -0.8015943422427374  17.981953393056926 6.3331944636655546 -0.8316876984116246  18.22426891653226 6.3331944636655546 -0.86235498959479961  18.431766657288126 6.3331944636655546 -0.89172821272080327  18.599655138931769 6.3331944636655546 -0.91775773440610153  18.744063583595278 6.3331944636655546 -0.94143389785325837  18.82117155833901 6.3331944636655546 -0.95238829291747029  18.836422557259382 6.3331944636655546 -0.9570542639985028 
 0.50015032878335974 4 0.50053165238733233 1 0.51867591264437729 1 0.53845629891641922 1 0.5604806219212316 1 0.58530589407718547 1 0.61272088645832934 1 0.64228922122032739 1 0.67351951065456328 1 0.7059272930902466 1 0.73903907817009984 1 0.77239035764311803 1 0.80552166805238146 1 0.83797313990671007 1 0.86927500575916905 1 0.89893242097380677 1 0.92640089580882545 1 0.95104014700441042 1 0.97201725496010261 1 1 4
7 0 0  4 5 2  17.501007056260349 6.3331944636655546 -0.78095805837466736  17.388759049403788 6.02577081832096 -0.79092218910415735  17.276512368008525 5.7183346927145484 -0.80071827688411401  17.16426768720514 5.4108914424977916 -0.81038281257745048  17.052024537565877 5.1034427712552386 -0.81994699597123166 
 0 5 1 5
7 0 0  4 11 4  20.057680818446819 13.311590989288071 -0.30598719091850979  19.877115383131425 12.81873456903989 -0.33946736562105184  19.696549189862665 12.325877900349894 -0.3729666556646396  19.515982515630519 11.833021319889305 -0.40648063834177151  19.07739691747171 10.635905160910731 -0.4879137965879925  18.819377614738539 9.9316457610067417 -0.53584568151456236  18.561357868330862 9.2273868470714326 -0.58379533706269116  18.10275535728195 7.9756444938423554 -0.66904745852205494  17.902172738073428 7.4281608698734356 -0.70634383484438057  17.701589962185285 6.8806775337739188 -0.74364769846096357  17.501007056260349 6.3331944636655546 -0.78095805837466725 
 0 5 0.28250380748680093 3 0.68618332480445976 3 1 5
1 20.733616600571587 13.311590989288071 19.050281068992078 -0.034899496702500976 0 -0.99939082701909576 
7 0 0  4 11 4  17.490558225636683 6.3331944636655546 -1.0801734186242493  17.765496581890336 7.0826084320195672 -1.0184071548129443  18.040434901810279 7.8320193709897614 -0.95661035499811087  18.315373168817981 8.5814264988998801 -0.89477534620420407  18.814059545841673 9.940700421252167 -0.78251555376646564  19.037807696314999 10.550569100151145 -0.73210925401470417  19.261555716444125 11.160432876438243 -0.68165558496893031  19.626675719728279 12.155619909096245 -0.59921467393094252  19.768047871557521 12.540947448446289 -0.56726724492190095  19.909419867495526 12.926271512908947 -0.5352880599343478  20.05079160906498 13.311590989288071 -0.50326833569593488 
 0 5 0.42955125519222054 3 0.77912567755211293 3 1 5
7 0 0  5 6 2  20.050791609064976 13.311590989288071 -0.50326833569593477  20.341155287542421 14.040541140956394 -0.44093796374981881  20.631518965426984 14.769491433958139 -0.37860920884080002  20.921882644714646 15.498441936587714 -0.31628278700344403  21.212246322083587 16.227392696148815 -0.25395932887729289  21.502609987095937 16.956343945599123 -0.19164177074041888 
 0 6 1 6
7 0 0  3 21 19  22.115034014736974 16.956343945599123 -0.14157423473675021  22.108784962973431 16.956343945599123 -0.1417404065297708  22.077957229537699 16.956343945599123 -0.14246644807092659  22.020039042595148 16.956343945599123 -0.14467202829858944  21.952613344782772 16.956343945599123 -0.14864160268943905  21.869341446701014 16.956343945599123 -0.15550224944192687  21.77225280500808 16.956343945599123 -0.16575256756413548  21.664075765453362 16.956343945599123 -0.17735134592086743  21.547729054552757 16.956343945599123 -0.18863744447625019  21.426368219826735 16.956343945599123 -0.1971708744980098  21.303369760935357 16.956343945599123 -0.20152919873651765  21.182177785686111 16.956343945599123 -0.2016845110569514  21.066097841524389 16.956343945599123 -0.19811917721413216  20.958277561786385 16.956343945599123 -0.19112782294802561  20.861552716344598 16.956343945599123 -0.18112547554496544  20.778521291306809 16.956343945599123 -0.16836962122635712  20.710818192378138 16.956343945599123 -0.15356304026637249  20.661425931169092 16.956343945599123 -0.13319694108712571  20.627536842822035 16.956343945599126 -0.11396267246087949  20.620026898383269 16.956343945599119 -0.097589962555536189  20.620103026537961 16.956343945599123 -0.089370094291781887 
 0 4 0.027802170644521226 1 0.048716898504577055 1 0.073335739460436408 1 0.10086569028022668 1 0.1306720518051786 1 0.16217417622903404 1 0.19481388357548846 1 0.22807441102547932 1 0.26148384673944097 1 0.29460475266944997 1 0.32700951388024907 1 0.35826172124127287 1 0.38791061800727045 1 0.41550520767628213 1 0.44065725169071829 1 0.46290905811233835 1 0.4824331221564615 1 0.50015032878335974 4
7 0 0  5 22 6  15.651143557129831 6.3331944636655546 -1.067004279174635  15.978163952664906 6.9684366975466761 -1.0162273507683852  16.305183296113682 7.6036705892609024 -0.96535823810455634  16.632201429069937 8.2388950733995294 -0.91438585642169967  16.959218080414804 8.8741085911590734 -0.86329511451827956  17.587042674982168 10.093608478702562 -0.76494377613676479  17.887850881967374 10.677896792817316 -0.717704134077362  18.188657199170635 11.262172409452456 -0.67033243904390483  18.489461131998667 11.846433042423532 -0.62280933450289666  18.986644412250559 12.812107039580169 -0.54396440629683984  19.183025584683854 13.19353097058038 -0.51274525084242373  19.37940515300928 13.574946084242251 -0.4814427520392387  19.575782714088831 13.956350825903149 -0.45004565993149237  19.966765177393071 14.715702472351502 -0.38731530432800854  20.161370077701623 15.093649526326796 -0.35598428307891916  20.355971841555053 15.471582087557126 -0.3245305868781827  20.550569470457052 15.849496974421564 -0.29293616032075354  20.820238788165604 16.373187495227416 -0.24891848671137629  20.895315500137237 16.518982714066048 -0.23663854696793729  20.970391213952336 16.664774157407148 -0.22433183469818493  21.045465782276285 16.810561406486563 -0.21199642913308367  21.120539018002781 16.956343945599123 -0.19963012707369621 
 0 6 0.29893769454868308 4 0.5739203395550585 4 0.75344716237053178 4 0.93135816809436622 4 1 6
7 0 0  6 27 6  21.12615151334769 16.956343945599123 -0.038909288827544408  20.982744837521992 16.677331160312377 -0.054679937955765978  20.839334629863497 16.398313289055928 -0.070477155528304136  20.695921703743419 16.119292287645457 -0.086306325658002669  20.55250676951486 15.840268669239494 -0.10215463029314142  20.409090119747358 15.561243744637737 -0.11803291027362661  20.122358763721142 15.003396258370183 -0.14983721639396566  19.979044098119058 14.724573785238492 -0.16576337639156427  19.835728214662854 14.445751034825927 -0.18172034570177406  19.692411303137064 14.166928398892098 -0.19770843354857257  19.549093504169434 13.888106130333554 -0.2137273208262955  19.235334577385228 13.277698068009675 -0.24886176117192416  19.06489313214934 12.946112542762743 -0.26799034093166846  18.894450744958515 12.61452797964354 -0.28716000137758924  18.724007555862762 12.28294450572929 -0.30636859519615789  18.553563673526771 11.951362162973846 -0.32561362576159697  18.104620987216659 11.077992954662706 -0.37639282857341855  17.826121172366481 10.536208015758477 -0.40798419690666382  17.547620059406437 9.9944260804001797 -0.43965677594945635  17.269117886622386 9.4526470641469356 -0.47140250402455902  16.990614818476022 8.9108708229243163 -0.5032145591609557  16.537680549844122 8.029777620731414 -0.55504925177931308  16.363249832133992 7.6904590954631269 -0.575035128792447  16.188818838872805 7.3511415480032305 -0.59504323309021101  16.014387594666516 7.0118249434549229 -0.6150723483967343  15.83995611894578 6.6725092549533409 -0.63512152440061265  15.665524425965957 6.3331944636655555 -0.65519007675490826 
 0 7 0.15759158059348077 5 0.31506785258471676 5 0.50234507328441491 5 0.8083471265293054 5 1 7
7 0 0  1 2 2  21.120525409285033 16.956343945599123 -0.20001982976189822  21.126286928611833 16.956343945599123 -0.035031503025184152 
 0 2 1 2
8 0.50015032878335974 1
7 0 0  3 39 37  22.115034014736974 16.956343945599123 -0.14157423473675021  22.108784962973431 16.956343945599123 -0.1417404065297708  22.077957229537699 16.956343945599123 -0.14246644807092659  22.020039042595148 16.956343945599123 -0.14467202829858944  21.952613344782772 16.956343945599123 -0.14864160268943905  21.869341446701014 16.956343945599123 -0.15550224944192687  21.77225280500808 16.956343945599123 -0.16575256756413548  21.664075765453362 16.956343945599123 -0.17735134592086743  21.547729054552757 16.956343945599123 -0.18863744447625019  21.426368219826735 16.956343945599123 -0.1971708744980098  21.303369760935357 16.956343945599123 -0.20152919873651765  21.182177785686111 16.956343945599123 -0.2016845110569514  21.066097841524389 16.956343945599123 -0.19811917721413216  20.958277561786385 16.956343945599123 -0.19112782294802561  20.861552716344598 16.956343945599123 -0.18112547554496544  20.778521291306809 16.956343945599123 -0.16836962122635712  20.710818192378138 16.956343945599123 -0.15356304026637249  20.661425931169092 16.956343945599123 -0.13319694108712571  20.627319629157263 16.956343945599123 -0.11383938953468428  20.616283998033158 16.956343945599123 -0.089255683599651012  20.628876612851464 16.956343945599123 -0.061849611889047848  20.663364188389092 16.956343945599123 -0.04403905131301817  20.715489635431105 16.956343945599123 -0.032674752786030617  20.783774146121932 16.956343945599123 -0.027809077280394424  20.867227314672395 16.956343945599123 -0.02680196390089376  20.964095836818867 16.956343945599123 -0.029367665295067111  21.071861623670728 16.956343945599123 -0.035227486567671613  21.187684470122718 16.956343945599123 -0.042971365695781014  21.308435977572234 16.956343945599123 -0.052064845411655999  21.430839751028532 16.956343945599123 -0.061980249970622847  21.551559025937866 16.956343945599123 -0.07242986461272316  21.667298789176265 16.956343945599123 -0.083278780272532285  21.774856456024146 16.956343945599123 -0.094619823301005129  21.871320809940933 16.956343945599123 -0.10614165089933365  21.953927759857891 16.956343945599123 -0.11715085286074016  22.020768296244764 16.956343945599123 -0.12688963309431261  22.078262235663644 16.956343945599123 -0.13573899508899465  22.108959742515395 16.956343945599123 -0.13984444978790472  22.115034014736974 16.956343945599123 -0.14157423473675021 
 0 4 0.027802170644521226 1 0.048716898504577055 1 0.073335739460436408 1 0.10086569028022668 1 0.1306720518051786 1 0.16217417622903404 1 0.19481388357548846 1 0.22807441102547932 1 0.26148384673944097 1 0.29460475266944997 1 0.32700951388024907 1 0.35826172124127287 1 0.38791061800727045 1 0.41550520767628213 1 0.44065725169071829 1 0.46290905811233835 1 0.4824331221564615 1 0.50053165238733233 1 0.51867591264437729 1 0.53845629891641922 1 0.5604806219212316 1 0.58530589407718547 1 0.61272088645832934 1 0.64228922122032739 1 0.67351951065456328 1 0.7059272930902466 1 0.73903907817009984 1 0.77239035764311803 1 0.80552166805238146 1 0.83797313990671007 1 0.86927500575916905 1 0.89893242097380677 1 0.92640089580882545 1 0.95104014700441042 1 0.97201725496010261 1 1 4
7 0 0  5 6 2  21.506906499232418 16.956343945599123 -0.06860576096704768  21.217061345655225 16.227393675397565 -0.11608618059894132  20.92721620089462 15.49844315128539 -0.16356347317685044  20.637371065041037 14.769492508929888 -0.2110391720422955  20.347525939067342 14.040541780914134 -0.25851361819825902  20.057680818446816 13.311590989288071 -0.30598719091850979 
 0 6 1 6
7 0 0  1 2 2  21.501866014472583 16.956343945599123 -0.21294635921839838  21.507478509817499 16.956343945599123 -0.052225520972247585 
 0 2 1 2
Polygon3D 0
PolygonOnTriangulations 0
Surfaces 18
9 0 0 0 0 3 1 21 2 19 2 18.817613218278041 0 -1.3483197815700778  18.817613218278041 1.85623036491 -1.3483197815700778  
18.792209552991721 0 -1.3496147493279744  18.792209552991721 1.85623036491 -1.3496147493279744  
18.666893830729737 0 -1.3554712602633645  18.666893830729737 1.85623036491 -1.3554712602633645  
18.431407148798232 0 -1.3712496622341384  18.431407148798232 1.85623036491 -1.3712496622341384  
18.157185383632847 0 -1.3975737722575237  18.157185383632847 1.85623036491 -1.3975737722575237  
17.81840648429602 0 -1.4411964863451145  17.81840648429602 1.85623036491 -1.4411964863451145  
17.42328948031485 0 -1.5048329039387411  17.42328948031485 1.85623036491 -1.5048329039387411  
16.983036539762622 0 -1.5767460351384166  16.983036539762622 1.85623036491 -1.5767460351384166  
16.509602073902421 0 -1.6473449653539183  16.509602073902421 1.85623036491 -1.6473449653539183  
16.015946734784073 0 -1.7026056887530348  16.015946734784073 1.85623036491 -1.7026056887530348  
15.515871743521975 0 -1.7342660784695727  15.515871743521975 1.85623036491 -1.7342660784695727  
15.023374511460419 0 -1.7419737795764538  15.023374511460419 1.85623036491 -1.7419737795764538  
14.551860639510727 0 -1.7282798942647206  14.551860639510727 1.85623036491 -1.7282798942647206  
14.114104586945693 0 -1.6946790466202235  14.114104586945693 1.85623036491 -1.6946790466202235  
13.721606709973553 0 -1.6433666725971816  13.721606709973553 1.85623036491 -1.6433666725971816  
13.384909955406163 0 -1.5756575995657236  13.384909955406163 1.85623036491 -1.5756575995657236  
13.110618513072389 0 -1.4954478231912969  13.110618513072389 1.85623036491 -1.4954478231912969  
12.911050070219547 0 -1.3826579223391471  12.911050070219547 1.85623036491 -1.3826579223391471  
12.774418202285592 0 -1.2754176053424635  12.774418202285592 1.85623036491 -1.2754176053424635  
12.744822221588937 0 -1.1829299954877033  12.744822221588937 1.85623036491 -1.1829299954877033  
12.745594582200001 0 -1.13628021843  12.745594582200001 1.85623036491 -1.13628021843  

0 4
0.027802170644521226 1
0.048716898504577055 1
0.073335739460436408 1
0.10086569028022668 1
0.1306720518051786 1
0.16217417622903404 1
0.19481388357548846 1
0.22807441102547932 1
0.26148384673944097 1
0.29460475266944997 1
0.32700951388024907 1
0.35826172124127287 1
0.38791061800727045 1
0.41550520767628213 1
0.44065725169071829 1
0.46290905811233835 1
0.4824331221564615 1
0.50015032878335974 4

0 2
0.19628890089473114 2

9 0 0 0 0 1 1 2 2 2 2 16.79944393673896 -1.9810142283296424 18.1739164926047  16.857219292925102 1.9810142283296424 18.193746588591047  
15.441795725872828 -1.9810142283296424 -20.704041542852433  15.499571082059063 1.9810142283296424 -20.68421144686609  

0 2
38.901655873127481 2

0 2
1 2

9 0 0 0 0 3 1 21 2 19 2 18.817613218278041 1.85623036491 -1.3483197815700778  18.836422557259382 6.3331944636655546 -0.9570542639985028  
18.792209552991721 1.85623036491 -1.3496147493279744  18.820718415705045 6.3331944636655546 -0.95755276636401077  
18.666893830729737 1.85623036491 -1.3554712602633645  18.743247656997184 6.3331944636655546 -0.95975676119877984  
18.431407148798232 1.85623036491 -1.3712496622341384  18.597691813752853 6.3331944636655546 -0.96618922688947806  
18.157185383632847 1.85623036491 -1.3975737722575237  18.428232060700548 6.3331944636655546 -0.97749545627013223  
17.81840648429602 1.85623036491 -1.4411964863451145  18.218931941316271 6.3331944636655546 -0.99679141139632277  
17.42328948031485 1.85623036491 -1.5048329039387411  17.974887504211885 6.3331944636655546 -1.0254199778877939  
16.983036539762622 1.85623036491 -1.5767460351384166  17.702969685115658 6.3331944636655546 -1.0578023304197164  
16.509602073902421 1.85623036491 -1.6473449653539183  17.410525021635991 6.3331944636655546 -1.0893932763940863  
16.015946734784073 1.85623036491 -1.7026056887530348  17.10550087646677 6.3331944636655546 -1.1135248716315402  
15.515871743521975 1.85623036491 -1.7342660784695727  16.796392345593897 6.3331944636655546 -1.1262986061049012  
15.023374511460419 1.85623036491 -1.7419737795764538  16.491854154745305 6.3331944636655546 -1.1276131465015309  
14.551860639510727 1.85623036491 -1.7282798942647206  16.200189094515085 6.3331944636655546 -1.1187577830986157  
14.114104586945693 1.85623036491 -1.6946790466202235  15.929304522461742 6.3331944636655546 -1.1005117025988929  
13.721606709973553 1.85623036491 -1.6433666725971816  15.686323244801883 6.3331944636655546 -1.0739842710190626  
13.384909955406163 1.85623036491 -1.5756575995657236  15.477771712221561 6.3331944636655546 -1.0398575780494728  
13.110618513072389 1.85623036491 -1.4954478231912969  15.307753024524111 6.3331944636655546 -1.0000334510957027  
12.911050070219547 1.85623036491 -1.3826579223391471  15.183787594372895 6.3331944636655546 -0.94493458840882527  
12.774418202285592 1.85623036491 -1.2754176053424635  15.098770959056688 6.3331944636655546 -0.89280394363985793  
12.744822221588937 1.85623036491 -1.1829299954877033  15.080020058613446 6.3331944636655555 -0.84827200813908599  
12.745594582200001 1.85623036491 -1.13628021843  15.080271828981321 6.3331944636655546 -0.82588659024004418  

0 4
0.027802170644521226 1
0.048716898504577055 1
0.073335739460436408 1
0.10086569028022668 1
0.1306720518051786 1
0.16217417622903404 1
0.19481388357548846 1
0.22807441102547932 1
0.26148384673944097 1
0.29460475266944997 1
0.32700951388024907 1
0.35826172124127287 1
0.38791061800727045 1
0.41550520767628213 1
0.44065725169071829 1
0.46290905811233835 1
0.4824331221564615 1
0.50015032878335974 4

0.19628890089473114 2
0.50985846732038675 2

9 0 0 0 0 1 1 2 2 2 2 13.98171623793719 -1.9810142283296424 18.272313712065067  14.098769397470951 1.9810142283296424 18.290073781544738  
12.624068027071095 -1.9810142283296424 -20.60564432339207  12.741121186604911 1.9810142283296424 -20.587884253912399  

0 2
38.901655873127481 2

0 2
1 2

1 18.817613218278041 0 -1.3483197815700778 -0 -1 0 -0.99939082701909576 0 0.034899496702500983 -0.034899496702500983 0 -0.99939082701909576 
9 0 0 0 0 1 1 2 2 2 2 16.857219292925102 1.9810142283296424 18.193746588591047  17.724485121635311 5.1034427712552386 18.436804612218332  
15.499571082059063 1.9810142283296424 -20.68421144686609  16.366836910769269 5.1034427712552386 -20.441153423238806  

0 2
38.901655873127481 2

0 2
1 2

1 16.857219292925102 1.9810142283296424 18.193746588591047 -0 1 0 -0.034899496702500976 0 -0.99939082701909576 -0.99939082701909576 -0 0.034899496702500976 
9 0 0 0 0 3 1 22 2 20 2 12.745594582200001 0 -1.13628021843  12.745594582200001 1.85623036491 -1.13628021843  
12.745611205550283 0 -1.1352761853740694  12.745611205550283 1.85623036491 -1.1352761853740694  
12.746753056376331 0 -1.0864383051289537  12.746753056376331 1.85623036491 -1.0864383051289537  
12.782797990754702 0 -0.97961487137921122  12.782797990754702 1.85623036491 -0.97961487137921122  
12.923948548036147 0 -0.87660227234095001  12.923948548036147 1.85623036491 -0.87660227234095001  
13.136411122134628 0 -0.80917695196599726  13.136411122134628 1.85623036491 -0.80917695196599726  
13.414173324265301 0 -0.77771934075030646  13.414173324265301 1.85623036491 -0.77771934075030646  
13.753359143048801 0 -0.7673036063791534  13.753359143048801 1.85623036491 -0.7673036063791534  
14.146859761698492 0 -0.77640696918781804  14.146859761698492 1.85623036491 -0.77640696918781804  
14.584458106770107 0 -0.80358974807389649  14.584458106770107 1.85623036491 -0.80358974807389649  
15.054691845619129 0 -0.84101020876370047  15.054691845619129 1.85623036491 -0.84101020876370047  
15.544878192186694 0 -0.88581166586081284  15.544878192186694 1.85623036491 -0.88581166586081284  
16.041732564711911 0 -0.93518425339599509  16.041732564711911 1.85623036491 -0.93518425339599509  
16.531711541099753 0 -0.98768321833309147  16.531711541099753 1.85623036491 -0.98768321833309147  
17.001432757722061 0 -1.0427285861553988  17.001432757722061 1.85623036491 -1.0427285861553988  
17.437876625167362 0 -1.1010275119370476  17.437876625167362 1.85623036491 -1.1010275119370476  
17.829230353988137 0 -1.1609771903037491  17.829230353988137 1.85623036491 -1.1609771903037491  
18.164300549914582 0 -1.2187984014502065  18.164300549914582 1.85623036491 -1.2187984014502065  
18.435372244784947 0 -1.2702983894693018  18.435372244784947 1.85623036491 -1.2702983894693018  
18.668512221130033 0 -1.3172776370394097  18.668512221130033 1.85623036491 -1.3172776370394097  
18.793026598584103 0 -1.3388458721222394  18.793026598584103 1.85623036491 -1.3388458721222394  
18.817613218278041 0 -1.3483197815700778  18.817613218278041 1.85623036491 -1.3483197815700778  

0.50015032878335974 4
0.50053165238733233 1
0.51867591264437729 1
0.53845629891641922 1
0.5604806219212316 1
0.58530589407718547 1
0.61272088645832934 1
0.64228922122032739 1
0.67351951065456328 1
0.7059272930902466 1
0.73903907817009984 1
0.77239035764311803 1
0.80552166805238146 1
0.83797313990671007 1
0.86927500575916905 1
0.89893242097380677 1
0.92640089580882545 1
0.95104014700441042 1
0.97201725496010261 1
1 4

0 2
0.19628890089473114 2

9 0 0 0 0 3 1 22 2 20 2 12.745594582200001 1.85623036491 -1.13628021843  15.080271828981321 6.3331944636655546 -0.82588659024004418  
12.745611205550283 1.85623036491 -1.1352761853740694  15.080277247780462 6.3331944636655546 -0.82540479373512921  
12.746753056376331 1.85623036491 -1.0864383051289537  15.080746927378231 6.3331944636655546 -0.80197100369966012  
12.782797990754702 1.85623036491 -0.97961487137921122  15.102520982856555 6.3331944636655546 -0.75087655095352646  
12.923948548036147 1.85623036491 -0.87660227234095001  15.189314056805884 6.3331944636655546 -0.70212000380807171  
13.136411122134628 1.85623036491 -0.80917695196599726  15.320381002262755 6.3331944636655546 -0.67078856129936759  
13.414173324265301 1.85623036491 -0.77771934075030646  15.492005414221373 6.3331944636655546 -0.65703569537476225  
13.753359143048801 1.85623036491 -0.7673036063791534  15.701717975563955 6.3331944636655546 -0.65367911378216603  
14.146859761698492 1.85623036491 -0.77640696918781804  15.945115000846775 6.3331944636655546 -0.65995355020784074  
14.584458106770107 1.85623036491 -0.80358974807389649  16.215870964997446 6.3331944636655546 -0.67511857039105116  
15.054691845619129 1.85623036491 -0.84101020876370047  16.506859236996263 6.3331944636655546 -0.69535510029995429  
15.544878192186694 1.85623036491 -0.88581166586081284  16.810222557642938 6.3331944636655546 -0.71923068755374397  
16.041732564711911 1.85623036491 -0.93518425339599509  17.117731725375513 6.3331944636655546 -0.74533243641681746  
16.531711541099753 1.85623036491 -0.98768321833309147  17.421004073735492 6.3331944636655546 -0.77290137199725761  
17.001432757722061 1.85623036491 -1.0427285861553988  17.711760727113663 6.3331944636655546 -0.8015943422427374  
17.437876625167362 1.85623036491 -1.1010275119370476  17.981953393056926 6.3331944636655546 -0.8316876984116246  
17.829230353988137 1.85623036491 -1.1609771903037491  18.22426891653226 6.3331944636655546 -0.86235498959479961  
18.164300549914582 1.85623036491 -1.2187984014502065  18.431766657288126 6.3331944636655546 -0.89172821272080327  
18.435372244784947 1.85623036491 -1.2702983894693018  18.599655138931769 6.3331944636655546 -0.91775773440610153  
18.668512221130033 1.85623036491 -1.3172776370394097  18.744063583595278 6.3331944636655546 -0.94143389785325837  
18.793026598584103 1.85623036491 -1.3388458721222394  18.82117155833901 6.3331944636655546 -0.95238829291747029  
18.817613218278041 1.85623036491 -1.3483197815700778  18.836422557259382 6.3331944636655546 -0.9570542639985028  

0.50015032878335974 4
0.50053165238733233 1
0.51867591264437729 1
0.53845629891641922 1
0.5604806219212316 1
0.58530589407718547 1
0.61272088645832934 1
0.64228922122032739 1
0.67351951065456328 1
0.7059272930902466 1
0.73903907817009984 1
0.77239035764311803 1
0.80552166805238146 1
0.83797313990671007 1
0.86927500575916905 1
0.89893242097380677 1
0.92640089580882545 1
0.95104014700441042 1
0.97201725496010261 1
1 4

0.19628890089473114 2
0.50985846732038675 2

9 0 0 0 0 1 1 2 2 2 2 17.724485121635311 5.1034427712552386 18.436804612218332  20.733616600571587 13.311590989288071 19.050281068992078  
16.366836910769269 5.1034427712552386 -20.441153423238806  19.375968389705548 13.311590989288071 -19.827676966465059  

0 2
38.901655873127481 2

0 2
1 2

9 0 0 0 0 3 1 21 2 19 2 18.836422557259382 6.3331944636655546 -0.9570542639985028  22.115034014736974 16.956343945599123 -0.14157423473675021  
18.820718415705045 6.3331944636655546 -0.95755276636401077  22.108784962973431 16.956343945599123 -0.1417404065297708  
18.743247656997184 6.3331944636655546 -0.95975676119877984  22.077957229537699 16.956343945599123 -0.14246644807092659  
18.597691813752853 6.3331944636655546 -0.96618922688947806  22.020039042595148 16.956343945599123 -0.14467202829858944  
18.428232060700548 6.3331944636655546 -0.97749545627013223  21.952613344782772 16.956343945599123 -0.14864160268943905  
18.218931941316271 6.3331944636655546 -0.99679141139632277  21.869341446701014 16.956343945599123 -0.15550224944192687  
17.974887504211885 6.3331944636655546 -1.0254199778877939  21.77225280500808 16.956343945599123 -0.16575256756413548  
17.702969685115658 6.3331944636655546 -1.0578023304197164  21.664075765453362 16.956343945599123 -0.17735134592086743  
17.410525021635991 6.3331944636655546 -1.0893932763940863  21.547729054552757 16.956343945599123 -0.18863744447625019  
17.10550087646677 6.3331944636655546 -1.1135248716315402  21.426368219826735 16.956343945599123 -0.1971708744980098  
16.796392345593897 6.3331944636655546 -1.1262986061049012  21.303369760935357 16.956343945599123 -0.20152919873651765  
16.491854154745305 6.3331944636655546 -1.1276131465015309  21.182177785686111 16.956343945599123 -0.2016845110569514  
16.200189094515085 6.3331944636655546 -1.1187577830986157  21.066097841524389 16.956343945599123 -0.19811917721413216  
15.929304522461742 6.3331944636655546 -1.1005117025988929  20.958277561786385 16.956343945599123 -0.19112782294802561  
15.686323244801883 6.3331944636655546 -1.0739842710190626  20.861552716344598 16.956343945599123 -0.18112547554496544  
15.477771712221561 6.3331944636655546 -1.0398575780494728  20.778521291306809 16.956343945599123 -0.16836962122635712  
15.307753024524111 6.3331944636655546 -1.0000334510957027  20.710818192378138 16.956343945599123 -0.15356304026637249  
15.183787594372895 6.3331944636655546 -0.94493458840882527  20.661425931169092 16.956343945599123 -0.13319694108712571  
15.098770959056688 6.3331944636655546 -0.89280394363985793  20.627536842822035 16.956343945599126 -0.11396267246087949  
15.080020058613446 6.3331944636655555 -0.84827200813908599  20.620026898383269 16.956343945599119 -0.097589962555536189  
15.080271828981321 6.3331944636655546 -0.82588659024004418  20.620103026537961 16.956343945599123 -0.089370094291781887  

0 4
0.027802170644521226 1
0.048716898504577055 1
0.073335739460436408 1
0.10086569028022668 1
0.1306720518051786 1
0.16217417622903404 1
0.19481388357548846 1
0.22807441102547932 1
0.26148384673944097 1
0.29460475266944997 1
0.32700951388024907 1
0.35826172124127287 1
0.38791061800727045 1
0.41550520767628213 1
0.44065725169071829 1
0.46290905811233835 1
0.4824331221564615 1
0.50015032878335974 4

0.50985846732038675 2
1.0000000000000004 2

9 0 0 0 0 1 1 2 2 2 2 14.098769397470951 1.9810142283296424 18.290073781544738  29.506429163559041 31.931673662868604 20.373966827331397  
12.741121186604911 1.9810142283296424 -20.587884253912399  28.148780952693002 31.931673662868604 -18.50399120812574  

0 2
38.901655873127481 2

0 2
1 2

1 14.098769397470951 1.9810142283296424 18.290073781544738 -0 -1 0 -0.034899496702500976 0 -0.99939082701909576 0.99939082701909576 -0 -0.034899496702500976 
1 17.724485121635311 5.1034427712552386 18.436804612218332 -0 1 0 -0.034899496702500976 0 -0.99939082701909576 -0.99939082701909576 -0 0.034899496702500976 
9 0 0 0 0 3 1 22 2 20 2 15.080271828981321 6.3331944636655546 -0.82588659024004418  20.620103026537961 16.956343945599123 -0.089370094291781887  
15.080277247780462 6.3331944636655546 -0.82540479373512921  20.62010466502776 16.956343945599123 -0.089193179846038723  
15.080746927378231 6.3331944636655546 -0.80197100369966012  20.620266384816844 16.956343945599123 -0.080588573603214725  
15.102520982856555 6.3331944636655546 -0.75087655095352646  20.628876612851464 16.956343945599123 -0.061849611889047848  
15.189314056805884 6.3331944636655546 -0.70212000380807171  20.663364188389092 16.956343945599123 -0.04403905131301817  
15.320381002262755 6.3331944636655546 -0.67078856129936759  20.715489635431105 16.956343945599123 -0.032674752786030617  
15.492005414221373 6.3331944636655546 -0.65703569537476225  20.783774146121932 16.956343945599123 -0.027809077280394424  
15.701717975563955 6.3331944636655546 -0.65367911378216603  20.867227314672395 16.956343945599123 -0.02680196390089376  
15.945115000846775 6.3331944636655546 -0.65995355020784074  20.964095836818867 16.956343945599123 -0.029367665295067111  
16.215870964997446 6.3331944636655546 -0.67511857039105116  21.071861623670728 16.956343945599123 -0.035227486567671613  
16.506859236996263 6.3331944636655546 -0.69535510029995429  21.187684470122718 16.956343945599123 -0.042971365695781014  
16.810222557642938 6.3331944636655546 -0.71923068755374397  21.308435977572234 16.956343945599123 -0.052064845411655999  
17.117731725375513 6.3331944636655546 -0.74533243641681746  21.430839751028532 16.956343945599123 -0.061980249970622847  
17.421004073735492 6.3331944636655546 -0.77290137199725761  21.551559025937866 16.956343945599123 -0.07242986461272316  
17.711760727113663 6.3331944636655546 -0.8015943422427374  21.667298789176265 16.956343945599123 -0.083278780272532285  
17.981953393056926 6.3331944636655546 -0.8316876984116246  21.774856456024146 16.956343945599123 -0.094619823301005129  
18.22426891653226 6.3331944636655546 -0.86235498959479961  21.871320809940933 16.956343945599123 -0.10614165089933365  
18.431766657288126 6.3331944636655546 -0.89172821272080327  21.953927759857891 16.956343945599123 -0.11715085286074016  
18.599655138931769 6.3331944636655546 -0.91775773440610153  22.020768296244764 16.956343945599123 -0.12688963309431261  
18.744063583595278 6.3331944636655546 -0.94143389785325837  22.078262235663644 16.956343945599123 -0.13573899508899465  
18.82117155833901 6.3331944636655546 -0.95238829291747029  22.108959742515395 16.956343945599123 -0.13984444978790472  
18.836422557259382 6.3331944636655546 -0.9570542639985028  22.115034014736974 16.956343945599123 -0.14157423473675021  

0.50015032878335974 4
0.50053165238733233 1
0.51867591264437729 1
0.53845629891641922 1
0.5604806219212316 1
0.58530589407718547 1
0.61272088645832934 1
0.64228922122032739 1
0.67351951065456328 1
0.7059272930902466 1
0.73903907817009984 1
0.77239035764311803 1
0.80552166805238146 1
0.83797313990671007 1
0.86927500575916905 1
0.89893242097380677 1
0.92640089580882545 1
0.95104014700441042 1
0.97201725496010261 1
1 4

0.50985846732038675 2
1.0000000000000004 2

9 0 0 0 0 1 1 2 2 2 2 20.733616600571587 13.311590989288071 19.050281068992078  23.634235953398573 20.601096901910175 19.587127075594633  
19.375968389705548 13.311590989288071 -19.827676966465059  22.276587742531412 20.601096901910175 -19.290830959862465  

0 2
38.901655873127481 2

0 2
1 2

1 20.733616600571587 13.311590989288071 19.050281068992078 -0 1 0 -0.034899496702500976 0 -0.99939082701909576 -0.99939082701909576 -0 0.034899496702500976 
1 22.115034014736974 16.956343945599123 -0.14157423473675021 -0 -1 0 -0.99939082701909576 0 0.034899496702500948 -0.034899496702500948 0 -0.99939082701909576 
Triangulations 0

TShapes 91
Ve
5.000001e-06
16.1344089135836 0 -1.68751469111509
0 0

0101101
*
Ve
5.000001e-06
16.1612462777891 1.85623036491 -1.68483006747243
0 0

0101101
*
Ed
 5e-06 1 1 0
1  1 0 0 1
2  1 1 0 0 1
2  2 2 0 0 1
0

0101000
+91 0 -90 0 *
Ve
5.000001e-06
13.401398404995 1.85623036491 -1.57500802827119
0 0

0101101
*
Ed
 1e-07 1 1 0
1  2 0 0.218361615784844 0.413761513417223
2  3 1 0 0.218361615784844 0.413761513417223
2  4 3 0 0.218361615784844 0.413761513417223
4 C0 1 0 3 0
0

0101000
+90 0 -88 0 *
Ve
5.000001e-06
13.347318468059 0 -1.56156343553183
0 0

0101101
*
Ed
 5e-06 1 1 0
1  3 0 0 1
2  5 1 0 0 1
2  6 4 0 0 1
0

0101000
+86 0 -88 0 *
Ed
 1e-07 1 1 0
1  4 0 0.220158742069409 0.418441669785929
2  7 1 0 0.220158742069409 0.418441669785929
2  8 5 0 0.220158742069409 0.418441669785929
4 C0 1 0 5 0
0

0101000
+91 0 -86 0 *
Wi

0101100
-89 0 -87 0 +85 0 +84 0 *
Fa
0  1e-07 1 0

0101000
+83 0 *
Ve
5.000001e-06
16.1889595117729 1.98101422832964 -0.942709763269139
0 0

0101101
*
Ve
5.000001e-06
16.1635155214701 1.98101422832964 -1.67133031410817
0 0

0101101
*
Ed
 1e-07 1 1 0
1  5 0 19.1481208697291 19.8771855470709
2  9 2 0 19.1481208697291 19.8771855470709
2  10 6 0 19.1481208697291 19.8771855470709
2  11 7 0 19.1481208697291 19.8771855470709
2  12 7 2 19.1481208697291 19.8771855470709
0

0101000
+81 0 -80 0 *
Ed
 5e-06 1 1 0
1  6 0 0 1
2  13 3 0 0 1
2  14 2 0 0 1
0

0101000
+90 0 -80 0 *
Ve
5.000001e-06
16.1602272703226 0 -0.94817368819097
0 0

0101101
*
Ed
 5e-06 1 1 0
1  7 0 0.102405818734221 0.891804273942851
2  15 5 0 0.102405818734221 0.891804273942851
2  16 2 0 0.102405818734221 0.891804273942851
0

0101000
+91 0 -77 0 *
Ve
5.000001e-06
16.1868728149649 1.85623036491 -0.950982058143879
0 0

0101101
*
Ed
 5e-06 1 1 0
1  8 0 0 1
2  17 8 0 0 1
2  18 2 0 0 1
0

0101000
+75 0 -77 0 *
Ed
 5e-06 1 1 0
1  9 0 0 1
2  19 9 0 0 1
2  20 2 0 0 1
0

0101000
+81 0 -75 0 *
Wi

0101100
-79 0 +78 0 +89 0 -76 0 +74 0 +73 0 *
Fa
0  1e-07 2 0

0101000
+72 0 *
Ve
5.000001e-06
17.0368812891303 5.10344277125524 -1.25359289369825
0 0

0101101
*
Ed
 5e-06 1 1 0
1  10 0 0 1
2  21 3 0 0 1
2  22 6 0 0 1
0

0101000
+80 0 -70 0 *
Ve
5.000001e-06
17.4905582256367 6.33319446366555 -1.08017341862425
0 0

0101101
*
Ed
 5e-06 1 1 0
1  11 0 0 1
2  23 3 0 0 1
2  24 10 0 0 1
0

0101000
+70 0 -68 0 *
Ve
5.000001e-06
15.6511435571298 6.33319446366555 -1.06700427917464
0 0

0101101
*
Ed
 1e-07 1 1 0
1  12 0 0.186082977171475 0.392090244217774
2  25 3 0 0.186082977171475 0.392090244217774
2  26 11 0 0.186082977171475 0.392090244217774
4 C0 3 0 11 0
0

0101000
+68 0 -66 0 *
Ve
5.000001e-06
13.4060495015108 1.98101422832964 -1.54682861328587
0 0

0101101
*
Ed
 5e-06 1 1 0
1  13 0 0 1
2  27 3 0 0 1
2  28 12 0 0 1
0

0101000
+64 0 -66 0 *
Ed
 5e-06 1 1 0
1  14 0 0 1
2  29 3 0 0 1
2  30 4 0 0 1
0

0101000
+88 0 -64 0 *
Wi

0101100
-78 0 -69 0 -67 0 -65 0 +63 0 +62 0 +87 0 *
Fa
0  1e-07 3 0

0101000
+61 0 *
Ve
5.000001e-06
13.4327748587898 1.98101422832964 -0.78151451316694
0 0

0101101
*
Ed
 1e-07 1 1 0
1  15 0 19.0832132726262 19.8489938655917
2  31 4 0 19.0832132726262 19.8489938655917
2  32 12 0 19.0832132726262 19.8489938655917
2  33 13 0 19.0832132726262 19.8489938655917
2  34 13 4 19.0832132726262 19.8489938655917
0

0101000
+59 0 -64 0 *
Ve
5.000001e-06
13.37443704498 0 -0.784988998148298
0 0

0101101
*
Ed
 5e-06 1 1 0
1  16 0 0.132930503993416 0.962083301958811
2  35 5 0 0.132930503993416 0.962083301958811
2  36 4 0 0.132930503993416 0.962083301958811
0

0101000
+86 0 -57 0 *
Ve
5.000001e-06
13.4291279988454 1.85623036491 -0.780936355338121
0 0

0101101
*
Ed
 5e-06 1 1 0
1  17 0 0 1
2  37 8 0 0 1
2  38 4 0 0 1
0

0101000
+55 0 -57 0 *
Ed
 5e-06 1 1 0
1  18 0 0 1
2  39 9 0 0 1
2  40 4 0 0 1
0

0101000
+59 0 -55 0 *
Wi

0101100
-58 0 +62 0 +85 0 -56 0 +54 0 +53 0 *
Fa
0  1e-07 4 0

0101000
+52 0 *
Ed
 1e-07 1 1 0
1  19 0 0.582335444217838 0.78031164533351
2  41 8 0 0.582335444217838 0.78031164533351
2  42 5 0 0.582335444217838 0.78031164533351
4 C0 8 0 5 0
0

0101000
+57 0 -77 0 *
Wi

0101100
-84 0 -56 0 -50 0 +76 0 *
Fa
0  1e-07 5 0

0101000
+49 0 *
Ve
5.000001e-06
17.0520245375659 5.10344277125524 -0.819946995971232
0 0

0101101
*
Ed
 5e-06 1 1 0
1  20 0 0 1
2  43 9 0 0 1
2  44 6 0 0 1
0

0101000
+47 0 -81 0 *
Ed
 1e-07 1 1 0
1  21 0 19.2684894513462 19.7023996754579
2  45 6 0 19.2684894513462 19.7023996754579
2  46 10 0 19.2684894513462 19.7023996754579
2  47 14 0 19.2684894513462 19.7023996754579
2  48 14 2 19.2684894513462 19.7023996754579
0

0101000
+47 0 -70 0 *
Wi

0101100
+46 0 -45 0 +69 0 +79 0 *
Fa
0  1e-07 6 0

0101000
+44 0 *
Ed
 1e-07 1 1 0
1  22 0 0.586982849583692 0.782102862090446
2  49 8 0 0.586982849583692 0.782102862090446
2  50 9 0 0.586982849583692 0.782102862090446
4 C0 8 0 9 0
0

0101000
+55 0 -75 0 *
Wi

0101100
-42 0 -74 0 +50 0 +54 0 *
Fa
0  1e-07 8 0

0101000
+41 0 *
Ve
5.000001e-06
15.665524425966 6.33319446366555 -0.655190076754908
0 0

0101101
*
Ed
 5e-06 1 1 0
1  23 0 0 1
2  51 9 0 0 1
2  52 12 0 0 1
0

0101000
+39 0 -59 0 *
Ve
5.000001e-06
17.5010070562604 6.33319446366555 -0.780958058374667
0 0

0101101
*
Ed
 1e-07 1 1 0
1  24 0 0.608526642728561 0.814229927280473
2  53 9 0 0.608526642728561 0.814229927280473
2  54 15 0 0.608526642728561 0.814229927280473
4 C0 9 0 15 0
0

0101000
+39 0 -37 0 *
Ed
 5e-06 1 1 0
1  25 0 0 1
2  55 9 0 0 1
2  56 10 0 0 1
0

0101000
+37 0 -47 0 *
Wi

0101100
+38 0 -36 0 -35 0 -46 0 -73 0 +42 0 +53 0 *
Fa
0  1e-07 9 0

0101000
+34 0 *
Ve
5.000001e-06
20.0576808184468 13.3115909892881 -0.305987190918511
0 0

0101101
*
Ed
 5e-06 1 1 0
1  26 0 0 1
2  57 15 0 0 1
2  58 10 0 0 1
0

0101000
+32 0 -37 0 *
Ve
5.000001e-06
20.050791609065 13.3115909892881 -0.503268335695935
0 0

0101101
*
Ed
 1e-07 1 1 0
1  27 0 19.3680667628749 19.5654681592494
2  59 10 0 19.3680667628749 19.5654681592494
2  60 16 0 19.3680667628749 19.5654681592494
2  61 17 0 19.3680667628749 19.5654681592494
2  62 17 2 19.3680667628749 19.5654681592494
0

0101000
+32 0 -30 0 *
Ed
 5e-06 1 1 0
1  28 0 0 1
2  63 11 0 0 1
2  64 10 0 0 1
0

0101000
+68 0 -30 0 *
Wi

0101100
+35 0 +31 0 -29 0 +28 0 +67 0 +45 0 *
Fa
0  1e-07 10 0

0101000
+27 0 *
Ve
5.000001e-06
21.5026099870959 16.9563439455991 -0.191641770740419
0 0

0101101
*
Ed
 5e-06 1 1 0
1  29 0 0 1
2  65 11 0 0 1
2  66 16 0 0 1
0

0101000
+30 0 -25 0 *
Ve
5.000001e-06
21.1205390180028 16.9563439455991 -0.199630127073696
0 0

0101101
*
Ed
 1e-07 1 1 0
1  30 0 0.207294537080125 0.311536884606224
2  67 11 0 0.207294537080125 0.311536884606224
2  68 18 0 0.207294537080125 0.311536884606224
4 C0 11 0 18 0
0

0101000
+25 0 -23 0 *
Ed
 5e-06 1 1 0
1  31 0 0 1
2  69 11 0 0 1
2  70 12 0 0 1
0

0101000
+66 0 -23 0 *
Wi

0101100
-28 0 -24 0 -22 0 +21 0 +65 0 *
Fa
0  1e-07 11 0

0101000
+20 0 *
Ve
5.000001e-06
21.1261515133477 16.9563439455991 -0.0389092888275449
0 0

0101101
*
Ed
 5e-06 1 1 0
1  32 0 0 1
2  71 15 0 0 1
2  72 12 0 0 1
0

0101000
+18 0 -39 0 *
Ed
 5e-06 1 1 0
1  33 0 0.00236200157859802 0.976496605068618
2  73 18 0 0.00236200157859802 0.976496605068618
2  74 12 0 0.00236200157859802 0.976496605068618
0

0101000
+23 0 -18 0 *
Wi

0101100
+38 0 +17 0 +16 0 +21 0 +63 0 +58 0 *
Fa
0  1e-07 12 0

0101000
+15 0 *
Ve
5.000001e-06
21.5069064992324 16.9563439455991 -0.0686057609670473
0 0

0101101
*
Ed
 1e-07 1 1 0
1  34 0 0.688990011734239 0.793127673441882
2  75 18 0 0.688990011734239 0.793127673441882
2  76 15 0 0.688990011734239 0.793127673441882
4 C0 15 0 18 0
0

0101000
+18 0 -13 0 *
Ed
 5e-06 1 1 0
1  35 0 0 1
2  77 15 0 0 1
2  78 16 0 0 1
0

0101000
+13 0 -32 0 *
Wi

0101100
-12 0 -11 0 -31 0 +36 0 +17 0 *
Fa
0  1e-07 15 0

0101000
+10 0 *
Ed
 5e-06 1 1 0
1  36 0 0.132556479361751 0.898082662002341
2  79 18 0 0.132556479361751 0.898082662002341
2  80 16 0 0.132556479361751 0.898082662002341
0

0101000
+25 0 -13 0 *
Wi

0101100
+11 0 +8 0 +24 0 +29 0 *
Fa
0  1e-07 16 0

0101000
+7 0 *
Wi

0101100
-22 0 -16 0 -12 0 +8 0 *
Fa
0  1e-07 18 0

0101000
+5 0 *
Sh

0101100
+82 0 +71 0 +60 0 -51 0 +48 0 +43 0 +40 0 +33 0 +26 0 +19 0 
-14 0 +9 0 +6 0 -4 0 *
So

0100000
+3 0 *
Co

1100000
+2 0 *

+1 0 