DBRep_DrawableShape

CASCADE Topology V3, (c) Open Cascade
Locations 0
Curve2ds 28
1 0 0 0 1 
1 1 0 0 1 
1 0 0 1 0 
7 0 0  3 39 37  0 0  0.025342996336814139 0.0021807540314184859  0.15037799036263522 0.012407152974438063  0.38517056188259602 0.036394309848600814  0.65830658036690792 0.072272585524557065  0.99535669398530402 0.1276919389136546  1.3880121244173864 0.20507897549862453  1.8254871426882993 0.29231290520886966  2.2961693379314099 0.37939145304374167  2.7875953841212429 0.45184683598299102  3.2862608115437251 0.50094030455410365  3.7781890327089762 0.52583121586404857  4.2498935808530369 0.52860126931654272  4.6885556169301914 0.51029835631355924  5.0826051708286322 0.47271521876548617  5.4214598314013713 0.41679793954764843  5.6983834636256709 0.34620965808904525  5.9017666455481503 0.2404533040102792  6.0429571174442316 0.13739031850964256  6.0912384638294537 0.00010752321774210039  6.0440065969393846 -0.15786829098849819  5.9065371126241253 -0.2657442209431326  5.696557074731329 -0.34054330453883891  5.4200619326282009 -0.38167551368507213  5.0814462405683507 -0.40392231743643991  4.687867629083188 -0.40855747369343071  4.2495871917977777 -0.3966632158226423  3.7783339513927245 -0.37567647148478966  3.2868826647988687 -0.34800956301049168  2.7886078840769599 -0.31600701945720022  2.2970952021890341 -0.28064005514181123  1.82573907140765 -0.24202125352091008  1.3875264706060015 -0.19898951318239733  0.9943189303003237 -0.15273440270846284  0.65743491891620565 -0.10664219587940027  0.38473102993619435 -0.064633845982792759  0.15009352406980625 -0.025819684736644311  0.024902276861062944 -0.0086100775452452316  0 0 
 0 4 0.027802170644521226 1 0.048716898504577055 1 0.073335739460436408 1 0.10086569028022668 1 0.1306720518051786 1 0.16217417622903404 1 0.19481388357548846 1 0.22807441102547932 1 0.26148384673944097 1 0.29460475266944997 1 0.32700951388024907 1 0.35826172124127287 1 0.38791061800727045 1 0.41550520767628213 1 0.44065725169071829 1 0.46290905811233835 1 0.4824331221564615 1 0.50053165238733233 1 0.51867591264437729 1 0.53845629891641922 1 0.5604806219212316 1 0.58530589407718547 1 0.61272088645832934 1 0.64228922122032739 1 0.67351951065456328 1 0.7059272930902466 1 0.73903907817009984 1 0.77239035764311803 1 0.80552166805238146 1 0.83797313990671007 1 0.86927500575916905 1 0.89893242097380677 1 0.92640089580882545 1 0.95104014700441042 1 0.97201725496010261 1 1 4
1 0.50015032878335974 0 0 1 
1 0.50015032878335974 0 0 1 
1 0 0.19628890089473114 1 0 
1 0 0.19628890089473114 1 0 
1 0 0 1 0 
7 0 0  3 39 37  0 0  0.025342996336814139 0.0021807540314184859  0.15037799036263522 0.012407152974438063  0.38517056188259602 0.036394309848600814  0.65830658036690792 0.072272585524557065  0.99535669398530402 0.1276919389136546  1.3880121244173864 0.20507897549862453  1.8254871426882993 0.29231290520886966  2.2961693379314099 0.37939145304374167  2.7875953841212429 0.45184683598299102  3.2862608115437251 0.50094030455410365  3.7781890327089762 0.52583121586404857  4.2498935808530369 0.52860126931654272  4.6885556169301914 0.51029835631355924  5.0826051708286322 0.47271521876548617  5.4214598314013713 0.41679793954764843  5.6983834636256709 0.34620965808904525  5.9017666455481503 0.2404533040102792  6.0429571174442316 0.13739031850964256  6.0912384638294537 0.00010752321774210039  6.0440065969393846 -0.15786829098849819  5.9065371126241253 -0.2657442209431326  5.696557074731329 -0.34054330453883891  5.4200619326282009 -0.38167551368507213  5.0814462405683507 -0.40392231743643991  4.687867629083188 -0.40855747369343071  4.2495871917977777 -0.3966632158226423  3.7783339513927245 -0.37567647148478966  3.2868826647988687 -0.34800956301049168  2.7886078840769599 -0.31600701945720022  2.2970952021890341 -0.28064005514181123  1.82573907140765 -0.24202125352091008  1.3875264706060015 -0.19898951318239733  0.9943189303003237 -0.15273440270846284  0.65743491891620565 -0.10664219587940027  0.38473102993619435 -0.064633845982792759  0.15009352406980625 -0.025819684736644311  0.024902276861062944 -0.0086100775452452316  0 0 
 0 4 0.027802170644521226 1 0.048716898504577055 1 0.073335739460436408 1 0.10086569028022668 1 0.1306720518051786 1 0.16217417622903404 1 0.19481388357548846 1 0.22807441102547932 1 0.26148384673944097 1 0.29460475266944997 1 0.32700951388024907 1 0.35826172124127287 1 0.38791061800727045 1 0.41550520767628213 1 0.44065725169071829 1 0.46290905811233835 1 0.4824331221564615 1 0.50053165238733233 1 0.51867591264437729 1 0.53845629891641922 1 0.5604806219212316 1 0.58530589407718547 1 0.61272088645832934 1 0.64228922122032739 1 0.67351951065456328 1 0.7059272930902466 1 0.73903907817009984 1 0.77239035764311803 1 0.80552166805238146 1 0.83797313990671007 1 0.86927500575916905 1 0.89893242097380677 1 0.92640089580882545 1 0.95104014700441042 1 0.97201725496010261 1 1 4
1 0 0.19628890089473114 1 0 
1 0 0.19628890089473114 1 0 
1 0 0 0 1 
1 1 0 0 1 
1 0.50015032878335974 0 0 1 
1 0.50015032878335974 0 0 1 
1 0 0.50985846732038675 1 0 
1 0 0.50985846732038675 1 0 
1 0 0.50985846732038675 1 0 
1 0 0.50985846732038675 1 0 
1 0 0 0 1 
1 1 0 0 1 
1 0.50015032878335974 0 0 1 
1 0.50015032878335974 0 0 1 
1 0 1.0000000000000004 1 0 
7 0 0  3 39 37  0 0  0.0062394456981103019 0.00038415932706969969  0.037023061227198895 0.0021856309647214633  0.094828992335280304 0.0064111831867188496  0.16207508008596605 0.012731462338570698  0.24505681805862878 0.022494077102940602  0.34172858503078274 0.036126495738916353  0.44943493452884198 0.051493532668488107  0.56531689099742977 0.066833197690993607  0.68630598356908834 0.079596861429083066  0.80907741180022796 0.088245115004715213  0.93019013985083276 0.092629871653660323  1.0463237996036412 0.093117841344384611  1.1543223928855895 0.089893619519575974  1.2513373930551595 0.083273013700845055  1.3347634104879802 0.073422684848346242  1.4029420087414515 0.060987927735232206  1.4530149481306474 0.042358000090526038  1.4877760423113884 0.024202533410063176  1.4996629097914003 1.8941176481712674e-05  1.488034424163093 -0.027809911415049959  1.4541894371247501 -0.04681322130755472  1.4024923517956616 -0.059989748878091831  1.334419247810029 -0.067235555401362501  1.2510520644250853 -0.071154528855243759  1.1541530102776569 -0.071971053086263836  1.046248366618233 -0.069875773181330425  0.93022581883077748 -0.066178770462978709  0.8092305120716432 -0.061304997085305568  0.6865552610581851 -0.055667462811002433  0.56554483877765804 -0.049437255728429608  0.44949695937954459 -0.042634208420399222  0.34160901706241731 -0.035053782488401075  0.24480132063938242 -0.026905531077563771  0.16186047703680373 -0.018785976600764087  0.094720779570078406 -0.011385830048203816  0.036953025625905411 -0.0045483683949102405  0.0061309405631817526 -0.0015167421672247494  0 0 
 0 4 0.027802170644521226 1 0.048716898504577055 1 0.073335739460436408 1 0.10086569028022668 1 0.1306720518051786 1 0.16217417622903404 1 0.19481388357548846 1 0.22807441102547932 1 0.26148384673944097 1 0.29460475266944997 1 0.32700951388024907 1 0.35826172124127287 1 0.38791061800727045 1 0.41550520767628213 1 0.44065725169071829 1 0.46290905811233835 1 0.4824331221564615 1 0.50053165238733233 1 0.51867591264437729 1 0.53845629891641922 1 0.5604806219212316 1 0.58530589407718547 1 0.61272088645832934 1 0.64228922122032739 1 0.67351951065456328 1 0.7059272930902466 1 0.73903907817009984 1 0.77239035764311803 1 0.80552166805238146 1 0.83797313990671007 1 0.86927500575916905 1 0.89893242097380677 1 0.92640089580882545 1 0.95104014700441042 1 0.97201725496010261 1 1 4
7 0 0  3 39 37  0 0  0.0062394456981103019 0.00038415932706969969  0.037023061227198895 0.0021856309647214633  0.094828992335280304 0.0064111831867188496  0.16207508008596605 0.012731462338570698  0.24505681805862878 0.022494077102940602  0.34172858503078274 0.036126495738916353  0.44943493452884198 0.051493532668488107  0.56531689099742977 0.066833197690993607  0.68630598356908834 0.079596861429083066  0.80907741180022796 0.088245115004715213  0.93019013985083276 0.092629871653660323  1.0463237996036412 0.093117841344384611  1.1543223928855895 0.089893619519575974  1.2513373930551595 0.083273013700845055  1.3347634104879802 0.073422684848346242  1.4029420087414515 0.060987927735232206  1.4530149481306474 0.042358000090526038  1.4877760423113884 0.024202533410063176  1.4996629097914003 1.8941176481712674e-05  1.488034424163093 -0.027809911415049959  1.4541894371247501 -0.04681322130755472  1.4024923517956616 -0.059989748878091831  1.334419247810029 -0.067235555401362501  1.2510520644250853 -0.071154528855243759  1.1541530102776569 -0.071971053086263836  1.046248366618233 -0.069875773181330425  0.93022581883077748 -0.066178770462978709  0.8092305120716432 -0.061304997085305568  0.6865552610581851 -0.055667462811002433  0.56554483877765804 -0.049437255728429608  0.44949695937954459 -0.042634208420399222  0.34160901706241731 -0.035053782488401075  0.24480132063938242 -0.026905531077563771  0.16186047703680373 -0.018785976600764087  0.094720779570078406 -0.011385830048203816  0.036953025625905411 -0.0045483683949102405  0.0061309405631817526 -0.0015167421672247494  0 0 
 0 4 0.027802170644521226 1 0.048716898504577055 1 0.073335739460436408 1 0.10086569028022668 1 0.1306720518051786 1 0.16217417622903404 1 0.19481388357548846 1 0.22807441102547932 1 0.26148384673944097 1 0.29460475266944997 1 0.32700951388024907 1 0.35826172124127287 1 0.38791061800727045 1 0.41550520767628213 1 0.44065725169071829 1 0.46290905811233835 1 0.4824331221564615 1 0.50053165238733233 1 0.51867591264437729 1 0.53845629891641922 1 0.5604806219212316 1 0.58530589407718547 1 0.61272088645832934 1 0.64228922122032739 1 0.67351951065456328 1 0.7059272930902466 1 0.73903907817009984 1 0.77239035764311803 1 0.80552166805238146 1 0.83797313990671007 1 0.86927500575916905 1 0.89893242097380677 1 0.92640089580882545 1 0.95104014700441042 1 0.97201725496010261 1 1 4
1 0 1.0000000000000004 1 0 
Curves 14
7 0 0  1 2 2  18.817613218278041 0 -1.3483197815700778  18.817613218278041 1.85623036491 -1.3483197815700778 
 0 2 0.19628890089473114 2
7 0 0  3 21 19  18.817613218278041 0 -1.3483197815700778  18.792209552991721 0 -1.3496147493279744  18.666893830729737 0 -1.3554712602633645  18.431407148798232 0 -1.3712496622341384  18.157185383632847 0 -1.3975737722575237  17.81840648429602 0 -1.4411964863451145  17.42328948031485 0 -1.5048329039387411  16.983036539762622 0 -1.5767460351384166  16.509602073902421 0 -1.6473449653539183  16.015946734784073 0 -1.7026056887530348  15.515871743521975 0 -1.7342660784695727  15.023374511460419 0 -1.7419737795764538  14.551860639510727 0 -1.7282798942647206  14.114104586945693 0 -1.6946790466202235  13.721606709973553 0 -1.6433666725971816  13.384909955406163 0 -1.5756575995657236  13.110618513072389 0 -1.4954478231912969  12.911050070219547 0 -1.3826579223391471  12.774418202285592 0 -1.2754176053424635  12.744822221588937 0 -1.1829299954877033  12.745594582200001 0 -1.13628021843 
 0 4 0.027802170644521226 1 0.048716898504577055 1 0.073335739460436408 1 0.10086569028022668 1 0.1306720518051786 1 0.16217417622903404 1 0.19481388357548846 1 0.22807441102547932 1 0.26148384673944097 1 0.29460475266944997 1 0.32700951388024907 1 0.35826172124127287 1 0.38791061800727045 1 0.41550520767628213 1 0.44065725169071829 1 0.46290905811233835 1 0.4824331221564615 1 0.50015032878335974 4
7 0 0  1 2 2  12.745594582200001 0 -1.13628021843  12.745594582200001 1.85623036491 -1.13628021843 
 0 2 0.19628890089473114 2
7 0 0  3 21 19  18.817613218278041 1.85623036491 -1.3483197815700778  18.792209552991721 1.85623036491 -1.3496147493279744  18.666893830729737 1.85623036491 -1.3554712602633645  18.431407148798232 1.85623036491 -1.3712496622341384  18.157185383632847 1.85623036491 -1.3975737722575237  17.81840648429602 1.85623036491 -1.4411964863451145  17.42328948031485 1.85623036491 -1.5048329039387411  16.983036539762622 1.85623036491 -1.5767460351384166  16.509602073902421 1.85623036491 -1.6473449653539183  16.015946734784073 1.85623036491 -1.7026056887530348  15.515871743521975 1.85623036491 -1.7342660784695727  15.023374511460419 1.85623036491 -1.7419737795764538  14.551860639510727 1.85623036491 -1.7282798942647206  14.114104586945693 1.85623036491 -1.6946790466202235  13.721606709973553 1.85623036491 -1.6433666725971816  13.384909955406163 1.85623036491 -1.5756575995657236  13.110618513072389 1.85623036491 -1.4954478231912969  12.911050070219547 1.85623036491 -1.3826579223391471  12.774418202285592 1.85623036491 -1.2754176053424635  12.744822221588937 1.85623036491 -1.1829299954877033  12.745594582200001 1.85623036491 -1.13628021843 
 0 4 0.027802170644521226 1 0.048716898504577055 1 0.073335739460436408 1 0.10086569028022668 1 0.1306720518051786 1 0.16217417622903404 1 0.19481388357548846 1 0.22807441102547932 1 0.26148384673944097 1 0.29460475266944997 1 0.32700951388024907 1 0.35826172124127287 1 0.38791061800727045 1 0.41550520767628213 1 0.44065725169071829 1 0.46290905811233835 1 0.4824331221564615 1 0.50015032878335974 4
7 0 0  3 22 20  12.745594582200001 0 -1.13628021843  12.745611205550283 0 -1.1352761853740694  12.746753056376331 0 -1.0864383051289537  12.782797990754702 0 -0.97961487137921122  12.923948548036147 0 -0.87660227234095001  13.136411122134628 0 -0.80917695196599726  13.414173324265301 0 -0.77771934075030646  13.753359143048801 0 -0.7673036063791534  14.146859761698492 0 -0.77640696918781804  14.584458106770107 0 -0.80358974807389649  15.054691845619129 0 -0.84101020876370047  15.544878192186694 0 -0.88581166586081284  16.041732564711911 0 -0.93518425339599509  16.531711541099753 0 -0.98768321833309147  17.001432757722061 0 -1.0427285861553988  17.437876625167362 0 -1.1010275119370476  17.829230353988137 0 -1.1609771903037491  18.164300549914582 0 -1.2187984014502065  18.435372244784947 0 -1.2702983894693018  18.668512221130033 0 -1.3172776370394097  18.793026598584103 0 -1.3388458721222394  18.817613218278041 0 -1.3483197815700778 
 0.50015032878335974 4 0.50053165238733233 1 0.51867591264437729 1 0.53845629891641922 1 0.5604806219212316 1 0.58530589407718547 1 0.61272088645832934 1 0.64228922122032739 1 0.67351951065456328 1 0.7059272930902466 1 0.73903907817009984 1 0.77239035764311803 1 0.80552166805238146 1 0.83797313990671007 1 0.86927500575916905 1 0.89893242097380677 1 0.92640089580882545 1 0.95104014700441042 1 0.97201725496010261 1 1 4
7 0 0  3 22 20  12.745594582200001 1.85623036491 -1.13628021843  12.745611205550283 1.85623036491 -1.1352761853740694  12.746753056376331 1.85623036491 -1.0864383051289537  12.782797990754702 1.85623036491 -0.97961487137921122  12.923948548036147 1.85623036491 -0.87660227234095001  13.136411122134628 1.85623036491 -0.80917695196599726  13.414173324265301 1.85623036491 -0.77771934075030646  13.753359143048801 1.85623036491 -0.7673036063791534  14.146859761698492 1.85623036491 -0.77640696918781804  14.584458106770107 1.85623036491 -0.80358974807389649  15.054691845619129 1.85623036491 -0.84101020876370047  15.544878192186694 1.85623036491 -0.88581166586081284  16.041732564711911 1.85623036491 -0.93518425339599509  16.531711541099753 1.85623036491 -0.98768321833309147  17.001432757722061 1.85623036491 -1.0427285861553988  17.437876625167362 1.85623036491 -1.1010275119370476  17.829230353988137 1.85623036491 -1.1609771903037491  18.164300549914582 1.85623036491 -1.2187984014502065  18.435372244784947 1.85623036491 -1.2702983894693018  18.668512221130033 1.85623036491 -1.3172776370394097  18.793026598584103 1.85623036491 -1.3388458721222394  18.817613218278041 1.85623036491 -1.3483197815700778 
 0.50015032878335974 4 0.50053165238733233 1 0.51867591264437729 1 0.53845629891641922 1 0.5604806219212316 1 0.58530589407718547 1 0.61272088645832934 1 0.64228922122032739 1 0.67351951065456328 1 0.7059272930902466 1 0.73903907817009984 1 0.77239035764311803 1 0.80552166805238146 1 0.83797313990671007 1 0.86927500575916905 1 0.89893242097380677 1 0.92640089580882545 1 0.95104014700441042 1 0.97201725496010261 1 1 4
7 0 0  1 2 2  18.817613218278041 1.85623036491 -1.3483197815700778  18.836422557259382 6.3331944636655546 -0.9570542639985028 
 0.19628890089473114 2 0.50985846732038675 2
7 0 0  1 2 2  12.745594582200001 1.85623036491 -1.13628021843  15.080271828981321 6.3331944636655546 -0.82588659024004418 
 0.19628890089473114 2 0.50985846732038675 2
7 0 0  3 21 19  18.836422557259382 6.3331944636655546 -0.9570542639985028  18.820718415705045 6.3331944636655546 -0.95755276636401077  18.743247656997184 6.3331944636655546 -0.95975676119877984  18.597691813752853 6.3331944636655546 -0.96618922688947806  18.428232060700548 6.3331944636655546 -0.97749545627013223  18.218931941316271 6.3331944636655546 -0.99679141139632277  17.974887504211885 6.3331944636655546 -1.0254199778877939  17.702969685115658 6.3331944636655546 -1.0578023304197164  17.410525021635991 6.3331944636655546 -1.0893932763940863  17.10550087646677 6.3331944636655546 -1.1135248716315402  16.796392345593897 6.3331944636655546 -1.1262986061049012  16.491854154745305 6.3331944636655546 -1.1276131465015309  16.200189094515085 6.3331944636655546 -1.1187577830986157  15.929304522461742 6.3331944636655546 -1.1005117025988929  15.686323244801883 6.3331944636655546 -1.0739842710190626  15.477771712221561 6.3331944636655546 -1.0398575780494728  15.307753024524111 6.3331944636655546 -1.0000334510957027  15.183787594372895 6.3331944636655546 -0.94493458840882527  15.098770959056688 6.3331944636655546 -0.89280394363985793  15.080020058613446 6.3331944636655555 -0.84827200813908599  15.080271828981321 6.3331944636655546 -0.82588659024004418 
 0 4 0.027802170644521226 1 0.048716898504577055 1 0.073335739460436408 1 0.10086569028022668 1 0.1306720518051786 1 0.16217417622903404 1 0.19481388357548846 1 0.22807441102547932 1 0.26148384673944097 1 0.29460475266944997 1 0.32700951388024907 1 0.35826172124127287 1 0.38791061800727045 1 0.41550520767628213 1 0.44065725169071829 1 0.46290905811233835 1 0.4824331221564615 1 0.50015032878335974 4
7 0 0  3 22 20  15.080271828981321 6.3331944636655546 -0.82588659024004418  15.080277247780462 6.3331944636655546 -0.82540479373512921  15.080746927378231 6.3331944636655546 -0.80197100369966012  15.102520982856555 6.3331944636655546 -0.75087655095352646  15.189314056805884 6.3331944636655546 -0.70212000380807171  15.320381002262755 6.3331944636655546 -0.67078856129936759  15.492005414221373 6.3331944636655546 -0.65703569537476225  15.701717975563955 6.3331944636655546 -0.65367911378216603  15.945115000846775 6.3331944636655546 -0.65995355020784074  16.215870964997446 6.3331944636655546 -0.67511857039105116  16.506859236996263 6.3331944636655546 -0.69535510029995429  16.810222557642938 6.3331944636655546 -0.71923068755374397  17.117731725375513 6.3331944636655546 -0.74533243641681746  17.421004073735492 6.3331944636655546 -0.77290137199725761  17.711760727113663 6.3331944636655546 -0.8015943422427374  17.981953393056926 6.3331944636655546 -0.8316876984116246  18.22426891653226 6.3331944636655546 -0.86235498959479961  18.431766657288126 6.3331944636655546 -0.89172821272080327  18.599655138931769 6.3331944636655546 -0.91775773440610153  18.744063583595278 6.3331944636655546 -0.94143389785325837  18.82117155833901 6.3331944636655546 -0.95238829291747029  18.836422557259382 6.3331944636655546 -0.9570542639985028 
 0.50015032878335974 4 0.50053165238733233 1 0.51867591264437729 1 0.53845629891641922 1 0.5604806219212316 1 0.58530589407718547 1 0.61272088645832934 1 0.64228922122032739 1 0.67351951065456328 1 0.7059272930902466 1 0.73903907817009984 1 0.77239035764311803 1 0.80552166805238146 1 0.83797313990671007 1 0.86927500575916905 1 0.89893242097380677 1 0.92640089580882545 1 0.95104014700441042 1 0.97201725496010261 1 1 4
7 0 0  1 2 2  18.836422557259382 6.3331944636655546 -0.9570542639985028  22.115034014736974 16.956343945599123 -0.14157423473675021 
 0.50985846732038675 2 1.0000000000000004 2
7 0 0  1 2 2  15.080271828981321 6.3331944636655546 -0.82588659024004418  20.620103026537961 16.956343945599123 -0.089370094291781887 
 0.50985846732038675 2 1.0000000000000004 2
7 0 0  3 21 19  22.115034014736974 16.956343945599123 -0.14157423473675021  22.108784962973431 16.956343945599123 -0.1417404065297708  22.077957229537699 16.956343945599123 -0.14246644807092659  22.020039042595148 16.956343945599123 -0.14467202829858944  21.952613344782772 16.956343945599123 -0.14864160268943905  21.869341446701014 16.956343945599123 -0.15550224944192687  21.77225280500808 16.956343945599123 -0.16575256756413548  21.664075765453362 16.956343945599123 -0.17735134592086743  21.547729054552757 16.956343945599123 -0.18863744447625019  21.426368219826735 16.956343945599123 -0.1971708744980098  21.303369760935357 16.956343945599123 -0.20152919873651765  21.182177785686111 16.956343945599123 -0.2016845110569514  21.066097841524389 16.956343945599123 -0.19811917721413216  20.958277561786385 16.956343945599123 -0.19112782294802561  20.861552716344598 16.956343945599123 -0.18112547554496544  20.778521291306809 16.956343945599123 -0.16836962122635712  20.710818192378138 16.956343945599123 -0.15356304026637249  20.661425931169092 16.956343945599123 -0.13319694108712571  20.627536842822035 16.956343945599126 -0.11396267246087949  20.620026898383269 16.956343945599119 -0.097589962555536189  20.620103026537961 16.956343945599123 -0.089370094291781887 
 0 4 0.027802170644521226 1 0.048716898504577055 1 0.073335739460436408 1 0.10086569028022668 1 0.1306720518051786 1 0.16217417622903404 1 0.19481388357548846 1 0.22807441102547932 1 0.26148384673944097 1 0.29460475266944997 1 0.32700951388024907 1 0.35826172124127287 1 0.38791061800727045 1 0.41550520767628213 1 0.44065725169071829 1 0.46290905811233835 1 0.4824331221564615 1 0.50015032878335974 4
8 0.50015032878335974 1
7 0 0  3 39 37  22.115034014736974 16.956343945599123 -0.14157423473675021  22.108784962973431 16.956343945599123 -0.1417404065297708  22.077957229537699 16.956343945599123 -0.14246644807092659  22.020039042595148 16.956343945599123 -0.14467202829858944  21.952613344782772 16.956343945599123 -0.14864160268943905  21.869341446701014 16.956343945599123 -0.15550224944192687  21.77225280500808 16.956343945599123 -0.16575256756413548  21.664075765453362 16.956343945599123 -0.17735134592086743  21.547729054552757 16.956343945599123 -0.18863744447625019  21.426368219826735 16.956343945599123 -0.1971708744980098  21.303369760935357 16.956343945599123 -0.20152919873651765  21.182177785686111 16.956343945599123 -0.2016845110569514  21.066097841524389 16.956343945599123 -0.19811917721413216  20.958277561786385 16.956343945599123 -0.19112782294802561  20.861552716344598 16.956343945599123 -0.18112547554496544  20.778521291306809 16.956343945599123 -0.16836962122635712  20.710818192378138 16.956343945599123 -0.15356304026637249  20.661425931169092 16.956343945599123 -0.13319694108712571  20.627319629157263 16.956343945599123 -0.11383938953468428  20.616283998033158 16.956343945599123 -0.089255683599651012  20.628876612851464 16.956343945599123 -0.061849611889047848  20.663364188389092 16.956343945599123 -0.04403905131301817  20.715489635431105 16.956343945599123 -0.032674752786030617  20.783774146121932 16.956343945599123 -0.027809077280394424  20.867227314672395 16.956343945599123 -0.02680196390089376  20.964095836818867 16.956343945599123 -0.029367665295067111  21.071861623670728 16.956343945599123 -0.035227486567671613  21.187684470122718 16.956343945599123 -0.042971365695781014  21.308435977572234 16.956343945599123 -0.052064845411655999  21.430839751028532 16.956343945599123 -0.061980249970622847  21.551559025937866 16.956343945599123 -0.07242986461272316  21.667298789176265 16.956343945599123 -0.083278780272532285  21.774856456024146 16.956343945599123 -0.094619823301005129  21.871320809940933 16.956343945599123 -0.10614165089933365  21.953927759857891 16.956343945599123 -0.11715085286074016  22.020768296244764 16.956343945599123 -0.12688963309431261  22.078262235663644 16.956343945599123 -0.13573899508899465  22.108959742515395 16.956343945599123 -0.13984444978790472  22.115034014736974 16.956343945599123 -0.14157423473675021 
 0 4 0.027802170644521226 1 0.048716898504577055 1 0.073335739460436408 1 0.10086569028022668 1 0.1306720518051786 1 0.16217417622903404 1 0.19481388357548846 1 0.22807441102547932 1 0.26148384673944097 1 0.29460475266944997 1 0.32700951388024907 1 0.35826172124127287 1 0.38791061800727045 1 0.41550520767628213 1 0.44065725169071829 1 0.46290905811233835 1 0.4824331221564615 1 0.50053165238733233 1 0.51867591264437729 1 0.53845629891641922 1 0.5604806219212316 1 0.58530589407718547 1 0.61272088645832934 1 0.64228922122032739 1 0.67351951065456328 1 0.7059272930902466 1 0.73903907817009984 1 0.77239035764311803 1 0.80552166805238146 1 0.83797313990671007 1 0.86927500575916905 1 0.89893242097380677 1 0.92640089580882545 1 0.95104014700441042 1 0.97201725496010261 1 1 4
Polygon3D 0
PolygonOnTriangulations 0
Surfaces 8
9 0 0 0 0 3 1 21 2 19 2 18.817613218278041 0 -1.3483197815700778  18.817613218278041 1.85623036491 -1.3483197815700778  
18.792209552991721 0 -1.3496147493279744  18.792209552991721 1.85623036491 -1.3496147493279744  
18.666893830729737 0 -1.3554712602633645  18.666893830729737 1.85623036491 -1.3554712602633645  
18.431407148798232 0 -1.3712496622341384  18.431407148798232 1.85623036491 -1.3712496622341384  
18.157185383632847 0 -1.3975737722575237  18.157185383632847 1.85623036491 -1.3975737722575237  
17.81840648429602 0 -1.4411964863451145  17.81840648429602 1.85623036491 -1.4411964863451145  
17.42328948031485 0 -1.5048329039387411  17.42328948031485 1.85623036491 -1.5048329039387411  
16.983036539762622 0 -1.5767460351384166  16.983036539762622 1.85623036491 -1.5767460351384166  
16.509602073902421 0 -1.6473449653539183  16.509602073902421 1.85623036491 -1.6473449653539183  
16.015946734784073 0 -1.7026056887530348  16.015946734784073 1.85623036491 -1.7026056887530348  
15.515871743521975 0 -1.7342660784695727  15.515871743521975 1.85623036491 -1.7342660784695727  
15.023374511460419 0 -1.7419737795764538  15.023374511460419 1.85623036491 -1.7419737795764538  
14.551860639510727 0 -1.7282798942647206  14.551860639510727 1.85623036491 -1.7282798942647206  
14.114104586945693 0 -1.6946790466202235  14.114104586945693 1.85623036491 -1.6946790466202235  
13.721606709973553 0 -1.6433666725971816  13.721606709973553 1.85623036491 -1.6433666725971816  
13.384909955406163 0 -1.5756575995657236  13.384909955406163 1.85623036491 -1.5756575995657236  
13.110618513072389 0 -1.4954478231912969  13.110618513072389 1.85623036491 -1.4954478231912969  
12.911050070219547 0 -1.3826579223391471  12.911050070219547 1.85623036491 -1.3826579223391471  
12.774418202285592 0 -1.2754176053424635  12.774418202285592 1.85623036491 -1.2754176053424635  
12.744822221588937 0 -1.1829299954877033  12.744822221588937 1.85623036491 -1.1829299954877033  
12.745594582200001 0 -1.13628021843  12.745594582200001 1.85623036491 -1.13628021843  

0 4
0.027802170644521226 1
0.048716898504577055 1
0.073335739460436408 1
0.10086569028022668 1
0.1306720518051786 1
0.16217417622903404 1
0.19481388357548846 1
0.22807441102547932 1
0.26148384673944097 1
0.29460475266944997 1
0.32700951388024907 1
0.35826172124127287 1
0.38791061800727045 1
0.41550520767628213 1
0.44065725169071829 1
0.46290905811233835 1
0.4824331221564615 1
0.50015032878335974 4

0 2
0.19628890089473114 2

9 0 0 0 0 3 1 22 2 20 2 12.745594582200001 0 -1.13628021843  12.745594582200001 1.85623036491 -1.13628021843  
12.745611205550283 0 -1.1352761853740694  12.745611205550283 1.85623036491 -1.1352761853740694  
12.746753056376331 0 -1.0864383051289537  12.746753056376331 1.85623036491 -1.0864383051289537  
12.782797990754702 0 -0.97961487137921122  12.782797990754702 1.85623036491 -0.97961487137921122  
12.923948548036147 0 -0.87660227234095001  12.923948548036147 1.85623036491 -0.87660227234095001  
13.136411122134628 0 -0.80917695196599726  13.136411122134628 1.85623036491 -0.80917695196599726  
13.414173324265301 0 -0.77771934075030646  13.414173324265301 1.85623036491 -0.77771934075030646  
13.753359143048801 0 -0.7673036063791534  13.753359143048801 1.85623036491 -0.7673036063791534  
14.146859761698492 0 -0.77640696918781804  14.146859761698492 1.85623036491 -0.77640696918781804  
14.584458106770107 0 -0.80358974807389649  14.584458106770107 1.85623036491 -0.80358974807389649  
15.054691845619129 0 -0.84101020876370047  15.054691845619129 1.85623036491 -0.84101020876370047  
15.544878192186694 0 -0.88581166586081284  15.544878192186694 1.85623036491 -0.88581166586081284  
16.041732564711911 0 -0.93518425339599509  16.041732564711911 1.85623036491 -0.93518425339599509  
16.531711541099753 0 -0.98768321833309147  16.531711541099753 1.85623036491 -0.98768321833309147  
17.001432757722061 0 -1.0427285861553988  17.001432757722061 1.85623036491 -1.0427285861553988  
17.437876625167362 0 -1.1010275119370476  17.437876625167362 1.85623036491 -1.1010275119370476  
17.829230353988137 0 -1.1609771903037491  17.829230353988137 1.85623036491 -1.1609771903037491  
18.164300549914582 0 -1.2187984014502065  18.164300549914582 1.85623036491 -1.2187984014502065  
18.435372244784947 0 -1.2702983894693018  18.435372244784947 1.85623036491 -1.2702983894693018  
18.668512221130033 0 -1.3172776370394097  18.668512221130033 1.85623036491 -1.3172776370394097  
18.793026598584103 0 -1.3388458721222394  18.793026598584103 1.85623036491 -1.3388458721222394  
18.817613218278041 0 -1.3483197815700778  18.817613218278041 1.85623036491 -1.3483197815700778  

0.50015032878335974 4
0.50053165238733233 1
0.51867591264437729 1
0.53845629891641922 1
0.5604806219212316 1
0.58530589407718547 1
0.61272088645832934 1
0.64228922122032739 1
0.67351951065456328 1
0.7059272930902466 1
0.73903907817009984 1
0.77239035764311803 1
0.80552166805238146 1
0.83797313990671007 1
0.86927500575916905 1
0.89893242097380677 1
0.92640089580882545 1
0.95104014700441042 1
0.97201725496010261 1
1 4

0 2
0.19628890089473114 2

1 18.817613218278041 0 -1.3483197815700778 -0 -1 0 -0.99939082701909576 0 0.034899496702500983 -0.034899496702500983 0 -0.99939082701909576 
9 0 0 0 0 3 1 21 2 19 2 18.817613218278041 1.85623036491 -1.3483197815700778  18.836422557259382 6.3331944636655546 -0.9570542639985028  
18.792209552991721 1.85623036491 -1.3496147493279744  18.820718415705045 6.3331944636655546 -0.95755276636401077  
18.666893830729737 1.85623036491 -1.3554712602633645  18.743247656997184 6.3331944636655546 -0.95975676119877984  
18.431407148798232 1.85623036491 -1.3712496622341384  18.597691813752853 6.3331944636655546 -0.96618922688947806  
18.157185383632847 1.85623036491 -1.3975737722575237  18.428232060700548 6.3331944636655546 -0.97749545627013223  
17.81840648429602 1.85623036491 -1.4411964863451145  18.218931941316271 6.3331944636655546 -0.99679141139632277  
17.42328948031485 1.85623036491 -1.5048329039387411  17.974887504211885 6.3331944636655546 -1.0254199778877939  
16.983036539762622 1.85623036491 -1.5767460351384166  17.702969685115658 6.3331944636655546 -1.0578023304197164  
16.509602073902421 1.85623036491 -1.6473449653539183  17.410525021635991 6.3331944636655546 -1.0893932763940863  
16.015946734784073 1.85623036491 -1.7026056887530348  17.10550087646677 6.3331944636655546 -1.1135248716315402  
15.515871743521975 1.85623036491 -1.7342660784695727  16.796392345593897 6.3331944636655546 -1.1262986061049012  
15.023374511460419 1.85623036491 -1.7419737795764538  16.491854154745305 6.3331944636655546 -1.1276131465015309  
14.551860639510727 1.85623036491 -1.7282798942647206  16.200189094515085 6.3331944636655546 -1.1187577830986157  
14.114104586945693 1.85623036491 -1.6946790466202235  15.929304522461742 6.3331944636655546 -1.1005117025988929  
13.721606709973553 1.85623036491 -1.6433666725971816  15.686323244801883 6.3331944636655546 -1.0739842710190626  
13.384909955406163 1.85623036491 -1.5756575995657236  15.477771712221561 6.3331944636655546 -1.0398575780494728  
13.110618513072389 1.85623036491 -1.4954478231912969  15.307753024524111 6.3331944636655546 -1.0000334510957027  
12.911050070219547 1.85623036491 -1.3826579223391471  15.183787594372895 6.3331944636655546 -0.94493458840882527  
12.774418202285592 1.85623036491 -1.2754176053424635  15.098770959056688 6.3331944636655546 -0.89280394363985793  
12.744822221588937 1.85623036491 -1.1829299954877033  15.080020058613446 6.3331944636655555 -0.84827200813908599  
12.745594582200001 1.85623036491 -1.13628021843  15.080271828981321 6.3331944636655546 -0.82588659024004418  

0 4
0.027802170644521226 1
0.048716898504577055 1
0.073335739460436408 1
0.10086569028022668 1
0.1306720518051786 1
0.16217417622903404 1
0.19481388357548846 1
0.22807441102547932 1
0.26148384673944097 1
0.29460475266944997 1
0.32700951388024907 1
0.35826172124127287 1
0.38791061800727045 1
0.41550520767628213 1
0.44065725169071829 1
0.46290905811233835 1
0.4824331221564615 1
0.50015032878335974 4

0.19628890089473114 2
0.50985846732038675 2

9 0 0 0 0 3 1 22 2 20 2 12.745594582200001 1.85623036491 -1.13628021843  15.080271828981321 6.3331944636655546 -0.82588659024004418  
12.745611205550283 1.85623036491 -1.1352761853740694  15.080277247780462 6.3331944636655546 -0.82540479373512921  
12.746753056376331 1.85623036491 -1.0864383051289537  15.080746927378231 6.3331944636655546 -0.80197100369966012  
12.782797990754702 1.85623036491 -0.97961487137921122  15.102520982856555 6.3331944636655546 -0.75087655095352646  
12.923948548036147 1.85623036491 -0.87660227234095001  15.189314056805884 6.3331944636655546 -0.70212000380807171  
13.136411122134628 1.85623036491 -0.80917695196599726  15.320381002262755 6.3331944636655546 -0.67078856129936759  
13.414173324265301 1.85623036491 -0.77771934075030646  15.492005414221373 6.3331944636655546 -0.65703569537476225  
13.753359143048801 1.85623036491 -0.7673036063791534  15.701717975563955 6.3331944636655546 -0.65367911378216603  
14.146859761698492 1.85623036491 -0.77640696918781804  15.945115000846775 6.3331944636655546 -0.65995355020784074  
14.584458106770107 1.85623036491 -0.80358974807389649  16.215870964997446 6.3331944636655546 -0.67511857039105116  
15.054691845619129 1.85623036491 -0.84101020876370047  16.506859236996263 6.3331944636655546 -0.69535510029995429  
15.544878192186694 1.85623036491 -0.88581166586081284  16.810222557642938 6.3331944636655546 -0.71923068755374397  
16.041732564711911 1.85623036491 -0.93518425339599509  17.117731725375513 6.3331944636655546 -0.74533243641681746  
16.531711541099753 1.85623036491 -0.98768321833309147  17.421004073735492 6.3331944636655546 -0.77290137199725761  
17.001432757722061 1.85623036491 -1.0427285861553988  17.711760727113663 6.3331944636655546 -0.8015943422427374  
17.437876625167362 1.85623036491 -1.1010275119370476  17.981953393056926 6.3331944636655546 -0.8316876984116246  
17.829230353988137 1.85623036491 -1.1609771903037491  18.22426891653226 6.3331944636655546 -0.86235498959479961  
18.164300549914582 1.85623036491 -1.2187984014502065  18.431766657288126 6.3331944636655546 -0.89172821272080327  
18.435372244784947 1.85623036491 -1.2702983894693018  18.599655138931769 6.3331944636655546 -0.91775773440610153  
18.668512221130033 1.85623036491 -1.3172776370394097  18.744063583595278 6.3331944636655546 -0.94143389785325837  
18.793026598584103 1.85623036491 -1.3388458721222394  18.82117155833901 6.3331944636655546 -0.95238829291747029  
18.817613218278041 1.85623036491 -1.3483197815700778  18.836422557259382 6.3331944636655546 -0.9570542639985028  

0.50015032878335974 4
0.50053165238733233 1
0.51867591264437729 1
0.53845629891641922 1
0.5604806219212316 1
0.58530589407718547 1
0.61272088645832934 1
0.64228922122032739 1
0.67351951065456328 1
0.7059272930902466 1
0.73903907817009984 1
0.77239035764311803 1
0.80552166805238146 1
0.83797313990671007 1
0.86927500575916905 1
0.89893242097380677 1
0.92640089580882545 1
0.95104014700441042 1
0.97201725496010261 1
1 4

0.19628890089473114 2
0.50985846732038675 2

9 0 0 0 0 3 1 21 2 19 2 18.836422557259382 6.3331944636655546 -0.9570542639985028  22.115034014736974 16.956343945599123 -0.14157423473675021  
18.820718415705045 6.3331944636655546 -0.95755276636401077  22.108784962973431 16.956343945599123 -0.1417404065297708  
18.743247656997184 6.3331944636655546 -0.95975676119877984  22.077957229537699 16.956343945599123 -0.14246644807092659  
18.597691813752853 6.3331944636655546 -0.96618922688947806  22.020039042595148 16.956343945599123 -0.14467202829858944  
18.428232060700548 6.3331944636655546 -0.97749545627013223  21.952613344782772 16.956343945599123 -0.14864160268943905  
18.218931941316271 6.3331944636655546 -0.99679141139632277  21.869341446701014 16.956343945599123 -0.15550224944192687  
17.974887504211885 6.3331944636655546 -1.0254199778877939  21.77225280500808 16.956343945599123 -0.16575256756413548  
17.702969685115658 6.3331944636655546 -1.0578023304197164  21.664075765453362 16.956343945599123 -0.17735134592086743  
17.410525021635991 6.3331944636655546 -1.0893932763940863  21.547729054552757 16.956343945599123 -0.18863744447625019  
17.10550087646677 6.3331944636655546 -1.1135248716315402  21.426368219826735 16.956343945599123 -0.1971708744980098  
16.796392345593897 6.3331944636655546 -1.1262986061049012  21.303369760935357 16.956343945599123 -0.20152919873651765  
16.491854154745305 6.3331944636655546 -1.1276131465015309  21.182177785686111 16.956343945599123 -0.2016845110569514  
16.200189094515085 6.3331944636655546 -1.1187577830986157  21.066097841524389 16.956343945599123 -0.19811917721413216  
15.929304522461742 6.3331944636655546 -1.1005117025988929  20.958277561786385 16.956343945599123 -0.19112782294802561  
15.686323244801883 6.3331944636655546 -1.0739842710190626  20.861552716344598 16.956343945599123 -0.18112547554496544  
15.477771712221561 6.3331944636655546 -1.0398575780494728  20.778521291306809 16.956343945599123 -0.16836962122635712  
15.307753024524111 6.3331944636655546 -1.0000334510957027  20.710818192378138 16.956343945599123 -0.15356304026637249  
15.183787594372895 6.3331944636655546 -0.94493458840882527  20.661425931169092 16.956343945599123 -0.13319694108712571  
15.098770959056688 6.3331944636655546 -0.89280394363985793  20.627536842822035 16.956343945599126 -0.11396267246087949  
15.080020058613446 6.3331944636655555 -0.84827200813908599  20.620026898383269 16.956343945599119 -0.097589962555536189  
15.080271828981321 6.3331944636655546 -0.82588659024004418  20.620103026537961 16.956343945599123 -0.089370094291781887  

0 4
0.027802170644521226 1
0.048716898504577055 1
0.073335739460436408 1
0.10086569028022668 1
0.1306720518051786 1
0.16217417622903404 1
0.19481388357548846 1
0.22807441102547932 1
0.26148384673944097 1
0.29460475266944997 1
0.32700951388024907 1
0.35826172124127287 1
0.38791061800727045 1
0.41550520767628213 1
0.44065725169071829 1
0.46290905811233835 1
0.4824331221564615 1
0.50015032878335974 4

0.50985846732038675 2
1.0000000000000004 2

9 0 0 0 0 3 1 22 2 20 2 15.080271828981321 6.3331944636655546 -0.82588659024004418  20.620103026537961 16.956343945599123 -0.089370094291781887  
15.080277247780462 6.3331944636655546 -0.82540479373512921  20.62010466502776 16.956343945599123 -0.089193179846038723  
15.080746927378231 6.3331944636655546 -0.80197100369966012  20.620266384816844 16.956343945599123 -0.080588573603214725  
15.102520982856555 6.3331944636655546 -0.75087655095352646  20.628876612851464 16.956343945599123 -0.061849611889047848  
15.189314056805884 6.3331944636655546 -0.70212000380807171  20.663364188389092 16.956343945599123 -0.04403905131301817  
15.320381002262755 6.3331944636655546 -0.67078856129936759  20.715489635431105 16.956343945599123 -0.032674752786030617  
15.492005414221373 6.3331944636655546 -0.65703569537476225  20.783774146121932 16.956343945599123 -0.027809077280394424  
15.701717975563955 6.3331944636655546 -0.65367911378216603  20.867227314672395 16.956343945599123 -0.02680196390089376  
15.945115000846775 6.3331944636655546 -0.65995355020784074  20.964095836818867 16.956343945599123 -0.029367665295067111  
16.215870964997446 6.3331944636655546 -0.67511857039105116  21.071861623670728 16.956343945599123 -0.035227486567671613  
16.506859236996263 6.3331944636655546 -0.69535510029995429  21.187684470122718 16.956343945599123 -0.042971365695781014  
16.810222557642938 6.3331944636655546 -0.71923068755374397  21.308435977572234 16.956343945599123 -0.052064845411655999  
17.117731725375513 6.3331944636655546 -0.74533243641681746  21.430839751028532 16.956343945599123 -0.061980249970622847  
17.421004073735492 6.3331944636655546 -0.77290137199725761  21.551559025937866 16.956343945599123 -0.07242986461272316  
17.711760727113663 6.3331944636655546 -0.8015943422427374  21.667298789176265 16.956343945599123 -0.083278780272532285  
17.981953393056926 6.3331944636655546 -0.8316876984116246  21.774856456024146 16.956343945599123 -0.094619823301005129  
18.22426891653226 6.3331944636655546 -0.86235498959479961  21.871320809940933 16.956343945599123 -0.10614165089933365  
18.431766657288126 6.3331944636655546 -0.89172821272080327  21.953927759857891 16.956343945599123 -0.11715085286074016  
18.599655138931769 6.3331944636655546 -0.91775773440610153  22.020768296244764 16.956343945599123 -0.12688963309431261  
18.744063583595278 6.3331944636655546 -0.94143389785325837  22.078262235663644 16.956343945599123 -0.13573899508899465  
18.82117155833901 6.3331944636655546 -0.95238829291747029  22.108959742515395 16.956343945599123 -0.13984444978790472  
18.836422557259382 6.3331944636655546 -0.9570542639985028  22.115034014736974 16.956343945599123 -0.14157423473675021  

0.50015032878335974 4
0.50053165238733233 1
0.51867591264437729 1
0.53845629891641922 1
0.5604806219212316 1
0.58530589407718547 1
0.61272088645832934 1
0.64228922122032739 1
0.67351951065456328 1
0.7059272930902466 1
0.73903907817009984 1
0.77239035764311803 1
0.80552166805238146 1
0.83797313990671007 1
0.86927500575916905 1
0.89893242097380677 1
0.92640089580882545 1
0.95104014700441042 1
0.97201725496010261 1
1 4

0.50985846732038675 2
1.0000000000000004 2

1 22.115034014736974 16.956343945599123 -0.14157423473675021 -0 -1 0 -0.99939082701909576 0 0.034899496702500948 -0.034899496702500948 0 -0.99939082701909576 
Triangulations 0

TShapes 40
Ve
6.07201863607804e-07
18.817613218278 0 -1.34831978157008
0 0

0101101
*
Ve
1e-07
18.817613218278 1.85623036491 -1.34831978157008
0 0

0101101
*
Ed
 1e-07 1 1 0
1  1 0 0 0.196288900894731
2  1 1 0 0 0.196288900894731
2  2 2 0 0 0.196288900894731
4 C0 1 0 2 0
0

0101000
+40 0 -39 0 *
Ve
6.07201863607804e-07
12.7455945822 0 -1.13628021843
0 0

0101101
*
Ed
 1e-07 1 1 0
1  2 0 0 0.50015032878336
2  3 1 0 0 0.50015032878336
2  4 3 0 0 0.50015032878336
4 C0 1 0 3 0
0

0101000
+40 0 -37 0 *
Ve
1e-07
12.7455945822 1.85623036491 -1.13628021843
0 0

0101101
*
Ed
 1e-07 1 1 0
1  3 0 0 0.196288900894731
2  5 1 0 0 0.196288900894731
2  6 2 0 0 0.196288900894731
4 C2 1 0 2 0
0

0101000
+37 0 -35 0 *
Ed
 1e-07 1 1 0
1  4 0 0 0.50015032878336
2  7 1 0 0 0.50015032878336
2  8 4 0 0 0.50015032878336
4 C0 1 0 4 0
0

0101000
+39 0 -35 0 *
Wi

0101100
-38 0 +36 0 +34 0 -33 0 *
Fa
1  1e-07 1 0

0101000
+32 0 *
Ed
 1e-07 1 1 0
1  5 0 0.50015032878336 1
2  9 2 0 0.50015032878336 1
2  10 3 0 0.50015032878336 1
4 C0 2 0 3 0
0

0101000
+37 0 -40 0 *
Ed
 1e-07 1 1 0
1  6 0 0.50015032878336 1
2  11 2 0 0.50015032878336 1
2  12 5 0 0.50015032878336 1
4 C0 2 0 5 0
0

0101000
+35 0 -39 0 *
Wi

0101100
-34 0 +30 0 +38 0 -29 0 *
Fa
1  1e-07 2 0

0101000
+28 0 *
Ve
1e-07
18.8364225572594 6.33319446366555 -0.957054263998503
0 0

0101101
*
Ed
 1e-07 1 1 0
1  7 0 0.196288900894731 0.509858467320387
2  13 4 0 0.196288900894731 0.509858467320387
2  14 5 0 0.196288900894731 0.509858467320387
4 C0 4 0 5 0
0

0101000
+39 0 -26 0 *
Ve
1e-07
15.0802718289813 6.33319446366555 -0.825886590240044
0 0

0101101
*
Ed
 1e-07 1 1 0
1  8 0 0.196288900894731 0.509858467320387
2  15 4 0 0.196288900894731 0.509858467320387
2  16 5 0 0.196288900894731 0.509858467320387
4 C2 4 0 5 0
0

0101000
+35 0 -24 0 *
Ed
 1e-07 1 1 0
1  9 0 0 0.50015032878336
2  17 4 0 0 0.50015032878336
2  18 6 0 0 0.50015032878336
4 C0 4 0 6 0
0

0101000
+26 0 -24 0 *
Wi

0101100
-25 0 +33 0 +23 0 -22 0 *
Fa
1  1e-07 4 0

0101000
+21 0 *
Ed
 1e-07 1 1 0
1  10 0 0.50015032878336 1
2  19 5 0 0.50015032878336 1
2  20 7 0 0.50015032878336 1
4 C0 5 0 7 0
0

0101000
+24 0 -26 0 *
Wi

0101100
-23 0 +29 0 +25 0 -19 0 *
Fa
1  1e-07 5 0

0101000
+18 0 *
Ve
1.49493098819901e-07
22.115034014737 16.9563439455991 -0.14157423473675
0 0

0101101
*
Ed
 1e-07 1 1 0
1  11 0 0.509858467320387 1
2  21 6 0 0.509858467320387 1
2  22 7 0 0.509858467320387 1
4 C0 6 0 7 0
0

0101000
+26 0 -16 0 *
Ve
1.49493098819901e-07
20.620103026538 16.9563439455991 -0.0893700942917819
0 0

0101101
*
Ed
 1e-07 1 1 0
1  12 0 0.509858467320387 1
2  23 6 0 0.509858467320387 1
2  24 7 0 0.509858467320387 1
4 C2 6 0 7 0
0

0101000
+24 0 -14 0 *
Ed
 1e-07 1 1 0
1  13 0 0 0.50015032878336
2  25 6 0 0 0.50015032878336
2  26 8 0 0 0.50015032878336
4 C0 6 0 8 0
0

0101000
+16 0 -14 0 *
Wi

0101100
-15 0 +22 0 +13 0 -12 0 *
Fa
1  1e-07 6 0

0101000
+11 0 *
Ed
 1e-07 1 1 0
1  14 0 0.50015032878336 1
2  27 8 0 0.50015032878336 1
2  28 7 0 0.50015032878336 1
4 C0 7 0 8 0
0

0101000
+14 0 -16 0 *
Wi

0101100
-13 0 +19 0 +15 0 -9 0 *
Fa
1  1e-07 7 0

0101000
+8 0 *
Wi

0101100
+36 0 +30 0 *
Fa
0  1e-07 3 0

0101000
-6 0 *
Wi

0101100
+12 0 +9 0 *
Fa
0  1e-07 8 0

0101000
-4 0 *
Sh

0101100
+31 0 +27 0 +20 0 +17 0 +10 0 +7 0 +5 0 -3 0 *
So

1100000
+2 0 *

+1 0 