DBRep_DrawableShape

CASCADE Topology V3, (c) Open Cascade
Locations 2
1
              1               0               0            -100 
              0               1               0               0 
              0               0               1               0 
2  1 -1 0
Curve2ds 28
1 0 0 0 -1 
1 0 0 0 -1 
1 0 0 1 0 
1 1 0 0 -1 
1 0 0 0 -1 
1 38.901655873127488 0 0.034899496702500976 -0.99939082701909576 
1 38.901655873127481 0 0 1 
1 0 0 1 0 
1 0 -100 1 0 
1 1 0 0 -1 
1 0 0 0 -1 
1 0 0 0.034899496702500976 -0.99939082701909576 
1 0 1 1 0 
1 0 0 1 0 
1 0 0 1 0 
1 3.4899496702500974 -99.93908270190957 1 0 
1 0 0 0 1 
1 0 0 1 0 
1 0 -100 1 0 
1 1 0 0 -1 
1 38.901655873127481 0 0 1 
1 0 0 1 0 
1 0 -100 1 0 
1 1 0 0 -1 
1 0 1 1 0 
1 0 0 0 1 
1 0 0 1 0 
1 0 -100 1 0 
Curves 13
1 13.98171623793719 -1.9810142283296424 18.272313712065067 -1 0 0 
1 12.624068027071095 -1.9810142283296424 -20.60564432339207 -1 0 0 
1 13.98171623793719 -1.9810142283296424 18.272313712065067 -0.034899496702502406 0 -0.99939082701909576 
1 12.741121186604911 1.9810142283296424 -20.587884253912399 -1 0 0 
7 0 0  1 2 2  12.624068027071095 -1.9810142283296424 -20.60564432339207  12.741121186604911 1.9810142283296424 -20.587884253912399 
 0 2 1 2
1 14.098769397470951 1.9810142283296424 18.290073781544738 -1 0 0 
1 14.098769397470951 1.9810142283296424 18.290073781544738 -0.034899496702500976 0 -0.99939082701909576 
7 0 0  1 2 2  13.98171623793719 -1.9810142283296424 18.272313712065067  14.098769397470951 1.9810142283296424 18.290073781544738 
 0 2 1 2
1 28.148780952693002 31.931673662868604 -18.50399120812574 -1 0 0 
7 0 0  1 2 2  12.741121186604911 1.9810142283296424 -20.587884253912399  28.148780952693002 31.931673662868604 -18.50399120812574 
 0 2 1 2
1 29.506429163559041 31.931673662868604 20.373966827331397 -1 0 0 
1 29.506429163559041 31.931673662868604 20.373966827331397 -0.034899496702500976 0 -0.99939082701909576 
7 0 0  1 2 2  14.098769397470951 1.9810142283296424 18.290073781544738  29.506429163559041 31.931673662868604 20.373966827331397 
 0 2 1 2
Polygon3D 0
PolygonOnTriangulations 0
Surfaces 9
1 13.98171623793719 -1.9810142283296424 18.272313712065067 -0 -1 0 -0.034899496702502406 0 -0.99939082701909576 0.99939082701909576 -0 -0.034899496702502406 
6 1 -0 -0 
7 0 0  1 2 2  13.98171623793719 -1.9810142283296424 18.272313712065067  14.098769397470951 1.9810142283296424 18.290073781544738 
 0 2 1 2
6 1 -0 -0 
7 0 0  1 2 2  12.624068027071095 -1.9810142283296424 -20.60564432339207  12.741121186604911 1.9810142283296424 -20.587884253912399 
 0 2 1 2
9 0 0 0 0 1 1 2 2 2 2 13.98171623793719 -1.9810142283296424 18.272313712065067  14.098769397470951 1.9810142283296424 18.290073781544738  
12.624068027071095 -1.9810142283296424 -20.60564432339207  12.741121186604911 1.9810142283296424 -20.587884253912399  

0 2
38.901655873127481 2

0 2
1 2

6 1 -0 -0 
7 0 0  1 2 2  12.741121186604911 1.9810142283296424 -20.587884253912399  28.148780952693002 31.931673662868604 -18.50399120812574 
 0 2 1 2
1 14.098769397470951 1.9810142283296424 18.290073781544738 -0 -1 0 -0.034899496702500976 0 -0.99939082701909576 0.99939082701909576 -0 -0.034899496702500976 
6 1 -0 -0 
7 0 0  1 2 2  14.098769397470951 1.9810142283296424 18.290073781544738  29.506429163559041 31.931673662868604 20.373966827331397 
 0 2 1 2
9 0 0 0 0 1 1 2 2 2 2 14.098769397470951 1.9810142283296424 18.290073781544738  29.506429163559041 31.931673662868604 20.373966827331397  
12.741121186604911 1.9810142283296424 -20.587884253912399  28.148780952693002 31.931673662868604 -18.50399120812574  

0 2
38.901655873127481 2

0 2
1 2

1 29.506429163559041 31.931673662868604 20.373966827331397 -0 -1 0 -0.034899496702500976 0 -0.99939082701909576 0.99939082701909576 -0 -0.034899496702500976 
Triangulations 0

TShapes 42
Ve
1e-07
13.9817162379372 -1.98101422832964 18.2723137120651
0 0

0101101
*
Ed
 1e-07 1 1 0
1  1 0 0 100
2  1 2 0 0 100
0

0101000
+42 0 -42 1 *
Ve
1e-07
12.6240680270711 -1.98101422832964 -20.6056443233921
0 0

0101101
*
Ed
 1e-07 1 1 0
1  2 0 0 100
2  2 3 0 0 100
0

0101000
+40 0 -40 1 *
Ed
 1e-07 1 1 0
1  3 0 0 38.9016558731275
2  3 4 0 0 38.9016558731275
0

0101000
+42 0 -40 0 *
Wi

0101100
+41 0 -39 0 -38 0 +38 1 *
Fa
0  1e-07 1 0

0101000
+37 0 *
Ve
1e-07
12.7411211866049 1.98101422832964 -20.5878842539124
0 0

0101101
*
Ed
 1e-07 1 1 0
1  4 0 0 100
2  4 3 0 0 100
2  5 5 0 0 100
2  6 6 0 0 100
0

0101000
+35 0 -35 1 *
Ed
 1e-07 1 1 0
1  5 0 0 1
2  7 4 0 0 1
2  8 3 0 0 1
2  9 3 2 0 1
0

0101000
+40 0 -35 0 *
Wi

0101100
+39 0 -34 0 -33 0 +33 1 *
Fa
0  1e-07 3 0

0101000
+32 0 *
Ve
1e-07
14.098769397471 1.98101422832964 18.2900737815447
0 0

0101101
*
Ed
 1e-07 1 1 0
1  6 0 0 100
2  10 2 0 0 100
2  11 7 0 0 100
2  12 6 0 0 100
0

0101000
+30 0 -30 1 *
Ed
 1e-07 1 1 0
1  7 0 0 38.9016558731275
2  13 4 0 0 38.9016558731275
2  14 8 0 0 38.9016558731275
2  15 6 0 0 38.9016558731275
2  16 6 2 0 38.9016558731275
0

0101000
+30 0 -35 0 *
Wi

0101100
+29 0 -34 0 -28 0 +28 1 *
Fa
0  1e-07 6 0

0101000
+27 0 *
Ed
 1e-07 1 1 0
1  8 0 0 1
2  17 4 0 0 1
2  18 2 0 0 1
2  19 2 2 0 1
0

0101000
+42 0 -30 0 *
Wi

0101100
+41 0 -29 0 -25 0 +25 1 *
Fa
0  1e-07 2 0

0101000
+24 0 *
Wi

0101100
+38 0 +33 0 -28 0 -25 0 *
Fa
0  1e-07 4 0

0101000
+22 0 *
Sh

0101100
+36 0 +31 0 -26 0 -23 0 +21 0 -21 1 *
So

0100000
+20 0 *
Ve
1e-07
28.148780952693 31.9316736628686 -18.5039912081257
0 0

0101101
*
Ed
 1e-07 1 1 0
1  9 0 0 100
2  20 5 0 0 100
0

0101000
+18 0 -18 1 *
Ed
 1e-07 1 1 0
1  10 0 0 1
2  21 8 0 0 1
2  22 5 0 0 1
2  23 5 2 0 1
0

0101000
+35 0 -18 0 *
Wi

0101100
+34 0 -17 0 -16 0 +16 1 *
Fa
0  1e-07 5 0

0101000
+15 0 *
Ve
1e-07
29.506429163559 31.9316736628686 20.3739668273314
0 0

0101101
*
Ed
 1e-07 1 1 0
1  11 0 0 100
2  24 7 0 0 100
0

0101000
+13 0 -13 1 *
Ed
 1e-07 1 1 0
1  12 0 0 38.9016558731275
2  25 8 0 0 38.9016558731275
0

0101000
+13 0 -18 0 *
Wi

0101100
+12 0 -17 0 -11 0 +11 1 *
Fa
0  1e-07 9 0

0101000
+10 0 *
Ed
 1e-07 1 1 0
1  13 0 0 1
2  26 8 0 0 1
2  27 7 0 0 1
2  28 7 2 0 1
0

0101000
+30 0 -13 0 *
Wi

0101100
+29 0 -12 0 -8 0 +8 1 *
Fa
0  1e-07 7 0

0101000
+7 0 *
Wi

0101100
+28 0 +16 0 -11 0 -8 0 *
Fa
0  1e-07 8 0

0101000
+5 0 *
Sh

0101100
+26 0 +14 0 -9 0 -6 0 +4 0 -4 1 *
So

0100000
+3 0 *
CS

1101000
+19 0 +2 0 *

+1 0 