DBRep_DrawableShape

CASCADE Topology V3, (c) Open Cascade
Locations 0
Curve2ds 5
1 -1.4692165739531844 -15.509555480859291 -1 -1.3151294880678731e-16 
7 0 0  1 2 2  -0.62968861084043404 -3.2397134623635893  0.70832914855409079 -3.2397134623635893 
 0 2 1 2
7 0 0  1 2 2  -0.14192295409492983 -15.509555480859291  -1.4799407134894547 -15.509555480859291 
 0 2 1 2
1 -0.62373604002680805 -15.509555480859291 1 1.3151294880678731e-16 
7 0 0  1 2 2  -0.62968861084043404 0.2315025376364096  0.70832914855409079 0.23150253763640802 
 0 2 1 2
Curves 8
1 4.2976959999999709 0 31.268160347158815 -0.99688241243686371 0 0.078901557488168544 
1 0.82648000000000077 0 0.30776256811950464 -1.3151294880678731e-16 0 1 
7 0 0  1 2 2  0.8264800000000001 0 -1.0195310517387499  0.8264800000000001 0 0.31848670765577491 
 0 2 1 2
1 0.82648000000000044 0 -0.5377179658068717 1.3151294880678731e-16 0 -1 
1 4.2976960000000259 0 -32.232391154811019 -0.99135072062554597 0 0.13123928038209678 
1 4.2976959999999993 0 -0.99725249825101236 8.5305696523321495e-16 0 -1 
7 0 0  1 2 2  4.2976959999999993 0 -1.0195310517387499  4.2976959999999975 0 0.31848670765577491 
 0 2 1 2
1 4.2976959999999975 0 0.033021690598812083 -8.5305696523321505e-16 0 1 
Polygon3D 0
PolygonOnTriangulations 0
Surfaces 4
1 2.5644850824181415 0 -0.30340400160593639 -0 -1 -0 0 0 -1 1 -0 0 
1 16.336035480859291 0 -1.1614540058336797 -0 -1 -0 0 0 -1 1 -0 0 
1 4.0661934623635894 0 -0.38984244089831588 0 1 0 0 0 1 1 0 0 
1 4.0661934623635894 0 -0.38984244089831588 0 1 0 0 0 1 1 0 0 
Triangulations 0

TShapes 18
Ve
5e-06
4.29769599999997 0 31.2681603471588
0 0

0101101
*
Ve
5e-06
0.826479999999997 0 31.5429012246795
0 0

0101101
*
Ed
 5e-06 1 1 0
1  1 0 0 3.48207166331146
0

0101000
+18 0 -17 0 *
Ve
5.000001e-06
0.826480000000001 0 0.307762568119505
0 0

0101101
*
Ed
 5e-06 1 1 0
1  2 0 0 31.23513865656
2  1 2 0 0 31.23513865656
0

0101000
+15 0 -17 0 *
Ve
5.000001e-06
0.82648 0 -0.537717965806872
0 0

0101101
*
Ed
 5e-06 1 1 0
1  3 0 0.360094686747586 0.991985054412788
2  2 3 0 0.360094686747586 0.991985054412788
2  3 2 0 0.360094686747586 0.991985054412788
0

0101000
+13 0 -15 0 *
Ve
5e-06
0.826480000000005 0 -31.7728566223669
0 0

0101101
*
Ed
 5e-06 1 1 0
1  4 0 0 31.23513865656
2  4 2 0 0 31.23513865656
0

0101000
+13 0 -11 0 *
Ve
5e-06
4.29769600000003 0 -32.232391154811
0 0

0101101
*
Ed
 5e-06 1 1 0
1  5 0 0 3.50150146439564
0

0101000
+9 0 -11 0 *
Ve
5.000001e-06
4.297696 0 -0.997252498251012
0 0

0101101
*
Ed
 5e-06 1 1 0
1  6 0 0 31.23513865656
0

0101000
+7 0 -9 0 *
Ve
5.000001e-06
4.297696 0 0.0330216905988121
0 0

0101101
*
Ed
 5e-06 1 1 0
1  7 0 0.0166504168807288 0.786650801117811
2  5 4 0 0.0166504168807288 0.786650801117811
0

0101000
+7 0 -5 0 *
Ed
 5e-06 1 1 0
1  8 0 0 31.23513865656
0

0101000
+5 0 -18 0 *
Wi

0101100
+16 0 -14 0 -12 0 +10 0 -8 0 -6 0 +4 0 +3 0 *
Fa
0  5e-06 1 0

1101000
+2 0 *

+1 0 