DBRep_DrawableShape

CASCADE Topology V3, (c) Open Cascade
Locations 0
Curve2ds 7
1 15.604631518486766 -0.098064595346661232 0 -1 
1 0.38810275495762542 -0.03969498523894055 0 1 
1 -0.38378568784434264 -0.11503053036612298 0 1 
1 15.604631518486766 0.05700459490782217 0 -1 
1 15.604631518486766 0.05700459490782217 0 1 
1 0.38886894828651752 -0.025965667087324285 0 1 
1 -0.49025552057916111 -0.11577119887479181 0 1 
Curves 8
1 15.857009565379148 25.010358243785998 33.449028174416952 -0.85310793975939248 0.52153731802258019 0.014341165548826291 
1 15.50409767039643 25.226106702602902 2.2198221410037036 0 0 1 
1 15.50409767039643 25.226106702602902 2.0647529507492202 0 0 1 
1 15.50409767039643 25.226106702602902 2.0647529507492202 0 0 -1 
1 15.857009565379148 25.010358243785998 -29.152733721636341 -0.85241983232055996 0.52111665178395472 -0.042636424569480962 
1 15.857009565379148 25.010358243785998 2.0824049349236624 0 0 -1 
1 15.857009565379148 25.010358243785998 2.0824049349236624 0 0 1 
1 15.857009565379148 25.010358243785998 2.213889517856952 0 0 1 
Polygon3D 0
PolygonOnTriangulations 0
Surfaces 6
1 15.680520603323542 25.118252656252761 2.1451339017913296 -0.52159095833380553 -0.85319568223498554 -3.9957289742986529e-20 -0.85319568223498554 0.52159095833380553 0 2.0841361049465881e-20 3.4091387082528379e-20 -1 
1 28.817901904837299 17.086871994429476 2.1217575456570423 -0.52159095833380542 -0.85319568223498554 -1.8807025135874919e-17 -0.85319568223498554 0.52159095833380542 0 9.8095742640289664e-18 1.6046072641613322e-17 -1 
1 15.293307049685767 24.900237000687991 2.1044479359881607 0.83964799979450799 -0.5431309569901922 -1.4562342534510762e-15 0.5431309569901922 0.83964799979450799 0 1.2227241781424447e-15 -7.9092590367878111e-16 1 
1 15.712544224596117 25.548351156762212 2.1797834811153431 0.83964687680069816 -0.54313269306757184 1.8138494117727051e-15 0.54313269306757184 0.83964687680069816 -9.8607613152626476e-32 -1.5229929935817354e-15 9.8516091583514047e-16 1 
1 15.669156223808125 24.669873029713401 2.1083706020109867 0.87557830362358635 -0.48307621989044625 3.1418999953949671e-16 0.48307621989044625 0.87557830362358635 0 -2.7509794681228792e-16 1.5177771730492112e-16 1 
1 16.093835913228531 25.439617788144265 2.1981761337984542 0.87558329552549241 -0.48306717193027954 -9.5372159953458003e-15 0.48306717193027954 0.87558329552549241 7.8886090522101181e-31 8.3506270113433145e-15 -4.6071159589599229e-15 1 
Triangulations 0

TShapes 18
Ve
1.00000012853839e-07
15.8570095653791 25.010358243786 33.449028174417
0 0

0101101
*
Ve
1.00000012853839e-07
15.5040976703964 25.2261067026029 33.4549607975637
0 0

0101101
*
Ed
 1.00000012853839e-07 1 1 0
1  1 0 0 0.413677892954849
0

0101000
+18 0 -17 0 *
Ve
5.000001e-06
15.5040976703964 25.2261067026029 2.2198221410037
0 0

0101101
*
Ed
 1.00000012853839e-07 1 1 0
1  2 0 0 31.23513865656
2  1 2 0 0 31.23513865656
0

0101000
+15 0 -17 0 *
Ve
5.000001e-06
15.5040976703964 25.2261067026029 2.06475295074922
0 0

0101101
*
Ed
 1.00000012853839e-07 1 1 0
1  3 0 0 0.155069190254483
2  2 3 0 0 0.155069190254483
2  3 4 0 0 0.155069190254483
4 C0 3 0 4 0
2  4 2 0 0 0.155069190254483
0

0101000
+13 0 -15 0 *
Ve
1.00000012853839e-07
15.5040976703964 25.2261067026029 -29.1703857058108
0 0

0101101
*
Ed
 1.00000012853839e-07 1 1 0
1  4 0 0 31.23513865656
2  5 2 0 0 31.23513865656
0

0101000
+13 0 -11 0 *
Ve
1.00000012853839e-07
15.8570095653791 25.010358243786 -29.1527337216363
0 0

0101101
*
Ed
 1.00000012853839e-07 1 1 0
1  5 0 0 0.414011830323068
0

0101000
+9 0 -11 0 *
Ve
5.000001e-06
15.8570095653791 25.010358243786 2.08240493492366
0 0

0101101
*
Ed
 1.00000012853839e-07 1 1 0
1  6 0 0 31.23513865656
0

0101000
+7 0 -9 0 *
Ve
5.000001e-06
15.8570095653791 25.010358243786 2.21388951785695
0 0

0101101
*
Ed
 1.00000012853839e-07 1 1 0
1  7 0 0 0.13148458293329
2  6 5 0 0 0.13148458293329
2  7 6 0 0 0.13148458293329
4 C0 5 0 6 0
0

0101000
+7 0 -5 0 *
Ed
 1.00000012853839e-07 1 1 0
1  8 0 0 31.23513865656
0

0101000
+5 0 -18 0 *
Wi

0101100
+16 0 -14 0 -12 0 +10 0 -8 0 -6 0 +4 0 +3 0 *
Fa
0  1.00000012853839e-07 1 0

1101000
+2 0 *

+1 0 