DBRep_DrawableShape

CASCADE Topology V3, (c) Open Cascade
Locations 0
Curve2ds 160
1 0 0 1 0 
1 62.470277313120008 0 0 1 
1 0 1 1 0 
1 0 0 1 0 
1 0 0 0 1 
1 62.470277313120008 0 0 1 
1 0 1 1 0 
1 0 0 1 0 
1 0 0 0 1 
1 62.470277313120008 0 0 1 
1 0 1 1 0 
1 0 0 1 0 
1 0 0 0 1 
1 62.470277313120008 0 0 1 
1 0 1 1 0 
1 0 0 1 0 
1 0 0 0 1 
1 62.470277313120008 0 0 1 
1 0 1 1 0 
1 0 0 1 0 
1 0 0 0 1 
1 62.470277313120008 0 0 1 
1 0 1 1 0 
1 0 0 1 0 
1 0 0 0 1 
1 62.470277313120008 0 0 1 
1 0 1 1 0 
1 0 0 1 0 
1 0 0 0 1 
1 62.470277313120008 0 0 1 
1 0 1 1 0 
1 0 0 1 0 
1 0 0 0 1 
1 62.470277313120008 0 0 1 
1 0 1 1 0 
1 0 0 1 0 
1 0 0 0 1 
1 62.470277313120008 0 0 1 
1 0 1 1 0 
1 0 0 1 0 
1 0 0 0 1 
1 62.470277313120008 0 0 1 
1 0 1 1 0 
1 0 0 1 0 
1 0 0 0 1 
1 62.470277313120008 0 0 1 
1 0 1 1 0 
1 0 0 1 0 
1 0 0 0 1 
1 62.470277313120008 0 0 1 
1 0 1 1 0 
1 0 0 1 0 
1 0 0 0 1 
1 62.470277313120008 0 0 1 
1 0 1 1 0 
1 0 0 1 0 
1 0 0 0 1 
1 62.470277313120008 0 0 1 
1 0 1 1 0 
1 0 0 1 0 
1 0 0 0 1 
1 62.470277313120008 0 0 1 
1 0 1 1 0 
1 0 0 1 0 
1 0 0 0 1 
1 62.470277313120008 0 0 1 
1 0 1 1 0 
1 0 0 1 0 
1 0 0 0 1 
1 62.470277313120008 0 0 1 
1 0 1 1 0 
1 0 0 1 0 
1 0 0 0 1 
1 62.470277313120008 0 0 1 
1 0 1 1 0 
1 0 0 1 0 
1 0 0 0 1 
1 62.470277313120008 0 0 1 
1 0 1 1 0 
1 0 0 1 0 
1 0 0 0 1 
1 62.470277313120008 0 0 1 
1 0 1 1 0 
1 0 0 1 0 
1 0 0 0 1 
1 62.470277313120008 0 0 1 
1 0 1 1 0 
1 0 0 1 0 
1 0 0 0 1 
1 62.470277313120008 0 0 1 
1 0 1 1 0 
1 0 0 1 0 
1 0 0 0 1 
1 62.470277313120008 0 0 1 
1 0 1 1 0 
1 0 0 1 0 
1 0 0 0 1 
1 62.470277313120008 0 0 1 
1 0 1 1 0 
1 0 0 1 0 
1 0 0 0 1 
1 62.470277313120008 0 0 1 
1 0 1 1 0 
1 0 0 1 0 
1 0 0 0 1 
1 62.470277313120008 0 0 1 
1 0 1 1 0 
1 0 0 1 0 
1 0 0 0 1 
1 62.470277313120008 0 0 1 
1 0 1 1 0 
1 0 0 1 0 
1 0 0 0 1 
1 62.470277313120008 0 0 1 
1 0 1 1 0 
1 0 0 1 0 
1 0 0 0 1 
1 62.470277313120008 0 0 1 
1 0 1 1 0 
1 0 0 1 0 
1 0 0 0 1 
1 62.470277313120008 0 0 1 
1 0 1 1 0 
1 0 0 1 0 
1 0 0 0 1 
1 62.470277313120008 0 0 1 
1 0 1 1 0 
1 0 0 1 0 
1 0 0 0 1 
1 62.470277313120008 0 0 1 
1 0 1 1 0 
1 0 0 1 0 
1 0 0 0 1 
1 62.470277313120008 0 0 1 
1 0 1 1 0 
1 0 0 1 0 
1 0 0 0 1 
1 62.470277313120008 0 0 1 
1 0 1 1 0 
1 0 0 1 0 
1 0 0 0 1 
1 62.470277313120008 0 0 1 
1 0 1 1 0 
1 0 0 1 0 
1 0 0 0 1 
1 62.470277313120008 0 0 1 
1 0 1 1 0 
1 0 0 1 0 
1 0 0 0 1 
1 62.470277313120008 0 0 1 
1 0 1 1 0 
1 0 0 1 0 
1 0 0 0 1 
1 62.470277313120008 0 0 1 
1 0 1 1 0 
1 0 0 1 0 
1 0 0 0 1 
1 62.470277313120008 0 0 1 
1 0 1 1 0 
1 0 0 0 1 
Curves 121
1 17.789562007999997 -0.92376433317190887 30.179198923614305 2.6302589761357463e-16 0 -1 
7 0 0  1 2 2  17.789562008000011 -0.92376433317190887 -32.291078389505707  17.901797991999999 0.92376433317190887 -32.29892669405217 
 0 2 1 2
1 17.901797991999999 0.92376433317190887 30.171350619067841 0 0 -1 
7 0 0  1 2 2  17.789562007999997 -0.92376433317190887 30.179198923614305  17.901797991999999 0.92376433317190887 30.171350619067841 
 0 2 1 2
7 0 0  1 2 2  17.901797991999999 0.92376433317190887 -32.29892669405217  17.957833336 1.8475257503658218 -32.302845067014246 
 0 2 1 2
1 17.957833336 1.8475257503658218 30.167432246105765 0 0 -1 
7 0 0  1 2 2  17.901797991999999 0.92376433317190887 30.171350619067841  17.957833336 1.8475257503658218 30.167432246105765 
 0 2 1 2
7 0 0  1 2 2  17.957833336 1.8475257503658218 -32.302845067014246  18.014651467278952 2.7553753494038551 -32.282983855974045 
 0 2 1 2
1 18.014651467278952 2.7553753494038551 30.187293457145962 0 0 -1 
7 0 0  1 2 2  17.957833336 1.8475257503658218 30.167432246105765  18.014651467278952 2.7553753494038551 30.187293457145962 
 0 2 1 2
7 0 0  1 2 2  18.014651467278952 2.7553753494038551 -32.282983855974045  18.468926148853409 3.4620161290758675 -32.255330259473936 
 0 2 1 2
1 18.468926148853409 3.4620161290758675 30.214947053646075 0 0 -1 
7 0 0  1 2 2  18.014651467278952 2.7553753494038551 30.187293457145962  18.468926148853409 3.4620161290758675 30.214947053646075 
 0 2 1 2
7 0 0  1 2 2  18.468926148853409 3.4620161290758675 -32.255330259473936  18.923198377174927 4.16865690874788 -32.227356505956507 
 0 2 1 2
1 18.923198377174927 4.16865690874788 30.242920807163504 0 0 -1 
7 0 0  1 2 2  18.468926148853409 3.4620161290758675 30.214947053646075  18.923198377174927 4.16865690874788 30.242920807163504 
 0 2 1 2
7 0 0  1 2 2  18.923198377174927 4.16865690874788 -32.227356505956507  19.377577243706845 4.8752976884198933 -32.199001488406935 
 0 2 1 2
1 19.377577243706845 4.8752976884198933 30.271275824713072 0 0 -1 
7 0 0  1 2 2  18.923198377174927 4.16865690874788 30.242920807163504  19.377577243706845 4.8752976884198933 30.271275824713072 
 0 2 1 2
7 0 0  1 2 2  19.377577243706845 4.8752976884198933 -32.199001488406935  19.831972693715844 5.5819384680919057 -32.170171691703388 
 0 2 1 2
1 19.831972693715844 5.5819384680919057 30.30010562141662 0 0 -1 
7 0 0  1 2 2  19.377577243706845 4.8752976884198933 30.271275824713072  19.831972693715844 5.5819384680919057 30.30010562141662 
 0 2 1 2
7 0 0  1 2 2  19.831972693715844 5.5819384680919057 -32.170171691703388  20.286416864744773 6.2885792477639182 -32.140752214356731 
 0 2 1 2
1 20.286416864744773 6.2885792477639182 30.329525098763277 0 0 -1 
7 0 0  1 2 2  19.831972693715844 5.5819384680919057 30.30010562141662  20.286416864744773 6.2885792477639182 30.329525098763277 
 0 2 1 2
7 0 0  1 2 2  20.286416864744773 6.2885792477639182 -32.140752214356731  20.740899232548944 6.9952172659985514 -32.110584767328533 
 0 2 1 2
1 20.740899232548944 6.9952172659985514 30.359692545791479 0 0 -1 
7 0 0  1 2 2  20.286416864744773 6.2885792477639182 30.329525098763277  20.740899232548944 6.9952172659985514 30.359692545791479 
 0 2 1 2
7 0 0  1 2 2  20.740899232548944 6.9952172659985514 -32.110584767328533  21.195450191544086 7.701858045670563 -32.079450540434436 
 0 2 1 2
1 21.195450191544086 7.701858045670563 30.390826772685575 0 0 -1 
7 0 0  1 2 2  20.740899232548944 6.9952172659985514 30.359692545791479  21.195450191544086 7.701858045670563 30.390826772685575 
 0 2 1 2
7 0 0  1 2 2  21.195450191544086 7.701858045670563 -32.079450540434436  21.635514345318995 8.3842561157642042 -32.031061112879769 
 0 2 1 2
1 21.635514345318995 8.3842561157642042 30.439216200240239 0 0 -1 
7 0 0  1 2 2  21.195450191544086 7.701858045670563 30.390826772685575  21.635514345318995 8.3842561157642042 30.439216200240239 
 0 2 1 2
7 0 0  1 2 2  21.635514345318995 8.3842561157642042 -32.031061112879769  21.849938547679116 8.7156754625255477 -31.992787064288613 
 0 2 1 2
1 21.849938547679116 8.7156754625255477 30.477490248831394 0 0 -1 
7 0 0  1 2 2  21.635514345318995 8.3842561157642042 30.439216200240239  21.849938547679116 8.7156754625255477 30.477490248831394 
 0 2 1 2
7 0 0  1 2 2  21.849938547679116 8.7156754625255477 -31.992787064288613  22.047930003785208 9.0220646565666911 -31.957396457468619 
 0 2 1 2
1 22.047930003785208 9.0220646565666911 30.512880855651389 0 0 -1 
7 0 0  1 2 2  21.849938547679116 8.7156754625255477 30.477490248831394  22.047930003785208 9.0220646565666911 30.512880855651389 
 0 2 1 2
7 0 0  1 2 2  22.047930003785208 9.0220646565666911 -31.957396457468619  22.466820181058416 9.6702072543917517 -31.882519459773921 
 0 2 1 2
1 22.466820181058416 9.6702072543917517 30.587757853346087 0 0 -1 
7 0 0  1 2 2  22.047930003785208 9.0220646565666911 30.512880855651389  22.466820181058416 9.6702072543917517 30.587757853346087 
 0 2 1 2
7 0 0  1 2 2  22.466820181058416 9.6702072543917517 -31.882519459773921  22.885699550993291 10.31835236781005 -31.807625026810019 
 0 2 1 2
1 22.885699550993291 10.31835236781005 30.662652286309989 0 0 -1 
7 0 0  1 2 2  22.466820181058416 9.6702072543917517 30.587757853346087  22.885699550993291 10.31835236781005 30.662652286309989 
 0 2 1 2
7 0 0  1 2 2  22.885699550993291 10.31835236781005 -31.807625026810019  23.304568474577692 10.966494965635109 -31.732712410741023 
 0 2 1 2
1 23.304568474577692 10.966494965635109 30.737564902378985 0 0 -1 
7 0 0  1 2 2  22.885699550993291 10.31835236781005 30.662652286309989  23.304568474577692 10.966494965635109 30.737564902378985 
 0 2 1 2
7 0 0  1 2 2  23.304568474577692 10.966494965635109 -31.732712410741023  23.723466874096424 11.614637563460171 -31.65778018946509 
 0 2 1 2
1 23.723466874096424 11.614637563460171 30.812497123654918 0 0 -1 
7 0 0  1 2 2  23.304568474577692 10.966494965635109 30.737564902378985  23.723466874096424 11.614637563460171 30.812497123654918 
 0 2 1 2
7 0 0  1 2 2  23.723466874096424 11.614637563460171 -31.65778018946509  24.142349458685569 12.262782676878468 -31.582825777653778 
 0 2 1 2
1 24.142349458685569 12.262782676878468 30.88745153546623 0 0 -1 
7 0 0  1 2 2  23.723466874096424 11.614637563460171 30.812497123654918  24.142349458685569 12.262782676878468 30.88745153546623 
 0 2 1 2
7 0 0  1 2 2  24.142349458685569 12.262782676878468 -31.582825777653778  24.561203202170102 12.91092527470353 -31.507847772350068 
 0 2 1 2
1 24.561203202170102 12.91092527470353 30.962429540769939 0 0 -1 
7 0 0  1 2 2  24.142349458685569 12.262782676878468 30.88745153546623  24.561203202170102 12.91092527470353 30.962429540769939 
 0 2 1 2
7 0 0  1 2 2  24.561203202170102 12.91092527470353 -31.507847772350068  24.980088773379073 13.559070388121825 -31.432843894360378 
 0 2 1 2
1 24.980088773379073 13.559070388121825 31.03743341875963 0 0 -1 
7 0 0  1 2 2  24.561203202170102 12.91092527470353 30.962429540769939  24.980088773379073 13.559070388121825 31.03743341875963 
 0 2 1 2
7 0 0  1 2 2  24.980088773379073 13.559070388121825 -31.432843894360378  25.398977525287023 14.207212985946885 -31.357811976297679 
 0 2 1 2
1 25.398977525287023 14.207212985946885 31.112465336822329 0 0 -1 
7 0 0  1 2 2  24.980088773379073 13.559070388121825 31.03743341875963  25.398977525287023 14.207212985946885 31.112465336822329 
 0 2 1 2
7 0 0  1 2 2  25.398977525287023 14.207212985946885 -31.357811976297679  25.817874775202046 14.855355583771948 -31.282748902613111 
 0 2 1 2
1 25.817874775202046 14.855355583771948 31.187528410506896 0 0 -1 
7 0 0  1 2 2  25.398977525287023 14.207212985946885 31.112465336822329  25.817874775202046 14.855355583771948 31.187528410506896 
 0 2 1 2
7 0 0  1 2 2  25.817874775202046 14.855355583771948 -31.282748902613111  26.236776905881314 15.503500697190244 -31.207651120532017 
 0 2 1 2
1 26.236776905881314 15.503500697190244 31.262626192587991 0 0 -1 
7 0 0  1 2 2  25.817874775202046 14.855355583771948 31.187528410506896  26.236776905881314 15.503500697190244 31.262626192587991 
 0 2 1 2
7 0 0  1 2 2  26.236776905881314 15.503500697190244 -31.207651120532017  26.655666631928206 16.151643295015301 -31.132515515261876 
 0 2 1 2
1 26.655666631928206 16.151643295015301 31.337761797858132 0 0 -1 
7 0 0  1 2 2  26.236776905881314 15.503500697190244 31.262626192587991  26.655666631928206 16.151643295015301 31.337761797858132 
 0 2 1 2
7 0 0  1 2 2  26.655666631928206 16.151643295015301 -31.132515515261876  27.07455438274247 16.799788408433599 -31.057337349066433 
 0 2 1 2
1 27.07455438274247 16.799788408433599 31.412939964053574 0 0 -1 
7 0 0  1 2 2  26.655666631928206 16.151643295015301 31.337761797858132  27.07455438274247 16.799788408433599 31.412939964053574 
 0 2 1 2
7 0 0  1 2 2  27.07455438274247 16.799788408433599 -31.057337349066433  27.493460095487425 17.44793100625866 -30.982112321887517 
 0 2 1 2
1 27.493460095487425 17.44793100625866 31.488164991232491 0 0 -1 
7 0 0  1 2 2  27.07455438274247 16.799788408433599 31.412939964053574  27.493460095487425 17.44793100625866 31.488164991232491 
 0 2 1 2
7 0 0  1 2 2  27.493460095487425 17.44793100625866 -30.982112321887517  27.912362485456708 18.096073604083724 -30.906834512962316 
 0 2 1 2
1 27.912362485456708 18.096073604083724 31.563442800157691 0 0 -1 
7 0 0  1 2 2  27.493460095487425 17.44793100625866 31.488164991232491  27.912362485456708 18.096073604083724 31.563442800157691 
 0 2 1 2
7 0 0  1 2 2  27.912362485456708 18.096073604083724 -30.906834512962316  28.331280824253398 18.744218717502019 -30.831496979404452 
 0 2 1 2
1 28.331280824253398 18.744218717502019 31.638780333715555 0 0 -1 
7 0 0  1 2 2  27.912362485456708 18.096073604083724 31.563442800157691  28.331280824253398 18.744218717502019 31.638780333715555 
 0 2 1 2
7 0 0  1 2 2  28.331280824253398 18.744218717502019 -30.831496979404452  28.750181487380544 19.392361315327079 -30.756092800034683 
 0 2 1 2
1 28.750181487380544 19.392361315327079 31.714184513085325 0 0 -1 
7 0 0  1 2 2  28.331280824253398 18.744218717502019 31.638780333715555  28.750181487380544 19.392361315327079 31.714184513085325 
 0 2 1 2
7 0 0  1 2 2  28.750181487380544 19.392361315327079 -30.756092800034683  29.169117745123692 20.040505686858012 -30.680642929059726 
 0 2 1 2
1 29.169117745123692 20.040505686858012 31.789634384060282 0 0 -1 
7 0 0  1 2 2  28.750181487380544 19.392361315327079 31.714184513085325  29.169117745123692 20.040505686858012 31.789634384060282 
 0 2 1 2
7 0 0  1 2 2  29.169117745123692 20.040505686858012 -30.680642929059726  29.281050638754039 20.213729381522928 -30.660718175069189 
 0 2 1 2
1 29.281050638754039 20.213729381522928 31.809559138050819 0 0 -1 
7 0 0  1 2 2  29.169117745123692 20.040505686858012 31.789634384060282  29.281050638754039 20.213729381522928 31.809559138050819 
 0 2 1 2
7 0 0  1 2 2  29.281050638754039 20.213729381522928 -30.660718175069189  29.5882791023671 20.688707071731944 -30.606040229537602 
 0 2 1 2
1 29.5882791023671 20.688707071731944 31.864237083582406 0 0 -1 
7 0 0  1 2 2  29.281050638754039 20.213729381522928 31.809559138050819  29.5882791023671 20.688707071731944 31.864237083582406 
 0 2 1 2
7 0 0  1 2 2  29.5882791023671 20.688707071731944 -30.606040229537602  30.007544098819452 21.336905940794235 -30.531315700706212 
 0 2 1 2
1 30.007544098819452 21.336905940794235 31.938961612413795 0 0 -1 
7 0 0  1 2 2  29.5882791023671 20.688707071731944 31.864237083582406  30.007544098819452 21.336905940794235 31.938961612413795 
 0 2 1 2
7 0 0  1 2 2  30.007544098819452 21.336905940794235 -30.531315700706212  30.426824537632427 21.985107325668167 -30.456450772650431 
 0 2 1 2
1 30.426824537632427 21.985107325668167 32.013826540469573 0 0 -1 
7 0 0  1 2 2  30.007544098819452 21.336905940794235 31.938961612413795  30.426824537632427 21.985107325668167 32.013826540469573 
 0 2 1 2
7 0 0  1 2 2  30.426824537632427 21.985107325668167 -30.456450772650431  30.846116425565981 22.633306194730459 -30.381422776693707 
 0 2 1 2
1 30.846116425565981 22.633306194730459 32.088854536426297 0 0 -1 
7 0 0  1 2 2  30.426824537632427 21.985107325668167 32.013826540469573  30.846116425565981 22.633306194730459 32.088854536426297 
 0 2 1 2
7 0 0  1 2 2  30.846116425565981 22.633306194730459 -30.381422776693707  31.26540072929085 23.281505063792746 -30.306203420824797 
 0 2 1 2
1 31.26540072929085 23.281505063792746 32.164073892295207 0 0 -1 
7 0 0  1 2 2  30.846116425565981 22.633306194730459 32.088854536426297  31.26540072929085 23.281505063792746 32.164073892295207 
 0 2 1 2
7 0 0  1 2 2  31.26540072929085 23.281505063792746 -30.306203420824797  31.684699721583911 23.929706448666678 -30.230756197503215 
 0 2 1 2
1 31.684699721583911 23.929706448666678 32.239521115616789 0 0 -1 
7 0 0  1 2 2  31.26540072929085 23.281505063792746 32.164073892295207  31.684699721583911 23.929706448666678 32.239521115616789 
 0 2 1 2
7 0 0  1 2 2  31.684699721583911 23.929706448666678 -30.230756197503215  32.104005016123324 24.577905317728973 -30.155036763638687 
 0 2 1 2
1 32.104005016123324 24.577905317728973 32.315240549481317 0 0 -1 
7 0 0  1 2 2  31.684699721583911 23.929706448666678 32.239521115616789  32.104005016123324 24.577905317728973 32.315240549481317 
 0 2 1 2
7 0 0  1 2 2  32.104005016123324 24.577905317728973 -30.155036763638687  32.523297670396431 25.226106702602902 -30.078987903582455 
 0 2 1 2
1 32.523297670396431 25.226106702602902 32.391289409537549 0 0 -1 
7 0 0  1 2 2  32.104005016123324 24.577905317728973 32.315240549481317  32.523297670396431 25.226106702602902 32.391289409537549 
 0 2 1 2
7 0 0  1 2 2  32.523297670396431 25.226106702602902 -30.078987903582455  32.9425905983218 25.874305571665193 -30.00253444340024 
 0 2 1 2
1 32.9425905983218 25.874305571665193 32.467742869719764 0 0 -1 
7 0 0  1 2 2  32.523297670396431 25.226106702602902 32.391289409537549  32.9425905983218 25.874305571665193 32.467742869719764 
 0 2 1 2
Polygon3D 0
PolygonOnTriangulations 0
Surfaces 40
9 0 0 0 0 1 1 2 2 2 2 17.789562007999997 -0.92376433317190887 30.179198923614305  17.901797991999999 0.92376433317190887 30.171350619067841  
17.789562008000011 -0.92376433317190887 -32.291078389505707  17.901797991999999 0.92376433317190887 -32.29892669405217  

0 2
62.470277313120008 2

0 2
1 2

9 0 0 0 0 1 1 2 2 2 2 17.901797991999999 0.92376433317190887 30.171350619067841  17.957833336 1.8475257503658218 30.167432246105765  
17.901797991999999 0.92376433317190887 -32.29892669405217  17.957833336 1.8475257503658218 -32.302845067014246  

0 2
62.470277313120008 2

0 2
1 2

9 0 0 0 0 1 1 2 2 2 2 17.957833336 1.8475257503658218 30.167432246105765  18.014651467278952 2.7553753494038551 30.187293457145962  
17.957833336 1.8475257503658218 -32.302845067014246  18.014651467278952 2.7553753494038551 -32.282983855974045  

0 2
62.470277313120008 2

0 2
1 2

9 0 0 0 0 1 1 2 2 2 2 18.014651467278952 2.7553753494038551 30.187293457145962  18.468926148853409 3.4620161290758675 30.214947053646075  
18.014651467278952 2.7553753494038551 -32.282983855974045  18.468926148853409 3.4620161290758675 -32.255330259473936  

0 2
62.470277313120008 2

0 2
1 2

9 0 0 0 0 1 1 2 2 2 2 18.468926148853409 3.4620161290758675 30.214947053646075  18.923198377174927 4.16865690874788 30.242920807163504  
18.468926148853409 3.4620161290758675 -32.255330259473936  18.923198377174927 4.16865690874788 -32.227356505956507  

0 2
62.470277313120008 2

0 2
1 2

9 0 0 0 0 1 1 2 2 2 2 18.923198377174927 4.16865690874788 30.242920807163504  19.377577243706845 4.8752976884198933 30.271275824713072  
18.923198377174927 4.16865690874788 -32.227356505956507  19.377577243706845 4.8752976884198933 -32.199001488406935  

0 2
62.470277313120008 2

0 2
1 2

9 0 0 0 0 1 1 2 2 2 2 19.377577243706845 4.8752976884198933 30.271275824713072  19.831972693715844 5.5819384680919057 30.30010562141662  
19.377577243706845 4.8752976884198933 -32.199001488406935  19.831972693715844 5.5819384680919057 -32.170171691703388  

0 2
62.470277313120008 2

0 2
1 2

9 0 0 0 0 1 1 2 2 2 2 19.831972693715844 5.5819384680919057 30.30010562141662  20.286416864744773 6.2885792477639182 30.329525098763277  
19.831972693715844 5.5819384680919057 -32.170171691703388  20.286416864744773 6.2885792477639182 -32.140752214356731  

0 2
62.470277313120008 2

0 2
1 2

9 0 0 0 0 1 1 2 2 2 2 20.286416864744773 6.2885792477639182 30.329525098763277  20.740899232548944 6.9952172659985514 30.359692545791479  
20.286416864744773 6.2885792477639182 -32.140752214356731  20.740899232548944 6.9952172659985514 -32.110584767328533  

0 2
62.470277313120008 2

0 2
1 2

9 0 0 0 0 1 1 2 2 2 2 20.740899232548944 6.9952172659985514 30.359692545791479  21.195450191544086 7.701858045670563 30.390826772685575  
20.740899232548944 6.9952172659985514 -32.110584767328533  21.195450191544086 7.701858045670563 -32.079450540434436  

0 2
62.470277313120008 2

0 2
1 2

9 0 0 0 0 1 1 2 2 2 2 21.195450191544086 7.701858045670563 30.390826772685575  21.635514345318995 8.3842561157642042 30.439216200240239  
21.195450191544086 7.701858045670563 -32.079450540434436  21.635514345318995 8.3842561157642042 -32.031061112879769  

0 2
62.470277313120008 2

0 2
1 2

9 0 0 0 0 1 1 2 2 2 2 21.635514345318995 8.3842561157642042 30.439216200240239  21.849938547679116 8.7156754625255477 30.477490248831394  
21.635514345318995 8.3842561157642042 -32.031061112879769  21.849938547679116 8.7156754625255477 -31.992787064288613  

0 2
62.470277313120008 2

0 2
1 2

9 0 0 0 0 1 1 2 2 2 2 21.849938547679116 8.7156754625255477 30.477490248831394  22.047930003785208 9.0220646565666911 30.512880855651389  
21.849938547679116 8.7156754625255477 -31.992787064288613  22.047930003785208 9.0220646565666911 -31.957396457468619  

0 2
62.470277313120008 2

0 2
1 2

9 0 0 0 0 1 1 2 2 2 2 22.047930003785208 9.0220646565666911 30.512880855651389  22.466820181058416 9.6702072543917517 30.587757853346087  
22.047930003785208 9.0220646565666911 -31.957396457468619  22.466820181058416 9.6702072543917517 -31.882519459773921  

0 2
62.470277313120008 2

0 2
1 2

9 0 0 0 0 1 1 2 2 2 2 22.466820181058416 9.6702072543917517 30.587757853346087  22.885699550993291 10.31835236781005 30.662652286309989  
22.466820181058416 9.6702072543917517 -31.882519459773921  22.885699550993291 10.31835236781005 -31.807625026810019  

0 2
62.470277313120008 2

0 2
1 2

9 0 0 0 0 1 1 2 2 2 2 22.885699550993291 10.31835236781005 30.662652286309989  23.304568474577692 10.966494965635109 30.737564902378985  
22.885699550993291 10.31835236781005 -31.807625026810019  23.304568474577692 10.966494965635109 -31.732712410741023  

0 2
62.470277313120008 2

0 2
1 2

9 0 0 0 0 1 1 2 2 2 2 23.304568474577692 10.966494965635109 30.737564902378985  23.723466874096424 11.614637563460171 30.812497123654918  
23.304568474577692 10.966494965635109 -31.732712410741023  23.723466874096424 11.614637563460171 -31.65778018946509  

0 2
62.470277313120008 2

0 2
1 2

9 0 0 0 0 1 1 2 2 2 2 23.723466874096424 11.614637563460171 30.812497123654918  24.142349458685569 12.262782676878468 30.88745153546623  
23.723466874096424 11.614637563460171 -31.65778018946509  24.142349458685569 12.262782676878468 -31.582825777653778  

0 2
62.470277313120008 2

0 2
1 2

9 0 0 0 0 1 1 2 2 2 2 24.142349458685569 12.262782676878468 30.88745153546623  24.561203202170102 12.91092527470353 30.962429540769939  
24.142349458685569 12.262782676878468 -31.582825777653778  24.561203202170102 12.91092527470353 -31.507847772350068  

0 2
62.470277313120008 2

0 2
1 2

9 0 0 0 0 1 1 2 2 2 2 24.561203202170102 12.91092527470353 30.962429540769939  24.980088773379073 13.559070388121825 31.03743341875963  
24.561203202170102 12.91092527470353 -31.507847772350068  24.980088773379073 13.559070388121825 -31.432843894360378  

0 2
62.470277313120008 2

0 2
1 2

9 0 0 0 0 1 1 2 2 2 2 24.980088773379073 13.559070388121825 31.03743341875963  25.398977525287023 14.207212985946885 31.112465336822329  
24.980088773379073 13.559070388121825 -31.432843894360378  25.398977525287023 14.207212985946885 -31.357811976297679  

0 2
62.470277313120008 2

0 2
1 2

9 0 0 0 0 1 1 2 2 2 2 25.398977525287023 14.207212985946885 31.112465336822329  25.817874775202046 14.855355583771948 31.187528410506896  
25.398977525287023 14.207212985946885 -31.357811976297679  25.817874775202046 14.855355583771948 -31.282748902613111  

0 2
62.470277313120008 2

0 2
1 2

9 0 0 0 0 1 1 2 2 2 2 25.817874775202046 14.855355583771948 31.187528410506896  26.236776905881314 15.503500697190244 31.262626192587991  
25.817874775202046 14.855355583771948 -31.282748902613111  26.236776905881314 15.503500697190244 -31.207651120532017  

0 2
62.470277313120008 2

0 2
1 2

9 0 0 0 0 1 1 2 2 2 2 26.236776905881314 15.503500697190244 31.262626192587991  26.655666631928206 16.151643295015301 31.337761797858132  
26.236776905881314 15.503500697190244 -31.207651120532017  26.655666631928206 16.151643295015301 -31.132515515261876  

0 2
62.470277313120008 2

0 2
1 2

9 0 0 0 0 1 1 2 2 2 2 26.655666631928206 16.151643295015301 31.337761797858132  27.07455438274247 16.799788408433599 31.412939964053574  
26.655666631928206 16.151643295015301 -31.132515515261876  27.07455438274247 16.799788408433599 -31.057337349066433  

0 2
62.470277313120008 2

0 2
1 2

9 0 0 0 0 1 1 2 2 2 2 27.07455438274247 16.799788408433599 31.412939964053574  27.493460095487425 17.44793100625866 31.488164991232491  
27.07455438274247 16.799788408433599 -31.057337349066433  27.493460095487425 17.44793100625866 -30.982112321887517  

0 2
62.470277313120008 2

0 2
1 2

9 0 0 0 0 1 1 2 2 2 2 27.493460095487425 17.44793100625866 31.488164991232491  27.912362485456708 18.096073604083724 31.563442800157691  
27.493460095487425 17.44793100625866 -30.982112321887517  27.912362485456708 18.096073604083724 -30.906834512962316  

0 2
62.470277313120008 2

0 2
1 2

9 0 0 0 0 1 1 2 2 2 2 27.912362485456708 18.096073604083724 31.563442800157691  28.331280824253398 18.744218717502019 31.638780333715555  
27.912362485456708 18.096073604083724 -30.906834512962316  28.331280824253398 18.744218717502019 -30.831496979404452  

0 2
62.470277313120008 2

0 2
1 2

9 0 0 0 0 1 1 2 2 2 2 28.331280824253398 18.744218717502019 31.638780333715555  28.750181487380544 19.392361315327079 31.714184513085325  
28.331280824253398 18.744218717502019 -30.831496979404452  28.750181487380544 19.392361315327079 -30.756092800034683  

0 2
62.470277313120008 2

0 2
1 2

9 0 0 0 0 1 1 2 2 2 2 28.750181487380544 19.392361315327079 31.714184513085325  29.169117745123692 20.040505686858012 31.789634384060282  
28.750181487380544 19.392361315327079 -30.756092800034683  29.169117745123692 20.040505686858012 -30.680642929059726  

0 2
62.470277313120008 2

0 2
1 2

9 0 0 0 0 1 1 2 2 2 2 29.169117745123692 20.040505686858012 31.789634384060282  29.281050638754039 20.213729381522928 31.809559138050819  
29.169117745123692 20.040505686858012 -30.680642929059726  29.281050638754039 20.213729381522928 -30.660718175069189  

0 2
62.470277313120008 2

0 2
1 2

9 0 0 0 0 1 1 2 2 2 2 29.281050638754039 20.213729381522928 31.809559138050819  29.5882791023671 20.688707071731944 31.864237083582406  
29.281050638754039 20.213729381522928 -30.660718175069189  29.5882791023671 20.688707071731944 -30.606040229537602  

0 2
62.470277313120008 2

0 2
1 2

9 0 0 0 0 1 1 2 2 2 2 29.5882791023671 20.688707071731944 31.864237083582406  30.007544098819452 21.336905940794235 31.938961612413795  
29.5882791023671 20.688707071731944 -30.606040229537602  30.007544098819452 21.336905940794235 -30.531315700706212  

0 2
62.470277313120008 2

0 2
1 2

9 0 0 0 0 1 1 2 2 2 2 30.007544098819452 21.336905940794235 31.938961612413795  30.426824537632427 21.985107325668167 32.013826540469573  
30.007544098819452 21.336905940794235 -30.531315700706212  30.426824537632427 21.985107325668167 -30.456450772650431  

0 2
62.470277313120008 2

0 2
1 2

9 0 0 0 0 1 1 2 2 2 2 30.426824537632427 21.985107325668167 32.013826540469573  30.846116425565981 22.633306194730459 32.088854536426297  
30.426824537632427 21.985107325668167 -30.456450772650431  30.846116425565981 22.633306194730459 -30.381422776693707  

0 2
62.470277313120008 2

0 2
1 2

9 0 0 0 0 1 1 2 2 2 2 30.846116425565981 22.633306194730459 32.088854536426297  31.26540072929085 23.281505063792746 32.164073892295207  
30.846116425565981 22.633306194730459 -30.381422776693707  31.26540072929085 23.281505063792746 -30.306203420824797  

0 2
62.470277313120008 2

0 2
1 2

9 0 0 0 0 1 1 2 2 2 2 31.26540072929085 23.281505063792746 32.164073892295207  31.684699721583911 23.929706448666678 32.239521115616789  
31.26540072929085 23.281505063792746 -30.306203420824797  31.684699721583911 23.929706448666678 -30.230756197503215  

0 2
62.470277313120008 2

0 2
1 2

9 0 0 0 0 1 1 2 2 2 2 31.684699721583911 23.929706448666678 32.239521115616789  32.104005016123324 24.577905317728973 32.315240549481317  
31.684699721583911 23.929706448666678 -30.230756197503215  32.104005016123324 24.577905317728973 -30.155036763638687  

0 2
62.470277313120008 2

0 2
1 2

9 0 0 0 0 1 1 2 2 2 2 32.104005016123324 24.577905317728973 32.315240549481317  32.523297670396431 25.226106702602902 32.391289409537549  
32.104005016123324 24.577905317728973 -30.155036763638687  32.523297670396431 25.226106702602902 -30.078987903582455  

0 2
62.470277313120008 2

0 2
1 2

9 0 0 0 0 1 1 2 2 2 2 32.523297670396431 25.226106702602902 32.391289409537549  32.9425905983218 25.874305571665193 32.467742869719764  
32.523297670396431 25.226106702602902 -30.078987903582455  32.9425905983218 25.874305571665193 -30.00253444340024  

0 2
62.470277313120008 2

0 2
1 2

Triangulations 0

TShapes 284
Ve
1e-07
17.789562008 -0.923764333171909 30.1791989236143
0 0

0101101
*
Ve
1e-07
17.789562008 -0.923764333171909 -32.2910783895057
0 0

0101101
*
Ed
 1e-07 1 1 0
1  1 0 0 62.47027731312
2  1 1 0 0 62.47027731312
0

0101000
+284 0 -283 0 *
Ve
1e-07
17.901797992 0.923764333171909 -32.2989266940522
0 0

0101101
*
Ed
 1e-07 1 1 0
1  2 0 0 1
2  2 1 0 0 1
0

0101000
+283 0 -281 0 *
Ve
1e-07
17.901797992 0.923764333171909 30.1713506190678
0 0

0101101
*
Ed
 1e-07 1 1 0
1  3 0 0 62.47027731312
2  3 1 0 0 62.47027731312
2  4 2 0 0 62.47027731312
0

0101000
+279 0 -281 0 *
Ed
 1e-07 1 1 0
1  4 0 0 1
2  5 1 0 0 1
0

0101000
+284 0 -279 0 *
Wi

0101100
+282 0 +280 0 -278 0 -277 0 *
Fa
0  1e-07 1 0

0101000
+276 0 *
Ve
1e-07
17.957833336 1.84752575036582 -32.3028450670142
0 0

0101101
*
Ed
 1e-07 1 1 0
1  5 0 0 1
2  6 2 0 0 1
0

0101000
+281 0 -274 0 *
Ve
1e-07
17.957833336 1.84752575036582 30.1674322461058
0 0

0101101
*
Ed
 1e-07 1 1 0
1  6 0 0 62.47027731312
2  7 2 0 0 62.47027731312
2  8 3 0 0 62.47027731312
0

0101000
+272 0 -274 0 *
Ed
 1e-07 1 1 0
1  7 0 0 1
2  9 2 0 0 1
0

0101000
+279 0 -272 0 *
Wi

0101100
+278 0 +273 0 -271 0 -270 0 *
Fa
0  1e-07 2 0

0101000
+269 0 *
Ve
1e-07
18.014651467279 2.75537534940386 -32.282983855974
0 0

0101101
*
Ed
 1e-07 1 1 0
1  8 0 0 1
2  10 3 0 0 1
0

0101000
+274 0 -267 0 *
Ve
1e-07
18.014651467279 2.75537534940386 30.187293457146
0 0

0101101
*
Ed
 1e-07 1 1 0
1  9 0 0 62.47027731312
2  11 3 0 0 62.47027731312
2  12 4 0 0 62.47027731312
0

0101000
+265 0 -267 0 *
Ed
 1e-07 1 1 0
1  10 0 0 1
2  13 3 0 0 1
0

0101000
+272 0 -265 0 *
Wi

0101100
+271 0 +266 0 -264 0 -263 0 *
Fa
0  1e-07 3 0

0101000
+262 0 *
Ve
1e-07
18.4689261488534 3.46201612907587 -32.2553302594739
0 0

0101101
*
Ed
 1e-07 1 1 0
1  11 0 0 1
2  14 4 0 0 1
0

0101000
+267 0 -260 0 *
Ve
1e-07
18.4689261488534 3.46201612907587 30.2149470536461
0 0

0101101
*
Ed
 1e-07 1 1 0
1  12 0 0 62.47027731312
2  15 4 0 0 62.47027731312
2  16 5 0 0 62.47027731312
0

0101000
+258 0 -260 0 *
Ed
 1e-07 1 1 0
1  13 0 0 1
2  17 4 0 0 1
0

0101000
+265 0 -258 0 *
Wi

0101100
+264 0 +259 0 -257 0 -256 0 *
Fa
0  1e-07 4 0

0101000
+255 0 *
Ve
1e-07
18.9231983771749 4.16865690874788 -32.2273565059565
0 0

0101101
*
Ed
 1e-07 1 1 0
1  14 0 0 1
2  18 5 0 0 1
0

0101000
+260 0 -253 0 *
Ve
1e-07
18.9231983771749 4.16865690874788 30.2429208071635
0 0

0101101
*
Ed
 1e-07 1 1 0
1  15 0 0 62.47027731312
2  19 5 0 0 62.47027731312
2  20 6 0 0 62.47027731312
0

0101000
+251 0 -253 0 *
Ed
 1e-07 1 1 0
1  16 0 0 1
2  21 5 0 0 1
0

0101000
+258 0 -251 0 *
Wi

0101100
+257 0 +252 0 -250 0 -249 0 *
Fa
0  1e-07 5 0

0101000
+248 0 *
Ve
1e-07
19.3775772437068 4.87529768841989 -32.1990014884069
0 0

0101101
*
Ed
 1e-07 1 1 0
1  17 0 0 1
2  22 6 0 0 1
0

0101000
+253 0 -246 0 *
Ve
1e-07
19.3775772437068 4.87529768841989 30.2712758247131
0 0

0101101
*
Ed
 1e-07 1 1 0
1  18 0 0 62.47027731312
2  23 6 0 0 62.47027731312
2  24 7 0 0 62.47027731312
0

0101000
+244 0 -246 0 *
Ed
 1e-07 1 1 0
1  19 0 0 1
2  25 6 0 0 1
0

0101000
+251 0 -244 0 *
Wi

0101100
+250 0 +245 0 -243 0 -242 0 *
Fa
0  1e-07 6 0

0101000
+241 0 *
Ve
1e-07
19.8319726937158 5.58193846809191 -32.1701716917034
0 0

0101101
*
Ed
 1e-07 1 1 0
1  20 0 0 1
2  26 7 0 0 1
0

0101000
+246 0 -239 0 *
Ve
1e-07
19.8319726937158 5.58193846809191 30.3001056214166
0 0

0101101
*
Ed
 1e-07 1 1 0
1  21 0 0 62.47027731312
2  27 7 0 0 62.47027731312
2  28 8 0 0 62.47027731312
0

0101000
+237 0 -239 0 *
Ed
 1e-07 1 1 0
1  22 0 0 1
2  29 7 0 0 1
0

0101000
+244 0 -237 0 *
Wi

0101100
+243 0 +238 0 -236 0 -235 0 *
Fa
0  1e-07 7 0

0101000
+234 0 *
Ve
1e-07
20.2864168647448 6.28857924776392 -32.1407522143567
0 0

0101101
*
Ed
 1e-07 1 1 0
1  23 0 0 1
2  30 8 0 0 1
0

0101000
+239 0 -232 0 *
Ve
1e-07
20.2864168647448 6.28857924776392 30.3295250987633
0 0

0101101
*
Ed
 1e-07 1 1 0
1  24 0 0 62.47027731312
2  31 8 0 0 62.47027731312
2  32 9 0 0 62.47027731312
0

0101000
+230 0 -232 0 *
Ed
 1e-07 1 1 0
1  25 0 0 1
2  33 8 0 0 1
0

0101000
+237 0 -230 0 *
Wi

0101100
+236 0 +231 0 -229 0 -228 0 *
Fa
0  1e-07 8 0

0101000
+227 0 *
Ve
1e-07
20.7408992325489 6.99521726599855 -32.1105847673285
0 0

0101101
*
Ed
 1e-07 1 1 0
1  26 0 0 1
2  34 9 0 0 1
0

0101000
+232 0 -225 0 *
Ve
1e-07
20.7408992325489 6.99521726599855 30.3596925457915
0 0

0101101
*
Ed
 1e-07 1 1 0
1  27 0 0 62.47027731312
2  35 9 0 0 62.47027731312
2  36 10 0 0 62.47027731312
0

0101000
+223 0 -225 0 *
Ed
 1e-07 1 1 0
1  28 0 0 1
2  37 9 0 0 1
0

0101000
+230 0 -223 0 *
Wi

0101100
+229 0 +224 0 -222 0 -221 0 *
Fa
0  1e-07 9 0

0101000
+220 0 *
Ve
1e-07
21.1954501915441 7.70185804567056 -32.0794505404344
0 0

0101101
*
Ed
 1e-07 1 1 0
1  29 0 0 1
2  38 10 0 0 1
0

0101000
+225 0 -218 0 *
Ve
1e-07
21.1954501915441 7.70185804567056 30.3908267726856
0 0

0101101
*
Ed
 1e-07 1 1 0
1  30 0 0 62.47027731312
2  39 10 0 0 62.47027731312
2  40 11 0 0 62.47027731312
0

0101000
+216 0 -218 0 *
Ed
 1e-07 1 1 0
1  31 0 0 1
2  41 10 0 0 1
0

0101000
+223 0 -216 0 *
Wi

0101100
+222 0 +217 0 -215 0 -214 0 *
Fa
0  1e-07 10 0

0101000
+213 0 *
Ve
1e-07
21.635514345319 8.3842561157642 -32.0310611128798
0 0

0101101
*
Ed
 1e-07 1 1 0
1  32 0 0 1
2  42 11 0 0 1
0

0101000
+218 0 -211 0 *
Ve
1e-07
21.635514345319 8.3842561157642 30.4392162002402
0 0

0101101
*
Ed
 1e-07 1 1 0
1  33 0 0 62.47027731312
2  43 11 0 0 62.47027731312
2  44 12 0 0 62.47027731312
0

0101000
+209 0 -211 0 *
Ed
 1e-07 1 1 0
1  34 0 0 1
2  45 11 0 0 1
0

0101000
+216 0 -209 0 *
Wi

0101100
+215 0 +210 0 -208 0 -207 0 *
Fa
0  1e-07 11 0

0101000
+206 0 *
Ve
1e-07
21.8499385476791 8.71567546252555 -31.9927870642886
0 0

0101101
*
Ed
 1e-07 1 1 0
1  35 0 0 1
2  46 12 0 0 1
0

0101000
+211 0 -204 0 *
Ve
1e-07
21.8499385476791 8.71567546252555 30.4774902488314
0 0

0101101
*
Ed
 1e-07 1 1 0
1  36 0 0 62.47027731312
2  47 12 0 0 62.47027731312
2  48 13 0 0 62.47027731312
0

0101000
+202 0 -204 0 *
Ed
 1e-07 1 1 0
1  37 0 0 1
2  49 12 0 0 1
0

0101000
+209 0 -202 0 *
Wi

0101100
+208 0 +203 0 -201 0 -200 0 *
Fa
0  1e-07 12 0

0101000
+199 0 *
Ve
1e-07
22.0479300037852 9.02206465656669 -31.9573964574686
0 0

0101101
*
Ed
 1e-07 1 1 0
1  38 0 0 1
2  50 13 0 0 1
0

0101000
+204 0 -197 0 *
Ve
1e-07
22.0479300037852 9.02206465656669 30.5128808556514
0 0

0101101
*
Ed
 1e-07 1 1 0
1  39 0 0 62.47027731312
2  51 13 0 0 62.47027731312
2  52 14 0 0 62.47027731312
0

0101000
+195 0 -197 0 *
Ed
 1e-07 1 1 0
1  40 0 0 1
2  53 13 0 0 1
0

0101000
+202 0 -195 0 *
Wi

0101100
+201 0 +196 0 -194 0 -193 0 *
Fa
0  1e-07 13 0

0101000
+192 0 *
Ve
1e-07
22.4668201810584 9.67020725439175 -31.8825194597739
0 0

0101101
*
Ed
 1e-07 1 1 0
1  41 0 0 1
2  54 14 0 0 1
0

0101000
+197 0 -190 0 *
Ve
1e-07
22.4668201810584 9.67020725439175 30.5877578533461
0 0

0101101
*
Ed
 1e-07 1 1 0
1  42 0 0 62.47027731312
2  55 14 0 0 62.47027731312
2  56 15 0 0 62.47027731312
0

0101000
+188 0 -190 0 *
Ed
 1e-07 1 1 0
1  43 0 0 1
2  57 14 0 0 1
0

0101000
+195 0 -188 0 *
Wi

0101100
+194 0 +189 0 -187 0 -186 0 *
Fa
0  1e-07 14 0

0101000
+185 0 *
Ve
1e-07
22.8856995509933 10.31835236781 -31.80762502681
0 0

0101101
*
Ed
 1e-07 1 1 0
1  44 0 0 1
2  58 15 0 0 1
0

0101000
+190 0 -183 0 *
Ve
1e-07
22.8856995509933 10.31835236781 30.66265228631
0 0

0101101
*
Ed
 1e-07 1 1 0
1  45 0 0 62.47027731312
2  59 15 0 0 62.47027731312
2  60 16 0 0 62.47027731312
0

0101000
+181 0 -183 0 *
Ed
 1e-07 1 1 0
1  46 0 0 1
2  61 15 0 0 1
0

0101000
+188 0 -181 0 *
Wi

0101100
+187 0 +182 0 -180 0 -179 0 *
Fa
0  1e-07 15 0

0101000
+178 0 *
Ve
1e-07
23.3045684745777 10.9664949656351 -31.732712410741
0 0

0101101
*
Ed
 1e-07 1 1 0
1  47 0 0 1
2  62 16 0 0 1
0

0101000
+183 0 -176 0 *
Ve
1e-07
23.3045684745777 10.9664949656351 30.737564902379
0 0

0101101
*
Ed
 1e-07 1 1 0
1  48 0 0 62.47027731312
2  63 16 0 0 62.47027731312
2  64 17 0 0 62.47027731312
0

0101000
+174 0 -176 0 *
Ed
 1e-07 1 1 0
1  49 0 0 1
2  65 16 0 0 1
0

0101000
+181 0 -174 0 *
Wi

0101100
+180 0 +175 0 -173 0 -172 0 *
Fa
0  1e-07 16 0

0101000
+171 0 *
Ve
1e-07
23.7234668740964 11.6146375634602 -31.6577801894651
0 0

0101101
*
Ed
 1e-07 1 1 0
1  50 0 0 1
2  66 17 0 0 1
0

0101000
+176 0 -169 0 *
Ve
1e-07
23.7234668740964 11.6146375634602 30.8124971236549
0 0

0101101
*
Ed
 1e-07 1 1 0
1  51 0 0 62.47027731312
2  67 17 0 0 62.47027731312
2  68 18 0 0 62.47027731312
0

0101000
+167 0 -169 0 *
Ed
 1e-07 1 1 0
1  52 0 0 1
2  69 17 0 0 1
0

0101000
+174 0 -167 0 *
Wi

0101100
+173 0 +168 0 -166 0 -165 0 *
Fa
0  1e-07 17 0

0101000
+164 0 *
Ve
1e-07
24.1423494586856 12.2627826768785 -31.5828257776538
0 0

0101101
*
Ed
 1e-07 1 1 0
1  53 0 0 1
2  70 18 0 0 1
0

0101000
+169 0 -162 0 *
Ve
1e-07
24.1423494586856 12.2627826768785 30.8874515354662
0 0

0101101
*
Ed
 1e-07 1 1 0
1  54 0 0 62.47027731312
2  71 18 0 0 62.47027731312
2  72 19 0 0 62.47027731312
0

0101000
+160 0 -162 0 *
Ed
 1e-07 1 1 0
1  55 0 0 1
2  73 18 0 0 1
0

0101000
+167 0 -160 0 *
Wi

0101100
+166 0 +161 0 -159 0 -158 0 *
Fa
0  1e-07 18 0

0101000
+157 0 *
Ve
1e-07
24.5612032021701 12.9109252747035 -31.5078477723501
0 0

0101101
*
Ed
 1e-07 1 1 0
1  56 0 0 1
2  74 19 0 0 1
0

0101000
+162 0 -155 0 *
Ve
1e-07
24.5612032021701 12.9109252747035 30.9624295407699
0 0

0101101
*
Ed
 1e-07 1 1 0
1  57 0 0 62.47027731312
2  75 19 0 0 62.47027731312
2  76 20 0 0 62.47027731312
0

0101000
+153 0 -155 0 *
Ed
 1e-07 1 1 0
1  58 0 0 1
2  77 19 0 0 1
0

0101000
+160 0 -153 0 *
Wi

0101100
+159 0 +154 0 -152 0 -151 0 *
Fa
0  1e-07 19 0

0101000
+150 0 *
Ve
1e-07
24.9800887733791 13.5590703881218 -31.4328438943604
0 0

0101101
*
Ed
 1e-07 1 1 0
1  59 0 0 1
2  78 20 0 0 1
0

0101000
+155 0 -148 0 *
Ve
1e-07
24.9800887733791 13.5590703881218 31.0374334187596
0 0

0101101
*
Ed
 1e-07 1 1 0
1  60 0 0 62.47027731312
2  79 20 0 0 62.47027731312
2  80 21 0 0 62.47027731312
0

0101000
+146 0 -148 0 *
Ed
 1e-07 1 1 0
1  61 0 0 1
2  81 20 0 0 1
0

0101000
+153 0 -146 0 *
Wi

0101100
+152 0 +147 0 -145 0 -144 0 *
Fa
0  1e-07 20 0

0101000
+143 0 *
Ve
1e-07
25.398977525287 14.2072129859469 -31.3578119762977
0 0

0101101
*
Ed
 1e-07 1 1 0
1  62 0 0 1
2  82 21 0 0 1
0

0101000
+148 0 -141 0 *
Ve
1e-07
25.398977525287 14.2072129859469 31.1124653368223
0 0

0101101
*
Ed
 1e-07 1 1 0
1  63 0 0 62.47027731312
2  83 21 0 0 62.47027731312
2  84 22 0 0 62.47027731312
0

0101000
+139 0 -141 0 *
Ed
 1e-07 1 1 0
1  64 0 0 1
2  85 21 0 0 1
0

0101000
+146 0 -139 0 *
Wi

0101100
+145 0 +140 0 -138 0 -137 0 *
Fa
0  1e-07 21 0

0101000
+136 0 *
Ve
1e-07
25.817874775202 14.8553555837719 -31.2827489026131
0 0

0101101
*
Ed
 1e-07 1 1 0
1  65 0 0 1
2  86 22 0 0 1
0

0101000
+141 0 -134 0 *
Ve
1e-07
25.817874775202 14.8553555837719 31.1875284105069
0 0

0101101
*
Ed
 1e-07 1 1 0
1  66 0 0 62.47027731312
2  87 22 0 0 62.47027731312
2  88 23 0 0 62.47027731312
0

0101000
+132 0 -134 0 *
Ed
 1e-07 1 1 0
1  67 0 0 1
2  89 22 0 0 1
0

0101000
+139 0 -132 0 *
Wi

0101100
+138 0 +133 0 -131 0 -130 0 *
Fa
0  1e-07 22 0

0101000
+129 0 *
Ve
1e-07
26.2367769058813 15.5035006971902 -31.207651120532
0 0

0101101
*
Ed
 1e-07 1 1 0
1  68 0 0 1
2  90 23 0 0 1
0

0101000
+134 0 -127 0 *
Ve
1e-07
26.2367769058813 15.5035006971902 31.262626192588
0 0

0101101
*
Ed
 1e-07 1 1 0
1  69 0 0 62.47027731312
2  91 23 0 0 62.47027731312
2  92 24 0 0 62.47027731312
0

0101000
+125 0 -127 0 *
Ed
 1e-07 1 1 0
1  70 0 0 1
2  93 23 0 0 1
0

0101000
+132 0 -125 0 *
Wi

0101100
+131 0 +126 0 -124 0 -123 0 *
Fa
0  1e-07 23 0

0101000
+122 0 *
Ve
1e-07
26.6556666319282 16.1516432950153 -31.1325155152619
0 0

0101101
*
Ed
 1e-07 1 1 0
1  71 0 0 1
2  94 24 0 0 1
0

0101000
+127 0 -120 0 *
Ve
1e-07
26.6556666319282 16.1516432950153 31.3377617978581
0 0

0101101
*
Ed
 1e-07 1 1 0
1  72 0 0 62.47027731312
2  95 24 0 0 62.47027731312
2  96 25 0 0 62.47027731312
0

0101000
+118 0 -120 0 *
Ed
 1e-07 1 1 0
1  73 0 0 1
2  97 24 0 0 1
0

0101000
+125 0 -118 0 *
Wi

0101100
+124 0 +119 0 -117 0 -116 0 *
Fa
0  1e-07 24 0

0101000
+115 0 *
Ve
1e-07
27.0745543827425 16.7997884084336 -31.0573373490664
0 0

0101101
*
Ed
 1e-07 1 1 0
1  74 0 0 1
2  98 25 0 0 1
0

0101000
+120 0 -113 0 *
Ve
1e-07
27.0745543827425 16.7997884084336 31.4129399640536
0 0

0101101
*
Ed
 1e-07 1 1 0
1  75 0 0 62.47027731312
2  99 25 0 0 62.47027731312
2  100 26 0 0 62.47027731312
0

0101000
+111 0 -113 0 *
Ed
 1e-07 1 1 0
1  76 0 0 1
2  101 25 0 0 1
0

0101000
+118 0 -111 0 *
Wi

0101100
+117 0 +112 0 -110 0 -109 0 *
Fa
0  1e-07 25 0

0101000
+108 0 *
Ve
1e-07
27.4934600954874 17.4479310062587 -30.9821123218875
0 0

0101101
*
Ed
 1e-07 1 1 0
1  77 0 0 1
2  102 26 0 0 1
0

0101000
+113 0 -106 0 *
Ve
1e-07
27.4934600954874 17.4479310062587 31.4881649912325
0 0

0101101
*
Ed
 1e-07 1 1 0
1  78 0 0 62.47027731312
2  103 26 0 0 62.47027731312
2  104 27 0 0 62.47027731312
0

0101000
+104 0 -106 0 *
Ed
 1e-07 1 1 0
1  79 0 0 1
2  105 26 0 0 1
0

0101000
+111 0 -104 0 *
Wi

0101100
+110 0 +105 0 -103 0 -102 0 *
Fa
0  1e-07 26 0

0101000
+101 0 *
Ve
1e-07
27.9123624854567 18.0960736040837 -30.9068345129623
0 0

0101101
*
Ed
 1e-07 1 1 0
1  80 0 0 1
2  106 27 0 0 1
0

0101000
+106 0 -99 0 *
Ve
1e-07
27.9123624854567 18.0960736040837 31.5634428001577
0 0

0101101
*
Ed
 1e-07 1 1 0
1  81 0 0 62.47027731312
2  107 27 0 0 62.47027731312
2  108 28 0 0 62.47027731312
0

0101000
+97 0 -99 0 *
Ed
 1e-07 1 1 0
1  82 0 0 1
2  109 27 0 0 1
0

0101000
+104 0 -97 0 *
Wi

0101100
+103 0 +98 0 -96 0 -95 0 *
Fa
0  1e-07 27 0

0101000
+94 0 *
Ve
1e-07
28.3312808242534 18.744218717502 -30.8314969794045
0 0

0101101
*
Ed
 1e-07 1 1 0
1  83 0 0 1
2  110 28 0 0 1
0

0101000
+99 0 -92 0 *
Ve
1e-07
28.3312808242534 18.744218717502 31.6387803337156
0 0

0101101
*
Ed
 1e-07 1 1 0
1  84 0 0 62.47027731312
2  111 28 0 0 62.47027731312
2  112 29 0 0 62.47027731312
0

0101000
+90 0 -92 0 *
Ed
 1e-07 1 1 0
1  85 0 0 1
2  113 28 0 0 1
0

0101000
+97 0 -90 0 *
Wi

0101100
+96 0 +91 0 -89 0 -88 0 *
Fa
0  1e-07 28 0

0101000
+87 0 *
Ve
1e-07
28.7501814873805 19.3923613153271 -30.7560928000347
0 0

0101101
*
Ed
 1e-07 1 1 0
1  86 0 0 1
2  114 29 0 0 1
0

0101000
+92 0 -85 0 *
Ve
1e-07
28.7501814873805 19.3923613153271 31.7141845130853
0 0

0101101
*
Ed
 1e-07 1 1 0
1  87 0 0 62.47027731312
2  115 29 0 0 62.47027731312
2  116 30 0 0 62.47027731312
0

0101000
+83 0 -85 0 *
Ed
 1e-07 1 1 0
1  88 0 0 1
2  117 29 0 0 1
0

0101000
+90 0 -83 0 *
Wi

0101100
+89 0 +84 0 -82 0 -81 0 *
Fa
0  1e-07 29 0

0101000
+80 0 *
Ve
1e-07
29.1691177451237 20.040505686858 -30.6806429290597
0 0

0101101
*
Ed
 1e-07 1 1 0
1  89 0 0 1
2  118 30 0 0 1
0

0101000
+85 0 -78 0 *
Ve
1e-07
29.1691177451237 20.040505686858 31.7896343840603
0 0

0101101
*
Ed
 1e-07 1 1 0
1  90 0 0 62.47027731312
2  119 30 0 0 62.47027731312
2  120 31 0 0 62.47027731312
0

0101000
+76 0 -78 0 *
Ed
 1e-07 1 1 0
1  91 0 0 1
2  121 30 0 0 1
0

0101000
+83 0 -76 0 *
Wi

0101100
+82 0 +77 0 -75 0 -74 0 *
Fa
0  1e-07 30 0

0101000
+73 0 *
Ve
1e-07
29.281050638754 20.2137293815229 -30.6607181750692
0 0

0101101
*
Ed
 1e-07 1 1 0
1  92 0 0 1
2  122 31 0 0 1
0

0101000
+78 0 -71 0 *
Ve
1e-07
29.281050638754 20.2137293815229 31.8095591380508
0 0

0101101
*
Ed
 1e-07 1 1 0
1  93 0 0 62.47027731312
2  123 31 0 0 62.47027731312
2  124 32 0 0 62.47027731312
0

0101000
+69 0 -71 0 *
Ed
 1e-07 1 1 0
1  94 0 0 1
2  125 31 0 0 1
0

0101000
+76 0 -69 0 *
Wi

0101100
+75 0 +70 0 -68 0 -67 0 *
Fa
0  1e-07 31 0

0101000
+66 0 *
Ve
1e-07
29.5882791023671 20.6887070717319 -30.6060402295376
0 0

0101101
*
Ed
 1e-07 1 1 0
1  95 0 0 1
2  126 32 0 0 1
0

0101000
+71 0 -64 0 *
Ve
1e-07
29.5882791023671 20.6887070717319 31.8642370835824
0 0

0101101
*
Ed
 1e-07 1 1 0
1  96 0 0 62.47027731312
2  127 32 0 0 62.47027731312
2  128 33 0 0 62.47027731312
0

0101000
+62 0 -64 0 *
Ed
 1e-07 1 1 0
1  97 0 0 1
2  129 32 0 0 1
0

0101000
+69 0 -62 0 *
Wi

0101100
+68 0 +63 0 -61 0 -60 0 *
Fa
0  1e-07 32 0

0101000
+59 0 *
Ve
1e-07
30.0075440988195 21.3369059407942 -30.5313157007062
0 0

0101101
*
Ed
 1e-07 1 1 0
1  98 0 0 1
2  130 33 0 0 1
0

0101000
+64 0 -57 0 *
Ve
1e-07
30.0075440988195 21.3369059407942 31.9389616124138
0 0

0101101
*
Ed
 1e-07 1 1 0
1  99 0 0 62.47027731312
2  131 33 0 0 62.47027731312
2  132 34 0 0 62.47027731312
0

0101000
+55 0 -57 0 *
Ed
 1e-07 1 1 0
1  100 0 0 1
2  133 33 0 0 1
0

0101000
+62 0 -55 0 *
Wi

0101100
+61 0 +56 0 -54 0 -53 0 *
Fa
0  1e-07 33 0

0101000
+52 0 *
Ve
1e-07
30.4268245376324 21.9851073256682 -30.4564507726504
0 0

0101101
*
Ed
 1e-07 1 1 0
1  101 0 0 1
2  134 34 0 0 1
0

0101000
+57 0 -50 0 *
Ve
1e-07
30.4268245376324 21.9851073256682 32.0138265404696
0 0

0101101
*
Ed
 1e-07 1 1 0
1  102 0 0 62.47027731312
2  135 34 0 0 62.47027731312
2  136 35 0 0 62.47027731312
0

0101000
+48 0 -50 0 *
Ed
 1e-07 1 1 0
1  103 0 0 1
2  137 34 0 0 1
0

0101000
+55 0 -48 0 *
Wi

0101100
+54 0 +49 0 -47 0 -46 0 *
Fa
0  1e-07 34 0

0101000
+45 0 *
Ve
1e-07
30.846116425566 22.6333061947305 -30.3814227766937
0 0

0101101
*
Ed
 1e-07 1 1 0
1  104 0 0 1
2  138 35 0 0 1
0

0101000
+50 0 -43 0 *
Ve
1e-07
30.846116425566 22.6333061947305 32.0888545364263
0 0

0101101
*
Ed
 1e-07 1 1 0
1  105 0 0 62.47027731312
2  139 35 0 0 62.47027731312
2  140 36 0 0 62.47027731312
0

0101000
+41 0 -43 0 *
Ed
 1e-07 1 1 0
1  106 0 0 1
2  141 35 0 0 1
0

0101000
+48 0 -41 0 *
Wi

0101100
+47 0 +42 0 -40 0 -39 0 *
Fa
0  1e-07 35 0

0101000
+38 0 *
Ve
1e-07
31.2654007292908 23.2815050637927 -30.3062034208248
0 0

0101101
*
Ed
 1e-07 1 1 0
1  107 0 0 1
2  142 36 0 0 1
0

0101000
+43 0 -36 0 *
Ve
1e-07
31.2654007292908 23.2815050637927 32.1640738922952
0 0

0101101
*
Ed
 1e-07 1 1 0
1  108 0 0 62.47027731312
2  143 36 0 0 62.47027731312
2  144 37 0 0 62.47027731312
0

0101000
+34 0 -36 0 *
Ed
 1e-07 1 1 0
1  109 0 0 1
2  145 36 0 0 1
0

0101000
+41 0 -34 0 *
Wi

0101100
+40 0 +35 0 -33 0 -32 0 *
Fa
0  1e-07 36 0

0101000
+31 0 *
Ve
1e-07
31.6846997215839 23.9297064486667 -30.2307561975032
0 0

0101101
*
Ed
 1e-07 1 1 0
1  110 0 0 1
2  146 37 0 0 1
0

0101000
+36 0 -29 0 *
Ve
1e-07
31.6846997215839 23.9297064486667 32.2395211156168
0 0

0101101
*
Ed
 1e-07 1 1 0
1  111 0 0 62.47027731312
2  147 37 0 0 62.47027731312
2  148 38 0 0 62.47027731312
0

0101000
+27 0 -29 0 *
Ed
 1e-07 1 1 0
1  112 0 0 1
2  149 37 0 0 1
0

0101000
+34 0 -27 0 *
Wi

0101100
+33 0 +28 0 -26 0 -25 0 *
Fa
0  1e-07 37 0

0101000
+24 0 *
Ve
1e-07
32.1040050161233 24.577905317729 -30.1550367636387
0 0

0101101
*
Ed
 1e-07 1 1 0
1  113 0 0 1
2  150 38 0 0 1
0

0101000
+29 0 -22 0 *
Ve
1e-07
32.1040050161233 24.577905317729 32.3152405494813
0 0

0101101
*
Ed
 1e-07 1 1 0
1  114 0 0 62.47027731312
2  151 38 0 0 62.47027731312
2  152 39 0 0 62.47027731312
0

0101000
+20 0 -22 0 *
Ed
 1e-07 1 1 0
1  115 0 0 1
2  153 38 0 0 1
0

0101000
+27 0 -20 0 *
Wi

0101100
+26 0 +21 0 -19 0 -18 0 *
Fa
0  1e-07 38 0

0101000
+17 0 *
Ve
1e-07
32.5232976703964 25.2261067026029 -30.0789879035825
0 0

0101101
*
Ed
 1e-07 1 1 0
1  116 0 0 1
2  154 39 0 0 1
0

0101000
+22 0 -15 0 *
Ve
1e-07
32.5232976703964 25.2261067026029 32.3912894095375
0 0

0101101
*
Ed
 1e-07 1 1 0
1  117 0 0 62.47027731312
2  155 39 0 0 62.47027731312
2  156 40 0 0 62.47027731312
0

0101000
+13 0 -15 0 *
Ed
 1e-07 1 1 0
1  118 0 0 1
2  157 39 0 0 1
0

0101000
+20 0 -13 0 *
Wi

0101100
+19 0 +14 0 -12 0 -11 0 *
Fa
0  1e-07 39 0

0101000
+10 0 *
Ve
1e-07
32.9425905983218 25.8743055716652 -30.0025344434002
0 0

0101101
*
Ed
 1e-07 1 1 0
1  119 0 0 1
2  158 40 0 0 1
0

0101000
+15 0 -8 0 *
Ve
1e-07
32.9425905983218 25.8743055716652 32.4677428697198
0 0

0101101
*
Ed
 1e-07 1 1 0
1  120 0 0 62.47027731312
2  159 40 0 0 62.47027731312
0

0101000
+6 0 -8 0 *
Ed
 1e-07 1 1 0
1  121 0 0 1
2  160 40 0 0 1
0

0101000
+13 0 -6 0 *
Wi

0101100
+12 0 +7 0 -5 0 -4 0 *
Fa
0  1e-07 40 0

0101000
+3 0 *
Sh

1101000
+275 0 +268 0 +261 0 +254 0 +247 0 +240 0 +233 0 +226 0 +219 0 +212 0 
+205 0 +198 0 +191 0 +184 0 +177 0 +170 0 +163 0 +156 0 +149 0 +142 0 
+135 0 +128 0 +121 0 +114 0 +107 0 +100 0 +93 0 +86 0 +79 0 +72 0 
+65 0 +58 0 +51 0 +44 0 +37 0 +30 0 +23 0 +16 0 +9 0 +2 0 
*

+1 0 