DBRep_DrawableShape

CASCADE Topology V3, (c) Open Cascade
Locations 0
Curve2ds 160
1 0 0 1 0 
1 62.470277313120008 0 0 1 
1 0 1 1 0 
1 0 0 1 0 
1 0 0 0 1 
1 62.470277313120008 0 0 1 
1 0 1 1 0 
1 0 0 1 0 
1 0 0 0 1 
1 62.470277313120008 0 0 1 
1 0 1 1 0 
1 0 0 1 0 
1 0 0 0 1 
1 62.470277313120008 0 0 1 
1 0 1 1 0 
1 0 0 1 0 
1 0 0 0 1 
1 62.470277313120008 0 0 1 
1 0 1 1 0 
1 0 0 1 0 
1 0 0 0 1 
1 62.470277313120008 0 0 1 
1 0 1 1 0 
1 0 0 1 0 
1 0 0 0 1 
1 62.470277313120008 0 0 1 
1 0 1 1 0 
1 0 0 1 0 
1 0 0 0 1 
1 62.470277313120008 0 0 1 
1 0 1 1 0 
1 0 0 1 0 
1 0 0 0 1 
1 62.470277313120008 0 0 1 
1 0 1 1 0 
1 0 0 1 0 
1 0 0 0 1 
1 62.470277313120008 0 0 1 
1 0 1 1 0 
1 0 0 1 0 
1 0 0 0 1 
1 62.470277313120008 0 0 1 
1 0 1 1 0 
1 0 0 1 0 
1 0 0 0 1 
1 62.470277313120008 0 0 1 
1 0 1 1 0 
1 0 0 1 0 
1 0 0 0 1 
1 62.470277313120008 0 0 1 
1 0 1 1 0 
1 0 0 1 0 
1 0 0 0 1 
1 62.470277313120008 0 0 1 
1 0 1 1 0 
1 0 0 1 0 
1 0 0 0 1 
1 62.470277313120008 0 0 1 
1 0 1 1 0 
1 0 0 1 0 
1 0 0 0 1 
1 62.470277313120008 0 0 1 
1 0 1 1 0 
1 0 0 1 0 
1 0 0 0 1 
1 62.470277313120008 0 0 1 
1 0 1 1 0 
1 0 0 1 0 
1 0 0 0 1 
1 62.470277313120008 0 0 1 
1 0 1 1 0 
1 0 0 1 0 
1 0 0 0 1 
1 62.470277313120008 0 0 1 
1 0 1 1 0 
1 0 0 1 0 
1 0 0 0 1 
1 62.470277313120008 0 0 1 
1 0 1 1 0 
1 0 0 1 0 
1 0 0 0 1 
1 62.470277313120008 0 0 1 
1 0 1 1 0 
1 0 0 1 0 
1 0 0 0 1 
1 62.470277313120008 0 0 1 
1 0 1 1 0 
1 0 0 1 0 
1 0 0 0 1 
1 62.470277313120008 0 0 1 
1 0 1 1 0 
1 0 0 1 0 
1 0 0 0 1 
1 62.470277313120008 0 0 1 
1 0 1 1 0 
1 0 0 1 0 
1 0 0 0 1 
1 62.470277313120008 0 0 1 
1 0 1 1 0 
1 0 0 1 0 
1 0 0 0 1 
1 62.470277313120008 0 0 1 
1 0 1 1 0 
1 0 0 1 0 
1 0 0 0 1 
1 62.470277313120008 0 0 1 
1 0 1 1 0 
1 0 0 1 0 
1 0 0 0 1 
1 62.470277313120008 0 0 1 
1 0 1 1 0 
1 0 0 1 0 
1 0 0 0 1 
1 62.470277313120008 0 0 1 
1 0 1 1 0 
1 0 0 1 0 
1 0 0 0 1 
1 62.470277313120008 0 0 1 
1 0 1 1 0 
1 0 0 1 0 
1 0 0 0 1 
1 62.470277313120008 0 0 1 
1 0 1 1 0 
1 0 0 1 0 
1 0 0 0 1 
1 62.470277313120008 0 0 1 
1 0 1 1 0 
1 0 0 1 0 
1 0 0 0 1 
1 62.470277313120008 0 0 1 
1 0 1 1 0 
1 0 0 1 0 
1 0 0 0 1 
1 62.470277313120008 0 0 1 
1 0 1 1 0 
1 0 0 1 0 
1 0 0 0 1 
1 62.470277313120008 0 0 1 
1 0 1 1 0 
1 0 0 1 0 
1 0 0 0 1 
1 62.470277313120008 0 0 1 
1 0 1 1 0 
1 0 0 1 0 
1 0 0 0 1 
1 62.470277313120008 0 0 1 
1 0 1 1 0 
1 0 0 1 0 
1 0 0 0 1 
1 62.470277313120008 0 0 1 
1 0 1 1 0 
1 0 0 1 0 
1 0 0 0 1 
1 62.470277313120008 0 0 1 
1 0 1 1 0 
1 0 0 1 0 
1 0 0 0 1 
1 62.470277313120008 0 0 1 
1 0 1 1 0 
1 0 0 0 1 
Curves 121
1 21.287390663999947 -0.92376433317190887 29.934606916975568 1.7061139304664301e-15 0 -1 
7 0 0  1 2 2  21.287390664000053 -0.92376433317190887 -32.53567039614444  21.346401336 0.92376433317190887 -32.539796824308041 
 0 2 1 2
1 21.346401336 0.92376433317190887 29.930480488811966 0 0 -1 
7 0 0  1 2 2  21.287390663999947 -0.92376433317190887 29.934606916975568  21.346401336 0.92376433317190887 29.930480488811966 
 0 2 1 2
7 0 0  1 2 2  21.346401336 0.92376433317190887 -32.539796824308041  21.375989320000002 1.8475257503658218 -32.541865817701002 
 0 2 1 2
1 21.375989320000002 1.8475257503658218 29.928411495419009 0 0 -1 
7 0 0  1 2 2  21.346401336 0.92376433317190887 29.930480488811966  21.375989320000002 1.8475257503658218 29.928411495419009 
 0 2 1 2
7 0 0  1 2 2  21.375989320000002 1.8475257503658218 -32.541865817701002  21.407014115882106 2.7553753494038551 -32.515029090794997 
 0 2 1 2
1 21.407014115882106 2.7553753494038551 29.955248222325011 0 0 -1 
7 0 0  1 2 2  21.375989320000002 1.8475257503658218 29.928411495419009  21.407014115882106 2.7553753494038551 29.955248222325011 
 0 2 1 2
7 0 0  1 2 2  21.407014115882106 2.7553753494038551 -32.515029090794997  21.700431607306257 3.4620161290758675 -32.463077919676607 
 0 2 1 2
1 21.700431607306257 3.4620161290758675 30.007199393443404 0 0 -1 
7 0 0  1 2 2  21.407014115882106 2.7553753494038551 29.955248222325011  21.700431607306257 3.4620161290758675 30.007199393443404 
 0 2 1 2
7 0 0  1 2 2  21.700431607306257 3.4620161290758675 -32.463077919676607  21.993831657185115 4.16865690874788 -32.410479315078952 
 0 2 1 2
1 21.993831657185115 4.16865690874788 30.059797998041059 0 0 -1 
7 0 0  1 2 2  21.700431607306257 3.4620161290758675 30.007199393443404  21.993831657185115 4.16865690874788 30.059797998041059 
 0 2 1 2
7 0 0  1 2 2  21.993831657185115 4.16865690874788 -32.410479315078952  22.287351677906145 4.8752976884198933 -32.357105538085825 
 0 2 1 2
1 22.287351677906145 4.8752976884198933 30.113171775034182 0 0 -1 
7 0 0  1 2 2  21.993831657185115 4.16865690874788 30.059797998041059  22.287351677906145 4.8752976884198933 30.113171775034182 
 0 2 1 2
7 0 0  1 2 2  22.287351677906145 4.8752976884198933 -32.357105538085825  22.580997888273245 5.5819384680919057 -32.302778546514489 
 0 2 1 2
1 22.580997888273245 5.5819384680919057 30.167498766605519 0 0 -1 
7 0 0  1 2 2  22.287351677906145 4.8752976884198933 30.113171775034182  22.580997888273245 5.5819384680919057 30.167498766605519 
 0 2 1 2
7 0 0  1 2 2  22.580997888273245 5.5819384680919057 -32.302778546514489  22.874677687572561 6.2885792477639182 -32.247258119830143 
 0 2 1 2
1 22.874677687572561 6.2885792477639182 30.223019193289865 0 0 -1 
7 0 0  1 2 2  22.580997888273245 5.5819384680919057 30.167498766605519  22.874677687572561 6.2885792477639182 30.223019193289865 
 0 2 1 2
7 0 0  1 2 2  22.874677687572561 6.2885792477639182 -32.247258119830143  23.168516775936094 6.9952172659985514 -32.190230965307926 
 0 2 1 2
1 23.168516775936094 6.9952172659985514 30.280046347812085 0 0 -1 
7 0 0  1 2 2  22.874677687572561 6.2885792477639182 30.223019193289865  23.168516775936094 6.9952172659985514 30.280046347812085 
 0 2 1 2
7 0 0  1 2 2  23.168516775936094 6.9952172659985514 -32.190230965307926  23.462418916316878 7.701858045670563 -32.131249702808347 
 0 2 1 2
1 23.462418916316878 7.701858045670563 30.339027610311661 0 0 -1 
7 0 0  1 2 2  23.168516775936094 6.9952172659985514 30.280046347812085  23.462418916316878 7.701858045670563 30.339027610311661 
 0 2 1 2
7 0 0  1 2 2  23.462418916316878 7.701858045670563 -32.131249702808347  23.74688939374029 8.3842561157642042 -32.063560592487526 
 0 2 1 2
1 23.74688939374029 8.3842561157642042 30.406716720632481 0 0 -1 
7 0 0  1 2 2  23.462418916316878 7.701858045670563 30.339027610311661  23.74688939374029 8.3842561157642042 30.406716720632481 
 0 2 1 2
7 0 0  1 2 2  23.74688939374029 8.3842561157642042 -32.063560592487526  23.870800191278821 8.6808873236343285 -32.027467275277402 
 0 2 1 2
1 23.870800191278821 8.6808873236343285 30.442810037842605 0 0 -1 
7 0 0  1 2 2  23.74688939374029 8.3842561157642042 30.406716720632481  23.870800191278821 8.6808873236343285 30.442810037842605 
 0 2 1 2
7 0 0  1 2 2  23.870800191278821 8.6808873236343285 -32.027467275277402  23.885356671512245 8.7156754625255477 -32.023236751663561 
 0 2 1 2
1 23.885356671512245 8.7156754625255477 30.447040561456451 0 0 -1 
7 0 0  1 2 2  23.870800191278821 8.6808873236343285 30.442810037842605  23.885356671512245 8.7156754625255477 30.447040561456451 
 0 2 1 2
7 0 0  1 2 2  23.885356671512245 8.7156754625255477 -32.023236751663561  24.066635376499761 9.0441716899440898 -31.983946801003448 
 0 2 1 2
1 24.066635376499761 9.0441716899440898 30.48633051211656 0 0 -1 
7 0 0  1 2 2  23.885356671512245 8.7156754625255477 30.447040561456451  24.066635376499761 9.0441716899440898 30.48633051211656 
 0 2 1 2
7 0 0  1 2 2  24.066635376499761 9.0441716899440898 -31.983946801003448  24.284353130593846 9.4387902856290093 -31.936748178505173 
 0 2 1 2
1 24.284353130593846 9.4387902856290093 30.533529134614835 0 0 -1 
7 0 0  1 2 2  24.066635376499761 9.0441716899440898 30.48633051211656  24.284353130593846 9.4387902856290093 30.533529134614835 
 0 2 1 2
7 0 0  1 2 2  24.284353130593846 9.4387902856290093 -31.936748178505173  24.657969172793571 10.115852143320542 -31.855770464663163 
 0 2 1 2
1 24.657969172793571 10.115852143320542 30.614506848456845 0 0 -1 
7 0 0  1 2 2  24.284353130593846 9.4387902856290093 30.533529134614835  24.657969172793571 10.115852143320542 30.614506848456845 
 0 2 1 2
7 0 0  1 2 2  24.657969172793571 10.115852143320542 -31.855770464663163  25.031565439505769 10.792911485418838 -31.774795158837073 
 0 2 1 2
1 25.031565439505769 10.792911485418838 30.695482154282935 0 0 -1 
7 0 0  1 2 2  24.657969172793571 10.115852143320542 30.614506848456845  25.031565439505769 10.792911485418838 30.695482154282935 
 0 2 1 2
7 0 0  1 2 2  25.031565439505769 10.792911485418838 -31.774795158837073  25.405147533093668 11.469965796330655 -31.693822904138369 
 0 2 1 2
1 25.405147533093668 11.469965796330655 30.776454408981639 0 0 -1 
7 0 0  1 2 2  25.031565439505769 10.792911485418838 30.695482154282935  25.405147533093668 11.469965796330655 30.776454408981639 
 0 2 1 2
7 0 0  1 2 2  25.405147533093668 11.469965796330655 -31.693822904138369  25.778719662426091 12.147010044869521 -31.612854644437082 
 0 2 1 2
1 25.778719662426091 12.147010044869521 30.857422668682926 0 0 -1 
7 0 0  1 2 2  25.405147533093668 11.469965796330655 30.776454408981639  25.778719662426091 12.147010044869521 30.857422668682926 
 0 2 1 2
7 0 0  1 2 2  25.778719662426091 12.147010044869521 -31.612854644437082  26.152332959706296 12.824056809001625 -31.53188953380447 
 0 2 1 2
1 26.152332959706296 12.824056809001625 30.938387779315537 0 0 -1 
7 0 0  1 2 2  25.778719662426091 12.147010044869521 30.857422668682926  26.152332959706296 12.824056809001625 30.938387779315537 
 0 2 1 2
7 0 0  1 2 2  26.152332959706296 12.824056809001625 -31.53188953380447  26.525913335128788 13.501096026354016 -31.4509284291569 
 0 2 1 2
1 26.525913335128788 13.501096026354016 31.019348883963108 0 0 -1 
7 0 0  1 2 2  26.152332959706296 12.824056809001625 30.938387779315537  26.525913335128788 13.501096026354016 31.019348883963108 
 0 2 1 2
7 0 0  1 2 2  26.525913335128788 13.501096026354016 -31.4509284291569  26.89946988678934 14.178125181333451 -31.369972144674808 
 0 2 1 2
1 26.89946988678934 14.178125181333451 31.1003051684452 0 0 -1 
7 0 0  1 2 2  26.525913335128788 13.501096026354016 31.019348883963108  26.89946988678934 14.178125181333451 31.1003051684452 
 0 2 1 2
7 0 0  1 2 2  26.89946988678934 14.178125181333451 -31.369972144674808  27.273049568327021 14.855149305126412 -31.289020736799056 
 0 2 1 2
1 27.273049568327021 14.855149305126412 31.181256576320951 0 0 -1 
7 0 0  1 2 2  26.89946988678934 14.178125181333451 31.1003051684452  27.273049568327021 14.855149305126412 31.181256576320951 
 0 2 1 2
7 0 0  1 2 2  27.273049568327021 14.855149305126412 -31.289020736799056  27.646625469958593 15.532165882139658 -31.20807476101395 
 0 2 1 2
1 27.646625469958593 15.532165882139658 31.262202552106057 0 0 -1 
7 0 0  1 2 2  27.273049568327021 14.855149305126412 31.181256576320951  27.646625469958593 15.532165882139658 31.262202552106057 
 0 2 1 2
7 0 0  1 2 2  27.646625469958593 15.532165882139658 -31.20807476101395  28.020176738221643 16.209174912373189 -31.12713470022771 
 0 2 1 2
1 28.020176738221643 16.209174912373189 31.343142612892297 0 0 -1 
7 0 0  1 2 2  27.646625469958593 15.532165882139658 31.262202552106057  28.020176738221643 16.209174912373189 31.343142612892297 
 0 2 1 2
7 0 0  1 2 2  28.020176738221643 16.209174912373189 -31.12713470022771  28.393744751205162 16.886171364640532 -31.04620181383849 
 0 2 1 2
1 28.393744751205162 16.886171364640532 31.424075499281518 0 0 -1 
7 0 0  1 2 2  28.020176738221643 16.209174912373189 31.343142612892297  28.393744751205162 16.886171364640532 31.424075499281518 
 0 2 1 2
7 0 0  1 2 2  28.393744751205162 16.886171364640532 -31.04620181383849  28.767284761257745 17.563160270128154 -30.965276180957527 
 0 2 1 2
1 28.767284761257745 17.563160270128154 31.50500113216248 0 0 -1 
7 0 0  1 2 2  28.393744751205162 16.886171364640532 31.424075499281518  28.767284761257745 17.563160270128154 31.50500113216248 
 0 2 1 2
7 0 0  1 2 2  28.767284761257745 17.563160270128154 -30.965276180957527  29.14083791585292 18.24013408205635 -30.884359418648781 
 0 2 1 2
1 29.14083791585292 18.24013408205635 31.585917894471226 0 0 -1 
7 0 0  1 2 2  28.767284761257745 17.563160270128154 31.50500113216248  29.14083791585292 18.24013408205635 31.585917894471226 
 0 2 1 2
7 0 0  1 2 2  29.14083791585292 18.24013408205635 -30.884359418648781  29.514366232065999 18.917095316018351 -30.803452306016975 
 0 2 1 2
1 29.514366232065999 18.917095316018351 31.666825007103032 0 0 -1 
7 0 0  1 2 2  29.14083791585292 18.24013408205635 31.585917894471226  29.514366232065999 18.917095316018351 31.666825007103032 
 0 2 1 2
7 0 0  1 2 2  29.514366232065999 18.917095316018351 -30.803452306016975  29.887900455890072 19.594061581166834 -30.72255376500463 
 0 2 1 2
1 29.887900455890072 19.594061581166834 31.747723548115378 0 0 -1 
7 0 0  1 2 2  29.514366232065999 18.917095316018351 31.666825007103032  29.887900455890072 19.594061581166834 31.747723548115378 
 0 2 1 2
7 0 0  1 2 2  29.887900455890072 19.594061581166834 -30.72255376500463  30.229816386855774 20.213729381522928 -30.648658262910789 
 0 2 1 2
1 30.229816386855774 20.213729381522928 31.821619050209218 0 0 -1 
7 0 0  1 2 2  29.887900455890072 19.594061581166834 31.747723548115378  30.229816386855774 20.213729381522928 31.821619050209218 
 0 2 1 2
7 0 0  1 2 2  30.229816386855774 20.213729381522928 -30.648658262910789  30.261479401247172 20.271110013409487 -30.641845966221428 
 0 2 1 2
1 30.261479401247172 20.271110013409487 31.828431346898579 0 0 -1 
7 0 0  1 2 2  30.229816386855774 20.213729381522928 31.821619050209218  30.261479401247172 20.271110013409487 31.828431346898579 
 0 2 1 2
7 0 0  1 2 2  30.261479401247172 20.271110013409487 -30.641845966221428  30.635063247740792 20.94825077957907 -30.561464169356665 
 0 2 1 2
1 30.635063247740792 20.94825077957907 31.908813143763343 0 0 -1 
7 0 0  1 2 2  30.261479401247172 20.271110013409487 31.828431346898579  30.635063247740792 20.94825077957907 31.908813143763343 
 0 2 1 2
7 0 0  1 2 2  30.635063247740792 20.94825077957907 -30.561464169356665  31.008644861259022 21.625366387632244 -30.481102124069228 
 0 2 1 2
1 31.008644861259022 21.625366387632244 31.98917518905078 0 0 -1 
7 0 0  1 2 2  30.635063247740792 20.94825077957907 31.908813143763343  31.008644861259022 21.625366387632244 31.98917518905078 
 0 2 1 2
7 0 0  1 2 2  31.008644861259022 21.625366387632244 -30.481102124069228  31.382211214116417 22.302451805945744 -30.400763379305655 
 0 2 1 2
1 31.382211214116417 22.302451805945744 32.069513933814349 0 0 -1 
7 0 0  1 2 2  31.008644861259022 21.625366387632244 31.98917518905078  31.382211214116417 22.302451805945744 32.069513933814349 
 0 2 1 2
7 0 0  1 2 2  31.382211214116417 22.302451805945744 -30.400763379305655  31.755737516227313 22.979499487084638 -30.32045294218258 
 0 2 1 2
1 31.755737516227313 22.979499487084638 32.149824370937424 0 0 -1 
7 0 0  1 2 2  31.382211214116417 22.302451805945744 32.069513933814349  31.755737516227313 22.979499487084638 32.149824370937424 
 0 2 1 2
7 0 0  1 2 2  31.755737516227313 22.979499487084638 -30.32045294218258  32.129252792898143 23.656506915237294 -30.240174728932399 
 0 2 1 2
1 32.129252792898143 23.656506915237294 32.230102584187605 0 0 -1 
7 0 0  1 2 2  31.755737516227313 22.979499487084638 32.149824370937424  32.129252792898143 23.656506915237294 32.230102584187605 
 0 2 1 2
7 0 0  1 2 2  32.129252792898143 23.656506915237294 -30.240174728932399  32.502751819702361 24.333464027157145 -30.159935308681735 
 0 2 1 2
1 32.502751819702361 24.333464027157145 32.310342004438269 0 0 -1 
7 0 0  1 2 2  32.129252792898143 23.656506915237294 32.230102584187605  32.502751819702361 24.333464027157145 32.310342004438269 
 0 2 1 2
7 0 0  1 2 2  32.502751819702361 24.333464027157145 -30.159935308681735  32.876209565379149 25.010358243785998 -30.079744008070026 
 0 2 1 2
1 32.876209565379149 25.010358243785998 32.390533305049978 0 0 -1 
7 0 0  1 2 2  32.502751819702361 24.333464027157145 32.310342004438269  32.876209565379149 25.010358243785998 32.390533305049978 
 0 2 1 2
7 0 0  1 2 2  32.876209565379149 25.010358243785998 -30.079744008070026  33.352857069400855 25.874305571665193 -29.977467317774124 
 0 2 1 2
1 33.352857069400855 25.874305571665193 32.49280999534588 0 0 -1 
7 0 0  1 2 2  32.876209565379149 25.010358243785998 32.390533305049978  33.352857069400855 25.874305571665193 32.49280999534588 
 0 2 1 2
Polygon3D 0
PolygonOnTriangulations 0
Surfaces 40
9 0 0 0 0 1 1 2 2 2 2 21.287390663999947 -0.92376433317190887 29.934606916975568  21.346401336 0.92376433317190887 29.930480488811966  
21.287390664000053 -0.92376433317190887 -32.53567039614444  21.346401336 0.92376433317190887 -32.539796824308041  

0 2
62.470277313120008 2

0 2
1 2

9 0 0 0 0 1 1 2 2 2 2 21.346401336 0.92376433317190887 29.930480488811966  21.375989320000002 1.8475257503658218 29.928411495419009  
21.346401336 0.92376433317190887 -32.539796824308041  21.375989320000002 1.8475257503658218 -32.541865817701002  

0 2
62.470277313120008 2

0 2
1 2

9 0 0 0 0 1 1 2 2 2 2 21.375989320000002 1.8475257503658218 29.928411495419009  21.407014115882106 2.7553753494038551 29.955248222325011  
21.375989320000002 1.8475257503658218 -32.541865817701002  21.407014115882106 2.7553753494038551 -32.515029090794997  

0 2
62.470277313120008 2

0 2
1 2

9 0 0 0 0 1 1 2 2 2 2 21.407014115882106 2.7553753494038551 29.955248222325011  21.700431607306257 3.4620161290758675 30.007199393443404  
21.407014115882106 2.7553753494038551 -32.515029090794997  21.700431607306257 3.4620161290758675 -32.463077919676607  

0 2
62.470277313120008 2

0 2
1 2

9 0 0 0 0 1 1 2 2 2 2 21.700431607306257 3.4620161290758675 30.007199393443404  21.993831657185115 4.16865690874788 30.059797998041059  
21.700431607306257 3.4620161290758675 -32.463077919676607  21.993831657185115 4.16865690874788 -32.410479315078952  

0 2
62.470277313120008 2

0 2
1 2

9 0 0 0 0 1 1 2 2 2 2 21.993831657185115 4.16865690874788 30.059797998041059  22.287351677906145 4.8752976884198933 30.113171775034182  
21.993831657185115 4.16865690874788 -32.410479315078952  22.287351677906145 4.8752976884198933 -32.357105538085825  

0 2
62.470277313120008 2

0 2
1 2

9 0 0 0 0 1 1 2 2 2 2 22.287351677906145 4.8752976884198933 30.113171775034182  22.580997888273245 5.5819384680919057 30.167498766605519  
22.287351677906145 4.8752976884198933 -32.357105538085825  22.580997888273245 5.5819384680919057 -32.302778546514489  

0 2
62.470277313120008 2

0 2
1 2

9 0 0 0 0 1 1 2 2 2 2 22.580997888273245 5.5819384680919057 30.167498766605519  22.874677687572561 6.2885792477639182 30.223019193289865  
22.580997888273245 5.5819384680919057 -32.302778546514489  22.874677687572561 6.2885792477639182 -32.247258119830143  

0 2
62.470277313120008 2

0 2
1 2

9 0 0 0 0 1 1 2 2 2 2 22.874677687572561 6.2885792477639182 30.223019193289865  23.168516775936094 6.9952172659985514 30.280046347812085  
22.874677687572561 6.2885792477639182 -32.247258119830143  23.168516775936094 6.9952172659985514 -32.190230965307926  

0 2
62.470277313120008 2

0 2
1 2

9 0 0 0 0 1 1 2 2 2 2 23.168516775936094 6.9952172659985514 30.280046347812085  23.462418916316878 7.701858045670563 30.339027610311661  
23.168516775936094 6.9952172659985514 -32.190230965307926  23.462418916316878 7.701858045670563 -32.131249702808347  

0 2
62.470277313120008 2

0 2
1 2

9 0 0 0 0 1 1 2 2 2 2 23.462418916316878 7.701858045670563 30.339027610311661  23.74688939374029 8.3842561157642042 30.406716720632481  
23.462418916316878 7.701858045670563 -32.131249702808347  23.74688939374029 8.3842561157642042 -32.063560592487526  

0 2
62.470277313120008 2

0 2
1 2

9 0 0 0 0 1 1 2 2 2 2 23.74688939374029 8.3842561157642042 30.406716720632481  23.870800191278821 8.6808873236343285 30.442810037842605  
23.74688939374029 8.3842561157642042 -32.063560592487526  23.870800191278821 8.6808873236343285 -32.027467275277402  

0 2
62.470277313120008 2

0 2
1 2

9 0 0 0 0 1 1 2 2 2 2 23.870800191278821 8.6808873236343285 30.442810037842605  23.885356671512245 8.7156754625255477 30.447040561456451  
23.870800191278821 8.6808873236343285 -32.027467275277402  23.885356671512245 8.7156754625255477 -32.023236751663561  

0 2
62.470277313120008 2

0 2
1 2

9 0 0 0 0 1 1 2 2 2 2 23.885356671512245 8.7156754625255477 30.447040561456451  24.066635376499761 9.0441716899440898 30.48633051211656  
23.885356671512245 8.7156754625255477 -32.023236751663561  24.066635376499761 9.0441716899440898 -31.983946801003448  

0 2
62.470277313120008 2

0 2
1 2

9 0 0 0 0 1 1 2 2 2 2 24.066635376499761 9.0441716899440898 30.48633051211656  24.284353130593846 9.4387902856290093 30.533529134614835  
24.066635376499761 9.0441716899440898 -31.983946801003448  24.284353130593846 9.4387902856290093 -31.936748178505173  

0 2
62.470277313120008 2

0 2
1 2

9 0 0 0 0 1 1 2 2 2 2 24.284353130593846 9.4387902856290093 30.533529134614835  24.657969172793571 10.115852143320542 30.614506848456845  
24.284353130593846 9.4387902856290093 -31.936748178505173  24.657969172793571 10.115852143320542 -31.855770464663163  

0 2
62.470277313120008 2

0 2
1 2

9 0 0 0 0 1 1 2 2 2 2 24.657969172793571 10.115852143320542 30.614506848456845  25.031565439505769 10.792911485418838 30.695482154282935  
24.657969172793571 10.115852143320542 -31.855770464663163  25.031565439505769 10.792911485418838 -31.774795158837073  

0 2
62.470277313120008 2

0 2
1 2

9 0 0 0 0 1 1 2 2 2 2 25.031565439505769 10.792911485418838 30.695482154282935  25.405147533093668 11.469965796330655 30.776454408981639  
25.031565439505769 10.792911485418838 -31.774795158837073  25.405147533093668 11.469965796330655 -31.693822904138369  

0 2
62.470277313120008 2

0 2
1 2

9 0 0 0 0 1 1 2 2 2 2 25.405147533093668 11.469965796330655 30.776454408981639  25.778719662426091 12.147010044869521 30.857422668682926  
25.405147533093668 11.469965796330655 -31.693822904138369  25.778719662426091 12.147010044869521 -31.612854644437082  

0 2
62.470277313120008 2

0 2
1 2

9 0 0 0 0 1 1 2 2 2 2 25.778719662426091 12.147010044869521 30.857422668682926  26.152332959706296 12.824056809001625 30.938387779315537  
25.778719662426091 12.147010044869521 -31.612854644437082  26.152332959706296 12.824056809001625 -31.53188953380447  

0 2
62.470277313120008 2

0 2
1 2

9 0 0 0 0 1 1 2 2 2 2 26.152332959706296 12.824056809001625 30.938387779315537  26.525913335128788 13.501096026354016 31.019348883963108  
26.152332959706296 12.824056809001625 -31.53188953380447  26.525913335128788 13.501096026354016 -31.4509284291569  

0 2
62.470277313120008 2

0 2
1 2

9 0 0 0 0 1 1 2 2 2 2 26.525913335128788 13.501096026354016 31.019348883963108  26.89946988678934 14.178125181333451 31.1003051684452  
26.525913335128788 13.501096026354016 -31.4509284291569  26.89946988678934 14.178125181333451 -31.369972144674808  

0 2
62.470277313120008 2

0 2
1 2

9 0 0 0 0 1 1 2 2 2 2 26.89946988678934 14.178125181333451 31.1003051684452  27.273049568327021 14.855149305126412 31.181256576320951  
26.89946988678934 14.178125181333451 -31.369972144674808  27.273049568327021 14.855149305126412 -31.289020736799056  

0 2
62.470277313120008 2

0 2
1 2

9 0 0 0 0 1 1 2 2 2 2 27.273049568327021 14.855149305126412 31.181256576320951  27.646625469958593 15.532165882139658 31.262202552106057  
27.273049568327021 14.855149305126412 -31.289020736799056  27.646625469958593 15.532165882139658 -31.20807476101395  

0 2
62.470277313120008 2

0 2
1 2

9 0 0 0 0 1 1 2 2 2 2 27.646625469958593 15.532165882139658 31.262202552106057  28.020176738221643 16.209174912373189 31.343142612892297  
27.646625469958593 15.532165882139658 -31.20807476101395  28.020176738221643 16.209174912373189 -31.12713470022771  

0 2
62.470277313120008 2

0 2
1 2

9 0 0 0 0 1 1 2 2 2 2 28.020176738221643 16.209174912373189 31.343142612892297  28.393744751205162 16.886171364640532 31.424075499281518  
28.020176738221643 16.209174912373189 -31.12713470022771  28.393744751205162 16.886171364640532 -31.04620181383849  

0 2
62.470277313120008 2

0 2
1 2

9 0 0 0 0 1 1 2 2 2 2 28.393744751205162 16.886171364640532 31.424075499281518  28.767284761257745 17.563160270128154 31.50500113216248  
28.393744751205162 16.886171364640532 -31.04620181383849  28.767284761257745 17.563160270128154 -30.965276180957527  

0 2
62.470277313120008 2

0 2
1 2

9 0 0 0 0 1 1 2 2 2 2 28.767284761257745 17.563160270128154 31.50500113216248  29.14083791585292 18.24013408205635 31.585917894471226  
28.767284761257745 17.563160270128154 -30.965276180957527  29.14083791585292 18.24013408205635 -30.884359418648781  

0 2
62.470277313120008 2

0 2
1 2

9 0 0 0 0 1 1 2 2 2 2 29.14083791585292 18.24013408205635 31.585917894471226  29.514366232065999 18.917095316018351 31.666825007103032  
29.14083791585292 18.24013408205635 -30.884359418648781  29.514366232065999 18.917095316018351 -30.803452306016975  

0 2
62.470277313120008 2

0 2
1 2

9 0 0 0 0 1 1 2 2 2 2 29.514366232065999 18.917095316018351 31.666825007103032  29.887900455890072 19.594061581166834 31.747723548115378  
29.514366232065999 18.917095316018351 -30.803452306016975  29.887900455890072 19.594061581166834 -30.72255376500463  

0 2
62.470277313120008 2

0 2
1 2

9 0 0 0 0 1 1 2 2 2 2 29.887900455890072 19.594061581166834 31.747723548115378  30.229816386855774 20.213729381522928 31.821619050209218  
29.887900455890072 19.594061581166834 -30.72255376500463  30.229816386855774 20.213729381522928 -30.648658262910789  

0 2
62.470277313120008 2

0 2
1 2

9 0 0 0 0 1 1 2 2 2 2 30.229816386855774 20.213729381522928 31.821619050209218  30.261479401247172 20.271110013409487 31.828431346898579  
30.229816386855774 20.213729381522928 -30.648658262910789  30.261479401247172 20.271110013409487 -30.641845966221428  

0 2
62.470277313120008 2

0 2
1 2

9 0 0 0 0 1 1 2 2 2 2 30.261479401247172 20.271110013409487 31.828431346898579  30.635063247740792 20.94825077957907 31.908813143763343  
30.261479401247172 20.271110013409487 -30.641845966221428  30.635063247740792 20.94825077957907 -30.561464169356665  

0 2
62.470277313120008 2

0 2
1 2

9 0 0 0 0 1 1 2 2 2 2 30.635063247740792 20.94825077957907 31.908813143763343  31.008644861259022 21.625366387632244 31.98917518905078  
30.635063247740792 20.94825077957907 -30.561464169356665  31.008644861259022 21.625366387632244 -30.481102124069228  

0 2
62.470277313120008 2

0 2
1 2

9 0 0 0 0 1 1 2 2 2 2 31.008644861259022 21.625366387632244 31.98917518905078  31.382211214116417 22.302451805945744 32.069513933814349  
31.008644861259022 21.625366387632244 -30.481102124069228  31.382211214116417 22.302451805945744 -30.400763379305655  

0 2
62.470277313120008 2

0 2
1 2

9 0 0 0 0 1 1 2 2 2 2 31.382211214116417 22.302451805945744 32.069513933814349  31.755737516227313 22.979499487084638 32.149824370937424  
31.382211214116417 22.302451805945744 -30.400763379305655  31.755737516227313 22.979499487084638 -30.32045294218258  

0 2
62.470277313120008 2

0 2
1 2

9 0 0 0 0 1 1 2 2 2 2 31.755737516227313 22.979499487084638 32.149824370937424  32.129252792898143 23.656506915237294 32.230102584187605  
31.755737516227313 22.979499487084638 -30.32045294218258  32.129252792898143 23.656506915237294 -30.240174728932399  

0 2
62.470277313120008 2

0 2
1 2

9 0 0 0 0 1 1 2 2 2 2 32.129252792898143 23.656506915237294 32.230102584187605  32.502751819702361 24.333464027157145 32.310342004438269  
32.129252792898143 23.656506915237294 -30.240174728932399  32.502751819702361 24.333464027157145 -30.159935308681735  

0 2
62.470277313120008 2

0 2
1 2

9 0 0 0 0 1 1 2 2 2 2 32.502751819702361 24.333464027157145 32.310342004438269  32.876209565379149 25.010358243785998 32.390533305049978  
32.502751819702361 24.333464027157145 -30.159935308681735  32.876209565379149 25.010358243785998 -30.079744008070026  

0 2
62.470277313120008 2

0 2
1 2

9 0 0 0 0 1 1 2 2 2 2 32.876209565379149 25.010358243785998 32.390533305049978  33.352857069400855 25.874305571665193 32.49280999534588  
32.876209565379149 25.010358243785998 -30.079744008070026  33.352857069400855 25.874305571665193 -29.977467317774124  

0 2
62.470277313120008 2

0 2
1 2

Triangulations 0

TShapes 284
Ve
1e-07
21.2873906639999 -0.923764333171909 29.9346069169756
0 0

0101101
*
Ve
1e-07
21.2873906640001 -0.923764333171909 -32.5356703961444
0 0

0101101
*
Ed
 1e-07 1 1 0
1  1 0 0 62.47027731312
2  1 1 0 0 62.47027731312
0

0101000
+284 0 -283 0 *
Ve
1e-07
21.346401336 0.923764333171909 -32.539796824308
0 0

0101101
*
Ed
 1e-07 1 1 0
1  2 0 0 1
2  2 1 0 0 1
0

0101000
+283 0 -281 0 *
Ve
1e-07
21.346401336 0.923764333171909 29.930480488812
0 0

0101101
*
Ed
 1e-07 1 1 0
1  3 0 0 62.47027731312
2  3 1 0 0 62.47027731312
2  4 2 0 0 62.47027731312
0

0101000
+279 0 -281 0 *
Ed
 1e-07 1 1 0
1  4 0 0 1
2  5 1 0 0 1
0

0101000
+284 0 -279 0 *
Wi

0101100
+282 0 +280 0 -278 0 -277 0 *
Fa
0  1e-07 1 0

0101000
+276 0 *
Ve
1e-07
21.37598932 1.84752575036582 -32.541865817701
0 0

0101101
*
Ed
 1e-07 1 1 0
1  5 0 0 1
2  6 2 0 0 1
0

0101000
+281 0 -274 0 *
Ve
1e-07
21.37598932 1.84752575036582 29.928411495419
0 0

0101101
*
Ed
 1e-07 1 1 0
1  6 0 0 62.47027731312
2  7 2 0 0 62.47027731312
2  8 3 0 0 62.47027731312
0

0101000
+272 0 -274 0 *
Ed
 1e-07 1 1 0
1  7 0 0 1
2  9 2 0 0 1
0

0101000
+279 0 -272 0 *
Wi

0101100
+278 0 +273 0 -271 0 -270 0 *
Fa
0  1e-07 2 0

0101000
+269 0 *
Ve
1e-07
21.4070141158821 2.75537534940386 -32.515029090795
0 0

0101101
*
Ed
 1e-07 1 1 0
1  8 0 0 1
2  10 3 0 0 1
0

0101000
+274 0 -267 0 *
Ve
1e-07
21.4070141158821 2.75537534940386 29.955248222325
0 0

0101101
*
Ed
 1e-07 1 1 0
1  9 0 0 62.47027731312
2  11 3 0 0 62.47027731312
2  12 4 0 0 62.47027731312
0

0101000
+265 0 -267 0 *
Ed
 1e-07 1 1 0
1  10 0 0 1
2  13 3 0 0 1
0

0101000
+272 0 -265 0 *
Wi

0101100
+271 0 +266 0 -264 0 -263 0 *
Fa
0  1e-07 3 0

0101000
+262 0 *
Ve
1e-07
21.7004316073063 3.46201612907587 -32.4630779196766
0 0

0101101
*
Ed
 1e-07 1 1 0
1  11 0 0 1
2  14 4 0 0 1
0

0101000
+267 0 -260 0 *
Ve
1e-07
21.7004316073063 3.46201612907587 30.0071993934434
0 0

0101101
*
Ed
 1e-07 1 1 0
1  12 0 0 62.47027731312
2  15 4 0 0 62.47027731312
2  16 5 0 0 62.47027731312
0

0101000
+258 0 -260 0 *
Ed
 1e-07 1 1 0
1  13 0 0 1
2  17 4 0 0 1
0

0101000
+265 0 -258 0 *
Wi

0101100
+264 0 +259 0 -257 0 -256 0 *
Fa
0  1e-07 4 0

0101000
+255 0 *
Ve
1e-07
21.9938316571851 4.16865690874788 -32.410479315079
0 0

0101101
*
Ed
 1e-07 1 1 0
1  14 0 0 1
2  18 5 0 0 1
0

0101000
+260 0 -253 0 *
Ve
1e-07
21.9938316571851 4.16865690874788 30.0597979980411
0 0

0101101
*
Ed
 1e-07 1 1 0
1  15 0 0 62.47027731312
2  19 5 0 0 62.47027731312
2  20 6 0 0 62.47027731312
0

0101000
+251 0 -253 0 *
Ed
 1e-07 1 1 0
1  16 0 0 1
2  21 5 0 0 1
0

0101000
+258 0 -251 0 *
Wi

0101100
+257 0 +252 0 -250 0 -249 0 *
Fa
0  1e-07 5 0

0101000
+248 0 *
Ve
1e-07
22.2873516779061 4.87529768841989 -32.3571055380858
0 0

0101101
*
Ed
 1e-07 1 1 0
1  17 0 0 1
2  22 6 0 0 1
0

0101000
+253 0 -246 0 *
Ve
1e-07
22.2873516779061 4.87529768841989 30.1131717750342
0 0

0101101
*
Ed
 1e-07 1 1 0
1  18 0 0 62.47027731312
2  23 6 0 0 62.47027731312
2  24 7 0 0 62.47027731312
0

0101000
+244 0 -246 0 *
Ed
 1e-07 1 1 0
1  19 0 0 1
2  25 6 0 0 1
0

0101000
+251 0 -244 0 *
Wi

0101100
+250 0 +245 0 -243 0 -242 0 *
Fa
0  1e-07 6 0

0101000
+241 0 *
Ve
1e-07
22.5809978882732 5.58193846809191 -32.3027785465145
0 0

0101101
*
Ed
 1e-07 1 1 0
1  20 0 0 1
2  26 7 0 0 1
0

0101000
+246 0 -239 0 *
Ve
1e-07
22.5809978882732 5.58193846809191 30.1674987666055
0 0

0101101
*
Ed
 1e-07 1 1 0
1  21 0 0 62.47027731312
2  27 7 0 0 62.47027731312
2  28 8 0 0 62.47027731312
0

0101000
+237 0 -239 0 *
Ed
 1e-07 1 1 0
1  22 0 0 1
2  29 7 0 0 1
0

0101000
+244 0 -237 0 *
Wi

0101100
+243 0 +238 0 -236 0 -235 0 *
Fa
0  1e-07 7 0

0101000
+234 0 *
Ve
1e-07
22.8746776875726 6.28857924776392 -32.2472581198301
0 0

0101101
*
Ed
 1e-07 1 1 0
1  23 0 0 1
2  30 8 0 0 1
0

0101000
+239 0 -232 0 *
Ve
1e-07
22.8746776875726 6.28857924776392 30.2230191932899
0 0

0101101
*
Ed
 1e-07 1 1 0
1  24 0 0 62.47027731312
2  31 8 0 0 62.47027731312
2  32 9 0 0 62.47027731312
0

0101000
+230 0 -232 0 *
Ed
 1e-07 1 1 0
1  25 0 0 1
2  33 8 0 0 1
0

0101000
+237 0 -230 0 *
Wi

0101100
+236 0 +231 0 -229 0 -228 0 *
Fa
0  1e-07 8 0

0101000
+227 0 *
Ve
1e-07
23.1685167759361 6.99521726599855 -32.1902309653079
0 0

0101101
*
Ed
 1e-07 1 1 0
1  26 0 0 1
2  34 9 0 0 1
0

0101000
+232 0 -225 0 *
Ve
1e-07
23.1685167759361 6.99521726599855 30.2800463478121
0 0

0101101
*
Ed
 1e-07 1 1 0
1  27 0 0 62.47027731312
2  35 9 0 0 62.47027731312
2  36 10 0 0 62.47027731312
0

0101000
+223 0 -225 0 *
Ed
 1e-07 1 1 0
1  28 0 0 1
2  37 9 0 0 1
0

0101000
+230 0 -223 0 *
Wi

0101100
+229 0 +224 0 -222 0 -221 0 *
Fa
0  1e-07 9 0

0101000
+220 0 *
Ve
1e-07
23.4624189163169 7.70185804567056 -32.1312497028083
0 0

0101101
*
Ed
 1e-07 1 1 0
1  29 0 0 1
2  38 10 0 0 1
0

0101000
+225 0 -218 0 *
Ve
1e-07
23.4624189163169 7.70185804567056 30.3390276103117
0 0

0101101
*
Ed
 1e-07 1 1 0
1  30 0 0 62.47027731312
2  39 10 0 0 62.47027731312
2  40 11 0 0 62.47027731312
0

0101000
+216 0 -218 0 *
Ed
 1e-07 1 1 0
1  31 0 0 1
2  41 10 0 0 1
0

0101000
+223 0 -216 0 *
Wi

0101100
+222 0 +217 0 -215 0 -214 0 *
Fa
0  1e-07 10 0

0101000
+213 0 *
Ve
1e-07
23.7468893937403 8.3842561157642 -32.0635605924875
0 0

0101101
*
Ed
 1e-07 1 1 0
1  32 0 0 1
2  42 11 0 0 1
0

0101000
+218 0 -211 0 *
Ve
1e-07
23.7468893937403 8.3842561157642 30.4067167206325
0 0

0101101
*
Ed
 1e-07 1 1 0
1  33 0 0 62.47027731312
2  43 11 0 0 62.47027731312
2  44 12 0 0 62.47027731312
0

0101000
+209 0 -211 0 *
Ed
 1e-07 1 1 0
1  34 0 0 1
2  45 11 0 0 1
0

0101000
+216 0 -209 0 *
Wi

0101100
+215 0 +210 0 -208 0 -207 0 *
Fa
0  1e-07 11 0

0101000
+206 0 *
Ve
1e-07
23.8708001912788 8.68088732363433 -32.0274672752774
0 0

0101101
*
Ed
 1e-07 1 1 0
1  35 0 0 1
2  46 12 0 0 1
0

0101000
+211 0 -204 0 *
Ve
1e-07
23.8708001912788 8.68088732363433 30.4428100378426
0 0

0101101
*
Ed
 1e-07 1 1 0
1  36 0 0 62.47027731312
2  47 12 0 0 62.47027731312
2  48 13 0 0 62.47027731312
0

0101000
+202 0 -204 0 *
Ed
 1e-07 1 1 0
1  37 0 0 1
2  49 12 0 0 1
0

0101000
+209 0 -202 0 *
Wi

0101100
+208 0 +203 0 -201 0 -200 0 *
Fa
0  1e-07 12 0

0101000
+199 0 *
Ve
1e-07
23.8853566715122 8.71567546252555 -32.0232367516636
0 0

0101101
*
Ed
 1e-07 1 1 0
1  38 0 0 1
2  50 13 0 0 1
0

0101000
+204 0 -197 0 *
Ve
1e-07
23.8853566715122 8.71567546252555 30.4470405614565
0 0

0101101
*
Ed
 1e-07 1 1 0
1  39 0 0 62.47027731312
2  51 13 0 0 62.47027731312
2  52 14 0 0 62.47027731312
0

0101000
+195 0 -197 0 *
Ed
 1e-07 1 1 0
1  40 0 0 1
2  53 13 0 0 1
0

0101000
+202 0 -195 0 *
Wi

0101100
+201 0 +196 0 -194 0 -193 0 *
Fa
0  1e-07 13 0

0101000
+192 0 *
Ve
1e-07
24.0666353764998 9.04417168994409 -31.9839468010034
0 0

0101101
*
Ed
 1e-07 1 1 0
1  41 0 0 1
2  54 14 0 0 1
0

0101000
+197 0 -190 0 *
Ve
1e-07
24.0666353764998 9.04417168994409 30.4863305121166
0 0

0101101
*
Ed
 1e-07 1 1 0
1  42 0 0 62.47027731312
2  55 14 0 0 62.47027731312
2  56 15 0 0 62.47027731312
0

0101000
+188 0 -190 0 *
Ed
 1e-07 1 1 0
1  43 0 0 1
2  57 14 0 0 1
0

0101000
+195 0 -188 0 *
Wi

0101100
+194 0 +189 0 -187 0 -186 0 *
Fa
0  1e-07 14 0

0101000
+185 0 *
Ve
1e-07
24.2843531305938 9.43879028562901 -31.9367481785052
0 0

0101101
*
Ed
 1e-07 1 1 0
1  44 0 0 1
2  58 15 0 0 1
0

0101000
+190 0 -183 0 *
Ve
1e-07
24.2843531305938 9.43879028562901 30.5335291346148
0 0

0101101
*
Ed
 1e-07 1 1 0
1  45 0 0 62.47027731312
2  59 15 0 0 62.47027731312
2  60 16 0 0 62.47027731312
0

0101000
+181 0 -183 0 *
Ed
 1e-07 1 1 0
1  46 0 0 1
2  61 15 0 0 1
0

0101000
+188 0 -181 0 *
Wi

0101100
+187 0 +182 0 -180 0 -179 0 *
Fa
0  1e-07 15 0

0101000
+178 0 *
Ve
1e-07
24.6579691727936 10.1158521433205 -31.8557704646632
0 0

0101101
*
Ed
 1e-07 1 1 0
1  47 0 0 1
2  62 16 0 0 1
0

0101000
+183 0 -176 0 *
Ve
1e-07
24.6579691727936 10.1158521433205 30.6145068484568
0 0

0101101
*
Ed
 1e-07 1 1 0
1  48 0 0 62.47027731312
2  63 16 0 0 62.47027731312
2  64 17 0 0 62.47027731312
0

0101000
+174 0 -176 0 *
Ed
 1e-07 1 1 0
1  49 0 0 1
2  65 16 0 0 1
0

0101000
+181 0 -174 0 *
Wi

0101100
+180 0 +175 0 -173 0 -172 0 *
Fa
0  1e-07 16 0

0101000
+171 0 *
Ve
1e-07
25.0315654395058 10.7929114854188 -31.7747951588371
0 0

0101101
*
Ed
 1e-07 1 1 0
1  50 0 0 1
2  66 17 0 0 1
0

0101000
+176 0 -169 0 *
Ve
1e-07
25.0315654395058 10.7929114854188 30.6954821542829
0 0

0101101
*
Ed
 1e-07 1 1 0
1  51 0 0 62.47027731312
2  67 17 0 0 62.47027731312
2  68 18 0 0 62.47027731312
0

0101000
+167 0 -169 0 *
Ed
 1e-07 1 1 0
1  52 0 0 1
2  69 17 0 0 1
0

0101000
+174 0 -167 0 *
Wi

0101100
+173 0 +168 0 -166 0 -165 0 *
Fa
0  1e-07 17 0

0101000
+164 0 *
Ve
1e-07
25.4051475330937 11.4699657963307 -31.6938229041384
0 0

0101101
*
Ed
 1e-07 1 1 0
1  53 0 0 1
2  70 18 0 0 1
0

0101000
+169 0 -162 0 *
Ve
1e-07
25.4051475330937 11.4699657963307 30.7764544089816
0 0

0101101
*
Ed
 1e-07 1 1 0
1  54 0 0 62.47027731312
2  71 18 0 0 62.47027731312
2  72 19 0 0 62.47027731312
0

0101000
+160 0 -162 0 *
Ed
 1e-07 1 1 0
1  55 0 0 1
2  73 18 0 0 1
0

0101000
+167 0 -160 0 *
Wi

0101100
+166 0 +161 0 -159 0 -158 0 *
Fa
0  1e-07 18 0

0101000
+157 0 *
Ve
1e-07
25.7787196624261 12.1470100448695 -31.6128546444371
0 0

0101101
*
Ed
 1e-07 1 1 0
1  56 0 0 1
2  74 19 0 0 1
0

0101000
+162 0 -155 0 *
Ve
1e-07
25.7787196624261 12.1470100448695 30.8574226686829
0 0

0101101
*
Ed
 1e-07 1 1 0
1  57 0 0 62.47027731312
2  75 19 0 0 62.47027731312
2  76 20 0 0 62.47027731312
0

0101000
+153 0 -155 0 *
Ed
 1e-07 1 1 0
1  58 0 0 1
2  77 19 0 0 1
0

0101000
+160 0 -153 0 *
Wi

0101100
+159 0 +154 0 -152 0 -151 0 *
Fa
0  1e-07 19 0

0101000
+150 0 *
Ve
1e-07
26.1523329597063 12.8240568090016 -31.5318895338045
0 0

0101101
*
Ed
 1e-07 1 1 0
1  59 0 0 1
2  78 20 0 0 1
0

0101000
+155 0 -148 0 *
Ve
1e-07
26.1523329597063 12.8240568090016 30.9383877793155
0 0

0101101
*
Ed
 1e-07 1 1 0
1  60 0 0 62.47027731312
2  79 20 0 0 62.47027731312
2  80 21 0 0 62.47027731312
0

0101000
+146 0 -148 0 *
Ed
 1e-07 1 1 0
1  61 0 0 1
2  81 20 0 0 1
0

0101000
+153 0 -146 0 *
Wi

0101100
+152 0 +147 0 -145 0 -144 0 *
Fa
0  1e-07 20 0

0101000
+143 0 *
Ve
1e-07
26.5259133351288 13.501096026354 -31.4509284291569
0 0

0101101
*
Ed
 1e-07 1 1 0
1  62 0 0 1
2  82 21 0 0 1
0

0101000
+148 0 -141 0 *
Ve
1e-07
26.5259133351288 13.501096026354 31.0193488839631
0 0

0101101
*
Ed
 1e-07 1 1 0
1  63 0 0 62.47027731312
2  83 21 0 0 62.47027731312
2  84 22 0 0 62.47027731312
0

0101000
+139 0 -141 0 *
Ed
 1e-07 1 1 0
1  64 0 0 1
2  85 21 0 0 1
0

0101000
+146 0 -139 0 *
Wi

0101100
+145 0 +140 0 -138 0 -137 0 *
Fa
0  1e-07 21 0

0101000
+136 0 *
Ve
1e-07
26.8994698867893 14.1781251813335 -31.3699721446748
0 0

0101101
*
Ed
 1e-07 1 1 0
1  65 0 0 1
2  86 22 0 0 1
0

0101000
+141 0 -134 0 *
Ve
1e-07
26.8994698867893 14.1781251813335 31.1003051684452
0 0

0101101
*
Ed
 1e-07 1 1 0
1  66 0 0 62.47027731312
2  87 22 0 0 62.47027731312
2  88 23 0 0 62.47027731312
0

0101000
+132 0 -134 0 *
Ed
 1e-07 1 1 0
1  67 0 0 1
2  89 22 0 0 1
0

0101000
+139 0 -132 0 *
Wi

0101100
+138 0 +133 0 -131 0 -130 0 *
Fa
0  1e-07 22 0

0101000
+129 0 *
Ve
1e-07
27.273049568327 14.8551493051264 -31.2890207367991
0 0

0101101
*
Ed
 1e-07 1 1 0
1  68 0 0 1
2  90 23 0 0 1
0

0101000
+134 0 -127 0 *
Ve
1e-07
27.273049568327 14.8551493051264 31.181256576321
0 0

0101101
*
Ed
 1e-07 1 1 0
1  69 0 0 62.47027731312
2  91 23 0 0 62.47027731312
2  92 24 0 0 62.47027731312
0

0101000
+125 0 -127 0 *
Ed
 1e-07 1 1 0
1  70 0 0 1
2  93 23 0 0 1
0

0101000
+132 0 -125 0 *
Wi

0101100
+131 0 +126 0 -124 0 -123 0 *
Fa
0  1e-07 23 0

0101000
+122 0 *
Ve
1e-07
27.6466254699586 15.5321658821397 -31.208074761014
0 0

0101101
*
Ed
 1e-07 1 1 0
1  71 0 0 1
2  94 24 0 0 1
0

0101000
+127 0 -120 0 *
Ve
1e-07
27.6466254699586 15.5321658821397 31.2622025521061
0 0

0101101
*
Ed
 1e-07 1 1 0
1  72 0 0 62.47027731312
2  95 24 0 0 62.47027731312
2  96 25 0 0 62.47027731312
0

0101000
+118 0 -120 0 *
Ed
 1e-07 1 1 0
1  73 0 0 1
2  97 24 0 0 1
0

0101000
+125 0 -118 0 *
Wi

0101100
+124 0 +119 0 -117 0 -116 0 *
Fa
0  1e-07 24 0

0101000
+115 0 *
Ve
1e-07
28.0201767382216 16.2091749123732 -31.1271347002277
0 0

0101101
*
Ed
 1e-07 1 1 0
1  74 0 0 1
2  98 25 0 0 1
0

0101000
+120 0 -113 0 *
Ve
1e-07
28.0201767382216 16.2091749123732 31.3431426128923
0 0

0101101
*
Ed
 1e-07 1 1 0
1  75 0 0 62.47027731312
2  99 25 0 0 62.47027731312
2  100 26 0 0 62.47027731312
0

0101000
+111 0 -113 0 *
Ed
 1e-07 1 1 0
1  76 0 0 1
2  101 25 0 0 1
0

0101000
+118 0 -111 0 *
Wi

0101100
+117 0 +112 0 -110 0 -109 0 *
Fa
0  1e-07 25 0

0101000
+108 0 *
Ve
1e-07
28.3937447512052 16.8861713646405 -31.0462018138385
0 0

0101101
*
Ed
 1e-07 1 1 0
1  77 0 0 1
2  102 26 0 0 1
0

0101000
+113 0 -106 0 *
Ve
1e-07
28.3937447512052 16.8861713646405 31.4240754992815
0 0

0101101
*
Ed
 1e-07 1 1 0
1  78 0 0 62.47027731312
2  103 26 0 0 62.47027731312
2  104 27 0 0 62.47027731312
0

0101000
+104 0 -106 0 *
Ed
 1e-07 1 1 0
1  79 0 0 1
2  105 26 0 0 1
0

0101000
+111 0 -104 0 *
Wi

0101100
+110 0 +105 0 -103 0 -102 0 *
Fa
0  1e-07 26 0

0101000
+101 0 *
Ve
1e-07
28.7672847612577 17.5631602701282 -30.9652761809575
0 0

0101101
*
Ed
 1e-07 1 1 0
1  80 0 0 1
2  106 27 0 0 1
0

0101000
+106 0 -99 0 *
Ve
1e-07
28.7672847612577 17.5631602701282 31.5050011321625
0 0

0101101
*
Ed
 1e-07 1 1 0
1  81 0 0 62.47027731312
2  107 27 0 0 62.47027731312
2  108 28 0 0 62.47027731312
0

0101000
+97 0 -99 0 *
Ed
 1e-07 1 1 0
1  82 0 0 1
2  109 27 0 0 1
0

0101000
+104 0 -97 0 *
Wi

0101100
+103 0 +98 0 -96 0 -95 0 *
Fa
0  1e-07 27 0

0101000
+94 0 *
Ve
1e-07
29.1408379158529 18.2401340820564 -30.8843594186488
0 0

0101101
*
Ed
 1e-07 1 1 0
1  83 0 0 1
2  110 28 0 0 1
0

0101000
+99 0 -92 0 *
Ve
1e-07
29.1408379158529 18.2401340820564 31.5859178944712
0 0

0101101
*
Ed
 1e-07 1 1 0
1  84 0 0 62.47027731312
2  111 28 0 0 62.47027731312
2  112 29 0 0 62.47027731312
0

0101000
+90 0 -92 0 *
Ed
 1e-07 1 1 0
1  85 0 0 1
2  113 28 0 0 1
0

0101000
+97 0 -90 0 *
Wi

0101100
+96 0 +91 0 -89 0 -88 0 *
Fa
0  1e-07 28 0

0101000
+87 0 *
Ve
1e-07
29.514366232066 18.9170953160184 -30.803452306017
0 0

0101101
*
Ed
 1e-07 1 1 0
1  86 0 0 1
2  114 29 0 0 1
0

0101000
+92 0 -85 0 *
Ve
1e-07
29.514366232066 18.9170953160184 31.666825007103
0 0

0101101
*
Ed
 1e-07 1 1 0
1  87 0 0 62.47027731312
2  115 29 0 0 62.47027731312
2  116 30 0 0 62.47027731312
0

0101000
+83 0 -85 0 *
Ed
 1e-07 1 1 0
1  88 0 0 1
2  117 29 0 0 1
0

0101000
+90 0 -83 0 *
Wi

0101100
+89 0 +84 0 -82 0 -81 0 *
Fa
0  1e-07 29 0

0101000
+80 0 *
Ve
1e-07
29.8879004558901 19.5940615811668 -30.7225537650046
0 0

0101101
*
Ed
 1e-07 1 1 0
1  89 0 0 1
2  118 30 0 0 1
0

0101000
+85 0 -78 0 *
Ve
1e-07
29.8879004558901 19.5940615811668 31.7477235481154
0 0

0101101
*
Ed
 1e-07 1 1 0
1  90 0 0 62.47027731312
2  119 30 0 0 62.47027731312
2  120 31 0 0 62.47027731312
0

0101000
+76 0 -78 0 *
Ed
 1e-07 1 1 0
1  91 0 0 1
2  121 30 0 0 1
0

0101000
+83 0 -76 0 *
Wi

0101100
+82 0 +77 0 -75 0 -74 0 *
Fa
0  1e-07 30 0

0101000
+73 0 *
Ve
1e-07
30.2298163868558 20.2137293815229 -30.6486582629108
0 0

0101101
*
Ed
 1e-07 1 1 0
1  92 0 0 1
2  122 31 0 0 1
0

0101000
+78 0 -71 0 *
Ve
1e-07
30.2298163868558 20.2137293815229 31.8216190502092
0 0

0101101
*
Ed
 1e-07 1 1 0
1  93 0 0 62.47027731312
2  123 31 0 0 62.47027731312
2  124 32 0 0 62.47027731312
0

0101000
+69 0 -71 0 *
Ed
 1e-07 1 1 0
1  94 0 0 1
2  125 31 0 0 1
0

0101000
+76 0 -69 0 *
Wi

0101100
+75 0 +70 0 -68 0 -67 0 *
Fa
0  1e-07 31 0

0101000
+66 0 *
Ve
1e-07
30.2614794012472 20.2711100134095 -30.6418459662214
0 0

0101101
*
Ed
 1e-07 1 1 0
1  95 0 0 1
2  126 32 0 0 1
0

0101000
+71 0 -64 0 *
Ve
1e-07
30.2614794012472 20.2711100134095 31.8284313468986
0 0

0101101
*
Ed
 1e-07 1 1 0
1  96 0 0 62.47027731312
2  127 32 0 0 62.47027731312
2  128 33 0 0 62.47027731312
0

0101000
+62 0 -64 0 *
Ed
 1e-07 1 1 0
1  97 0 0 1
2  129 32 0 0 1
0

0101000
+69 0 -62 0 *
Wi

0101100
+68 0 +63 0 -61 0 -60 0 *
Fa
0  1e-07 32 0

0101000
+59 0 *
Ve
1e-07
30.6350632477408 20.9482507795791 -30.5614641693567
0 0

0101101
*
Ed
 1e-07 1 1 0
1  98 0 0 1
2  130 33 0 0 1
0

0101000
+64 0 -57 0 *
Ve
1e-07
30.6350632477408 20.9482507795791 31.9088131437633
0 0

0101101
*
Ed
 1e-07 1 1 0
1  99 0 0 62.47027731312
2  131 33 0 0 62.47027731312
2  132 34 0 0 62.47027731312
0

0101000
+55 0 -57 0 *
Ed
 1e-07 1 1 0
1  100 0 0 1
2  133 33 0 0 1
0

0101000
+62 0 -55 0 *
Wi

0101100
+61 0 +56 0 -54 0 -53 0 *
Fa
0  1e-07 33 0

0101000
+52 0 *
Ve
1e-07
31.008644861259 21.6253663876322 -30.4811021240692
0 0

0101101
*
Ed
 1e-07 1 1 0
1  101 0 0 1
2  134 34 0 0 1
0

0101000
+57 0 -50 0 *
Ve
1e-07
31.008644861259 21.6253663876322 31.9891751890508
0 0

0101101
*
Ed
 1e-07 1 1 0
1  102 0 0 62.47027731312
2  135 34 0 0 62.47027731312
2  136 35 0 0 62.47027731312
0

0101000
+48 0 -50 0 *
Ed
 1e-07 1 1 0
1  103 0 0 1
2  137 34 0 0 1
0

0101000
+55 0 -48 0 *
Wi

0101100
+54 0 +49 0 -47 0 -46 0 *
Fa
0  1e-07 34 0

0101000
+45 0 *
Ve
1e-07
31.3822112141164 22.3024518059457 -30.4007633793057
0 0

0101101
*
Ed
 1e-07 1 1 0
1  104 0 0 1
2  138 35 0 0 1
0

0101000
+50 0 -43 0 *
Ve
1e-07
31.3822112141164 22.3024518059457 32.0695139338143
0 0

0101101
*
Ed
 1e-07 1 1 0
1  105 0 0 62.47027731312
2  139 35 0 0 62.47027731312
2  140 36 0 0 62.47027731312
0

0101000
+41 0 -43 0 *
Ed
 1e-07 1 1 0
1  106 0 0 1
2  141 35 0 0 1
0

0101000
+48 0 -41 0 *
Wi

0101100
+47 0 +42 0 -40 0 -39 0 *
Fa
0  1e-07 35 0

0101000
+38 0 *
Ve
1e-07
31.7557375162273 22.9794994870846 -30.3204529421826
0 0

0101101
*
Ed
 1e-07 1 1 0
1  107 0 0 1
2  142 36 0 0 1
0

0101000
+43 0 -36 0 *
Ve
1e-07
31.7557375162273 22.9794994870846 32.1498243709374
0 0

0101101
*
Ed
 1e-07 1 1 0
1  108 0 0 62.47027731312
2  143 36 0 0 62.47027731312
2  144 37 0 0 62.47027731312
0

0101000
+34 0 -36 0 *
Ed
 1e-07 1 1 0
1  109 0 0 1
2  145 36 0 0 1
0

0101000
+41 0 -34 0 *
Wi

0101100
+40 0 +35 0 -33 0 -32 0 *
Fa
0  1e-07 36 0

0101000
+31 0 *
Ve
1e-07
32.1292527928981 23.6565069152373 -30.2401747289324
0 0

0101101
*
Ed
 1e-07 1 1 0
1  110 0 0 1
2  146 37 0 0 1
0

0101000
+36 0 -29 0 *
Ve
1e-07
32.1292527928981 23.6565069152373 32.2301025841876
0 0

0101101
*
Ed
 1e-07 1 1 0
1  111 0 0 62.47027731312
2  147 37 0 0 62.47027731312
2  148 38 0 0 62.47027731312
0

0101000
+27 0 -29 0 *
Ed
 1e-07 1 1 0
1  112 0 0 1
2  149 37 0 0 1
0

0101000
+34 0 -27 0 *
Wi

0101100
+33 0 +28 0 -26 0 -25 0 *
Fa
0  1e-07 37 0

0101000
+24 0 *
Ve
1e-07
32.5027518197024 24.3334640271571 -30.1599353086817
0 0

0101101
*
Ed
 1e-07 1 1 0
1  113 0 0 1
2  150 38 0 0 1
0

0101000
+29 0 -22 0 *
Ve
1e-07
32.5027518197024 24.3334640271571 32.3103420044383
0 0

0101101
*
Ed
 1e-07 1 1 0
1  114 0 0 62.47027731312
2  151 38 0 0 62.47027731312
2  152 39 0 0 62.47027731312
0

0101000
+20 0 -22 0 *
Ed
 1e-07 1 1 0
1  115 0 0 1
2  153 38 0 0 1
0

0101000
+27 0 -20 0 *
Wi

0101100
+26 0 +21 0 -19 0 -18 0 *
Fa
0  1e-07 38 0

0101000
+17 0 *
Ve
1e-07
32.8762095653791 25.010358243786 -30.07974400807
0 0

0101101
*
Ed
 1e-07 1 1 0
1  116 0 0 1
2  154 39 0 0 1
0

0101000
+22 0 -15 0 *
Ve
1e-07
32.8762095653791 25.010358243786 32.39053330505
0 0

0101101
*
Ed
 1e-07 1 1 0
1  117 0 0 62.47027731312
2  155 39 0 0 62.47027731312
2  156 40 0 0 62.47027731312
0

0101000
+13 0 -15 0 *
Ed
 1e-07 1 1 0
1  118 0 0 1
2  157 39 0 0 1
0

0101000
+20 0 -13 0 *
Wi

0101100
+19 0 +14 0 -12 0 -11 0 *
Fa
0  1e-07 39 0

0101000
+10 0 *
Ve
1e-07
33.3528570694009 25.8743055716652 -29.9774673177741
0 0

0101101
*
Ed
 1e-07 1 1 0
1  119 0 0 1
2  158 40 0 0 1
0

0101000
+15 0 -8 0 *
Ve
1e-07
33.3528570694009 25.8743055716652 32.4928099953459
0 0

0101101
*
Ed
 1e-07 1 1 0
1  120 0 0 62.47027731312
2  159 40 0 0 62.47027731312
0

0101000
+6 0 -8 0 *
Ed
 1e-07 1 1 0
1  121 0 0 1
2  160 40 0 0 1
0

0101000
+13 0 -6 0 *
Wi

0101100
+12 0 +7 0 -5 0 -4 0 *
Fa
0  1e-07 40 0

0101000
+3 0 *
Sh

1101000
+275 0 +268 0 +261 0 +254 0 +247 0 +240 0 +233 0 +226 0 +219 0 +212 0 
+205 0 +198 0 +191 0 +184 0 +177 0 +170 0 +163 0 +156 0 +149 0 +142 0 
+135 0 +128 0 +121 0 +114 0 +107 0 +100 0 +93 0 +86 0 +79 0 +72 0 
+65 0 +58 0 +51 0 +44 0 +37 0 +30 0 +23 0 +16 0 +9 0 +2 0 
*

+1 0 