ISO-10303-21;
HEADER;
FILE_DESCRIPTION(('Open CASCADE Model'),'2;1');
FILE_NAME('Open CASCADE Shape Model','2023-11-02T17:08:40',('Author'),(
    'Open CASCADE'),'Open CASCADE STEP processor 7.6','Open CASCADE 7.6'
  ,'Unknown');
FILE_SCHEMA(('AUTOMOTIVE_DESIGN { 1 0 10303 214 1 1 1 1 }'));
ENDSEC;
DATA;
#1 = APPLICATION_PROTOCOL_DEFINITION('international standard',
  'automotive_design',2000,#2);
#2 = APPLICATION_CONTEXT(
  'core data for automotive mechanical design processes');
#3 = SHAPE_DEFINITION_REPRESENTATION(#4,#10);
#4 = PRODUCT_DEFINITION_SHAPE('','',#5);
#5 = PRODUCT_DEFINITION('design','',#6,#9);
#6 = PRODUCT_DEFINITION_FORMATION('','',#7);
#7 = PRODUCT('Open CASCADE STEP translator 7.6 2',
  'Open CASCADE STEP translator 7.6 2','',(#8));
#8 = PRODUCT_CONTEXT('',#2,'mechanical');
#9 = PRODUCT_DEFINITION_CONTEXT('part definition',#2,'design');
#10 = ADVANCED_BREP_SHAPE_REPRESENTATION('',(#11,#15),#424);
#11 = AXIS2_PLACEMENT_3D('',#12,#13,#14);
#12 = CARTESIAN_POINT('',(0.,0.,0.));
#13 = DIRECTION('',(0.,0.,1.));
#14 = DIRECTION('',(1.,0.,-0.));
#15 = MANIFOLD_SOLID_BREP('',#16);
#16 = CLOSED_SHELL('',(#17,#96,#199,#276,#363));
#17 = ADVANCED_FACE('',(#18),#31,.T.);
#18 = FACE_BOUND('',#19,.T.);
#19 = EDGE_LOOP('',(#20,#59,#77,#78));
#20 = ORIENTED_EDGE('',*,*,#21,.F.);
#21 = EDGE_CURVE('',#22,#24,#26,.T.);
#22 = VERTEX_POINT('',#23);
#23 = CARTESIAN_POINT('',(7.E+03,0.,2.E+03));
#24 = VERTEX_POINT('',#25);
#25 = CARTESIAN_POINT('',(2.3E+04,0.,2.E+03));
#26 = SEAM_CURVE('',#27,(#30,#52),.PCURVE_S1.);
#27 = B_SPLINE_CURVE_WITH_KNOTS('',1,(#28,#29),.UNSPECIFIED.,.F.,.F.,(2,
    2),(0.,1.),.PIECEWISE_BEZIER_KNOTS.);
#28 = CARTESIAN_POINT('',(7.E+03,0.,2.E+03));
#29 = CARTESIAN_POINT('',(2.3E+04,0.,2.E+03));
#30 = PCURVE('',#31,#46);
#31 = ( BOUNDED_SURFACE() B_SPLINE_SURFACE(2,1,(
    (#32,#33)
    ,(#34,#35)
    ,(#36,#37)
    ,(#38,#39)
    ,(#40,#41)
    ,(#42,#43)
,(#44,#45
    )),.UNSPECIFIED.,.T.,.F.,.F.) B_SPLINE_SURFACE_WITH_KNOTS((1,2,2,2,2
    ,1),(2,2),(-2.094395102393,0.,2.094395102393,4.188790204786,
    6.28318530718,8.377580409573),(0.,1.),.UNSPECIFIED.) 
GEOMETRIC_REPRESENTATION_ITEM() RATIONAL_B_SPLINE_SURFACE((
    (1.,1.)
    ,(0.5,0.5)
    ,(1.,1.)
    ,(0.5,0.5)
    ,(1.,1.)
    ,(0.5,0.5)
,(1.,1.))) REPRESENTATION_ITEM('') SURFACE() );
#32 = CARTESIAN_POINT('',(7.E+03,0.,2.E+03));
#33 = CARTESIAN_POINT('',(2.3E+04,0.,2.E+03));
#34 = CARTESIAN_POINT('',(7.E+03,-3.464101615138E+03,2.E+03));
#35 = CARTESIAN_POINT('',(2.3E+04,-3.464101615138E+03,2.E+03));
#36 = CARTESIAN_POINT('',(7.E+03,-1.732050807569E+03,-1000.));
#37 = CARTESIAN_POINT('',(2.3E+04,-1.732050807569E+03,-1000.));
#38 = CARTESIAN_POINT('',(7.E+03,-4.898587196589E-13,-4.E+03));
#39 = CARTESIAN_POINT('',(2.3E+04,-4.898587196589E-13,-4.E+03));
#40 = CARTESIAN_POINT('',(7.E+03,1.732050807569E+03,-1.E+03));
#41 = CARTESIAN_POINT('',(2.3E+04,1.732050807569E+03,-1.E+03));
#42 = CARTESIAN_POINT('',(7.E+03,3.464101615138E+03,2.E+03));
#43 = CARTESIAN_POINT('',(2.3E+04,3.464101615138E+03,2.E+03));
#44 = CARTESIAN_POINT('',(7.E+03,0.,2.E+03));
#45 = CARTESIAN_POINT('',(2.3E+04,0.,2.E+03));
#46 = DEFINITIONAL_REPRESENTATION('',(#47),#51);
#47 = LINE('',#48,#49);
#48 = CARTESIAN_POINT('',(0.,0.));
#49 = VECTOR('',#50,1.);
#50 = DIRECTION('',(0.,1.));
#51 = ( GEOMETRIC_REPRESENTATION_CONTEXT(2) 
PARAMETRIC_REPRESENTATION_CONTEXT() REPRESENTATION_CONTEXT('2D SPACE',''
  ) );
#52 = PCURVE('',#31,#53);
#53 = DEFINITIONAL_REPRESENTATION('',(#54),#58);
#54 = LINE('',#55,#56);
#55 = CARTESIAN_POINT('',(6.28318530718,0.));
#56 = VECTOR('',#57,1.);
#57 = DIRECTION('',(0.,1.));
#58 = ( GEOMETRIC_REPRESENTATION_CONTEXT(2) 
PARAMETRIC_REPRESENTATION_CONTEXT() REPRESENTATION_CONTEXT('2D SPACE',''
  ) );
#59 = ORIENTED_EDGE('',*,*,#60,.T.);
#60 = EDGE_CURVE('',#22,#22,#61,.T.);
#61 = SURFACE_CURVE('',#62,(#70),.PCURVE_S1.);
#62 = ( BOUNDED_CURVE() B_SPLINE_CURVE(2,(#63,#64,#65,#66,#67,#68,#69),
.UNSPECIFIED.,.T.,.F.) B_SPLINE_CURVE_WITH_KNOTS((1,2,2,2,2,1),(
    -2.094395102393,0.,2.094395102393,4.188790204786,6.28318530718,
8.377580409573),.UNSPECIFIED.) CURVE() GEOMETRIC_REPRESENTATION_ITEM() 
RATIONAL_B_SPLINE_CURVE((1.,0.5,1.,0.5,1.,0.5,1.)) REPRESENTATION_ITEM(
  '') );
#63 = CARTESIAN_POINT('',(7.E+03,0.,2.E+03));
#64 = CARTESIAN_POINT('',(7.E+03,-3.464101615138E+03,2.E+03));
#65 = CARTESIAN_POINT('',(7.E+03,-1.732050807569E+03,-1000.));
#66 = CARTESIAN_POINT('',(7.E+03,-4.898587196589E-13,-4.E+03));
#67 = CARTESIAN_POINT('',(7.E+03,1.732050807569E+03,-1.E+03));
#68 = CARTESIAN_POINT('',(7.E+03,3.464101615138E+03,2.E+03));
#69 = CARTESIAN_POINT('',(7.E+03,0.,2.E+03));
#70 = PCURVE('',#31,#71);
#71 = DEFINITIONAL_REPRESENTATION('',(#72),#76);
#72 = LINE('',#73,#74);
#73 = CARTESIAN_POINT('',(0.,0.));
#74 = VECTOR('',#75,1.);
#75 = DIRECTION('',(1.,0.));
#76 = ( GEOMETRIC_REPRESENTATION_CONTEXT(2) 
PARAMETRIC_REPRESENTATION_CONTEXT() REPRESENTATION_CONTEXT('2D SPACE',''
  ) );
#77 = ORIENTED_EDGE('',*,*,#21,.T.);
#78 = ORIENTED_EDGE('',*,*,#79,.F.);
#79 = EDGE_CURVE('',#24,#24,#80,.T.);
#80 = SURFACE_CURVE('',#81,(#89),.PCURVE_S1.);
#81 = ( BOUNDED_CURVE() B_SPLINE_CURVE(2,(#82,#83,#84,#85,#86,#87,#88),
.UNSPECIFIED.,.T.,.F.) B_SPLINE_CURVE_WITH_KNOTS((1,2,2,2,2,1),(
    -2.094395102393,0.,2.094395102393,4.188790204786,6.28318530718,
8.377580409573),.UNSPECIFIED.) CURVE() GEOMETRIC_REPRESENTATION_ITEM() 
RATIONAL_B_SPLINE_CURVE((1.,0.5,1.,0.5,1.,0.5,1.)) REPRESENTATION_ITEM(
  '') );
#82 = CARTESIAN_POINT('',(2.3E+04,0.,2.E+03));
#83 = CARTESIAN_POINT('',(2.3E+04,-3.464101615138E+03,2.E+03));
#84 = CARTESIAN_POINT('',(2.3E+04,-1.732050807569E+03,-1000.));
#85 = CARTESIAN_POINT('',(2.3E+04,-4.898587196589E-13,-4.E+03));
#86 = CARTESIAN_POINT('',(2.3E+04,1.732050807569E+03,-1.E+03));
#87 = CARTESIAN_POINT('',(2.3E+04,3.464101615138E+03,2.E+03));
#88 = CARTESIAN_POINT('',(2.3E+04,0.,2.E+03));
#89 = PCURVE('',#31,#90);
#90 = DEFINITIONAL_REPRESENTATION('',(#91),#95);
#91 = LINE('',#92,#93);
#92 = CARTESIAN_POINT('',(0.,1.));
#93 = VECTOR('',#94,1.);
#94 = DIRECTION('',(1.,0.));
#95 = ( GEOMETRIC_REPRESENTATION_CONTEXT(2) 
PARAMETRIC_REPRESENTATION_CONTEXT() REPRESENTATION_CONTEXT('2D SPACE',''
  ) );
#96 = ADVANCED_FACE('',(#97),#113,.T.);
#97 = FACE_BOUND('',#98,.T.);
#98 = EDGE_LOOP('',(#99,#162,#180,#181));
#99 = ORIENTED_EDGE('',*,*,#100,.F.);
#100 = EDGE_CURVE('',#101,#103,#105,.T.);
#101 = VERTEX_POINT('',#102);
#102 = CARTESIAN_POINT('',(2.3E+04,0.,2.E+03));
#103 = VERTEX_POINT('',#104);
#104 = CARTESIAN_POINT('',(3.75E+04,0.,1.337E+03));
#105 = SEAM_CURVE('',#106,(#112,#155),.PCURVE_S1.);
#106 = B_SPLINE_CURVE_WITH_KNOTS('',4,(#107,#108,#109,#110,#111),
  .UNSPECIFIED.,.F.,.F.,(5,5),(0.,1.),.PIECEWISE_BEZIER_KNOTS.);
#107 = CARTESIAN_POINT('',(2.3E+04,0.,2.E+03));
#108 = CARTESIAN_POINT('',(2.55E+04,0.,2.E+03));
#109 = CARTESIAN_POINT('',(2.85E+04,0.,2.E+03));
#110 = CARTESIAN_POINT('',(3.15E+04,0.,1.992E+03));
#111 = CARTESIAN_POINT('',(3.75E+04,0.,1.337E+03));
#112 = PCURVE('',#113,#149);
#113 = ( BOUNDED_SURFACE() B_SPLINE_SURFACE(2,4,(
    (#114,#115,#116,#117,#118)
    ,(#119,#120,#121,#122,#123)
    ,(#124,#125,#126,#127,#128)
    ,(#129,#130,#131,#132,#133)
    ,(#134,#135,#136,#137,#138)
    ,(#139,#140,#141,#142,#143)
    ,(#144,#145,#146,#147,#148
)),.UNSPECIFIED.,.T.,.F.,.F.) B_SPLINE_SURFACE_WITH_KNOTS((1,2,2,2,2,1),
  (5,5),(-1.,0.,1.,2.,3.,4.),(0.,1.),.UNSPECIFIED.) 
GEOMETRIC_REPRESENTATION_ITEM() RATIONAL_B_SPLINE_SURFACE((
    (1.,1.,1.,1.,1.)
    ,(0.5,0.5,0.5,0.5,0.5)
    ,(1.,1.,1.,1.,1.)
    ,(0.5,0.5,0.5,0.5,0.5)
    ,(1.,1.,1.,1.,1.)
    ,(0.5,0.5,0.5,0.5,0.5)
,(1.,1.,1.,1.,1.))) REPRESENTATION_ITEM('') SURFACE() );
#114 = CARTESIAN_POINT('',(2.3E+04,0.,2.E+03));
#115 = CARTESIAN_POINT('',(2.55E+04,0.,2.E+03));
#116 = CARTESIAN_POINT('',(2.85E+04,0.,2.E+03));
#117 = CARTESIAN_POINT('',(3.15E+04,0.,1.992E+03));
#118 = CARTESIAN_POINT('',(3.75E+04,0.,1.337E+03));
#119 = CARTESIAN_POINT('',(2.3E+04,-3.464101615138E+03,2.E+03));
#120 = CARTESIAN_POINT('',(2.55E+04,-3.464101615138E+03,2.E+03));
#121 = CARTESIAN_POINT('',(2.85E+04,-3.464101615138E+03,2.E+03));
#122 = CARTESIAN_POINT('',(3.15E+04,-3.464E+03,1.992E+03));
#123 = CARTESIAN_POINT('',(3.75E+04,-631.,1.337E+03));
#124 = CARTESIAN_POINT('',(2.3E+04,-1.732050807569E+03,-1000.));
#125 = CARTESIAN_POINT('',(2.55E+04,-1.732050807569E+03,-1000.));
#126 = CARTESIAN_POINT('',(2.85E+04,-1.732050807569E+03,-1000.));
#127 = CARTESIAN_POINT('',(3.15E+04,-1.732E+03,-679.));
#128 = CARTESIAN_POINT('',(3.75E+04,-316.,795.));
#129 = CARTESIAN_POINT('',(2.3E+04,-4.898587196589E-13,-4.E+03));
#130 = CARTESIAN_POINT('',(2.55E+04,-4.898587196589E-13,-4.E+03));
#131 = CARTESIAN_POINT('',(2.85E+04,-4.898587196589E-13,-4.E+03));
#132 = CARTESIAN_POINT('',(3.15E+04,0.,-3.35E+03));
#133 = CARTESIAN_POINT('',(3.75E+04,0.,254.));
#134 = CARTESIAN_POINT('',(2.3E+04,1.732050807569E+03,-1.E+03));
#135 = CARTESIAN_POINT('',(2.55E+04,1.732050807569E+03,-1.E+03));
#136 = CARTESIAN_POINT('',(2.85E+04,1.732050807569E+03,-1.E+03));
#137 = CARTESIAN_POINT('',(3.15E+04,1.732E+03,-679.));
#138 = CARTESIAN_POINT('',(3.75E+04,316.,795.));
#139 = CARTESIAN_POINT('',(2.3E+04,3.464101615138E+03,2.E+03));
#140 = CARTESIAN_POINT('',(2.55E+04,3.464101615138E+03,2.E+03));
#141 = CARTESIAN_POINT('',(2.85E+04,3.464101615138E+03,2.E+03));
#142 = CARTESIAN_POINT('',(3.15E+04,3.464E+03,1.992E+03));
#143 = CARTESIAN_POINT('',(3.75E+04,631.,1.337E+03));
#144 = CARTESIAN_POINT('',(2.3E+04,0.,2.E+03));
#145 = CARTESIAN_POINT('',(2.55E+04,0.,2.E+03));
#146 = CARTESIAN_POINT('',(2.85E+04,0.,2.E+03));
#147 = CARTESIAN_POINT('',(3.15E+04,0.,1.992E+03));
#148 = CARTESIAN_POINT('',(3.75E+04,0.,1.337E+03));
#149 = DEFINITIONAL_REPRESENTATION('',(#150),#154);
#150 = LINE('',#151,#152);
#151 = CARTESIAN_POINT('',(0.,0.));
#152 = VECTOR('',#153,1.);
#153 = DIRECTION('',(0.,1.));
#154 = ( GEOMETRIC_REPRESENTATION_CONTEXT(2) 
PARAMETRIC_REPRESENTATION_CONTEXT() REPRESENTATION_CONTEXT('2D SPACE',''
  ) );
#155 = PCURVE('',#113,#156);
#156 = DEFINITIONAL_REPRESENTATION('',(#157),#161);
#157 = LINE('',#158,#159);
#158 = CARTESIAN_POINT('',(3.,0.));
#159 = VECTOR('',#160,1.);
#160 = DIRECTION('',(0.,1.));
#161 = ( GEOMETRIC_REPRESENTATION_CONTEXT(2) 
PARAMETRIC_REPRESENTATION_CONTEXT() REPRESENTATION_CONTEXT('2D SPACE',''
  ) );
#162 = ORIENTED_EDGE('',*,*,#163,.T.);
#163 = EDGE_CURVE('',#101,#101,#164,.T.);
#164 = SURFACE_CURVE('',#165,(#173),.PCURVE_S1.);
#165 = ( BOUNDED_CURVE() B_SPLINE_CURVE(2,(#166,#167,#168,#169,#170,#171
,#172),.UNSPECIFIED.,.T.,.F.) B_SPLINE_CURVE_WITH_KNOTS((1,2,2,2,2,1),(
-1.,0.,1.,2.,3.,4.),.UNSPECIFIED.) CURVE() GEOMETRIC_REPRESENTATION_ITEM
() RATIONAL_B_SPLINE_CURVE((1.,0.5,1.,0.5,1.,0.5,1.)) 
REPRESENTATION_ITEM('') );
#166 = CARTESIAN_POINT('',(2.3E+04,0.,2.E+03));
#167 = CARTESIAN_POINT('',(2.3E+04,-3.464101615138E+03,2.E+03));
#168 = CARTESIAN_POINT('',(2.3E+04,-1.732050807569E+03,-1000.));
#169 = CARTESIAN_POINT('',(2.3E+04,-4.898587196589E-13,-4.E+03));
#170 = CARTESIAN_POINT('',(2.3E+04,1.732050807569E+03,-1.E+03));
#171 = CARTESIAN_POINT('',(2.3E+04,3.464101615138E+03,2.E+03));
#172 = CARTESIAN_POINT('',(2.3E+04,0.,2.E+03));
#173 = PCURVE('',#113,#174);
#174 = DEFINITIONAL_REPRESENTATION('',(#175),#179);
#175 = LINE('',#176,#177);
#176 = CARTESIAN_POINT('',(0.,0.));
#177 = VECTOR('',#178,1.);
#178 = DIRECTION('',(1.,0.));
#179 = ( GEOMETRIC_REPRESENTATION_CONTEXT(2) 
PARAMETRIC_REPRESENTATION_CONTEXT() REPRESENTATION_CONTEXT('2D SPACE',''
  ) );
#180 = ORIENTED_EDGE('',*,*,#100,.T.);
#181 = ORIENTED_EDGE('',*,*,#182,.F.);
#182 = EDGE_CURVE('',#103,#103,#183,.T.);
#183 = SURFACE_CURVE('',#184,(#192),.PCURVE_S1.);
#184 = ( BOUNDED_CURVE() B_SPLINE_CURVE(2,(#185,#186,#187,#188,#189,#190
,#191),.UNSPECIFIED.,.T.,.F.) B_SPLINE_CURVE_WITH_KNOTS((1,2,2,2,2,1),(
-1.,0.,1.,2.,3.,4.),.UNSPECIFIED.) CURVE() GEOMETRIC_REPRESENTATION_ITEM
() RATIONAL_B_SPLINE_CURVE((1.,0.5,1.,0.5,1.,0.5,1.)) 
REPRESENTATION_ITEM('') );
#185 = CARTESIAN_POINT('',(3.75E+04,0.,1.337E+03));
#186 = CARTESIAN_POINT('',(3.75E+04,-631.,1.337E+03));
#187 = CARTESIAN_POINT('',(3.75E+04,-316.,795.));
#188 = CARTESIAN_POINT('',(3.75E+04,0.,254.));
#189 = CARTESIAN_POINT('',(3.75E+04,316.,795.));
#190 = CARTESIAN_POINT('',(3.75E+04,631.,1.337E+03));
#191 = CARTESIAN_POINT('',(3.75E+04,0.,1.337E+03));
#192 = PCURVE('',#113,#193);
#193 = DEFINITIONAL_REPRESENTATION('',(#194),#198);
#194 = LINE('',#195,#196);
#195 = CARTESIAN_POINT('',(0.,1.));
#196 = VECTOR('',#197,1.);
#197 = DIRECTION('',(1.,0.));
#198 = ( GEOMETRIC_REPRESENTATION_CONTEXT(2) 
PARAMETRIC_REPRESENTATION_CONTEXT() REPRESENTATION_CONTEXT('2D SPACE',''
  ) );
#199 = ADVANCED_FACE('',(#200),#216,.T.);
#200 = FACE_BOUND('',#201,.T.);
#201 = EDGE_LOOP('',(#202,#251,#275));
#202 = ORIENTED_EDGE('',*,*,#203,.F.);
#203 = EDGE_CURVE('',#204,#204,#206,.T.);
#204 = VERTEX_POINT('',#205);
#205 = CARTESIAN_POINT('',(2.E+03,0.,1000.));
#206 = SURFACE_CURVE('',#207,(#215),.PCURVE_S1.);
#207 = ( BOUNDED_CURVE() B_SPLINE_CURVE(2,(#208,#209,#210,#211,#212,#213
,#214),.UNSPECIFIED.,.T.,.F.) B_SPLINE_CURVE_WITH_KNOTS((1,2,2,2,2,1),(
    -2.094395102393,0.,2.094395102393,4.188790204786,6.28318530718,
8.377580409573),.UNSPECIFIED.) CURVE() GEOMETRIC_REPRESENTATION_ITEM() 
RATIONAL_B_SPLINE_CURVE((1.,0.5,1.,0.5,1.,0.5,1.)) REPRESENTATION_ITEM(
  '') );
#208 = CARTESIAN_POINT('',(2.E+03,0.,1000.));
#209 = CARTESIAN_POINT('',(2.E+03,-1.732050807569E+03,1000.));
#210 = CARTESIAN_POINT('',(2.E+03,-866.0254037844,-500.));
#211 = CARTESIAN_POINT('',(2.E+03,-2.449293598295E-13,-2.E+03));
#212 = CARTESIAN_POINT('',(2.E+03,866.02540378443,-500.));
#213 = CARTESIAN_POINT('',(2.E+03,1.732050807569E+03,999.99999999999));
#214 = CARTESIAN_POINT('',(2.E+03,0.,1000.));
#215 = PCURVE('',#216,#245);
#216 = ( BOUNDED_SURFACE() B_SPLINE_SURFACE(3,2,(
    (#217,#218,#219,#220,#221,#222,#223)
    ,(#224,#225,#226,#227,#228,#229,#230)
    ,(#231,#232,#233,#234,#235,#236,#237)
    ,(#238,#239,#240,#241,#242,#243,#244
)),.UNSPECIFIED.,.F.,.T.,.F.) B_SPLINE_SURFACE_WITH_KNOTS((4,4),(1,2,2,2
    ,2,1),(0.,1.),(-2.094395102393,0.,2.094395102393,4.188790204786,
    6.28318530718,8.377580409573),.UNSPECIFIED.) 
GEOMETRIC_REPRESENTATION_ITEM() RATIONAL_B_SPLINE_SURFACE((
    (1.,0.5,1.,0.5,1.,0.5,1.)
    ,(1.,0.5,1.,0.5,1.,0.5,1.)
    ,(1.,0.5,1.,0.5,1.,0.5,1.)
,(1.,0.5,1.,0.5,1.,0.5,1.))) REPRESENTATION_ITEM('') SURFACE() );
#217 = CARTESIAN_POINT('',(2.E+03,0.,1000.));
#218 = CARTESIAN_POINT('',(2.E+03,-1.732050807569E+03,1000.));
#219 = CARTESIAN_POINT('',(2.E+03,-866.0254037844,-500.));
#220 = CARTESIAN_POINT('',(2.E+03,-2.449293598295E-13,-2.E+03));
#221 = CARTESIAN_POINT('',(2.E+03,866.02540378443,-500.));
#222 = CARTESIAN_POINT('',(2.E+03,1.732050807569E+03,999.99999999999));
#223 = CARTESIAN_POINT('',(2.E+03,0.,1000.));
#224 = CARTESIAN_POINT('',(1.523111133108E+03,0.,801.29630546165));
#225 = CARTESIAN_POINT('',(1.523111133108E+03,-1.387885912977E+03,
    801.29630546165));
#226 = CARTESIAN_POINT('',(1.523111133108E+03,-693.9429564884,
    -400.6481527308));
#227 = CARTESIAN_POINT('',(1.523111133108E+03,-1.962609911304E-13,
    -1.602592610923E+03));
#228 = CARTESIAN_POINT('',(1.523111133108E+03,693.9429564884,
    -400.6481527308));
#229 = CARTESIAN_POINT('',(1.523111133108E+03,1.387885912977E+03,
    801.29630546165));
#230 = CARTESIAN_POINT('',(1.523111133108E+03,0.,801.29630546165));
#231 = CARTESIAN_POINT('',(1.E+03,0.,550.));
#232 = CARTESIAN_POINT('',(1.E+03,-952.6279441628,550.));
#233 = CARTESIAN_POINT('',(1.E+03,-476.3139720814,-275.));
#234 = CARTESIAN_POINT('',(1.E+03,-1.347111479062E-13,-1.1E+03));
#235 = CARTESIAN_POINT('',(1.E+03,476.31397208144,-275.));
#236 = CARTESIAN_POINT('',(1.E+03,952.62794416288,549.99999999999));
#237 = CARTESIAN_POINT('',(1.E+03,0.,550.));
#238 = CARTESIAN_POINT('',(1.E+03,0.,0.));
#239 = CARTESIAN_POINT('',(1.E+03,0.,0.));
#240 = CARTESIAN_POINT('',(1.E+03,0.,0.));
#241 = CARTESIAN_POINT('',(1.E+03,0.,0.));
#242 = CARTESIAN_POINT('',(1.E+03,0.,0.));
#243 = CARTESIAN_POINT('',(1.E+03,0.,0.));
#244 = CARTESIAN_POINT('',(1.E+03,0.,0.));
#245 = DEFINITIONAL_REPRESENTATION('',(#246),#250);
#246 = LINE('',#247,#248);
#247 = CARTESIAN_POINT('',(0.,0.));
#248 = VECTOR('',#249,1.);
#249 = DIRECTION('',(0.,1.));
#250 = ( GEOMETRIC_REPRESENTATION_CONTEXT(2) 
PARAMETRIC_REPRESENTATION_CONTEXT() REPRESENTATION_CONTEXT('2D SPACE',''
  ) );
#251 = ORIENTED_EDGE('',*,*,#252,.T.);
#252 = EDGE_CURVE('',#204,#253,#255,.T.);
#253 = VERTEX_POINT('',#254);
#254 = CARTESIAN_POINT('',(1.E+03,0.,0.));
#255 = SEAM_CURVE('',#256,(#261,#268),.PCURVE_S1.);
#256 = B_SPLINE_CURVE_WITH_KNOTS('',3,(#257,#258,#259,#260),
  .UNSPECIFIED.,.F.,.F.,(4,4),(0.,1.),.PIECEWISE_BEZIER_KNOTS.);
#257 = CARTESIAN_POINT('',(2.E+03,0.,1000.));
#258 = CARTESIAN_POINT('',(1.523111133108E+03,0.,801.29630546165));
#259 = CARTESIAN_POINT('',(1.E+03,0.,550.));
#260 = CARTESIAN_POINT('',(1.E+03,0.,0.));
#261 = PCURVE('',#216,#262);
#262 = DEFINITIONAL_REPRESENTATION('',(#263),#267);
#263 = LINE('',#264,#265);
#264 = CARTESIAN_POINT('',(0.,0.));
#265 = VECTOR('',#266,1.);
#266 = DIRECTION('',(1.,0.));
#267 = ( GEOMETRIC_REPRESENTATION_CONTEXT(2) 
PARAMETRIC_REPRESENTATION_CONTEXT() REPRESENTATION_CONTEXT('2D SPACE',''
  ) );
#268 = PCURVE('',#216,#269);
#269 = DEFINITIONAL_REPRESENTATION('',(#270),#274);
#270 = LINE('',#271,#272);
#271 = CARTESIAN_POINT('',(0.,6.28318530718));
#272 = VECTOR('',#273,1.);
#273 = DIRECTION('',(1.,0.));
#274 = ( GEOMETRIC_REPRESENTATION_CONTEXT(2) 
PARAMETRIC_REPRESENTATION_CONTEXT() REPRESENTATION_CONTEXT('2D SPACE',''
  ) );
#275 = ORIENTED_EDGE('',*,*,#252,.F.);
#276 = ADVANCED_FACE('',(#277),#293,.T.);
#277 = FACE_BOUND('',#278,.T.);
#278 = EDGE_LOOP('',(#279,#321,#344,#362));
#279 = ORIENTED_EDGE('',*,*,#280,.F.);
#280 = EDGE_CURVE('',#281,#281,#283,.T.);
#281 = VERTEX_POINT('',#282);
#282 = CARTESIAN_POINT('',(7.E+03,0.,2.E+03));
#283 = SURFACE_CURVE('',#284,(#292),.PCURVE_S1.);
#284 = ( BOUNDED_CURVE() B_SPLINE_CURVE(2,(#285,#286,#287,#288,#289,#290
,#291),.UNSPECIFIED.,.T.,.F.) B_SPLINE_CURVE_WITH_KNOTS((1,2,2,2,2,1),(
    -2.094395102393,0.,2.094395102393,4.188790204786,6.28318530718,
8.377580409573),.UNSPECIFIED.) CURVE() GEOMETRIC_REPRESENTATION_ITEM() 
RATIONAL_B_SPLINE_CURVE((1.,0.5,1.,0.5,1.,0.5,1.)) REPRESENTATION_ITEM(
  '') );
#285 = CARTESIAN_POINT('',(7.E+03,0.,2.E+03));
#286 = CARTESIAN_POINT('',(7.E+03,-3.464101615138E+03,2.E+03));
#287 = CARTESIAN_POINT('',(7.E+03,-1.732050807569E+03,-999.9999999999));
#288 = CARTESIAN_POINT('',(7.E+03,-4.898587196589E-13,-4.E+03));
#289 = CARTESIAN_POINT('',(7.E+03,1.732050807569E+03,-1.E+03));
#290 = CARTESIAN_POINT('',(7.E+03,3.464101615138E+03,2.E+03));
#291 = CARTESIAN_POINT('',(7.E+03,0.,2.E+03));
#292 = PCURVE('',#293,#315);
#293 = ( BOUNDED_SURFACE() B_SPLINE_SURFACE(2,2,(
    (#294,#295,#296,#297,#298,#299,#300)
    ,(#301,#302,#303,#304,#305,#306,#307)
    ,(#308,#309,#310,#311,#312,#313,#314
)),.UNSPECIFIED.,.F.,.T.,.F.) B_SPLINE_SURFACE_WITH_KNOTS((3,3),(1,2,2,2
    ,2,1),(3.49805654528E-16,0.3947911197),(-2.094395102393,0.,
    2.094395102393,4.188790204786,6.28318530718,8.377580409573),
.UNSPECIFIED.) GEOMETRIC_REPRESENTATION_ITEM() RATIONAL_B_SPLINE_SURFACE
((
    (1.,0.5,1.,0.5,1.,0.5,1.)
    ,(0.980580675691,0.490290337845,0.980580675691,0.490290337845
      ,0.980580675691,0.490290337845,0.980580675691)
,(1.,0.5,1.,0.5,1.,0.5,1.))) REPRESENTATION_ITEM('') SURFACE() );
#294 = CARTESIAN_POINT('',(7.E+03,0.,2.E+03));
#295 = CARTESIAN_POINT('',(7.E+03,-3.464101615138E+03,2.E+03));
#296 = CARTESIAN_POINT('',(7.E+03,-1.732050807569E+03,-999.9999999999));
#297 = CARTESIAN_POINT('',(7.E+03,-4.898587196589E-13,-4.E+03));
#298 = CARTESIAN_POINT('',(7.E+03,1.732050807569E+03,-1.E+03));
#299 = CARTESIAN_POINT('',(7.E+03,3.464101615138E+03,2.E+03));
#300 = CARTESIAN_POINT('',(7.E+03,0.,2.E+03));
#301 = CARTESIAN_POINT('',(4.4E+03,0.,2.E+03));
#302 = CARTESIAN_POINT('',(4.4E+03,-3.464101615138E+03,2.E+03));
#303 = CARTESIAN_POINT('',(4.4E+03,-1.732050807569E+03,-999.9999999999)
  );
#304 = CARTESIAN_POINT('',(4.4E+03,-4.898587196589E-13,-4.E+03));
#305 = CARTESIAN_POINT('',(4.4E+03,1.732050807569E+03,-999.9999999999));
#306 = CARTESIAN_POINT('',(4.4E+03,3.464101615138E+03,2.E+03));
#307 = CARTESIAN_POINT('',(4.4E+03,0.,2.E+03));
#308 = CARTESIAN_POINT('',(2.E+03,0.,1.E+03));
#309 = CARTESIAN_POINT('',(2.E+03,-1.732050807569E+03,1.E+03));
#310 = CARTESIAN_POINT('',(2.E+03,-866.0254037844,-500.));
#311 = CARTESIAN_POINT('',(2.E+03,-2.449293598295E-13,-2.E+03));
#312 = CARTESIAN_POINT('',(2.E+03,866.02540378443,-500.));
#313 = CARTESIAN_POINT('',(2.E+03,1.732050807569E+03,999.99999999999));
#314 = CARTESIAN_POINT('',(2.E+03,0.,1.E+03));
#315 = DEFINITIONAL_REPRESENTATION('',(#316),#320);
#316 = LINE('',#317,#318);
#317 = CARTESIAN_POINT('',(3.49805654528E-16,0.));
#318 = VECTOR('',#319,1.);
#319 = DIRECTION('',(0.,1.));
#320 = ( GEOMETRIC_REPRESENTATION_CONTEXT(2) 
PARAMETRIC_REPRESENTATION_CONTEXT() REPRESENTATION_CONTEXT('2D SPACE',''
  ) );
#321 = ORIENTED_EDGE('',*,*,#322,.T.);
#322 = EDGE_CURVE('',#281,#323,#325,.T.);
#323 = VERTEX_POINT('',#324);
#324 = CARTESIAN_POINT('',(2.E+03,0.,1.E+03));
#325 = SEAM_CURVE('',#326,(#330,#337),.PCURVE_S1.);
#326 = ( BOUNDED_CURVE() B_SPLINE_CURVE(2,(#327,#328,#329),
.UNSPECIFIED.,.F.,.F.) B_SPLINE_CURVE_WITH_KNOTS((3,3),(
3.49805654528E-16,0.3947911197),.PIECEWISE_BEZIER_KNOTS.) CURVE() 
GEOMETRIC_REPRESENTATION_ITEM() RATIONAL_B_SPLINE_CURVE((1.,
0.980580675691,1.)) REPRESENTATION_ITEM('') );
#327 = CARTESIAN_POINT('',(7.E+03,0.,2.E+03));
#328 = CARTESIAN_POINT('',(4.4E+03,0.,2.E+03));
#329 = CARTESIAN_POINT('',(2.E+03,0.,1.E+03));
#330 = PCURVE('',#293,#331);
#331 = DEFINITIONAL_REPRESENTATION('',(#332),#336);
#332 = LINE('',#333,#334);
#333 = CARTESIAN_POINT('',(0.,0.));
#334 = VECTOR('',#335,1.);
#335 = DIRECTION('',(1.,0.));
#336 = ( GEOMETRIC_REPRESENTATION_CONTEXT(2) 
PARAMETRIC_REPRESENTATION_CONTEXT() REPRESENTATION_CONTEXT('2D SPACE',''
  ) );
#337 = PCURVE('',#293,#338);
#338 = DEFINITIONAL_REPRESENTATION('',(#339),#343);
#339 = LINE('',#340,#341);
#340 = CARTESIAN_POINT('',(0.,6.28318530718));
#341 = VECTOR('',#342,1.);
#342 = DIRECTION('',(1.,0.));
#343 = ( GEOMETRIC_REPRESENTATION_CONTEXT(2) 
PARAMETRIC_REPRESENTATION_CONTEXT() REPRESENTATION_CONTEXT('2D SPACE',''
  ) );
#344 = ORIENTED_EDGE('',*,*,#345,.T.);
#345 = EDGE_CURVE('',#323,#323,#346,.T.);
#346 = SURFACE_CURVE('',#347,(#355),.PCURVE_S1.);
#347 = ( BOUNDED_CURVE() B_SPLINE_CURVE(2,(#348,#349,#350,#351,#352,#353
,#354),.UNSPECIFIED.,.T.,.F.) B_SPLINE_CURVE_WITH_KNOTS((1,2,2,2,2,1),(
    -2.094395102393,0.,2.094395102393,4.188790204786,6.28318530718,
8.377580409573),.UNSPECIFIED.) CURVE() GEOMETRIC_REPRESENTATION_ITEM() 
RATIONAL_B_SPLINE_CURVE((1.,0.5,1.,0.5,1.,0.5,1.)) REPRESENTATION_ITEM(
  '') );
#348 = CARTESIAN_POINT('',(2.E+03,0.,1.E+03));
#349 = CARTESIAN_POINT('',(2.E+03,-1.732050807569E+03,1.E+03));
#350 = CARTESIAN_POINT('',(2.E+03,-866.0254037844,-500.));
#351 = CARTESIAN_POINT('',(2.E+03,-2.449293598295E-13,-2.E+03));
#352 = CARTESIAN_POINT('',(2.E+03,866.02540378443,-500.));
#353 = CARTESIAN_POINT('',(2.E+03,1.732050807569E+03,999.99999999999));
#354 = CARTESIAN_POINT('',(2.E+03,0.,1.E+03));
#355 = PCURVE('',#293,#356);
#356 = DEFINITIONAL_REPRESENTATION('',(#357),#361);
#357 = LINE('',#358,#359);
#358 = CARTESIAN_POINT('',(0.3947911197,0.));
#359 = VECTOR('',#360,1.);
#360 = DIRECTION('',(0.,1.));
#361 = ( GEOMETRIC_REPRESENTATION_CONTEXT(2) 
PARAMETRIC_REPRESENTATION_CONTEXT() REPRESENTATION_CONTEXT('2D SPACE',''
  ) );
#362 = ORIENTED_EDGE('',*,*,#322,.F.);
#363 = ADVANCED_FACE('',(#364),#377,.T.);
#364 = FACE_BOUND('',#365,.T.);
#365 = EDGE_LOOP('',(#366,#405,#423));
#366 = ORIENTED_EDGE('',*,*,#367,.F.);
#367 = EDGE_CURVE('',#368,#370,#372,.T.);
#368 = VERTEX_POINT('',#369);
#369 = CARTESIAN_POINT('',(3.75E+04,0.,1.337E+03));
#370 = VERTEX_POINT('',#371);
#371 = CARTESIAN_POINT('',(3.75E+04,0.,975.66666666666));
#372 = SEAM_CURVE('',#373,(#376,#398),.PCURVE_S1.);
#373 = B_SPLINE_CURVE_WITH_KNOTS('',1,(#374,#375),.UNSPECIFIED.,.F.,.F.,
  (2,2),(0.,1.),.PIECEWISE_BEZIER_KNOTS.);
#374 = CARTESIAN_POINT('',(3.75E+04,0.,1.337E+03));
#375 = CARTESIAN_POINT('',(3.75E+04,0.,975.66666666666));
#376 = PCURVE('',#377,#392);
#377 = ( BOUNDED_SURFACE() B_SPLINE_SURFACE(2,1,(
    (#378,#379)
    ,(#380,#381)
    ,(#382,#383)
    ,(#384,#385)
    ,(#386,#387)
    ,(#388,#389)
,(#390,#391
    )),.UNSPECIFIED.,.T.,.F.,.F.) B_SPLINE_SURFACE_WITH_KNOTS((1,2,2,2,2
    ,1),(2,2),(-1.,0.,1.,2.,3.,4.),(0.,1.),.UNSPECIFIED.) 
GEOMETRIC_REPRESENTATION_ITEM() RATIONAL_B_SPLINE_SURFACE((
    (1.,1.)
    ,(0.5,0.5)
    ,(1.,1.)
    ,(0.5,0.5)
    ,(1.,1.)
    ,(0.5,0.5)
,(1.,1.))) REPRESENTATION_ITEM('') SURFACE() );
#378 = CARTESIAN_POINT('',(3.75E+04,0.,1.337E+03));
#379 = CARTESIAN_POINT('',(3.75E+04,0.,975.66666666666));
#380 = CARTESIAN_POINT('',(3.75E+04,-631.,1.337E+03));
#381 = CARTESIAN_POINT('',(3.75E+04,0.,975.66666666666));
#382 = CARTESIAN_POINT('',(3.75E+04,-316.,795.));
#383 = CARTESIAN_POINT('',(3.75E+04,0.,975.66666666666));
#384 = CARTESIAN_POINT('',(3.75E+04,0.,254.));
#385 = CARTESIAN_POINT('',(3.75E+04,0.,975.66666666666));
#386 = CARTESIAN_POINT('',(3.75E+04,316.,795.));
#387 = CARTESIAN_POINT('',(3.75E+04,0.,975.66666666666));
#388 = CARTESIAN_POINT('',(3.75E+04,631.,1.337E+03));
#389 = CARTESIAN_POINT('',(3.75E+04,0.,975.66666666666));
#390 = CARTESIAN_POINT('',(3.75E+04,0.,1.337E+03));
#391 = CARTESIAN_POINT('',(3.75E+04,0.,975.66666666666));
#392 = DEFINITIONAL_REPRESENTATION('',(#393),#397);
#393 = LINE('',#394,#395);
#394 = CARTESIAN_POINT('',(0.,0.));
#395 = VECTOR('',#396,1.);
#396 = DIRECTION('',(0.,1.));
#397 = ( GEOMETRIC_REPRESENTATION_CONTEXT(2) 
PARAMETRIC_REPRESENTATION_CONTEXT() REPRESENTATION_CONTEXT('2D SPACE',''
  ) );
#398 = PCURVE('',#377,#399);
#399 = DEFINITIONAL_REPRESENTATION('',(#400),#404);
#400 = LINE('',#401,#402);
#401 = CARTESIAN_POINT('',(3.,0.));
#402 = VECTOR('',#403,1.);
#403 = DIRECTION('',(0.,1.));
#404 = ( GEOMETRIC_REPRESENTATION_CONTEXT(2) 
PARAMETRIC_REPRESENTATION_CONTEXT() REPRESENTATION_CONTEXT('2D SPACE',''
  ) );
#405 = ORIENTED_EDGE('',*,*,#406,.T.);
#406 = EDGE_CURVE('',#368,#368,#407,.T.);
#407 = SURFACE_CURVE('',#408,(#416),.PCURVE_S1.);
#408 = ( BOUNDED_CURVE() B_SPLINE_CURVE(2,(#409,#410,#411,#412,#413,#414
,#415),.UNSPECIFIED.,.T.,.F.) B_SPLINE_CURVE_WITH_KNOTS((1,2,2,2,2,1),(
-1.,0.,1.,2.,3.,4.),.UNSPECIFIED.) CURVE() GEOMETRIC_REPRESENTATION_ITEM
() RATIONAL_B_SPLINE_CURVE((1.,0.5,1.,0.5,1.,0.5,1.)) 
REPRESENTATION_ITEM('') );
#409 = CARTESIAN_POINT('',(3.75E+04,0.,1.337E+03));
#410 = CARTESIAN_POINT('',(3.75E+04,-631.,1.337E+03));
#411 = CARTESIAN_POINT('',(3.75E+04,-316.,795.));
#412 = CARTESIAN_POINT('',(3.75E+04,0.,254.));
#413 = CARTESIAN_POINT('',(3.75E+04,316.,795.));
#414 = CARTESIAN_POINT('',(3.75E+04,631.,1.337E+03));
#415 = CARTESIAN_POINT('',(3.75E+04,0.,1.337E+03));
#416 = PCURVE('',#377,#417);
#417 = DEFINITIONAL_REPRESENTATION('',(#418),#422);
#418 = LINE('',#419,#420);
#419 = CARTESIAN_POINT('',(0.,0.));
#420 = VECTOR('',#421,1.);
#421 = DIRECTION('',(1.,0.));
#422 = ( GEOMETRIC_REPRESENTATION_CONTEXT(2) 
PARAMETRIC_REPRESENTATION_CONTEXT() REPRESENTATION_CONTEXT('2D SPACE',''
  ) );
#423 = ORIENTED_EDGE('',*,*,#367,.T.);
#424 = ( GEOMETRIC_REPRESENTATION_CONTEXT(3) 
GLOBAL_UNCERTAINTY_ASSIGNED_CONTEXT((#428)) GLOBAL_UNIT_ASSIGNED_CONTEXT
((#425,#426,#427)) REPRESENTATION_CONTEXT('Context #1',
  '3D Context with UNIT and UNCERTAINTY') );
#425 = ( LENGTH_UNIT() NAMED_UNIT(*) SI_UNIT(.MILLI.,.METRE.) );
#426 = ( NAMED_UNIT(*) PLANE_ANGLE_UNIT() SI_UNIT($,.RADIAN.) );
#427 = ( NAMED_UNIT(*) SI_UNIT($,.STERADIAN.) SOLID_ANGLE_UNIT() );
#428 = UNCERTAINTY_MEASURE_WITH_UNIT(LENGTH_MEASURE(1.E-07),#425,
  'distance_accuracy_value','confusion accuracy');
#429 = PRODUCT_RELATED_PRODUCT_CATEGORY('part',$,(#7));
ENDSEC;
END-ISO-10303-21;
