DBRep_DrawableShape

CASCADE Topology V3, (c) Open Cascade
Locations 41
1
              1               0               0               0 
              0               1               0               0 
              0               0               1            -0.5 
1
              1               0               0            -0.5 
              0               1               0            -0.5 
              0               0               1               0 
1
              1               0               0               0 
              0               1               0               0 
              0               0               1               1 
2  3 -1 0
1
1.11022302462516e-16              -1               0               0 
              1 1.11022302462516e-16               0               0 
              0               0               1               0 
2  5 -1 0
1
              1               0               0               0 
              0               1               0               0 
              0               0               1               1 
2  7 -1 5 -1 0
1
1.11022302462516e-16              -1               0               0 
              1 1.11022302462516e-16               0               0 
              0               0               1               0 
2  9 -1 5 -1 0
1
              1               0               0               0 
              0               1               0               0 
              0               0               1               1 
2  11 -1 9 -1 5 -1 0
1
1.11022302462516e-16              -1               0               0 
              1 1.11022302462516e-16               0               0 
              0               0               1               0 
2  13 -1 9 -1 5 -1 0
1
              1               0               0               0 
              0               1               0               0 
              0               0               1               1 
2  15 -1 13 -1 9 -1 5 -1 0
2  5 1 7 1 0
2  5 1 9 1 0
2  5 1 9 1 11 1 0
2  5 1 9 1 13 1 0
2  5 1 9 1 13 1 15 1 0
1
              1               0               0               0 
              0               1               0               0 
              0               0               1             0.5 
1
              1               0               0            -0.5 
              0               1               0            -0.5 
              0               0               1               0 
1
1.11022302462516e-16               0              -1               0 
              0               1               0               0 
              1               0 1.11022302462516e-16               0 
2  24 1 23 -1 0
2  23 -1 0
1
1.11022302462516e-16              -1               0               0 
              1 1.11022302462516e-16               0               0 
              0               0               1               0 
1
1.11022302462516e-16              -1               0               0 
              1 1.11022302462516e-16               0               0 
              0               0               1               0 
2  27 1 28 1 0
1
1.11022302462516e-16              -1               0               0 
              1 1.11022302462516e-16               0               0 
              0               0               1               0 
2  27 1 28 1 30 1 0
2  23 1 24 -1 0
2  22 -1 23 -1 0
2  22 -1 0
2  22 -1 27 -1 0
2  22 -1 27 -1 23 -1 0
2  22 -1 28 -1 27 -1 0
2  22 -1 28 -1 27 -1 23 -1 0
2  22 -1 30 -1 28 -1 27 -1 0
2  22 -1 30 -1 28 -1 27 -1 23 -1 0
2  22 -1 24 -1 0
Curve2ds 108
1 0 0 1 0 
1 0 0 1 0 
1 1 0 0 -1 
1 0 0 0 1 
1 0 -1 1 0 
1 0 0 1 0 
1 0 0 0 -1 
1 0 0 0 1 
1 0 0 1 0 
1 0 1 1 0 
1 1 0 0 -1 
1 1 0 0 1 
1 0 -1 1 0 
1 0 1 1 0 
1 0 0 0 -1 
1 1 0 0 1 
1 0 0 0 1 
1 0 0 1 0 
1 1 0 0 1 
1 0 0 1 0 
1 0 0 0 1 
1 0 1 1 0 
1 1 0 0 1 
1 0 1 1 0 
1 0 0 0 -1 
1 1.5707963267948966 0 0 -1 
1 0 0 1 0 
1 0 -1 1 0 
1 0 0 1 0 
1 0 -1 1 0 
1 0 0 1 0 
1 0 -1 1 0 
1 0 0 1 0 
1 0 -1 1 0 
1 0 0 0 -1 
1 1.5707963267948966 0 0 -1 
1 0 0 0 -1 
1 1.5707963267948966 0 0 -1 
1 0 0 0 -1 
1 1.5707963267948966 0 0 -1 
1 0 0 1 0 
1 0 0 1 0 
1 0.5 0 0 -1 
1 0 0 0 1 
1 0.70710678118654746 -0.5 0 1 
1 0 -1 1 0 
1 0 0 1 0 
1 0 0 0 -1 
1 0 0 0 1 
1 0 0 1 0 
1 0 1 1 0 
1 0.70710678118654757 0 0 1 
1 0.5 0 0 -1 
1 1 0 0 1 
1 0.70710678118654757 -0.5 0 1 
1 0.70710678118654757 -0.5 0 1 
1 0 -1 1 0 
1 0 1 1 0 
1 0.70710678118654757 0 0 1 
1 0 0 0 -1 
1 1 0 0 1 
1 0.50000000000000011 -0.5 0 1 
1 0 0 0 1 
1 0 0 1 0 
1 0.5 0 0 1 
1 0 0 1 0 
1 0.70710678118654746 0.5 7.8504622934188758e-17 -1 
1 0 0 0 1 
1 0 1 1 0 
1 0.5 0 0 1 
1 0 1 1 0 
1 0.70710678118654757 0.5 7.8504622934188771e-17 -1 
1 1.5707963267948966 -6.2831853071795862 0 1 
2 0 0 1 0 -0 1 1
7 0 0  8 9 2  0.7853981633974223 0.78539816339744817  0.67659569447653178 0.78539816339744672  0.56779400291583215 0.77863348028802193  0.46094888008406087 0.76510533808504988  0.35805114777713243 0.74514949753529436  0.26039835567098635 0.71946902056242834  0.16827634946594117 0.68882727812513167  0.081601851690631347 0.65394719046227223  -3.4638958368304884e-14 0.61547970867037072 
 6.2831853071796049 9 6.8986650158500069 9
1 0.78539816339744828 -6.2831853071795862 0 1 
2 0 0 1 0 -0 1 1
1 -5.497787143782138 0 1 0 
1 0 -6.2831853071795862 0 1 
7 0 0  8 9 2  0.7853981633974223 -0.78539816339744828  0.67659569447653167 -0.78539816339744684  0.56779400291623006 -0.77863348028779455  0.46094888008246926 -0.76510533808686887  0.35805114777963354 -0.74514949753165638  0.26039835566984948 -0.71946902056606632  0.1682763494661117 -0.68882727812524536  0.081601851690630514 -0.65394719046227179  -3.5527136788005009e-14 -0.61547970867037027 
 6.2831853071796049 9 6.8986650158500078 9
1 0 -6.2831853071795862 0 1 
7 0 0  8 16 3  2.8486552067945627e-14 0.6154797086704008  0.081601851690692354 0.65394719046229721  0.16827634946594117 0.68882727812388111  0.26039835567030423 0.71946902056743056  0.3580511477773598 0.74514949752710891  0.4609488800838335 0.76510533808823311  0.56779400291605953 0.77863348028711243  0.67659569447656487 0.78539816339744828  0.89420063231833102 0.78539816339744828  1.0030023238770127 0.77863348028699875  1.1098474467139567 0.7651053380900521  1.2127451790101986 0.74514949753120163  1.3103979711240754 0.71946902056561157  1.4025199773273016 0.68882727812433586  1.4891944751042039 0.65394719046229732  1.5707963267948677 0.61547970867040092 
 5.667705598509226 9 6.2831853071795862 7 6.8986650158499465 9
8 -1 1.8369701987210297e-16
1 0 0 -1 0 
8 -1 1.8369701987210297e-16
1 0 0 -0.70710678118654779 -0.70710678118654746 
8 -1.2247448713915889 2.249819829782769e-16
1 0 0 -0.81649658092772603 -0.57735026918962584 
8 -1.2247448713915889 2.249819829782769e-16
1 0 0 -0.81649658092772615 -0.57735026918962573 
8 -1 1.8369701987210297e-16
1 0 0 -1 0 
8 -1 1.8369701987210297e-16
1 0 0 -0.70710678118654757 0.70710678118654746 
8 -1.2247448713915889 2.249819829782769e-16
1 0 0 -0.81649658092772603 -0.57735026918962573 
8 -1.2247448713915889 2.249819829782769e-16
1 0 0 -0.81649658092772603 0.57735026918962573 
1 1.5707963267948966 -6.2831853071795862 0 1 
2 0 0 1 0 -0 1 1
7 0 0  8 16 3  1.5707963267949321 0.6154797086703705  1.4891944751042636 0.65394719046227312  1.4025199773292343 0.68882727812547273  1.3103979711218017 0.71946902056333784  1.2127451790229316 0.74514949753393012  1.109847446708045 0.76510533808550463  1.0030023238784906 0.77863348028847668  0.89420063231834246 0.78539816339744817  0.67659569447655499 0.78539816339744817  0.56779400291642901 0.77863348028711243  0.46094888008133239 0.76510533808777836  0.35805114778054303 0.74514949753347537  0.26039835566916736 0.71946902056606632  0.16827634946633907 0.68882727812422218  0.081601851690633817 0.65394719046227334  -3.4638958368304884e-14 0.61547970867037072 
 5.6677055985091656 9 6.2831853071795862 7 6.8986650158500069 9
1 1.5707963267948966 -6.2831853071795862 0 1 
2 0 0 1 0 -0 1 1
7 0 0  8 16 3  2.7602721096863769e-14 -0.61547970867040014  0.081601851690691549 -0.65394719046229666  0.16827634946656644 -0.68882727812331268  0.26039835566780312 -0.7194690205697043  0.3580511477816799 -0.74514949752301618  0.46094888008065027 -0.76510533809050685  0.56779400291657112 -0.778633480286544  0.67659569447656476 -0.78539816339744817  0.89420063231833102 -0.78539816339744817  1.0030023238770127 -0.77863348028745349  1.1098474467194137 -0.76510533808823311  1.2127451790029227 -0.74514949753483961  1.3103979711331704 -0.71946902056470208  1.4025199773268469 -0.68882727812479061  1.4891944751042034 -0.65394719046229732  1.5707963267948675 -0.61547970867040092 
 5.6677055985092251 9 6.2831853071795862 7 6.8986650158499465 9
1 0 -6.2831853071795862 0 1 
7 0 0  8 16 3  1.5707963267949321 -0.6154797086703705  1.4891944751042636 -0.65394719046227312  1.4025199773283248 -0.68882727812456324  1.3103979711218017 -0.71946902056470208  1.2127451790156556 -0.74514949753302062  1.109847446711683 -0.76510533808550463  1.0030023238784906 -0.77863348028768087  0.89420063231834246 -0.78539816339744828  0.67659569447655477 -0.78539816339744828  0.56779400291625848 -0.77863348028836299  0.46094888008167345 -0.76510533808459513  0.35805114777895142 -0.74514949753574911  0.26039835566780312 -0.71946902056288309  0.16827634946639591 -0.68882727812558642  0.081601851690632984 -0.65394719046227301  -3.5527136788005009e-14 -0.61547970867037027 
 5.6677055985091656 9 6.2831853071795862 7 6.8986650158500078 9
1 0 -6.2831853071795862 0 1 
7 0 0  8 16 3  2.8486552067945627e-14 0.6154797086704008  0.081601851690692354 0.65394719046229721  0.16827634946594117 0.68882727812388111  0.26039835567030423 0.71946902056743056  0.3580511477773598 0.74514949752710891  0.4609488800838335 0.76510533808823311  0.56779400291605953 0.77863348028711243  0.67659569447656487 0.78539816339744828  0.89420063231833102 0.78539816339744828  1.0030023238770127 0.77863348028699875  1.1098474467139567 0.7651053380900521  1.2127451790101986 0.74514949753120163  1.3103979711240754 0.71946902056561157  1.4025199773273016 0.68882727812433586  1.4891944751042039 0.65394719046229732  1.5707963267948677 0.61547970867040092 
 5.667705598509226 9 6.2831853071795862 7 6.8986650158499465 9
8 -1.2247448713915889 2.249819829782769e-16
1 0 0 -0.81649658092772615 0.57735026918962573 
8 -1.2247448713915889 2.249819829782769e-16
1 0 0 -0.81649658092772615 -0.57735026918962573 
8 -1.2247448713915889 2.249819829782769e-16
1 0 0 -0.81649658092772603 -0.57735026918962584 
8 -1.2247448713915889 2.249819829782769e-16
1 0 0 -0.81649658092772615 -0.57735026918962573 
8 -1.2247448713915889 2.249819829782769e-16
1 0 0 -0.81649658092772615 0.57735026918962573 
8 -1.2247448713915889 2.249819829782769e-16
1 0 0 -0.81649658092772603 0.57735026918962584 
8 -1.2247448713915889 2.249819829782769e-16
1 0 0 -0.81649658092772603 -0.57735026918962573 
8 -1.2247448713915889 2.249819829782769e-16
1 0 0 -0.81649658092772603 0.57735026918962573 
Curves 124
1 0 0 0 0 0 1 
1 0 0 1 -0 1 0 
1 0 1 0 0 0 1 
1 0 0 0 -0 1 0 
1 1 0 0 0 0 1 
1 1 0 1 -0 1 0 
1 1 1 0 0 0 1 
1 1 0 0 -0 1 0 
1 0 0 0 1 0 -0 
1 0 0 1 1 0 -0 
1 0 1 0 1 0 -0 
1 0 1 1 1 0 -0 
1 -0.70710678118654746 0.70710678118654746 0 0 0 1 
1 -0.5 0.5 0 0 0 1 
1 -0.70710678118654746 0.70710678118654746 0 0.70710678118654757 -0.70710678118654757 0 
1 0.5 0.5 0 0 0 1 
1 -0.5 0.5 0 1 0 0 
1 0.70710678118654746 0.70710678118654746 0 0 0 1 
1 0.5 0.5 0 0.70710678118654757 0.70710678118654757 0 
2 0 0 0 0 0 -1 -0.70710678118654757 0.70710678118654757 0 0.70710678118654757 0.70710678118654757 0 1
1 -0.70710678118654757 -0.70710678118654735 0 0 0 1 
1 -0.5 -0.49999999999999994 0 0 0 1 
1 -0.49999999999999994 0.5 0 0 0 1 
1 -0.70710678118654735 0.70710678118654757 0 0 0 1 
1 0.70710678118654735 -0.70710678118654757 0 0 0 1 
1 0.49999999999999989 -0.50000000000000011 0 0 0 1 
1 -0.50000000000000011 -0.49999999999999989 0 0 0 1 
1 -0.70710678118654757 -0.70710678118654735 0 0 0 1 
1 0.70710678118654768 0.70710678118654724 0 0 0 1 
1 0.50000000000000022 0.49999999999999983 0 0 0 1 
1 0.49999999999999983 -0.50000000000000022 0 0 0 1 
1 0.70710678118654724 -0.70710678118654768 0 0 0 1 
1 0 0 0 0 0 1 
1 0 0 0.5 -0 1 0 
1 0 1 0 0 0 1 
1 0 0 0 -0 1 0 
1 1 0 0 0 0 1 
1 1 0 0.5 -0 1 0 
1 1 1 0 0 0 1 
1 1 0 0 -0 1 0 
1 0 0 0 1 0 -0 
1 0 0 0.5 1 0 -0 
1 0 1 0 1 0 -0 
1 0 1 0.5 1 0 -0 
2 0 0 0 0.70710678118654746 -0.70710678118654768 0 0.70710678118654768 0.70710678118654746 0 0 0 1 1
2 0 0 0 0 0 1 1 0 0 0 1 0 1
2 0 0 0 -0.70710678118654757 -0.70710678118654757 0 0.70710678118654757 -0.70710678118654757 0 0 0 1 1
2 0 0 0 -0.70710678118654757 0 0.70710678118654757 0.70710678118654757 0 0.70710678118654757 0 1 0 1
1 0 0 0 -0.70710678118654768 -0.70710678118654746 0 
1 0 0 0 -0.57735026918962573 -0.57735026918962562 -0.57735026918962573 
1 0 0 0 -0.70710678118654757 0.70710678118654757 0 
1 0 0 0 -0.57735026918962573 0.57735026918962573 -0.57735026918962573 
2 0 0 0 0.70710678118654746 -0.70710678118654768 0 0.70710678118654768 0.70710678118654746 0 0 0 1 1
2 0 0 0 0.70710678118654746 -0 0.70710678118654768 0.70710678118654768 0 -0.70710678118654746 0 1 0 1
2 0 0 0 -0.70710678118654757 -0.70710678118654757 0 0.70710678118654757 -0.70710678118654757 0 0 0 1 1
2 0 0 0 -0.70710678118654757 0 0.70710678118654757 0.70710678118654757 0 0.70710678118654757 0 1 0 1
1 0 0 0 -0.57735026918962584 -0.57735026918962573 0.57735026918962573 
1 0 0 0 -0.57735026918962573 -0.57735026918962562 -0.57735026918962573 
1 0 0 0 -0.57735026918962573 0.57735026918962573 0.57735026918962562 
1 0 0 0 -0.57735026918962573 0.57735026918962573 -0.57735026918962573 
1 1 1 -1 -0 -0 -1 
1 1 1 -1.5 0 -1 -0 
1 1 0 -1 -0 -0 -1 
1 1 1 -1 0 -1 -0 
1 0 1 -1 -0 -0 -1 
1 0 1 -1.5 0 -1 -0 
1 0 0 -1 -0 -0 -1 
1 0 1 -1 0 -1 -0 
1 1 1 -1 -1 -0 0 
1 1 1 -1.5 -1 -0 0 
1 1 0 -1 -1 -0 0 
1 1 0 -1.5 -1 -0 0 
2 0 0 -1 0.70710678118654746 -0.70710678118654768 0 -0.70710678118654768 -0.70710678118654746 -0 -0 -0 -1 1
2 0 0 -1 0 0 1 -1 -0 -0 -0 -1 -0 1
2 0 0 -1 -0.70710678118654757 -0.70710678118654757 0 -0.70710678118654757 0.70710678118654757 -0 -0 -0 -1 1
2 0 0 -1 -0.70710678118654757 0 0.70710678118654757 -0.70710678118654757 -0 -0.70710678118654757 -0 -1 -0 1
1 0 0 -1 0.70710678118654768 0.70710678118654746 -0 
1 0 0 -1 0.57735026918962573 0.57735026918962562 0.57735026918962573 
1 0 0 -1 0.70710678118654757 -0.70710678118654757 -0 
1 0 0 -1 0.57735026918962573 -0.57735026918962573 0.57735026918962573 
2 0 0 -1 0.70710678118654746 -0.70710678118654768 0 -0.70710678118654768 -0.70710678118654746 -0 -0 -0 -1 1
2 0 0 -1 0 0 1 -1 -0 -0 -0 -1 -0 1
2 0 0 -1 -0.70710678118654757 -0.70710678118654757 0 -0.70710678118654757 0.70710678118654757 -0 -0 -0 -1 1
2 0 0 -1 -0.70710678118654757 0 0.70710678118654757 -0.70710678118654757 -0 -0.70710678118654757 -0 -1 -0 1
1 0 0 -1 0.70710678118654768 0.70710678118654746 -0 
1 -1.1102230246251565e-16 0 -1 -0 -0 -1 
1 0 0 -1 0.57735026918962584 0.57735026918962573 0.57735026918962584 
1 0 0 -1 0.70710678118654757 -0.70710678118654757 -0 
1 -1.1102230246251565e-16 1 -1 -0 -1 -0 
1 -1.1102230246251565e-16 1 -1 -0 -0 -1 
1 0 0 -1 0.57735026918962573 -0.57735026918962573 0.57735026918962573 
1 -1.1102230246251565e-16 1 -1.5 -0 -1 -0 
2 0 0 -1 0.70710678118654746 -0.70710678118654768 0 -0.70710678118654768 -0.70710678118654746 -0 -0 -0 -1 1
2 0 0 -1 0 0 1 -1 -0 -0 -0 -1 -0 1
2 0 0 -1 -0.70710678118654757 -0.70710678118654757 0 -0.70710678118654757 0.70710678118654757 -0 -0 -0 -1 1
2 0 0 -1 -0.70710678118654757 0 0.70710678118654757 -0.70710678118654757 -0 -0.70710678118654757 -0 -1 -0 1
1 0 0 -1 0.70710678118654768 0.70710678118654746 -0 
1 0 0 -1 -0 -0 -1 
1 0 0 -1 0.57735026918962584 0.57735026918962573 0.57735026918962584 
1 0 0 -1 0.70710678118654757 -0.70710678118654757 -0 
1 0 1 -1 -0 -1 -0 
1 0 1 -1 -0 -0 -1 
1 0 0 -1 0.57735026918962573 -0.57735026918962573 0.57735026918962573 
1 0 1 -1.5 -0 -1 -0 
2 0 0 -1 0.70710678118654746 -0.70710678118654768 0 -0.70710678118654768 -0.70710678118654746 -0 -0 -0 -1 1
2 0 0 -1 0 0 1 -1 -0 -0 -0 -1 -0 1
2 0 0 -1 -0.70710678118654757 -0.70710678118654757 0 -0.70710678118654757 0.70710678118654757 -0 -0 -0 -1 1
2 0 0 -1 -0.70710678118654757 0 0.70710678118654757 -0.70710678118654757 -0 -0.70710678118654757 -0 -1 -0 1
1 0 0 -1 0.70710678118654768 0.70710678118654746 -0 
1 2.2204460492503131e-16 0 -1 -0 -0 -1 
1 0 0 -1 0.57735026918962584 0.57735026918962573 0.57735026918962584 
1 0 0 -1 0.70710678118654757 -0.70710678118654757 -0 
1 2.2204460492503131e-16 1 -1 -0 -1 -0 
1 2.2204460492503131e-16 1 -1 -0 -0 -1 
1 0 0 -1 0.57735026918962573 -0.57735026918962573 0.57735026918962573 
1 2.2204460492503131e-16 1 -1.5 -0 -1 -0 
2 -1 0 -1.1102230246251565e-16 0.70710678118654746 -0.70710678118654768 0 -0.70710678118654768 -0.70710678118654746 -0 -0 -0 -1 1
2 -1 0 -1.1102230246251565e-16 0.70710678118654746 -0 0.70710678118654768 -0.70710678118654768 -0 0.70710678118654746 -0 -1 -0 1
2 -1 0 -1.1102230246251565e-16 -0.70710678118654757 -0.70710678118654757 0 -0.70710678118654757 0.70710678118654757 -0 -0 -0 -1 1
2 -1 0 -1.1102230246251565e-16 -0.70710678118654757 0 0.70710678118654757 -0.70710678118654757 -0 -0.70710678118654757 -0 -1 -0 1
1 -1 0 -1.1102230246251565e-16 0.57735026918962584 0.57735026918962573 -0.57735026918962573 
1 -1 0 -1.1102230246251565e-16 0.57735026918962584 0.57735026918962573 0.57735026918962584 
1 -1 0 -1.1102230246251565e-16 0.57735026918962584 -0.57735026918962584 -0.57735026918962573 
1 -1 0 -1.1102230246251565e-16 0.57735026918962573 -0.57735026918962573 0.57735026918962573 
Polygon3D 0
PolygonOnTriangulations 0
Surfaces 75
1 0 0 0 1 0 -0 0 0 1 0 -1 0 
1 0 0 0 -0 1 0 0 0 1 1 0 -0 
1 0 0 1 0 0 1 1 0 -0 -0 1 0 
1 0 1 0 -0 1 0 0 0 1 1 0 -0 
1 0 0 0 0 0 1 1 0 -0 -0 1 0 
1 1 0 0 1 0 -0 0 0 1 0 -1 0 
1 -0.70710678118654746 0.70710678118654746 0 0.70710678118654757 0.70710678118654757 -0 0.70710678118654757 -0.70710678118654757 0 0 -0 -1 
2 0 0 0 0 0 -1 -0.70710678118654757 0.70710678118654757 0 0.70710678118654757 0.70710678118654757 0 1
1 -0.5 0.5 0 0 1 0 1 0 0 0 0 -1 
1 0.5 0.5 0 -0.70710678118654757 0.70710678118654757 0 0.70710678118654757 0.70710678118654757 0 0 0 -1 
2 0 0 0 -0 0 -1 -0.70710678118654768 -0.70710678118654746 0 -0.70710678118654746 0.70710678118654768 0 1
2 0 0 0 0 -0 -1 0.70710678118654746 -0.70710678118654768 0 -0.70710678118654768 -0.70710678118654746 0 1
2 0 0 0 0 0 -1 0.70710678118654779 0.70710678118654735 0 0.70710678118654735 -0.70710678118654779 0 1
1 0 0.70716484325798856 0 0 0 1 1 0 -0 -0 1 0 
1 -0.70710678118654757 -0.70710678118654735 0 -0.70710678118654746 0.70710678118654768 0 0.70710678118654768 0.70710678118654746 0 0 0 -1 
1 -0.5 -0.49999999999999994 0 -1 1.1102230246251565e-16 0 1.1102230246251565e-16 1 0 0 0 -1 
1 -0.49999999999999994 0.5 0 -0.70710678118654768 -0.70710678118654746 0 -0.70710678118654746 0.70710678118654768 0 -0 0 -1 
1 0.70710678118654735 -0.70710678118654757 0 -0.70710678118654768 -0.70710678118654746 0 -0.70710678118654746 0.70710678118654768 0 -0 0 -1 
1 0.49999999999999989 -0.50000000000000011 0 -2.2204460492503131e-16 -1 0 -1 2.2204460492503131e-16 0 -0 0 -1 
1 -0.50000000000000011 -0.49999999999999989 0 0.70710678118654746 -0.70710678118654768 0 -0.70710678118654768 -0.70710678118654746 0 0 -0 -1 
1 0.70710678118654768 0.70710678118654724 0 0.70710678118654735 -0.70710678118654779 0 -0.70710678118654779 -0.70710678118654735 0 0 -0 -1 
1 0.50000000000000022 0.49999999999999983 0 1 -3.3306690738754696e-16 0 -3.3306690738754696e-16 -1 0 0 -0 -1 
1 0.49999999999999983 -0.50000000000000022 0 0.70710678118654779 0.70710678118654735 -0 0.70710678118654735 -0.70710678118654779 0 0 -0 -1 
1 0 0 0 1 0 -0 0 0 1 0 -1 0 
1 0 0 0 -0 1 0 0 0 1 1 0 -0 
1 0 0 0.5 0 0 1 1 0 -0 -0 1 0 
1 0 0 0 -0.70710678118654757 -0 0.70710678118654757 0.70710678118654757 0 0.70710678118654757 -0 1 0 
1 0 1 0 -0 1 0 0 0 1 1 0 -0 
1 0 0 0 0 0 1 1 0 -0 -0 1 0 
1 1 0 0 1 0 -0 0 0 1 0 -1 0 
1 0 0 0 -0.70710678118654757 -0.70710678118654757 0 0.70710678118654757 -0.70710678118654757 0 0 0 1 
1 0 0 0 -0.70710678118654757 -0 0.70710678118654757 0.70710678118654757 0 0.70710678118654757 -0 1 0 
1 0 0 0 0.70710678118654746 -0 0.70710678118654768 0.70710678118654768 0 -0.70710678118654746 0 1 0 
1 0 0 0 0.70710678118654746 -0.70710678118654768 0 0.70710678118654768 0.70710678118654746 0 0 0 1 
1 0 0 0 0 0 1 1.0000000000000002 0 0 0 1 0 
1 0 0 0 -0.70710678118654757 -0.70710678118654757 0 0.70710678118654757 -0.70710678118654757 0 0 0 1 
1 0 0 0 0.70710678118654746 -0.70710678118654768 0 0.70710678118654768 0.70710678118654746 0 0 0 1 
4 0 0 0 0 0 1 0.70710678118654757 -0.70710678118654757 0 0.70710678118654757 0.70710678118654757 -0 1
4 0 0 0 0 1 0 0.70710678118654757 -0 0.70710678118654757 0.70710678118654757 0 -0.70710678118654757 1
4 0 0 0 0 0 1 0.70710678118654757 -0.70710678118654757 0 0.70710678118654757 0.70710678118654757 -0 1
4 0 0 0 0 1 0 0.70710678118654757 -0 0.70710678118654757 0.70710678118654757 0 -0.70710678118654757 1
1 1 1 -1 -1 -0 0 -0 -0 -1 -0 1 -0 
1 0 1 -1 -1 -0 0 -0 -0 -1 -0 1 -0 
1 1 1 -1 0 -1 -0 -0 -0 -1 -1 -0 0 
1 1 0 -1 0 -1 -0 -0 -0 -1 -1 -0 0 
1 1 1 -1 -0 -0 -1 -1 -0 0 0 -1 -0 
1 1 1 -1.5 -0 -0 -1 -1 -0 0 0 -1 -0 
4 0 0 -1 -0 -0 -1 -0.70710678118654757 0.70710678118654757 -0 -0.70710678118654757 -0.70710678118654757 0 1
1 0 0 -1 -0.70710678118654746 0.70710678118654768 -0 -0.70710678118654768 -0.70710678118654746 -0 -0 -0 -1 
1 0 0 -1 -0 -0 -1 -1.0000000000000002 -0 -0 -0 -1 -0 
1 0 0 -1 0.70710678118654757 0.70710678118654757 -0 -0.70710678118654757 0.70710678118654757 -0 -0 -0 -1 
1 0 0 -1 0.70710678118654757 0 -0.70710678118654757 -0.70710678118654757 -0 -0.70710678118654757 0 -1 -0 
4 0 0 -1 -0 -0 -1 -0.70710678118654757 0.70710678118654757 -0 -0.70710678118654757 -0.70710678118654757 -0 1
1 0 0 -1 -0.70710678118654746 0.70710678118654768 -0 -0.70710678118654768 -0.70710678118654746 -0 -0 -0 -1 
1 0 0 -1 -0 -0 -1 -1 -0 -0 -0 -1 -0 
1 0 0 -1 0.70710678118654757 0.70710678118654757 -0 -0.70710678118654757 0.70710678118654757 -0 -0 -0 -1 
1 0 0 -1 0.70710678118654757 -0 -0.70710678118654757 -0.70710678118654757 -0 -0.70710678118654757 -0 -1 -0 
1 -1.1102230246251565e-16 1 -1 -1 -0 -0 -0 -0 -1 -0 1 -0 
4 0 0 -1 -0 -0 -1 -0.70710678118654757 0.70710678118654757 -0 -0.70710678118654757 -0.70710678118654757 -0 1
1 0 0 -1 -0.70710678118654746 0.70710678118654768 -0 -0.70710678118654768 -0.70710678118654746 -0 -0 -0 -1 
1 0 0 -1 -0 -0 -1 -1 -0 -0 -0 -1 -0 
1 0 0 -1 0.70710678118654757 0.70710678118654757 -0 -0.70710678118654757 0.70710678118654757 -0 -0 -0 -1 
1 0 0 -1 0.70710678118654757 -0 -0.70710678118654757 -0.70710678118654757 -0 -0.70710678118654757 -0 -1 -0 
1 0 1 -1 -1 -0 -0 -0 -0 -1 -0 1 -0 
4 0 0 -1 -0 -0 -1 -0.70710678118654757 0.70710678118654757 -0 -0.70710678118654757 -0.70710678118654757 -0 1
1 0 0 -1 -0.70710678118654746 0.70710678118654768 -0 -0.70710678118654768 -0.70710678118654746 -0 -0 -0 -1 
1 0 0 -1 -0 -0 -1 -1 -0 -0 -0 -1 -0 
1 0 0 -1 0.70710678118654757 0.70710678118654757 -0 -0.70710678118654757 0.70710678118654757 -0 -0 -0 -1 
1 0 0 -1 0.70710678118654757 -0 -0.70710678118654757 -0.70710678118654757 -0 -0.70710678118654757 -0 -1 -0 
1 2.2204460492503131e-16 1 -1 -1 -0 -0 -0 -0 -1 -0 1 -0 
4 -1 0 -1.1102230246251565e-16 -0 -0 -1 -0.70710678118654757 0.70710678118654757 -0 -0.70710678118654757 -0.70710678118654757 -0 1
1 -1 0 -1.1102230246251565e-16 -0.70710678118654746 0.70710678118654768 -0 -0.70710678118654768 -0.70710678118654746 -0 -0 -0 -1 
1 -1 0 -1.1102230246251565e-16 -0.70710678118654746 -0 -0.70710678118654768 -0.70710678118654768 -0 0.70710678118654746 -0 -1 -0 
1 -1 0 -1.1102230246251565e-16 0.70710678118654757 0.70710678118654757 -0 -0.70710678118654757 0.70710678118654757 -0 -0 -0 -1 
1 -1 0 -1.1102230246251565e-16 0.70710678118654757 -0 -0.70710678118654757 -0.70710678118654757 -0 -0.70710678118654757 -0 -1 -0 
Triangulations 0

TShapes 377
Ve
1e-07
0 0 1
0 0

0101101
*
Ve
1e-07
0 0 0
0 0

0101101
*
Ed
 1e-07 1 1 0
1  1 0 0 1
2  1 1 0 0 1
2  2 2 0 0 1
0

0101000
-377 0 +376 0 *
Ve
1e-07
0 1 1
0 0

0101101
*
Ed
 1e-07 1 1 0
1  2 0 0 1
2  3 1 0 0 1
2  4 3 0 0 1
0

0101000
-374 0 +377 0 *
Ve
1e-07
0 1 0
0 0

0101101
*
Ed
 1e-07 1 1 0
1  3 0 0 1
2  5 1 0 0 1
2  6 4 0 0 1
0

0101000
-374 0 +372 0 *
Ed
 1e-07 1 1 0
1  4 0 0 1
2  7 1 0 0 1
2  8 5 0 0 1
0

0101000
-372 0 +376 0 *
Wi

0101100
-375 0 -373 0 +371 0 +370 0 *
Fa
0  1e-07 1 0

0111000
+369 0 *
Ve
1e-07
1 0 1
0 0

0101101
*
Ve
1e-07
1 0 0
0 0

0101101
*
Ed
 1e-07 1 1 0
1  5 0 0 1
2  9 6 0 0 1
2  10 2 0 0 1
0

0101000
-367 0 +366 0 *
Ve
1e-07
1 1 1
0 0

0101101
*
Ed
 1e-07 1 1 0
1  6 0 0 1
2  11 6 0 0 1
2  12 3 0 0 1
0

0101000
-364 0 +367 0 *
Ve
1e-07
1 1 0
0 0

0101101
*
Ed
 1e-07 1 1 0
1  7 0 0 1
2  13 6 0 0 1
2  14 4 0 0 1
0

0101000
-364 0 +362 0 *
Ed
 1e-07 1 1 0
1  8 0 0 1
2  15 6 0 0 1
2  16 5 0 0 1
0

0101000
-362 0 +366 0 *
Wi

0101100
-365 0 -363 0 +361 0 +360 0 *
Fa
0  1e-07 6 0

0111000
+359 0 *
Ed
 1e-07 1 1 0
1  9 0 0 1
2  17 2 0 0 1
2  18 5 0 0 1
0

0101000
-366 0 +376 0 *
Ed
 1e-07 1 1 0
1  10 0 0 1
2  19 2 0 0 1
2  20 3 0 0 1
0

0101000
-367 0 +377 0 *
Wi

0101100
-357 0 -365 0 +356 0 +375 0 *
Fa
0  1e-07 2 0

0111000
+355 0 *
Ed
 1e-07 1 1 0
1  11 0 0 1
2  21 4 0 0 1
2  22 5 0 0 1
0

0101000
-362 0 +372 0 *
Ed
 1e-07 1 1 0
1  12 0 0 1
2  23 4 0 0 1
2  24 3 0 0 1
0

0101000
-364 0 +374 0 *
Wi

0101100
-353 0 -361 0 +352 0 +371 0 *
Fa
0  1e-07 4 0

0111000
+351 0 *
Wi

0101100
-370 0 -353 0 +360 0 +357 0 *
Fa
0  1e-07 5 0

0111000
+349 0 *
Wi

0101100
-373 0 -352 0 +363 0 +356 0 *
Fa
0  1e-07 3 0

0111000
+347 0 *
Sh

0101100
-368 0 +358 0 -354 0 +350 0 -348 0 +346 0 *
So

0100000
+345 0 *
Ve
1.00000000078505e-07
-0.707106781186547 0.707106781186547 0
0 0

0101101
*
Ed
 1.00000000078505e-07 1 1 0
1  13 0 0 1
2  25 8 0 0 1
0

0101000
+343 0 -343 3 *
Ve
1e-07
-0.5 0.5 0
0 0

0101101
*
Ed
 1e-07 1 1 0
1  14 0 0 1
0

0101000
+341 0 -341 3 *
Ed
 1e-07 1 1 0
1  15 0 0 0.292893218813452
0

0101000
+343 0 -341 0 *
Wi

0101100
+342 0 -340 0 -339 0 +339 3 *
Fa
0  1e-07 7 0

0101000
+338 0 *
Ve
1e-07
0.5 0.5 0
0 0

0101101
*
Ed
 1e-07 1 1 0
1  16 0 0 1
0

0101000
+336 0 -336 3 *
Ed
 1e-07 1 1 0
1  17 0 0 1
0

0101000
+341 0 -336 0 *
Wi

0101100
+340 0 -335 0 -334 0 +334 3 *
Fa
0  1e-07 9 0

0101000
+333 0 *
Ve
1.00000000078505e-07
0.707106781186547 0.707106781186547 0
0 0

0101101
*
Ed
 1.00000000078505e-07 1 1 0
1  18 0 0 1
2  26 8 0 0 1
0

0101000
+331 0 -331 3 *
Ed
 1e-07 1 1 0
1  19 0 0 0.292893218813452
0

0101000
+336 0 -331 0 *
Wi

0101100
+335 0 -330 0 -329 0 +329 3 *
Fa
0  1e-07 10 0

0101000
+328 0 *
Ed
 1e-07 1 1 0
1  20 0 0 1.5707963267949
2  27 8 0 0 1.5707963267949
2  28 8 4 0 1.5707963267949
2  29 11 6 0 1.5707963267949
2  30 11 8 0 1.5707963267949
2  31 12 10 0 1.5707963267949
2  32 12 12 0 1.5707963267949
2  33 13 14 0 1.5707963267949
2  34 13 16 0 1.5707963267949
0

0101000
+343 0 -331 0 *
Wi

0101100
+342 0 -330 0 -326 0 +326 3 *
Fa
0  1e-07 8 0

0101000
+325 0 *
Wi

0101100
+339 0 +334 0 +329 0 -326 0 *
Fa
0  1e-07 14 0

0101000
+323 0 *
Sh

0101100
+337 0 +332 0 +327 0 -324 0 +322 0 -322 3 *
So

0100000
-321 0 *
Ed
 1.00000000078505e-07 1 1 0
1  21 0 0 1
2  35 11 0 0 1
0

0101000
+343 5 -343 17 *
Ed
 1e-07 1 1 0
1  22 0 0 1
0

0101000
+341 5 -341 17 *
Wi

0101100
+319 0 -318 0 -339 5 +339 17 *
Fa
0  1e-07 15 0

0101000
+317 0 *
Ed
 1e-07 1 1 0
1  23 0 0 1
0

0101000
+336 5 -336 17 *
Wi

0101100
+318 0 -315 0 -334 5 +334 17 *
Fa
0  1e-07 16 0

0101000
+314 0 *
Ed
 1.00000000078505e-07 1 1 0
1  24 0 0 1
2  36 11 0 0 1
0

0101000
+331 5 -331 17 *
Wi

0101100
+315 0 -312 0 -329 5 +329 17 *
Fa
0  1e-07 17 0

0101000
+311 0 *
Wi

0101100
+319 0 -312 0 -326 5 +326 17 *
Fa
0  1e-07 11 0

0101000
+309 0 *
Sh

0101100
+316 0 +313 0 +310 0 -308 0 +322 5 -322 17 *
So

0100000
-307 0 *
Ed
 1.00000000078505e-07 1 1 0
1  25 0 0 1
2  37 12 0 0 1
0

0101000
+343 18 -343 19 *
Ed
 1e-07 1 1 0
1  26 0 0 1
0

0101000
+341 18 -341 19 *
Wi

0101100
+305 0 -304 0 -339 18 +339 19 *
Fa
0  1e-07 18 0

0101000
+303 0 *
Ed
 1e-07 1 1 0
1  27 0 0 1
0

0101000
+336 18 -336 19 *
Wi

0101100
+304 0 -301 0 -334 18 +334 19 *
Fa
0  1e-07 19 0

0101000
+300 0 *
Ed
 1.00000000078505e-07 1 1 0
1  28 0 0 1
2  38 12 0 0 1
0

0101000
+331 18 -331 19 *
Wi

0101100
+301 0 -298 0 -329 18 +329 19 *
Fa
0  1e-07 20 0

0101000
+297 0 *
Wi

0101100
+305 0 -298 0 -326 18 +326 19 *
Fa
0  1e-07 12 0

0101000
+295 0 *
Sh

0101100
+302 0 +299 0 +296 0 -294 0 +322 18 -322 19 *
So

0100000
-293 0 *
Ed
 1.00000000078505e-07 1 1 0
1  29 0 0 1
2  39 13 0 0 1
0

0101000
+343 20 -343 21 *
Ed
 1e-07 1 1 0
1  30 0 0 1
0

0101000
+341 20 -341 21 *
Wi

0101100
+291 0 -290 0 -339 20 +339 21 *
Fa
0  1e-07 21 0

0101000
+289 0 *
Ed
 1e-07 1 1 0
1  31 0 0 1
0

0101000
+336 20 -336 21 *
Wi

0101100
+290 0 -287 0 -334 20 +334 21 *
Fa
0  1e-07 22 0

0101000
+286 0 *
Ed
 1.00000000078505e-07 1 1 0
1  32 0 0 1
2  40 13 0 0 1
0

0101000
+331 20 -331 21 *
Wi

0101100
+287 0 -284 0 -329 20 +329 21 *
Fa
0  1e-07 23 0

0101000
+283 0 *
Wi

0101100
+291 0 -284 0 -326 20 +326 21 *
Fa
0  1e-07 13 0

0101000
+281 0 *
Sh

0101100
+288 0 +285 0 +282 0 -280 0 +322 20 -322 21 *
So

0100000
-279 0 *
Co

0100000
+344 2 +320 0 +306 0 +292 0 +278 0 *
Ve
1.50000000175542e-07
0 0 0.5
0 0

0101101
*
Ve
1e-07
0 0 0
0 0

0101101
*
Ed
 1e-07 1 1 0
1  33 0 0 0.5
2  41 24 0 0 0.5
2  42 25 0 0 0.5
0

0101000
-276 0 +275 0 *
Ve
1.50000000222045e-07
0 1 0.5
0 0

0101101
*
Ed
 1.00000000124127e-07 1 1 0
1  34 0 0 1
2  43 24 0 0 1
2  44 26 0 0 1
2  45 27 25 0 1
0

0101000
-273 0 +276 0 *
Ve
1e-07
0 1 0
0 0

0101101
*
Ed
 1e-07 1 1 0
1  35 0 0 0.5
2  46 24 0 0 0.5
2  47 28 0 0 0.5
0

0101000
-273 0 +271 0 *
Ed
 1e-07 1 1 0
1  36 0 0 1
2  48 24 0 0 1
2  49 29 0 0 1
0

0101000
-271 0 +275 0 *
Wi

0101100
-274 0 -272 0 +270 0 +269 0 *
Fa
0  1e-07 24 0

0111000
+268 0 *
Ve
1.50000000157009e-07
1 0 0.5
0 0

0101101
*
Ve
1.50000000157009e-07
1 0 0
0 0

0101101
*
Ed
 1e-07 1 1 0
1  37 0 0 0.5
2  50 30 0 0 0.5
2  51 25 0 0 0.5
2  52 31 26 0 0.5
0

0101000
-266 0 +265 0 *
Ve
1.5000000018411e-07
1 1 0.5
0 0

0101101
*
Ed
 1e-07 1 1 0
1  38 0 0 1
2  53 30 0 0 1
2  54 26 0 0 1
2  55 32 26 0 1
2  56 33 25 0 1
0

0101000
-263 0 +266 0 *
Ve
1.50000000111022e-07
1 1 0
0 0

0101101
*
Ed
 1.00000000124127e-07 1 1 0
1  39 0 0 0.5
2  57 30 0 0 0.5
2  58 28 0 0 0.5
2  59 34 26 0 0.5
0

0101000
-263 0 +261 0 *
Ed
 1e-07 1 1 0
1  40 0 0 1
2  60 30 0 0 1
2  61 29 0 0 1
2  62 35 26 0 1
0

0101000
-261 0 +265 0 *
Wi

0101100
-264 0 -262 0 +260 0 +259 0 *
Fa
0  1e-07 30 0

0111000
+258 0 *
Ed
 1e-07 1 1 0
1  41 0 0 1
2  63 25 0 0 1
2  64 29 0 0 1
0

0101000
-265 0 +275 0 *
Ed
 1.00000000055511e-07 1 1 0
1  42 0 0 1
2  65 25 0 0 1
2  66 26 0 0 1
2  67 36 25 0 1
0

0101000
-266 0 +276 0 *
Wi

0101100
-256 0 -264 0 +255 0 +274 0 *
Fa
0  1e-07 25 0

0111000
+254 0 *
Ed
 1e-07 1 1 0
1  43 0 0 1
2  68 28 0 0 1
2  69 29 0 0 1
0

0101000
-261 0 +271 0 *
Ed
 1.00000000157009e-07 1 1 0
1  44 0 0 1
2  70 28 0 0 1
2  71 26 0 0 1
2  72 37 25 0 1
0

0101000
-263 0 +273 0 *
Wi

0101100
-252 0 -260 0 +251 0 +270 0 *
Fa
0  1e-07 28 0

0111000
+250 0 *
Wi

0101100
-269 0 -252 0 +259 0 +256 0 *
Fa
0  1e-07 29 0

0111000
+248 0 *
Wi

0101100
-272 0 -251 0 +262 0 +255 0 *
Fa
0  1e-07 26 0

0111000
+246 0 *
Sh

0101100
-267 0 +257 0 -253 0 +249 0 -247 0 +245 0 *
So

0100000
+244 0 *
Ve
1.50000018973371e-07
0.707106781186548 0.707106781186547 1.8973371343638e-14
0 0

0101101
*
Ve
1.50000035616709e-07
0.577350269189621 0.577350269189604 0.577350269189653
0 0

0101101
*
Ed
 1.00000000277556e-07 1 1 0
1  45 0 6.2831853071796 6.89866501585001
2  73 38 0 6.2831853071796 6.89866501585001
2  74 34 0 6.2831853071796 6.89866501585001
2  75 39 0 6.2831853071796 6.89866501585001
0

0101000
+242 0 -241 0 *
Ve
1.50000018974021e-07
0.707106781186547 -0.707106781186548 1.8973371343638e-14
0 0

0101101
*
Ed
 1.00000000194289e-07 1 1 0
1  46 0 5.49778714378214 7.06858347057703
2  76 39 0 5.49778714378214 7.06858347057703
2  77 35 0 5.49778714378214 7.06858347057703
2  78 38 0 5.49778714378214 7.06858347057703
0

0101000
+239 0 -242 0 *
Ve
1.50000036096081e-07
0.57735026918962 -0.577350269189603 0.577350269189654
0 0

0101101
*
Ed
 1.00000000333067e-07 1 1 0
1  47 0 6.2831853071796 6.89866501585001
2  79 38 0 6.2831853071796 6.89866501585001
2  74 31 0 6.2831853071796 6.89866501585001
2  80 39 0 6.2831853071796 6.89866501585001
0

0101000
+239 0 -237 0 *
Ed
 1.00000000318887e-07 1 1 0
1  48 0 5.66770559850923 6.89866501584995
2  81 39 0 5.66770559850923 6.89866501584995
2  77 32 0 5.66770559850923 6.89866501584995
2  82 38 0 5.66770559850923 6.89866501584995
0

0101000
+237 0 -241 0 *
Wi

0101100
+240 0 +238 0 -236 0 -235 0 *
Fa
0  1e-07 38 0

0101000
+234 0 *
Ed
 1.5e-07 1 1 0
1  49 0 -1 -0.707106781186548
2  83 34 0 -1 -0.707106781186548
2  84 35 0 -1 -0.707106781186548
0

0101000
+242 0 -261 23 *
Ed
 1.5e-07 1 1 0
1  50 0 -1 -0.866025403784439
2  85 34 0 -1 -0.866025403784439
2  86 32 0 -1 -0.866025403784439
0

0101000
+241 0 -263 23 *
Wi

0101100
+240 0 -232 0 -260 23 +231 0 *
Fa
0  1e-07 34 0

0101000
+230 0 *
Ed
 1.5e-07 1 1 0
1  51 0 -1 -0.707106781186548
2  87 31 0 -1 -0.707106781186548
2  88 35 0 -1 -0.707106781186548
0

0101000
+239 0 -265 23 *
Wi

0101100
+238 0 -228 0 -259 23 +232 0 *
Fa
0  1e-07 35 0

0101000
+227 0 *
Ed
 1.5e-07 1 1 0
1  52 0 -1 -0.866025403784439
2  89 31 0 -1 -0.866025403784439
2  90 32 0 -1 -0.866025403784439
0

0101000
+237 0 -266 23 *
Wi

0101100
+236 0 -228 0 -264 23 +225 0 *
Fa
0  1e-07 31 0

0101000
+224 0 *
Wi

0101100
+235 0 -225 0 -262 23 +231 0 *
Fa
0  1e-07 32 0

0101000
+222 0 *
Sh

0101100
+233 0 -229 0 -226 0 +223 0 +221 0 -257 23 *
So

0100000
+220 0 *
Co

0100000
+219 0 *
Ve
1.50000035445337e-07
0.577350269189621 0.577350269189604 -0.577350269189653
0 0

0101101
*
Ve
1.50000035616709e-07
0.577350269189621 0.577350269189604 0.577350269189653
0 0

0101101
*
Ed
 1.00000000173946e-07 1 1 0
1  53 0 5.66770559850917 6.89866501585001
2  91 40 0 5.66770559850917 6.89866501585001
2  92 37 0 5.66770559850917 6.89866501585001
2  93 41 0 5.66770559850917 6.89866501585001
0

0101000
+217 0 -216 0 *
Ve
1.50000034880091e-07
0.57735026918962 -0.577350269189604 -0.577350269189653
0 0

0101101
*
Ed
 1.00000000248253e-07 1 1 0
1  54 0 5.66770559850923 6.89866501584995
2  94 41 0 5.66770559850923 6.89866501584995
2  95 33 0 5.66770559850923 6.89866501584995
2  96 40 0 5.66770559850923 6.89866501584995
0

0101000
+214 0 -217 0 *
Ve
1.50000036096081e-07
0.57735026918962 -0.577350269189603 0.577350269189654
0 0

0101101
*
Ed
 1.00000000200148e-07 1 1 0
1  55 0 5.66770559850917 6.89866501585001
2  97 40 0 5.66770559850917 6.89866501585001
2  92 36 0 5.66770559850917 6.89866501585001
2  98 41 0 5.66770559850917 6.89866501585001
0

0101000
+214 0 -212 0 *
Ed
 1.00000000318887e-07 1 1 0
1  56 0 5.66770559850923 6.89866501584995
2  99 41 0 5.66770559850923 6.89866501584995
2  95 27 0 5.66770559850923 6.89866501584995
2  100 40 0 5.66770559850923 6.89866501584995
0

0101000
+212 0 -216 0 *
Wi

0101100
+215 0 +213 0 -211 0 -210 0 *
Fa
0  1e-07 40 0

0101000
+209 0 *
Ed
 1.5e-07 1 1 0
1  57 0 -1 -0.866025403784439
2  101 37 0 -1 -0.866025403784439
2  102 33 0 -1 -0.866025403784439
0

0101000
+217 0 -263 32 *
Ed
 1.5e-07 1 1 0
1  58 0 -1 -0.866025403784439
2  103 37 0 -1 -0.866025403784439
2  104 27 0 -1 -0.866025403784439
0

0101000
+216 0 -273 32 *
Wi

0101100
+215 24 -207 24 +251 23 +206 24 *
Fa
0  1e-07 37 24

0101000
+205 0 *
Ed
 1.5e-07 1 1 0
1  59 0 -1 -0.866025403784439
2  105 36 0 -1 -0.866025403784439
2  106 33 0 -1 -0.866025403784439
0

0101000
+214 0 -266 32 *
Wi

0101100
+213 24 -203 24 -262 23 +207 24 *
Fa
0  1e-07 33 24

0101000
+202 0 *
Ed
 1.5e-07 1 1 0
1  60 0 -1 -0.866025403784439
2  107 36 0 -1 -0.866025403784439
2  108 27 0 -1 -0.866025403784439
0

0101000
+212 0 -276 32 *
Wi

0101100
+211 24 -203 24 +255 23 +200 24 *
Fa
0  1e-07 36 24

0101000
+199 0 *
Wi

0101100
+210 24 -200 24 -272 23 +206 24 *
Fa
0  1e-07 27 24

0101000
+197 0 *
Sh

0101100
+208 24 -204 0 -201 0 +198 0 +196 0 -245 23 *
So

0100000
+195 0 *
Co

0100000
+194 0 *
Co

0100000
+243 23 +218 0 +218 27 +218 29 +218 31 +193 0 *
Ve
1.50000000175542e-07
0.5 0.5 -1
0 0

0101101
*
Ve
1e-07
0.5 0.5 -0.5
0 0

0101101
*
Ed
 1e-07 1 1 0
1  61 0 0 0.5
0

0101000
-191 33 +190 33 *
Ve
1.50000000222045e-07
0.5 -0.5 -1
0 0

0101101
*
Ed
 1.00000000124127e-07 1 1 0
1  62 0 0 1
0

0101000
-188 33 +191 33 *
Ve
1e-07
0.5 -0.5 -0.5
0 0

0101101
*
Ed
 1e-07 1 1 0
1  63 0 0 0.5
0

0101000
-188 33 +186 33 *
Ed
 1e-07 1 1 0
1  64 0 0 1
0

0101000
-186 33 +190 33 *
Wi

0101100
-189 0 -187 0 +185 0 +184 0 *
Fa
0  1e-07 42 0

0111000
+183 0 *
Ve
1.50000000157009e-07
-0.5 0.5 -1
0 0

0101101
*
Ve
1.50000000157009e-07
-0.5 0.5 -0.5
0 0

0101101
*
Ed
 1e-07 1 1 0
1  65 0 0 0.5
0

0101000
-181 33 +180 33 *
Ve
1.5000000018411e-07
-0.5 -0.5 -1
0 0

0101101
*
Ed
 1e-07 1 1 0
1  66 0 0 1
0

0101000
-178 33 +181 33 *
Ve
1.50000000111022e-07
-0.5 -0.5 -0.5
0 0

0101101
*
Ed
 1.00000000124127e-07 1 1 0
1  67 0 0 0.5
0

0101000
-178 33 +176 33 *
Ed
 1e-07 1 1 0
1  68 0 0 1
0

0101000
-176 33 +180 33 *
Wi

0101100
-179 0 -177 0 +175 0 +174 0 *
Fa
0  1e-07 43 0

0111000
+173 0 *
Ed
 1e-07 1 1 0
1  69 0 0 1
0

0101000
-180 33 +190 33 *
Ed
 1.00000000055511e-07 1 1 0
1  70 0 0 1
0

0101000
-181 33 +191 33 *
Wi

0101100
-171 0 -179 0 +170 0 +189 0 *
Fa
0  1e-07 44 0

0111000
+169 0 *
Ed
 1e-07 1 1 0
1  71 0 0 1
0

0101000
-176 33 +186 33 *
Ed
 1.00000000157009e-07 1 1 0
1  72 0 0 1
0

0101000
-178 33 +188 33 *
Wi

0101100
-167 0 -175 0 +166 0 +185 0 *
Fa
0  1e-07 45 0

0111000
+165 0 *
Wi

0101100
-184 0 -167 0 +174 0 +171 0 *
Fa
0  1e-07 46 0

0111000
+163 0 *
Wi

0101100
-187 0 -166 0 +177 0 +170 0 *
Fa
0  1e-07 47 0

0111000
+161 0 *
Sh

0101100
+182 0 -172 0 +168 0 -164 0 +162 0 -160 0 *
So

0100000
+159 0 *
Ve
1.50000018973371e-07
-0.707106781186548 -0.707106781186547 -0.500000000000019
0 0

0101101
*
Ve
1.50000035616709e-07
-0.577350269189621 -0.577350269189604 -1.07735026918965
0 0

0101101
*
Ed
 1.00000000277556e-07 1 1 0
1  73 0 6.2831853071796 6.89866501585001
2  73 48 0 6.2831853071796 6.89866501585001
0

0101000
+157 34 -156 34 *
Ve
1.50000018974021e-07
-0.707106781186547 0.707106781186548 -0.500000000000019
0 0

0101101
*
Ed
 1.00000000194289e-07 1 1 0
1  74 0 5.49778714378214 7.06858347057703
2  78 48 0 5.49778714378214 7.06858347057703
0

0101000
+154 34 -157 34 *
Ve
1.50000036096081e-07
-0.57735026918962 0.577350269189603 -1.07735026918965
0 0

0101101
*
Ed
 1.00000000333067e-07 1 1 0
1  75 0 6.2831853071796 6.89866501585001
2  79 48 0 6.2831853071796 6.89866501585001
0

0101000
+154 34 -152 34 *
Ed
 1.00000000318887e-07 1 1 0
1  76 0 5.66770559850923 6.89866501584995
2  82 48 0 5.66770559850923 6.89866501584995
0

0101000
+152 34 -156 34 *
Wi

0101100
+155 0 +153 0 -151 0 -150 0 *
Fa
0  1e-07 48 0

0101000
+149 0 *
Ed
 1.5e-07 1 1 0
1  77 0 -1 -0.707106781186548
0

0101000
+157 34 -176 34 *
Ed
 1.5e-07 1 1 0
1  78 0 -1 -0.866025403784439
0

0101000
+156 34 -178 34 *
Wi

0101100
+155 0 -147 0 -175 23 +146 0 *
Fa
0  1e-07 49 0

0101000
+145 0 *
Ed
 1.5e-07 1 1 0
1  79 0 -1 -0.707106781186548
0

0101000
+154 34 -180 34 *
Wi

0101100
+153 0 -143 0 -174 23 +147 0 *
Fa
0  1e-07 50 0

0101000
+142 0 *
Ed
 1.5e-07 1 1 0
1  80 0 -1 -0.866025403784439
0

0101000
+152 34 -181 34 *
Wi

0101100
+151 0 -143 0 -179 23 +140 0 *
Fa
0  1e-07 51 0

0101000
+139 0 *
Wi

0101100
+150 0 -140 0 -177 23 +146 0 *
Fa
0  1e-07 52 0

0101000
+137 0 *
Sh

0101100
-148 0 +144 0 +141 0 -138 0 -136 0 +172 23 *
So

0100000
+135 0 *
Co

0100000
+134 0 *
Ve
1.50000018973371e-07
0.707106781186547 -0.707106781186548 -0.500000000000019
0 0

0101101
*
Ve
1.50000035616709e-07
0.577350269189604 -0.577350269189621 -1.07735026918965
0 0

0101101
*
Ed
 1.00000000277556e-07 1 1 0
1  81 0 6.2831853071796 6.89866501585001
2  73 53 0 6.2831853071796 6.89866501585001
0

0101000
+132 35 -131 35 *
Ve
1.50000018974021e-07
-0.707106781186548 -0.707106781186547 -0.500000000000019
0 0

0101101
*
Ed
 1.00000000194289e-07 1 1 0
1  82 0 5.49778714378214 7.06858347057703
2  78 53 0 5.49778714378214 7.06858347057703
0

0101000
+129 35 -132 35 *
Ve
1.50000036096081e-07
-0.577350269189604 -0.57735026918962 -1.07735026918965
0 0

0101101
*
Ed
 1.00000000333067e-07 1 1 0
1  83 0 6.2831853071796 6.89866501585001
2  79 53 0 6.2831853071796 6.89866501585001
0

0101000
+129 35 -127 35 *
Ed
 1.00000000318887e-07 1 1 0
1  84 0 5.66770559850923 6.89866501584995
2  82 53 0 5.66770559850923 6.89866501584995
0

0101000
+127 35 -131 35 *
Wi

0101100
+130 0 +128 0 -126 0 -125 0 *
Fa
0  1e-07 53 0

0101000
+124 0 *
Ve
1.50000000111022e-07
0.5 -0.5 -0.5
0 0

0101101
*
Ed
 1.5e-07 1 1 0
1  85 0 -1 -0.707106781186548
0

0101000
+132 35 -122 35 *
Ve
1.5000000018411e-07
0.5 -0.5 -1
0 0

0101101
*
Ed
 1.00000000124127e-07 1 1 0
1  86 0 0 0.5
0

0101000
-120 36 +122 36 *
Ed
 1.5e-07 1 1 0
1  87 0 -1 -0.866025403784439
0

0101000
+131 35 -120 35 *
Wi

0101100
+130 0 -121 0 -119 23 +118 0 *
Fa
0  1e-07 54 0

0101000
+117 0 *
Ve
1.50000000157009e-07
-0.5 -0.5 -0.5
0 0

0101101
*
Ed
 1.5e-07 1 1 0
1  88 0 -1 -0.707106781186548
0

0101000
+129 35 -115 35 *
Ed
 1e-07 1 1 0
1  89 0 0 1
0

0101000
-122 36 +115 36 *
Wi

0101100
+128 0 -114 0 -113 23 +121 0 *
Fa
0  1e-07 55 0

0101000
+112 0 *
Ve
1.50000000157009e-07
-0.5 -0.5 -1
0 0

0101101
*
Ed
 1e-07 1 1 0
1  90 0 0 0.5
0

0101000
-110 36 +115 36 *
Ed
 1.5e-07 1 1 0
1  91 0 -1 -0.866025403784439
0

0101000
+127 35 -110 35 *
Wi

0101100
+126 0 -114 0 -109 23 +108 0 *
Fa
0  1e-07 56 0

0101000
+107 0 *
Ed
 1e-07 1 1 0
1  92 0 0 1
0

0101000
-120 36 +110 36 *
Wi

0101100
+125 0 -108 0 -105 23 +118 0 *
Fa
0  1e-07 57 0

0101000
+104 0 *
Wi

0101100
-109 0 -105 0 +119 0 +113 0 *
Fa
0  1e-07 58 0

0111000
+102 0 *
Sh

0101100
-123 0 +116 0 +111 0 -106 0 -103 0 +101 23 *
So

0100000
+100 0 *
Co

0100000
+99 0 *
Ve
1.50000018973371e-07
0.707106781186548 0.707106781186547 -0.500000000000019
0 0

0101101
*
Ve
1.50000035616709e-07
0.577350269189621 0.577350269189604 -1.07735026918965
0 0

0101101
*
Ed
 1.00000000277556e-07 1 1 0
1  93 0 6.2831853071796 6.89866501585001
2  73 59 0 6.2831853071796 6.89866501585001
0

0101000
+97 37 -96 37 *
Ve
1.50000018974021e-07
0.707106781186547 -0.707106781186548 -0.500000000000019
0 0

0101101
*
Ed
 1.00000000194289e-07 1 1 0
1  94 0 5.49778714378214 7.06858347057703
2  78 59 0 5.49778714378214 7.06858347057703
0

0101000
+94 37 -97 37 *
Ve
1.50000036096081e-07
0.57735026918962 -0.577350269189604 -1.07735026918965
0 0

0101101
*
Ed
 1.00000000333067e-07 1 1 0
1  95 0 6.2831853071796 6.89866501585001
2  79 59 0 6.2831853071796 6.89866501585001
0

0101000
+94 37 -92 37 *
Ed
 1.00000000318887e-07 1 1 0
1  96 0 5.66770559850923 6.89866501584995
2  82 59 0 5.66770559850923 6.89866501584995
0

0101000
+92 37 -96 37 *
Wi

0101100
+95 0 +93 0 -91 0 -90 0 *
Fa
0  1e-07 59 0

0101000
+89 0 *
Ve
1.50000000111022e-07
0.5 0.5 -0.5
0 0

0101101
*
Ed
 1.5e-07 1 1 0
1  97 0 -1 -0.707106781186548
0

0101000
+97 37 -87 37 *
Ve
1.5000000018411e-07
0.5 0.5 -1
0 0

0101101
*
Ed
 1.00000000124127e-07 1 1 0
1  98 0 0 0.5
0

0101000
-85 38 +87 38 *
Ed
 1.5e-07 1 1 0
1  99 0 -1 -0.866025403784439
0

0101000
+96 37 -85 37 *
Wi

0101100
+95 0 -86 0 -84 23 +83 0 *
Fa
0  1e-07 60 0

0101000
+82 0 *
Ve
1.50000000157009e-07
0.5 -0.5 -0.5
0 0

0101101
*
Ed
 1.5e-07 1 1 0
1  100 0 -1 -0.707106781186548
0

0101000
+94 37 -80 37 *
Ed
 1e-07 1 1 0
1  101 0 0 1
0

0101000
-87 38 +80 38 *
Wi

0101100
+93 0 -79 0 -78 23 +86 0 *
Fa
0  1e-07 61 0

0101000
+77 0 *
Ve
1.50000000157009e-07
0.5 -0.5 -1
0 0

0101101
*
Ed
 1e-07 1 1 0
1  102 0 0 0.5
0

0101000
-75 38 +80 38 *
Ed
 1.5e-07 1 1 0
1  103 0 -1 -0.866025403784439
0

0101000
+92 37 -75 37 *
Wi

0101100
+91 0 -79 0 -74 23 +73 0 *
Fa
0  1e-07 62 0

0101000
+72 0 *
Ed
 1e-07 1 1 0
1  104 0 0 1
0

0101000
-85 38 +75 38 *
Wi

0101100
+90 0 -73 0 -70 23 +83 0 *
Fa
0  1e-07 63 0

0101000
+69 0 *
Wi

0101100
-74 0 -70 0 +84 0 +78 0 *
Fa
0  1e-07 64 0

0111000
+67 0 *
Sh

0101100
-88 0 +81 0 +76 0 -71 0 -68 0 +66 23 *
So

0100000
+65 0 *
Co

0100000
+64 0 *
Ve
1.50000018973371e-07
-0.707106781186547 0.707106781186548 -0.500000000000019
0 0

0101101
*
Ve
1.50000035616709e-07
-0.577350269189603 0.577350269189621 -1.07735026918965
0 0

0101101
*
Ed
 1.00000000277556e-07 1 1 0
1  105 0 6.2831853071796 6.89866501585001
2  73 65 0 6.2831853071796 6.89866501585001
0

0101000
+62 39 -61 39 *
Ve
1.50000018974021e-07
0.707106781186548 0.707106781186547 -0.500000000000019
0 0

0101101
*
Ed
 1.00000000194289e-07 1 1 0
1  106 0 5.49778714378214 7.06858347057703
2  78 65 0 5.49778714378214 7.06858347057703
0

0101000
+59 39 -62 39 *
Ve
1.50000036096081e-07
0.577350269189604 0.57735026918962 -1.07735026918965
0 0

0101101
*
Ed
 1.00000000333067e-07 1 1 0
1  107 0 6.2831853071796 6.89866501585001
2  79 65 0 6.2831853071796 6.89866501585001
0

0101000
+59 39 -57 39 *
Ed
 1.00000000318887e-07 1 1 0
1  108 0 5.66770559850923 6.89866501584995
2  82 65 0 5.66770559850923 6.89866501584995
0

0101000
+57 39 -61 39 *
Wi

0101100
+60 0 +58 0 -56 0 -55 0 *
Fa
0  1e-07 65 0

0101000
+54 0 *
Ve
1.50000000111022e-07
-0.5 0.5 -0.5
0 0

0101101
*
Ed
 1.5e-07 1 1 0
1  109 0 -1 -0.707106781186548
0

0101000
+62 39 -52 39 *
Ve
1.5000000018411e-07
-0.5 0.5 -1
0 0

0101101
*
Ed
 1.00000000124127e-07 1 1 0
1  110 0 0 0.5
0

0101000
-50 40 +52 40 *
Ed
 1.5e-07 1 1 0
1  111 0 -1 -0.866025403784439
0

0101000
+61 39 -50 39 *
Wi

0101100
+60 0 -51 0 -49 23 +48 0 *
Fa
0  1e-07 66 0

0101000
+47 0 *
Ve
1.50000000157009e-07
0.5 0.5 -0.5
0 0

0101101
*
Ed
 1.5e-07 1 1 0
1  112 0 -1 -0.707106781186548
0

0101000
+59 39 -45 39 *
Ed
 1e-07 1 1 0
1  113 0 0 1
0

0101000
-52 40 +45 40 *
Wi

0101100
+58 0 -44 0 -43 23 +51 0 *
Fa
0  1e-07 67 0

0101000
+42 0 *
Ve
1.50000000157009e-07
0.5 0.5 -1
0 0

0101101
*
Ed
 1e-07 1 1 0
1  114 0 0 0.5
0

0101000
-40 40 +45 40 *
Ed
 1.5e-07 1 1 0
1  115 0 -1 -0.866025403784439
0

0101000
+57 39 -40 39 *
Wi

0101100
+56 0 -44 0 -39 23 +38 0 *
Fa
0  1e-07 68 0

0101000
+37 0 *
Ed
 1e-07 1 1 0
1  116 0 0 1
0

0101000
-50 40 +40 40 *
Wi

0101100
+55 0 -38 0 -35 23 +48 0 *
Fa
0  1e-07 69 0

0101000
+34 0 *
Wi

0101100
-39 0 -35 0 +49 0 +43 0 *
Fa
0  1e-07 70 0

0111000
+32 0 *
Sh

0101100
-53 0 +46 0 +41 0 -36 0 -33 0 +31 23 *
So

0100000
+30 0 *
Co

0100000
+29 0 *
Ve
1.50000035445337e-07
-0.577350269189653 -0.577350269189604 -1.07735026918962
0 0

0101101
*
Ve
1.50000035616709e-07
0.577350269189653 -0.577350269189604 -1.07735026918962
0 0

0101101
*
Ed
 1.00000000173946e-07 1 1 0
1  117 0 5.66770559850917 6.89866501585001
2  91 71 0 5.66770559850917 6.89866501585001
0

0101000
+27 41 -26 41 *
Ve
1.50000034880091e-07
-0.577350269189653 0.577350269189604 -1.07735026918962
0 0

0101101
*
Ed
 1.00000000248253e-07 1 1 0
1  118 0 5.66770559850923 6.89866501584995
2  96 71 0 5.66770559850923 6.89866501584995
0

0101000
+24 41 -27 41 *
Ve
1.50000036096081e-07
0.577350269189653 0.577350269189603 -1.07735026918962
0 0

0101101
*
Ed
 1.00000000200148e-07 1 1 0
1  119 0 5.66770559850917 6.89866501585001
2  97 71 0 5.66770559850917 6.89866501585001
0

0101000
+24 41 -22 41 *
Ed
 1.00000000318887e-07 1 1 0
1  120 0 5.66770559850923 6.89866501584995
2  100 71 0 5.66770559850923 6.89866501584995
0

0101000
+22 41 -26 41 *
Wi

0101100
+25 0 +23 0 -21 0 -20 0 *
Fa
0  1e-07 71 0

0101000
+19 0 *
Ed
 1.5e-07 1 1 0
1  121 0 -1 -0.866025403784439
0

0101000
+27 41 -178 41 *
Ed
 1.5e-07 1 1 0
1  122 0 -1 -0.866025403784439
0

0101000
+26 41 -188 41 *
Wi

0101100
+25 24 -17 24 +166 23 +16 24 *
Fa
0  1e-07 72 24

0101000
+15 0 *
Ed
 1.5e-07 1 1 0
1  123 0 -1 -0.866025403784439
0

0101000
+24 41 -181 41 *
Wi

0101100
+23 24 -13 24 -177 23 +17 24 *
Fa
0  1e-07 73 24

0101000
+12 0 *
Ed
 1.5e-07 1 1 0
1  124 0 -1 -0.866025403784439
0

0101000
+22 41 -191 41 *
Wi

0101100
+21 24 -13 24 +170 23 +10 24 *
Fa
0  1e-07 74 24

0101000
+9 0 *
Wi

0101100
+20 24 -10 24 -187 23 +16 24 *
Fa
0  1e-07 75 24

0101000
+7 0 *
Sh

0101100
-18 24 +14 0 +11 0 -8 0 -6 0 +160 23 *
So

0100000
+5 0 *
Co

0100000
+4 0 *
Co

0100000
+158 23 +133 0 +98 27 +63 29 +28 31 +3 0 *
Co

1100000
+277 1 +192 22 +2 22 *

+1 0 